<svg xmlns="http://www.w3.org/2000/svg" xmlns:svg="http://www.w3.org/2000/svg" style="enable-background:new 0 0 47.5 47.5" id="svg2" version="1.1" viewBox="0 0 47.5 47.5" xml:space="preserve"><metadata id="metadata8"/><defs id="defs6"><clipPath id="clipPath16" clipPathUnits="userSpaceOnUse"><path id="path18" d="M 0,38 38,38 38,0 0,0 0,38 Z"/></clipPath></defs><g id="g10" transform="matrix(1.25,0,0,-1.25,0,47.5)"><g id="g12"><g id="g14" clip-path="url(#clipPath16)"><g id="g20" transform="translate(37,5)"><path id="path22" d="m 0,0 c 0,-2.209 -1.791,-4 -4,-4 l -28,0 c -2.209,0 -4,1.791 -4,4 l 0,28 c 0,2.209 1.791,4 4,4 l 28,0 c 2.209,0 4,-1.791 4,-4 L 0,0 Z" style="fill:#be1931;fill-opacity:1;fill-rule:nonzero;stroke:none"/></g><g id="g24" transform="translate(25.0156,18.999)"><path id="path26" d="m 0,0 c 0,3.872 -2.016,7.36 -6.016,7.36 -4,0 -6.015,-3.488 -6.015,-7.36 0,-3.903 1.951,-7.359 6.015,-7.359 C -1.951,-7.359 0,-3.903 0,0 m -17.023,0 c 0,6.656 4.48,11.776 11.007,11.776 6.432,0 11.008,-5.28 11.008,-11.776 0,-6.623 -4.449,-11.774 -11.008,-11.774 -6.495,0 -11.007,5.151 -11.007,11.774" style="fill:#fff;fill-opacity:1;fill-rule:nonzero;stroke:none"/></g></g></g></g></svg>