<svg xmlns="http://www.w3.org/2000/svg" xmlns:svg="http://www.w3.org/2000/svg" style="enable-background:new 0 0 47.5 47.5" id="svg2" version="1.1" viewBox="0 0 47.5 47.5" xml:space="preserve"><metadata id="metadata8"/><defs id="defs6"><clipPath id="clipPath16" clipPathUnits="userSpaceOnUse"><path id="path18" d="M 0,38 38,38 38,0 0,0 0,38 Z"/></clipPath></defs><g id="g10" transform="matrix(1.25,0,0,-1.25,0,47.5)"><g id="g12"><g id="g14" clip-path="url(#clipPath16)"><g id="g20" transform="translate(37,5)"><path id="path22" d="m 0,0 c 0,-2.209 -1.791,-4 -4,-4 l -28,0 c -2.209,0 -4,1.791 -4,4 l 0,28 c 0,2.209 1.791,4 4,4 l 28,0 c 2.209,0 4,-1.791 4,-4 L 0,0 Z" style="fill:#269;fill-opacity:1;fill-rule:nonzero;stroke:none"/></g><g id="g24" transform="translate(17,19)"><path id="path26" d="m 0,0 3.063,0 c 2.017,0 3.296,1.465 3.296,3.385 0,1.92 -1.279,3.391 -3.296,3.391 L 0,6.776 0,0 Z M -5,8.504 C -5,10.008 -4.104,11 -2.504,11 l 5.664,0 c 4.703,0 8.192,-2.944 8.192,-7.52 0,-4.67 -3.618,-7.48 -8,-7.48 L 0,-4 0,-9.479 c 0,-1.599 -1.024,-2.496 -2.4,-2.496 -1.376,0 -2.6,0.897 -2.6,2.496 l 0,17.983 z" style="fill:#fff;fill-opacity:1;fill-rule:nonzero;stroke:none"/></g></g></g></g></svg>