<svg xmlns="http://www.w3.org/2000/svg" xmlns:svg="http://www.w3.org/2000/svg" style="enable-background:new 0 0 47.5 47.5" id="svg2" version="1.1" viewBox="0 0 47.5 47.5" xml:space="preserve"><metadata id="metadata8"/><defs id="defs6"><clipPath id="clipPath16" clipPathUnits="userSpaceOnUse"><path id="path18" d="M 0,38 38,38 38,0 0,0 0,38 Z"/></clipPath></defs><g id="g10" transform="matrix(1.25,0,0,-1.25,0,47.5)"><g id="g12"><g id="g14" clip-path="url(#clipPath16)"><g id="g20" transform="translate(37,5)"><path id="path22" d="m 0,0 c 0,-2.209 -1.791,-4 -4,-4 l -28,0 c -2.209,0 -4,1.791 -4,4 l 0,28 c 0,2.209 1.791,4 4,4 l 28,0 c 2.209,0 4,-1.791 4,-4 L 0,0 Z" style="fill:#dd2e44;fill-opacity:1;fill-rule:nonzero;stroke:none"/></g><g id="g24" transform="translate(16.1489,12.0928)"><path id="path26" d="m 0,0 3.659,0 c 1.674,0 2.915,0.961 2.915,2.697 0,1.458 -1.117,2.45 -3.287,2.45 L 0,5.147 0,0 Z m 0,9.24 2.419,0 c 1.519,0 2.511,0.899 2.511,2.449 0,1.457 -1.147,2.202 -2.511,2.202 L 0,13.891 0,9.24 Z m -4.65,6.418 c 0,1.488 1.023,2.325 2.449,2.325 l 5.953,0 c 3.224,0 5.83,-2.17 5.83,-5.457 0,-2.17 -0.901,-3.628 -2.885,-4.557 l 0,-0.063 c 2.636,-0.372 4.713,-2.573 4.713,-5.27 0,-4.372 -2.914,-6.729 -7.194,-6.729 l -6.386,0 c -1.427,0 -2.48,0.9 -2.48,2.357 l 0,17.394 z" style="fill:#fff;fill-opacity:1;fill-rule:nonzero;stroke:none"/></g></g></g></g></svg>