<svg xmlns="http://www.w3.org/2000/svg" xmlns:svg="http://www.w3.org/2000/svg" style="enable-background:new 0 0 47.5 47.5" id="svg2" version="1.1" viewBox="0 0 47.5 47.5" xml:space="preserve"><metadata id="metadata8"/><defs id="defs6"><clipPath id="clipPath16" clipPathUnits="userSpaceOnUse"><path id="path18" d="M 0,38 38,38 38,0 0,0 0,38 Z"/></clipPath></defs><g id="g10" transform="matrix(1.25,0,0,-1.25,0,47.5)"><g id="g12"><g id="g14" clip-path="url(#clipPath16)"><g id="g20" transform="translate(37,5)"><path id="path22" d="m 0,0 c 0,-2.209 -1.791,-4 -4,-4 l -28,0 c -2.209,0 -4,1.791 -4,4 l 0,28 c 0,2.209 1.791,4 4,4 l 28,0 c 2.209,0 4,-1.791 4,-4 L 0,0 Z" style="fill:#dd2e44;fill-opacity:1;fill-rule:nonzero;stroke:none"/></g><g id="g24" transform="translate(13.8101,30.4482)"><path id="path26" d="m 0,0 c 2.263,0 6.667,-0.744 6.667,-3.473 0,-1.116 -0.776,-2.077 -1.923,-2.077 -1.271,0 -2.14,1.085 -4.744,1.085 -3.845,0 -5.829,-3.256 -5.829,-7.038 0,-3.689 2.015,-6.852 5.829,-6.852 2.604,0 3.658,1.301 4.93,1.301 1.395,0 2.046,-1.394 2.046,-2.107 0,-2.977 -4.682,-3.659 -6.976,-3.659 -6.294,0 -10.666,4.992 -10.666,11.41 C -10.666,-4.961 -6.325,0 0,0" style="fill:#fff;fill-opacity:1;fill-rule:nonzero;stroke:none"/></g><g id="g28" transform="translate(22.332,27.8438)"><path id="path30" d="M 0,0 C 0,1.55 0.992,2.418 2.326,2.418 3.66,2.418 4.652,1.55 4.652,0 l 0,-15.564 5.518,0 c 1.582,0 2.264,-1.179 2.232,-2.233 -0.06,-1.023 -0.867,-2.047 -2.232,-2.047 l -7.75,0 C 0.9,-19.844 0,-18.852 0,-17.301 L 0,0 Z" style="fill:#fff;fill-opacity:1;fill-rule:nonzero;stroke:none"/></g></g></g></g></svg>