<svg xmlns="http://www.w3.org/2000/svg" xmlns:svg="http://www.w3.org/2000/svg" style="enable-background:new 0 0 47.5 47.5" id="svg2" version="1.1" viewBox="0 0 47.5 47.5" xml:space="preserve"><metadata id="metadata8"/><defs id="defs6"><clipPath id="clipPath16" clipPathUnits="userSpaceOnUse"><path id="path18" d="M 0,38 38,38 38,0 0,0 0,38 Z"/></clipPath></defs><g id="g10" transform="matrix(1.25,0,0,-1.25,0,47.5)"><g id="g12"><g id="g14" clip-path="url(#clipPath16)"><g id="g20" transform="translate(37,10)"><path id="path22" d="m 0,0 c 0,-2.209 -1.791,-4 -4,-4 l -28,0 c -2.209,0 -4,1.791 -4,4 l 0,18 c 0,2.209 1.791,4 4,4 l 28,0 c 2.209,0 4,-1.791 4,-4 L 0,0 Z" style="fill:#dd2e44;fill-opacity:1;fill-rule:nonzero;stroke:none"/></g><path id="path24" d="M 37,13 1,13 1,25 37,25 37,13 Z" style="fill:#ffcc4d;fill-opacity:1;fill-rule:nonzero;stroke:none"/><g id="g26" transform="translate(10,20)"><path id="path28" d="m 0,0 0,-3 c 0,-1.657 1.343,-3 3,-3 1.657,0 3,1.343 3,3 L 6,0 0,0 Z" style="fill:#ea596e;fill-opacity:1;fill-rule:nonzero;stroke:none"/></g><path id="path30" d="m 13,18 3,0 0,3 -3,0 0,-3 z" style="fill:#f4a2b2;fill-opacity:1;fill-rule:nonzero;stroke:none"/><path id="path32" d="m 13,18 -3,0 0,3 3,0 0,-3 z" style="fill:#dd2e44;fill-opacity:1;fill-rule:nonzero;stroke:none"/><g id="g34" transform="translate(16,22.5)"><path id="path36" d="m 0,0 c 0,-0.829 -1.343,-1.5 -3,-1.5 -1.657,0 -3,0.671 -3,1.5 0,0.829 1.343,1.5 3,1.5 1.657,0 3,-0.671 3,-1.5" style="fill:#ea596e;fill-opacity:1;fill-rule:nonzero;stroke:none"/></g><g id="g38" transform="translate(16,23.25)"><path id="path40" d="m 0,0 c 0,0.414 -1.343,0.75 -3,0.75 -1.657,0 -3,-0.336 -3,-0.75 0,-0.414 1.343,-0.75 3,-0.75 1.657,0 3,0.336 3,0.75" style="fill:#ffac33;fill-opacity:1;fill-rule:nonzero;stroke:none"/></g><path id="path42" d="m 8,14 1,0 0,7 -1,0 0,-7 z" style="fill:#99aab5;fill-opacity:1;fill-rule:nonzero;stroke:none"/><path id="path44" d="m 18,14 -1,0 0,7 1,0 0,-7 z" style="fill:#99aab5;fill-opacity:1;fill-rule:nonzero;stroke:none"/><path id="path46" d="m 10,14 -3,0 0,1 3,0 0,-1 z" style="fill:#66757f;fill-opacity:1;fill-rule:nonzero;stroke:none"/><path id="path48" d="m 19,14 -3,0 0,1 3,0 0,-1 z" style="fill:#66757f;fill-opacity:1;fill-rule:nonzero;stroke:none"/><path id="path50" d="m 9,21 -1,0 0,1 1,0 0,-1 z" style="fill:#66757f;fill-opacity:1;fill-rule:nonzero;stroke:none"/><path id="path52" d="m 18,21 -1,0 0,1 1,0 0,-1 z" style="fill:#66757f;fill-opacity:1;fill-rule:nonzero;stroke:none"/></g></g></g></svg>