<svg xmlns="http://www.w3.org/2000/svg" xmlns:svg="http://www.w3.org/2000/svg" style="enable-background:new 0 0 47.5 47.5" id="svg2" version="1.1" viewBox="0 0 47.5 47.5" xml:space="preserve"><metadata id="metadata8"/><defs id="defs6"><clipPath id="clipPath48" clipPathUnits="userSpaceOnUse"><path id="path50" d="M 0,38 38,38 38,0 0,0 0,38 Z"/></clipPath></defs><g id="g10" transform="matrix(1.25,0,0,-1.25,0,47.5)"><g id="g12" transform="translate(1,27.9409)"><path id="path14" d="m 0,0 0,-3.941 5.628,0 L 0,0 Z" style="fill:#269;fill-opacity:1;fill-rule:nonzero;stroke:none"/></g><g id="g16" transform="translate(5.6641,6)"><path id="path18" d="m 0,0 8.336,0 0,5.837 L 0,0 Z" style="fill:#269;fill-opacity:1;fill-rule:nonzero;stroke:none"/></g><g id="g20" transform="translate(24,11.8359)"><path id="path22" d="m 0,0 0,-5.836 8.335,0 L 0,0 Z" style="fill:#269;fill-opacity:1;fill-rule:nonzero;stroke:none"/></g><g id="g24" transform="translate(1,14)"><path id="path26" d="M 0,0 0,-3.941 5.63,0 0,0 Z" style="fill:#269;fill-opacity:1;fill-rule:nonzero;stroke:none"/></g><g id="g28" transform="translate(32.3369,32)"><path id="path30" d="m 0,0 -8.337,0 0,-5.837 L 0,0 Z" style="fill:#269;fill-opacity:1;fill-rule:nonzero;stroke:none"/></g><g id="g32" transform="translate(37,10.0576)"><path id="path34" d="m 0,0 0,3.942 -5.631,0 L 0,0 Z" style="fill:#269;fill-opacity:1;fill-rule:nonzero;stroke:none"/></g><g id="g36" transform="translate(37,24)"><path id="path38" d="M 0,0 0,3.941 -5.629,0 0,0 Z" style="fill:#269;fill-opacity:1;fill-rule:nonzero;stroke:none"/></g><g id="g40" transform="translate(14,32)"><path id="path42" d="M 0,0 -8.336,0 0,-5.837 0,0 Z" style="fill:#269;fill-opacity:1;fill-rule:nonzero;stroke:none"/></g><g id="g44"><g id="g46" clip-path="url(#clipPath48)"><g id="g52" transform="translate(26.1396,14)"><path id="path54" d="m 0,0 9.712,-6.801 c 0.471,0.48 0.808,1.082 0.99,1.749 L 3.487,0 0,0 Z" style="fill:#dd2e44;fill-opacity:1;fill-rule:nonzero;stroke:none"/></g><g id="g56" transform="translate(14,14)"><path id="path58" d="m 0,0 -2.141,0 -9.711,-6.8 c 0.521,-0.53 1.189,-0.909 1.938,-1.085 L 0,-0.943 0,0 Z" style="fill:#dd2e44;fill-opacity:1;fill-rule:nonzero;stroke:none"/></g><g id="g60" transform="translate(24,24)"><path id="path62" d="m 0,0 2.141,0 9.711,6.8 C 11.331,7.33 10.663,7.709 9.915,7.885 L 0,0.943 0,0 Z" style="fill:#dd2e44;fill-opacity:1;fill-rule:nonzero;stroke:none"/></g><g id="g64" transform="translate(11.8589,24)"><path id="path66" d="M 0,0 -9.711,6.8 C -10.182,6.32 -10.519,5.718 -10.702,5.051 L -3.487,0 0,0 Z" style="fill:#dd2e44;fill-opacity:1;fill-rule:nonzero;stroke:none"/></g><g id="g68" transform="translate(37,16)"><path id="path70" d="m 0,0 -15,0 0,-10 2,0 0,5.836 L -4.665,-10 -4,-10 c 1.117,0 2.126,0.461 2.852,1.199 L -10.86,-2 l 3.487,0 7.215,-5.052 C -0.065,-6.715 0,-6.366 0,-6 L 0,-5.942 -5.631,-2 0,-2 0,0 Z" style="fill:#eee;fill-opacity:1;fill-rule:nonzero;stroke:none"/></g><g id="g72" transform="translate(1,16)"><path id="path74" d="M 0,0 0,-2 5.63,-2 0,-5.941 0,-6 C 0,-7.091 0.439,-8.078 1.148,-8.8 L 10.859,-2 13,-2 13,-2.943 3.086,-9.885 C 3.38,-9.954 3.684,-10 4,-10 L 4.664,-10 13,-4.163 13,-10 15,-10 15,0 0,0 Z" style="fill:#eee;fill-opacity:1;fill-rule:nonzero;stroke:none"/></g><g id="g76" transform="translate(37,28)"><path id="path78" d="M 0,0 C 0,1.091 -0.439,2.078 -1.148,2.8 L -10.859,-4 -13,-4 l 0,0.943 9.915,6.942 C -3.38,3.954 -3.684,4 -4,4 L -4.663,4 -13,-1.837 -13,4 -15,4 -15,-6 0,-6 0,-4 -5.629,-4 0,-0.059 0,0 Z" style="fill:#eee;fill-opacity:1;fill-rule:nonzero;stroke:none"/></g><g id="g80" transform="translate(14,32)"><path id="path82" d="M 0,0 0,-5.837 -8.336,0 -9,0 c -1.118,0 -2.126,-0.461 -2.852,-1.2 l 9.711,-6.8 -3.487,0 -7.215,5.051 C -12.935,-3.286 -13,-3.634 -13,-4 L -13,-4.059 -7.372,-8 -13,-8 l 0,-2 15,0 0,10 -2,0 z" style="fill:#eee;fill-opacity:1;fill-rule:nonzero;stroke:none"/></g><g id="g84" transform="translate(22,22)"><path id="path86" d="m 0,0 0,10 -6,0 0,-10 -15,0 0,-3 0,-3 15,0 0,-10 6,0 0,10 15,0 0,3 0,3 -15,0 z" style="fill:#dd2e44;fill-opacity:1;fill-rule:nonzero;stroke:none"/></g></g></g></g></svg>