<svg xmlns="http://www.w3.org/2000/svg" xmlns:svg="http://www.w3.org/2000/svg" style="enable-background:new 0 0 47.5 47.5" id="svg2" version="1.1" viewBox="0 0 47.5 47.5" xml:space="preserve"><metadata id="metadata8"/><defs id="defs6"><clipPath id="clipPath16" clipPathUnits="userSpaceOnUse"><path id="path18" d="M 0,38 38,38 38,0 0,0 0,38 Z"/></clipPath></defs><g id="g10" transform="matrix(1.25,0,0,-1.25,0,47.5)"><g id="g12"><g id="g14" clip-path="url(#clipPath16)"><g id="g20" transform="translate(37,10)"><path id="path22" d="m 0,0 c 0,-2.209 -1.791,-4 -4,-4 l -28,0 c -2.209,0 -4,1.791 -4,4 l 0,18 c 0,2.209 1.791,4 4,4 l 28,0 c 2.209,0 4,-1.791 4,-4 L 0,0 Z" style="fill:#dd2e44;fill-opacity:1;fill-rule:nonzero;stroke:none"/></g><g id="g24" transform="translate(8,26.0488)"><path id="path26" d="M 0,0 0.929,-2.67 3.755,-2.729 1.502,-4.437 2.321,-7.143 0,-5.528 -2.321,-7.143 -1.502,-4.437 -3.755,-2.729 -0.929,-2.67 0,0 Z" style="fill:#ffd983;fill-opacity:1;fill-rule:nonzero;stroke:none"/></g><g id="g28" transform="translate(14,29.4722)"><path id="path30" d="M 0,0 0.34,-0.688 1.099,-0.798 0.55,-1.334 0.679,-2.09 0,-1.733 -0.679,-2.09 l 0.13,0.756 -0.55,0.536 0.76,0.11 L 0,0 Z" style="fill:#ffd983;fill-opacity:1;fill-rule:nonzero;stroke:none"/></g><g id="g32" transform="translate(16,25.4722)"><path id="path34" d="M 0,0 0.34,-0.688 1.099,-0.798 0.55,-1.334 0.679,-2.09 0,-1.733 -0.679,-2.09 l 0.13,0.756 -0.55,0.536 0.76,0.11 L 0,0 Z" style="fill:#ffd983;fill-opacity:1;fill-rule:nonzero;stroke:none"/></g><g id="g36" transform="translate(16,21.4722)"><path id="path38" d="M 0,0 0.34,-0.688 1.099,-0.798 0.55,-1.334 0.679,-2.09 0,-1.733 -0.679,-2.09 l 0.13,0.756 -0.55,0.536 0.76,0.11 L 0,0 Z" style="fill:#ffd983;fill-opacity:1;fill-rule:nonzero;stroke:none"/></g><g id="g40" transform="translate(14,17.4727)"><path id="path42" d="M 0,0 0.34,-0.688 1.099,-0.799 0.55,-1.334 0.679,-2.091 0,-1.734 l -0.679,-0.357 0.13,0.757 -0.55,0.535 0.76,0.111 L 0,0 Z" style="fill:#ffd983;fill-opacity:1;fill-rule:nonzero;stroke:none"/></g></g></g></g></svg>