<svg xmlns="http://www.w3.org/2000/svg" xmlns:svg="http://www.w3.org/2000/svg" style="enable-background:new 0 0 47.5 47.5" id="svg2" version="1.1" viewBox="0 0 47.5 47.5" xml:space="preserve"><metadata id="metadata8"/><defs id="defs6"><clipPath id="clipPath16" clipPathUnits="userSpaceOnUse"><path id="path18" d="M 0,38 38,38 38,0 0,0 0,38 Z"/></clipPath></defs><g id="g10" transform="matrix(1.25,0,0,-1.25,0,47.5)"><g id="g12"><g id="g14" clip-path="url(#clipPath16)"><g id="g20" transform="translate(37,5)"><path id="path22" d="m 0,0 c 0,-2.209 -1.791,-4 -4,-4 l -28,0 c -2.209,0 -4,1.791 -4,4 l 0,28 c 0,2.209 1.791,4 4,4 l 28,0 c 2.209,0 4,-1.791 4,-4 L 0,0 Z" style="fill:#3b88c3;fill-opacity:1;fill-rule:nonzero;stroke:none"/></g><g id="g24" transform="translate(13.2192,27.3789)"><path id="path26" d="m 0,0 c 0,1.55 0.775,2.697 2.418,2.697 l 7.689,0 c 1.488,0 2.202,-1.054 2.202,-2.139 0,-1.054 -0.744,-2.14 -2.202,-2.14 l -5.457,0 0,-4.526 5.086,0 c 1.519,0 2.264,-1.055 2.264,-2.14 0,-1.054 -0.776,-2.139 -2.264,-2.139 l -5.086,0 0,-4.713 5.736,0 c 1.489,0 2.201,-1.054 2.201,-2.139 0,-1.055 -0.744,-2.14 -2.201,-2.14 l -7.999,0 C 1.023,-19.379 0,-18.449 0,-17.054 L 0,0 Z" style="fill:#fff;fill-opacity:1;fill-rule:nonzero;stroke:none"/></g></g></g></g></svg>