<svg xmlns="http://www.w3.org/2000/svg" xmlns:svg="http://www.w3.org/2000/svg" style="enable-background:new 0 0 47.5 47.5" id="svg2" version="1.1" viewBox="0 0 47.5 47.5" xml:space="preserve"><metadata id="metadata8"/><defs id="defs6"><clipPath id="clipPath16" clipPathUnits="userSpaceOnUse"><path id="path18" d="M 0,38 38,38 38,0 0,0 0,38 Z"/></clipPath></defs><g id="g10" transform="matrix(1.25,0,0,-1.25,0,47.5)"><g id="g12"><g id="g14" clip-path="url(#clipPath16)"><g id="g20" transform="translate(37,5)"><path id="path22" d="m 0,0 c 0,-2.209 -1.791,-4 -4,-4 l -28,0 c -2.209,0 -4,1.791 -4,4 l 0,28 c 0,2.209 1.791,4 4,4 l 28,0 c 2.209,0 4,-1.791 4,-4 L 0,0 Z" style="fill:#3b88c3;fill-opacity:1;fill-rule:nonzero;stroke:none"/></g><g id="g24" transform="translate(16.0874,16.6191)"><path id="path26" d="M 0,0 5.891,0 3.008,8.992 2.946,8.992 0,0 Z m -0.341,11.256 c 0.528,1.426 1.737,2.573 3.318,2.573 1.643,0 2.791,-1.085 3.317,-2.573 l 6.078,-16.867 c 0.185,-0.496 0.248,-0.931 0.248,-1.148 0,-1.209 -0.993,-2.046 -2.139,-2.046 -1.303,0 -1.954,0.682 -2.264,1.612 l -0.93,2.915 -8.62,0 -0.93,-2.884 c -0.31,-0.961 -0.962,-1.643 -2.233,-1.643 -1.24,0 -2.294,0.93 -2.294,2.17 0,0.496 0.155,0.868 0.217,1.024 l 6.232,16.867 z" style="fill:#fff;fill-opacity:1;fill-rule:nonzero;stroke:none"/></g></g></g></g></svg>