<svg xmlns="http://www.w3.org/2000/svg" xmlns:svg="http://www.w3.org/2000/svg" style="enable-background:new 0 0 47.5 47.5" id="svg2" version="1.1" viewBox="0 0 47.5 47.5" xml:space="preserve"><metadata id="metadata8"/><defs id="defs6"><clipPath id="clipPath16" clipPathUnits="userSpaceOnUse"><path id="path18" d="M 0,38 38,38 38,0 0,0 0,38 Z"/></clipPath></defs><g id="g10" transform="matrix(1.25,0,0,-1.25,0,47.5)"><g id="g12"><g id="g14" clip-path="url(#clipPath16)"><g id="g20" transform="translate(37,10)"><path id="path22" d="m 0,0 c 0,-2.209 -1.791,-4 -4,-4 l -8,0 0,26 8,0 c 2.209,0 4,-1.791 4,-4 L 0,0 Z" style="fill:#dd2e44;fill-opacity:1;fill-rule:nonzero;stroke:none"/></g><g id="g24" transform="translate(5,32)"><path id="path26" d="m 0,0 c -2.209,0 -4,-1.791 -4,-4 l 0,-18 c 0,-2.209 1.791,-4 4,-4 l 8,0 0,26 -8,0 z" style="fill:#5c913b;fill-opacity:1;fill-rule:nonzero;stroke:none"/></g><path id="path28" d="M 25,6 13,6 13,32 25,32 25,6 Z" style="fill:#eee;fill-opacity:1;fill-rule:nonzero;stroke:none"/></g></g></g></svg>