<svg xmlns="http://www.w3.org/2000/svg" xmlns:svg="http://www.w3.org/2000/svg" style="enable-background:new 0 0 47.5 47.5" id="svg2" version="1.1" viewBox="0 0 47.5 47.5" xml:space="preserve"><metadata id="metadata8"/><defs id="defs6"><clipPath id="clipPath16" clipPathUnits="userSpaceOnUse"><path id="path18" d="M 0,38 38,38 38,0 0,0 0,38 Z"/></clipPath></defs><g id="g10" transform="matrix(1.25,0,0,-1.25,0,47.5)"><g id="g12"><g id="g14" clip-path="url(#clipPath16)"><g id="g20" transform="translate(37,5)"><path id="path22" d="m 0,0 c 0,-2.209 -1.791,-4 -4,-4 l -28,0 c -2.209,0 -4,1.791 -4,4 l 0,28 c 0,2.209 1.791,4 4,4 l 28,0 c 2.209,0 4,-1.791 4,-4 L 0,0 Z" style="fill:#3b88c3;fill-opacity:1;fill-rule:nonzero;stroke:none"/></g><g id="g24" transform="translate(9.9175,26.8828)"><path id="path26" d="m 0,0 c -0.155,0.403 -0.217,0.713 -0.217,1.147 0,1.302 1.147,2.232 2.387,2.232 1.055,0 1.705,-0.682 2.108,-1.519 L 9.084,-11.038 13.891,1.86 c 0.402,0.837 1.053,1.519 2.108,1.519 1.24,0 2.386,-0.93 2.386,-2.232 0,-0.434 -0.06,-0.744 -0.217,-1.147 l -6.789,-17.271 c -0.404,-0.992 -0.93,-1.797 -2.295,-1.797 -1.364,0 -1.891,0.805 -2.294,1.797 L 0,0 Z" style="fill:#fff;fill-opacity:1;fill-rule:nonzero;stroke:none"/></g></g></g></g></svg>