<svg xmlns="http://www.w3.org/2000/svg" xmlns:svg="http://www.w3.org/2000/svg" style="enable-background:new 0 0 47.5 47.5" id="svg2" version="1.1" viewBox="0 0 47.5 47.5" xml:space="preserve"><metadata id="metadata8"/><defs id="defs6"><clipPath id="clipPath16" clipPathUnits="userSpaceOnUse"><path id="path18" d="M 0,38 38,38 38,0 0,0 0,38 Z"/></clipPath></defs><g id="g10" transform="matrix(1.25,0,0,-1.25,0,47.5)"><g id="g12"><g id="g14" clip-path="url(#clipPath16)"><g id="g20" transform="translate(37,10)"><path id="path22" d="m 0,0 c 0,-2.209 -1.791,-4 -4,-4 l -28,0 c -2.209,0 -4,1.791 -4,4 l 0,18 c 0,2.209 1.791,4 4,4 l 28,0 c 2.209,0 4,-1.791 4,-4 L 0,0 Z" style="fill:#dd2e44;fill-opacity:1;fill-rule:nonzero;stroke:none"/></g><g id="g24" transform="translate(1.5547,8)"><path id="path26" d="m 0,0 34.891,0 c 0.343,0.591 0.554,1.268 0.554,2 l -36,0 C -0.555,1.268 -0.343,0.591 0,0" style="fill:#eee;fill-opacity:1;fill-rule:nonzero;stroke:none"/></g><path id="path28" d="m 37,12 -36,0 0,2 36,0 0,-2 z" style="fill:#eee;fill-opacity:1;fill-rule:nonzero;stroke:none"/><path id="path30" d="m 37,16 -36,0 0,2 36,0 0,-2 z" style="fill:#eee;fill-opacity:1;fill-rule:nonzero;stroke:none"/><path id="path32" d="m 37,20 -36,0 0,2 36,0 0,-2 z" style="fill:#eee;fill-opacity:1;fill-rule:nonzero;stroke:none"/><path id="path34" d="m 37,24 -36,0 0,2 36,0 0,-2 z" style="fill:#eee;fill-opacity:1;fill-rule:nonzero;stroke:none"/><g id="g36" transform="translate(1.5547,30)"><path id="path38" d="m 0,0 c -0.343,-0.59 -0.555,-1.268 -0.555,-2 l 36,0 c 0,0.732 -0.211,1.41 -0.554,2 L 0,0 Z" style="fill:#eee;fill-opacity:1;fill-rule:nonzero;stroke:none"/></g><g id="g40" transform="translate(19,32)"><path id="path42" d="m 0,0 -14,0 c -2.209,0 -4,-1.791 -4,-4 l 0,-10 18,0 0,14 z" style="fill:#3b88c3;fill-opacity:1;fill-rule:nonzero;stroke:none"/></g><path id="path44" d="m 15,28 2,0 0,2 -2,0 0,-2 z" style="fill:#bbddf5;fill-opacity:1;fill-rule:nonzero;stroke:none"/><path id="path46" d="m 13,26 2,0 0,2 -2,0 0,-2 z" style="fill:#bbddf5;fill-opacity:1;fill-rule:nonzero;stroke:none"/><path id="path48" d="m 17,24 -2,0 0,2 2,0 0,-2 z" style="fill:#bbddf5;fill-opacity:1;fill-rule:nonzero;stroke:none"/><path id="path50" d="m 13,22 2,0 0,2 -2,0 0,-2 z" style="fill:#bbddf5;fill-opacity:1;fill-rule:nonzero;stroke:none"/><path id="path52" d="m 13,28 -2,0 0,2 2,0 0,-2 z" style="fill:#bbddf5;fill-opacity:1;fill-rule:nonzero;stroke:none"/><path id="path54" d="m 13,24 -2,0 0,2 2,0 0,-2 z" style="fill:#bbddf5;fill-opacity:1;fill-rule:nonzero;stroke:none"/><path id="path56" d="m 9,22 2,0 0,2 -2,0 0,-2 z" style="fill:#bbddf5;fill-opacity:1;fill-rule:nonzero;stroke:none"/><path id="path58" d="m 11,26 -2,0 0,2 2,0 0,-2 z" style="fill:#bbddf5;fill-opacity:1;fill-rule:nonzero;stroke:none"/><path id="path60" d="m 7,28 2,0 0,2 -2,0 0,-2 z" style="fill:#bbddf5;fill-opacity:1;fill-rule:nonzero;stroke:none"/><path id="path62" d="m 5,26 2,0 0,2 -2,0 0,-2 z" style="fill:#bbddf5;fill-opacity:1;fill-rule:nonzero;stroke:none"/><path id="path64" d="m 7,24 2,0 0,2 -2,0 0,-2 z" style="fill:#bbddf5;fill-opacity:1;fill-rule:nonzero;stroke:none"/><path id="path66" d="m 5,22 2,0 0,2 -2,0 0,-2 z" style="fill:#bbddf5;fill-opacity:1;fill-rule:nonzero;stroke:none"/><path id="path68" d="m 3,30 2,0 0,-2 -2,0 0,2 z" style="fill:#bbddf5;fill-opacity:1;fill-rule:nonzero;stroke:none"/><path id="path70" d="m 3,24 2,0 0,2 -2,0 0,-2 z" style="fill:#bbddf5;fill-opacity:1;fill-rule:nonzero;stroke:none"/><path id="path72" d="m 17,20 -2,0 0,2 2,0 0,-2 z" style="fill:#bbddf5;fill-opacity:1;fill-rule:nonzero;stroke:none"/><path id="path74" d="m 13,20 -2,0 0,2 2,0 0,-2 z" style="fill:#bbddf5;fill-opacity:1;fill-rule:nonzero;stroke:none"/><path id="path76" d="m 7,20 2,0 0,2 -2,0 0,-2 z" style="fill:#bbddf5;fill-opacity:1;fill-rule:nonzero;stroke:none"/><path id="path78" d="m 3,20 2,0 0,2 -2,0 0,-2 z" style="fill:#bbddf5;fill-opacity:1;fill-rule:nonzero;stroke:none"/></g></g></g></svg>