<svg xmlns="http://www.w3.org/2000/svg" xmlns:svg="http://www.w3.org/2000/svg" style="enable-background:new 0 0 47.5 47.5" id="svg2" version="1.1" viewBox="0 0 47.5 47.5" xml:space="preserve"><metadata id="metadata8"/><defs id="defs6"><clipPath id="clipPath16" clipPathUnits="userSpaceOnUse"><path id="path18" d="M 0,38 38,38 38,0 0,0 0,38 Z"/></clipPath></defs><g id="g10" transform="matrix(1.25,0,0,-1.25,0,47.5)"><g id="g12"><g id="g14" clip-path="url(#clipPath16)"><g id="g20" transform="translate(37,5)"><path id="path22" d="m 0,0 c 0,-2.209 -1.791,-4 -4,-4 l -28,0 c -2.209,0 -4,1.791 -4,4 l 0,28 c 0,2.209 1.791,4 4,4 l 28,0 c 2.209,0 4,-1.791 4,-4 L 0,0 Z" style="fill:#3b88c3;fill-opacity:1;fill-rule:nonzero;stroke:none"/></g><g id="g24" transform="translate(25.2813,12.0928)"><path id="path26" d="M 0,0 C 1.301,0 2.232,-0.713 2.232,-2.046 2.232,-3.225 1.115,-4.093 0,-4.093 l -12.186,0 c -1.644,0 -2.605,0.93 -2.605,2.233 0,0.62 0.217,1.24 0.621,1.798 l 9.983,13.953 -8.154,0 c -1.241,0 -2.17,0.713 -2.17,1.984 0,1.178 0.992,2.108 2.17,2.108 l 11.349,0 c 1.797,0 2.603,-1.147 2.603,-2.232 0,-0.682 -0.279,-1.457 -0.681,-1.984 L -8.993,0 0,0 Z" style="fill:#fff;fill-opacity:1;fill-rule:nonzero;stroke:none"/></g></g></g></g></svg>