<svg xmlns="http://www.w3.org/2000/svg" xmlns:svg="http://www.w3.org/2000/svg" style="enable-background:new 0 0 47.5 47.5" id="svg2" version="1.1" viewBox="0 0 47.5 47.5" xml:space="preserve"><metadata id="metadata8"/><defs id="defs6"><clipPath id="clipPath16" clipPathUnits="userSpaceOnUse"><path id="path18" d="M 0,38 38,38 38,0 0,0 0,38 Z"/></clipPath></defs><g id="g10" transform="matrix(1.25,0,0,-1.25,0,47.5)"><g id="g12"><g id="g14" clip-path="url(#clipPath16)"><g id="g20" transform="translate(37,5)"><path id="path22" d="m 0,0 c 0,-2.209 -1.791,-4 -4,-4 l -28,0 c -2.209,0 -4,1.791 -4,4 l 0,28 c 0,2.209 1.791,4 4,4 l 28,0 c 2.209,0 4,-1.791 4,-4 L 0,0 Z" style="fill:#3b88c3;fill-opacity:1;fill-rule:nonzero;stroke:none"/></g><g id="g24" transform="translate(25.125,27.3477)"><path id="path26" d="m 0,0 c 0,-1.209 -0.806,-2.294 -2.076,-2.294 -1.272,0 -2.264,0.93 -4.125,0.93 -1.333,0 -2.542,-0.713 -2.542,-2.016 0,-3.193 10.356,-1.147 10.356,-9.146 0,-4.434 -3.659,-7.194 -7.938,-7.194 -2.387,0 -7.534,0.558 -7.534,3.473 0,1.209 0.806,2.201 2.077,2.201 1.457,0 3.194,-1.209 5.209,-1.209 2.047,0 3.163,1.148 3.163,2.667 0,3.658 -10.356,1.457 -10.356,8.65 0,4.341 3.565,7.039 7.689,7.039 C -4.34,3.101 0,2.449 0,0" style="fill:#fff;fill-opacity:1;fill-rule:nonzero;stroke:none"/></g></g></g></g></svg>