<svg xmlns="http://www.w3.org/2000/svg" xmlns:svg="http://www.w3.org/2000/svg" style="enable-background:new 0 0 47.5 47.5" id="svg2" version="1.1" viewBox="0 0 47.5 47.5" xml:space="preserve"><metadata id="metadata8"/><defs id="defs6"><clipPath id="clipPath16" clipPathUnits="userSpaceOnUse"><path id="path18" d="M 0,38 38,38 38,0 0,0 0,38 Z"/></clipPath></defs><g id="g10" transform="matrix(1.25,0,0,-1.25,0,47.5)"><g id="g12"><g id="g14" clip-path="url(#clipPath16)"><g id="g20" transform="translate(37,5)"><path id="path22" d="m 0,0 c 0,-2.209 -1.791,-4 -4,-4 l -28,0 c -2.209,0 -4,1.791 -4,4 l 0,28 c 0,2.209 1.791,4 4,4 l 28,0 c 2.209,0 4,-1.791 4,-4 L 0,0 Z" style="fill:#3b88c3;fill-opacity:1;fill-rule:nonzero;stroke:none"/></g><g id="g24" transform="translate(9.5913,27.8438)"><path id="path26" d="m 0,0 c 0,1.55 0.992,2.418 2.326,2.418 0.589,0 1.55,-0.465 1.953,-1.022 l 9.829,-13.117 0.062,0 0,11.721 c 0,1.55 0.993,2.418 2.325,2.418 1.334,0 2.326,-0.868 2.326,-2.418 l 0,-17.611 c 0,-1.551 -0.992,-2.418 -2.326,-2.418 -0.588,0 -1.519,0.465 -1.953,1.022 l -9.829,12.961 -0.062,0 0,-11.565 c 0,-1.551 -0.992,-2.418 -2.325,-2.418 -1.334,0 -2.326,0.867 -2.326,2.418 L 0,0 Z" style="fill:#fff;fill-opacity:1;fill-rule:nonzero;stroke:none"/></g></g></g></g></svg>