<svg xmlns="http://www.w3.org/2000/svg" xmlns:svg="http://www.w3.org/2000/svg" style="enable-background:new 0 0 47.5 47.5" id="svg2" version="1.1" viewBox="0 0 47.5 47.5" xml:space="preserve"><metadata id="metadata8"/><defs id="defs6"><clipPath id="clipPath16" clipPathUnits="userSpaceOnUse"><path id="path18" d="M 0,38 38,38 38,0 0,0 0,38 Z"/></clipPath></defs><g id="g10" transform="matrix(1.25,0,0,-1.25,0,47.5)"><g id="g12"><g id="g14" clip-path="url(#clipPath16)"><g id="g20" transform="translate(37,10)"><path id="path22" d="m 0,0 c 0,-2.209 -1.791,-4 -4,-4 l -28,0 c -2.209,0 -4,1.791 -4,4 l 0,18 c 0,2.209 1.791,4 4,4 l 28,0 c 2.209,0 4,-1.791 4,-4 L 0,0 Z" style="fill:#eee;fill-opacity:1;fill-rule:nonzero;stroke:none"/></g><g id="g24" transform="translate(19,19)"><path id="path26" d="M 0,0 Z" style="fill:#003478;fill-opacity:1;fill-rule:nonzero;stroke:none"/></g><g id="g28" transform="translate(22.4414,23.915)"><path id="path30" d="m 0,0 c -2.714,1.9 -6.455,1.24 -8.356,-1.474 -0.95,-1.356 -0.621,-3.227 0.737,-4.178 1.357,-0.95 3.227,-0.619 4.178,0.737 0.95,1.356 2.822,1.686 4.177,0.736 C 2.094,-5.129 2.424,-7 1.474,-8.356 3.375,-5.643 2.715,-1.902 0,0" style="fill:#c60c30;fill-opacity:1;fill-rule:nonzero;stroke:none"/></g><g id="g32" transform="translate(23.1777,19.7363)"><path id="path34" d="m 0,0 c -1.355,0.95 -3.228,0.62 -4.178,-0.736 -0.95,-1.357 -2.821,-1.687 -4.177,-0.738 -1.358,0.952 -1.687,2.823 -0.737,4.179 -1.902,-2.716 -1.241,-6.456 1.473,-8.356 2.715,-1.902 6.455,-1.242 8.356,1.473 C 1.687,-2.821 1.357,-0.95 0,0" style="fill:#003478;fill-opacity:1;fill-rule:nonzero;stroke:none"/></g><g id="g36" transform="translate(27.2637,13.7246)"><path id="path38" d="M 0,0 -1.929,-2.299 -1.163,-2.941 0.766,-0.643 0,0 Z" style="fill:#292f33;fill-opacity:1;fill-rule:nonzero;stroke:none"/></g><g id="g40" transform="translate(27.9063,14.4902)"><path id="path42" d="M 0,0 0.766,-0.643 2.693,1.654 1.928,2.298 0,0 Z" style="fill:#292f33;fill-opacity:1;fill-rule:nonzero;stroke:none"/></g><g id="g44" transform="translate(28.7949,12.4385)"><path id="path46" d="M 0,0 -1.928,-2.298 -1.162,-2.941 0.766,-0.644 0,0 Z" style="fill:#292f33;fill-opacity:1;fill-rule:nonzero;stroke:none"/></g><g id="g48" transform="translate(29.4375,13.2051)"><path id="path50" d="M 0,0 0.766,-0.644 2.695,1.654 1.929,2.297 0,0 Z" style="fill:#292f33;fill-opacity:1;fill-rule:nonzero;stroke:none"/></g><g id="g52" transform="translate(30.3271,11.1523)"><path id="path54" d="M 0,0 -1.929,-2.298 -1.162,-2.94 0.767,-0.643 0,0 Z" style="fill:#292f33;fill-opacity:1;fill-rule:nonzero;stroke:none"/></g><g id="g56" transform="translate(30.9697,11.9189)"><path id="path58" d="M 0,0 0.767,-0.643 2.694,1.655 1.929,2.298 0,0 Z" style="fill:#292f33;fill-opacity:1;fill-rule:nonzero;stroke:none"/></g><g id="g60" transform="translate(31.7363,26.7246)"><path id="path62" d="M 0,0 -0.766,-0.643 1.163,-2.941 1.93,-2.299 0,0 Z" style="fill:#292f33;fill-opacity:1;fill-rule:nonzero;stroke:none"/></g><g id="g64" transform="translate(31.0938,27.4902)"><path id="path66" d="M 0,0 -1.928,2.299 -2.693,1.656 -0.766,-0.643 0,0 Z" style="fill:#292f33;fill-opacity:1;fill-rule:nonzero;stroke:none"/></g><g id="g68" transform="translate(31.3672,22.498)"><path id="path70" d="M 0,0 -4.5,5.362 -3.733,6.005 0.766,0.643 0,0 Z" style="fill:#292f33;fill-opacity:1;fill-rule:nonzero;stroke:none"/></g><g id="g72" transform="translate(28.0293,24.9199)"><path id="path74" d="M 0,0 -1.928,2.298 -2.693,1.654 -0.766,-0.644 0,0 Z" style="fill:#292f33;fill-opacity:1;fill-rule:nonzero;stroke:none"/></g><g id="g76" transform="translate(28.6719,24.1533)"><path id="path78" d="M 0,0 -0.766,-0.644 1.163,-2.94 1.93,-2.298 0,0 Z" style="fill:#292f33;fill-opacity:1;fill-rule:nonzero;stroke:none"/></g><g id="g80" transform="translate(11.8994,10.7822)"><path id="path82" d="M 0,0 -4.499,5.363 -3.734,6.006 0.766,0.644 0,0 Z" style="fill:#292f33;fill-opacity:1;fill-rule:nonzero;stroke:none"/></g><g id="g84" transform="translate(8.562,13.2041)"><path id="path86" d="M 0,0 -1.928,2.299 -2.694,1.655 -0.766,-0.643 0,0 Z" style="fill:#292f33;fill-opacity:1;fill-rule:nonzero;stroke:none"/></g><g id="g88" transform="translate(9.2046,12.4385)"><path id="path90" d="M 0,0 -0.766,-0.644 1.163,-2.941 1.929,-2.299 0,0 Z" style="fill:#292f33;fill-opacity:1;fill-rule:nonzero;stroke:none"/></g><g id="g92" transform="translate(8.835,8.2119)"><path id="path94" d="M 0,0 -4.5,5.362 -3.733,6.005 0.766,0.643 0,0 Z" style="fill:#292f33;fill-opacity:1;fill-rule:nonzero;stroke:none"/></g><g id="g96" transform="translate(9.5996,29.146)"><path id="path98" d="m 0,0 -4.499,-5.362 -0.767,0.642 4.5,5.363 L 0,0 Z" style="fill:#292f33;fill-opacity:1;fill-rule:nonzero;stroke:none"/></g><g id="g100" transform="translate(11.1328,27.8604)"><path id="path102" d="M 0,0 -4.5,-5.362 -5.266,-4.72 -0.767,0.643 0,0 Z" style="fill:#292f33;fill-opacity:1;fill-rule:nonzero;stroke:none"/></g><g id="g104" transform="translate(12.6641,26.5747)"><path id="path106" d="m 0,0 -4.499,-5.362 -0.767,0.643 4.5,5.362 L 0,0 Z" style="fill:#292f33;fill-opacity:1;fill-rule:nonzero;stroke:none"/></g></g></g></g></svg>