<svg xmlns="http://www.w3.org/2000/svg" xmlns:svg="http://www.w3.org/2000/svg" style="enable-background:new 0 0 47.5 47.5" id="svg2" version="1.1" viewBox="0 0 47.5 47.5" xml:space="preserve"><metadata id="metadata8"/><defs id="defs6"><clipPath id="clipPath16" clipPathUnits="userSpaceOnUse"><path id="path18" d="M 0,38 38,38 38,0 0,0 0,38 Z"/></clipPath></defs><g id="g10" transform="matrix(1.25,0,0,-1.25,0,47.5)"><g id="g12"><g id="g14" clip-path="url(#clipPath16)"><g id="g20" transform="translate(37,5)"><path id="path22" d="m 0,0 c 0,-2.209 -1.791,-4 -4,-4 l -28,0 c -2.209,0 -4,1.791 -4,4 l 0,28 c 0,2.209 1.791,4 4,4 l 28,0 c 2.209,0 4,-1.791 4,-4 L 0,0 Z" style="fill:#3b88c3;fill-opacity:1;fill-rule:nonzero;stroke:none"/></g><g id="g24" transform="translate(10.9253,27.9678)"><path id="path26" d="M 0,0 C 0,1.271 0.93,2.294 2.325,2.294 3.658,2.294 4.65,1.426 4.65,0 l 0,-6.697 7.628,8.123 c 0.342,0.372 0.93,0.868 1.799,0.868 1.177,0 2.295,-0.898 2.295,-2.232 0,-0.806 -0.497,-1.458 -1.52,-2.48 l -5.861,-5.768 7.162,-7.472 c 0.744,-0.744 1.303,-1.426 1.303,-2.357 0,-1.457 -1.147,-2.138 -2.418,-2.138 -0.899,0 -1.489,0.526 -2.357,1.457 l -8.031,8.681 0,-7.906 c 0,-1.21 -0.929,-2.232 -2.325,-2.232 -1.333,0 -2.325,0.867 -2.325,2.232 L 0,0 Z" style="fill:#fff;fill-opacity:1;fill-rule:nonzero;stroke:none"/></g></g></g></g></svg>