<svg xmlns="http://www.w3.org/2000/svg" xmlns:svg="http://www.w3.org/2000/svg" style="enable-background:new 0 0 47.5 47.5" id="svg2" version="1.1" viewBox="0 0 47.5 47.5" xml:space="preserve"><metadata id="metadata8"/><defs id="defs6"><clipPath id="clipPath16" clipPathUnits="userSpaceOnUse"><path id="path18" d="M 0,38 38,38 38,0 0,0 0,38 Z"/></clipPath></defs><g id="g10" transform="matrix(1.25,0,0,-1.25,0,47.5)"><g id="g12"><g id="g14" clip-path="url(#clipPath16)"><g id="g20" transform="translate(37,5)"><path id="path22" d="m 0,0 c 0,-2.209 -1.791,-4 -4,-4 l -28,0 c -2.209,0 -4,1.791 -4,4 l 0,28 c 0,2.209 1.791,4 4,4 l 28,0 c 2.209,0 4,-1.791 4,-4 L 0,0 Z" style="fill:#f4900c;fill-opacity:1;fill-rule:nonzero;stroke:none"/></g><g id="g24" transform="translate(26.2217,14.7402)"><path id="path26" d="m 0,0 c 0.832,0 1.093,0.26 1.093,0.963 l 0,3.718 -7.541,0 L -6.448,0 0,0 Z m 1.093,6.501 0,3.25 c 0,0.702 -0.261,0.962 -1.093,0.962 l -6.448,0 0,-4.212 7.541,0 z m -16.641,-1.82 0,-3.718 C -15.548,0.26 -15.314,0 -14.457,0 l 5.981,0 0,4.681 -7.072,0 z m 1.091,6.032 c -0.857,0 -1.091,-0.26 -1.091,-0.962 l 0,-3.25 7.072,0 0,4.212 -5.981,0 z m 5.981,4.758 c 0,0.494 0.39,0.78 1.014,0.78 0.624,0 1.014,-0.286 1.014,-0.78 l 0,-2.938 7.125,0 c 1.69,0 2.391,-0.676 2.391,-2.288 l 0,-9.751 c 0,-1.611 -0.701,-2.314 -2.391,-2.314 l -7.125,0 0,-5.278 c 0,-0.519 -0.39,-0.779 -1.014,-0.779 -0.624,0 -1.014,0.26 -1.014,0.779 l 0,5.278 -6.656,0 c -1.691,0 -2.392,0.703 -2.392,2.314 l 0,9.751 c 0,1.612 0.701,2.288 2.392,2.288 l 6.656,0 0,2.938 z" style="fill:#fff;fill-opacity:1;fill-rule:nonzero;stroke:none"/></g></g></g></g></svg>