<svg xmlns="http://www.w3.org/2000/svg" xmlns:svg="http://www.w3.org/2000/svg" style="enable-background:new 0 0 47.5 47.5" id="svg2" version="1.1" viewBox="0 0 47.5 47.5" xml:space="preserve"><metadata id="metadata8"/><defs id="defs6"><clipPath id="clipPath16" clipPathUnits="userSpaceOnUse"><path id="path18" d="M 0,38 38,38 38,0 0,0 0,38 Z"/></clipPath><clipPath id="clipPath28" clipPathUnits="userSpaceOnUse"><path id="path30" d="M 5,37 C 1,37 1,33 1,33 L 1,33 1,5 C 1,1 5,1 5,1 l 0,0 28,0 c 4,0 4,4 4,4 l 0,0 0,28 c 0,4 -4,4 -4,4 l 0,0 -28,0 z"/></clipPath></defs><g id="g10" transform="matrix(1.25,0,0,-1.25,0,47.5)"><g id="g12"><g id="g14" clip-path="url(#clipPath16)"><g id="g20" transform="translate(1,33)"><path id="path22" d="m 0,0 c 0,0 0,4 4,4 l 28,0 c 0,0 4,0 4,-4 l 0,-28 c 0,0 0,-4 -4,-4 l -28,0 c 0,0 -4,0 -4,4 L 0,0 Z" style="fill:#88c9f9;fill-opacity:1;fill-rule:nonzero;stroke:none"/></g></g></g><g id="g24"><g id="g26" clip-path="url(#clipPath28)"><g id="g32" transform="translate(1,1)"><path id="path34" d="M 0,0 C 0,19.882 16.118,36 36,36 55.882,36 72,19.882 72,0 72,-19.882 55.882,-36 36,-36 16.118,-36 0,-19.882 0,0" style="fill:#ed1c24;fill-opacity:1;fill-rule:nonzero;stroke:none"/></g><g id="g36" transform="translate(4.0415,1)"><path id="path38" d="M 0,0 C 0,18.203 14.756,32.958 32.958,32.958 51.161,32.958 65.917,18.203 65.917,0 65.917,-18.202 51.161,-32.959 32.958,-32.959 14.756,-32.959 0,-18.202 0,0" style="fill:#f4900c;fill-opacity:1;fill-rule:nonzero;stroke:none"/></g><g id="g40" transform="translate(7.0415,1)"><path id="path42" d="M 0,0 C 0,16.546 13.413,29.958 29.958,29.958 46.503,29.958 59.917,16.546 59.917,0 59.917,-16.545 46.503,-29.959 29.958,-29.959 13.413,-29.959 0,-16.545 0,0" style="fill:#ffcc4d;fill-opacity:1;fill-rule:nonzero;stroke:none"/></g><g id="g44" transform="translate(10.0415,1)"><path id="path46" d="M 0,0 C 0,14.889 12.07,26.958 26.958,26.958 41.846,26.958 53.917,14.889 53.917,0 53.917,-14.888 41.846,-26.959 26.958,-26.959 12.07,-26.959 0,-14.888 0,0" style="fill:#5c913b;fill-opacity:1;fill-rule:nonzero;stroke:none"/></g><g id="g48" transform="translate(13.0415,1)"><path id="path50" d="M 0,0 C 0,13.231 10.727,23.958 23.958,23.958 37.19,23.958 47.917,13.231 47.917,0 47.917,-13.231 37.19,-23.959 23.958,-23.959 10.727,-23.959 0,-13.231 0,0" style="fill:#269;fill-opacity:1;fill-rule:nonzero;stroke:none"/></g><g id="g52" transform="translate(16.0415,1)"><path id="path54" d="m 0,0 c 0,11.574 9.384,20.958 20.958,20.958 11.575,0 20.959,-9.384 20.959,-20.958 0,-11.574 -9.384,-20.959 -20.959,-20.959 C 9.384,-20.959 0,-11.574 0,0" style="fill:#9266cc;fill-opacity:1;fill-rule:nonzero;stroke:none"/></g><g id="g56" transform="translate(19.0415,1)"><path id="path58" d="m 0,0 c 0,9.917 8.042,17.958 17.958,17.958 9.918,0 17.959,-8.041 17.959,-17.958 0,-9.918 -8.041,-17.959 -17.959,-17.959 C 8.042,-17.959 0,-9.918 0,0" style="fill:#88c9f9;fill-opacity:1;fill-rule:nonzero;stroke:none"/></g></g></g></g></svg>