<svg xmlns="http://www.w3.org/2000/svg" xmlns:svg="http://www.w3.org/2000/svg" style="enable-background:new 0 0 47.5 47.5" id="svg2" version="1.1" viewBox="0 0 47.5 47.5" xml:space="preserve"><metadata id="metadata8"/><defs id="defs6"><clipPath id="clipPath16" clipPathUnits="userSpaceOnUse"><path id="path18" d="M 5,37 C 2.791,37 1,35.209 1,33 L 1,33 1,5 C 1,2.791 2.791,1 5,1 l 0,0 28,0 c 2.209,0 4,1.791 4,4 l 0,0 0,28 c 0,2.209 -1.791,4 -4,4 l 0,0 -28,0 z"/></clipPath><clipPath id="clipPath72" clipPathUnits="userSpaceOnUse"><path id="path74" d="M 0,38 38,38 38,0 0,0 0,38 Z"/></clipPath></defs><g id="g10" transform="matrix(1.25,0,0,-1.25,0,47.5)"><g id="g12"><g id="g14" clip-path="url(#clipPath16)"><path id="path20" d="M 38,0 0,0 0,38 38,38 38,0 Z" style="fill:#269;fill-opacity:1;fill-rule:nonzero;stroke:none"/><g id="g22" transform="translate(11,1)"><path id="path24" d="m 0,0 0,29 4,4 2,0 4,-4 L 10,0 0,0 Z" style="fill:#3f484c;fill-opacity:1;fill-rule:nonzero;stroke:none"/></g><g id="g26" transform="translate(34,26)"><path id="path28" d="M 0,0 C 0,1 -1.286,1 -1.286,1 L -7.714,1 C -7.714,1 -9,1.001 -9,0 l 0,-25 9,0 0,25 z" style="fill:#3f484c;fill-opacity:1;fill-rule:nonzero;stroke:none"/></g><g id="g30" transform="translate(29,18)"><path id="path32" d="m 0,0 c 0,1 -1,1 -1,1 l -8,0 c -1,0 -1,-1 -1,-1 l 0,-17 10,0 0,17 z" style="fill:#292f33;fill-opacity:1;fill-rule:nonzero;stroke:none"/></g><g id="g34" transform="translate(7,23)"><path id="path36" d="m 0,0 c 0,0 0,1 -1,1 l -5,0 0,-23 6,0 0,22 z" style="fill:#292f33;fill-opacity:1;fill-rule:nonzero;stroke:none"/></g><g id="g38" transform="translate(13,15)"><path id="path40" d="m 0,0 c 0,0 0,1 -1,1 l -6,0 c 0,0 -1,10e-4 -1,-1 l 0,-14 8,0 0,14 z" style="fill:#292f33;fill-opacity:1;fill-rule:nonzero;stroke:none"/></g><g id="g42" transform="translate(32,11)"><path id="path44" d="M 0,0 C 0,0 0,1 1,1 L 5,1 5,-10 0,-10 0,0 Z" style="fill:#292f33;fill-opacity:1;fill-rule:nonzero;stroke:none"/></g></g></g><path id="path46" d="M 11,4 9,4 9,6 11,6 11,4 Z" style="fill:#ffcc4d;fill-opacity:1;fill-rule:nonzero;stroke:none"/><path id="path48" d="m 11,12 -2,0 0,2 2,0 0,-2 z" style="fill:#ffcc4d;fill-opacity:1;fill-rule:nonzero;stroke:none"/><path id="path50" d="M 9,8 7,8 7,10 9,10 9,8 Z" style="fill:#ffcc4d;fill-opacity:1;fill-rule:nonzero;stroke:none"/><path id="path52" d="m 19,26 -2,0 0,2 2,0 0,-2 z" style="fill:#ffcc4d;fill-opacity:1;fill-rule:nonzero;stroke:none"/><path id="path54" d="m 19,22 -2,0 0,2 2,0 0,-2 z" style="fill:#ffcc4d;fill-opacity:1;fill-rule:nonzero;stroke:none"/><path id="path56" d="m 17,18 -2,0 0,2 2,0 0,-2 z" style="fill:#ffcc4d;fill-opacity:1;fill-rule:nonzero;stroke:none"/><path id="path58" d="m 27,15 -2,0 0,2 2,0 0,-2 z" style="fill:#ffcc4d;fill-opacity:1;fill-rule:nonzero;stroke:none"/><path id="path60" d="m 25,11 -2,0 0,2 2,0 0,-2 z" style="fill:#ffcc4d;fill-opacity:1;fill-rule:nonzero;stroke:none"/><path id="path62" d="m 23,5 -2,0 0,2 2,0 0,-2 z" style="fill:#ffcc4d;fill-opacity:1;fill-rule:nonzero;stroke:none"/><path id="path64" d="m 32,23 -2,0 0,2 2,0 0,-2 z" style="fill:#ffcc4d;fill-opacity:1;fill-rule:nonzero;stroke:none"/><path id="path66" d="m 32,19 -2,0 0,2 2,0 0,-2 z" style="fill:#ffcc4d;fill-opacity:1;fill-rule:nonzero;stroke:none"/><g id="g68"><g id="g70" clip-path="url(#clipPath72)"><g id="g76" transform="translate(7.5,30)"><path id="path78" d="m 0,0 c -1.381,0 -2.5,1.119 -2.5,2.5 0,1.13 0.755,2.074 1.784,2.383 C -0.967,4.952 -1.227,5 -1.5,5 c -1.657,0 -3,-1.343 -3,-3 0,-1.657 1.343,-3 3,-3 0.959,0 1.803,0.458 2.353,1.159 C 0.585,0.062 0.301,0 0,0" style="fill:#fff;fill-opacity:1;fill-rule:nonzero;stroke:none"/></g><g id="g80" transform="translate(12,34.5)"><path id="path82" d="M 0,0 C 0,-0.276 -0.224,-0.5 -0.5,-0.5 -0.776,-0.5 -1,-0.276 -1,0 -1,0.276 -0.776,0.5 -0.5,0.5 -0.224,0.5 0,0.276 0,0" style="fill:#fff;fill-opacity:1;fill-rule:nonzero;stroke:none"/></g><g id="g84" transform="translate(9,25.5)"><path id="path86" d="M 0,0 C 0,-0.276 -0.224,-0.5 -0.5,-0.5 -0.776,-0.5 -1,-0.276 -1,0 -1,0.276 -0.776,0.5 -0.5,0.5 -0.224,0.5 0,0.276 0,0" style="fill:#fff;fill-opacity:1;fill-rule:nonzero;stroke:none"/></g><g id="g88" transform="translate(24,32)"><path id="path90" d="m 0,0 c 0,-0.552 -0.447,-1 -1,-1 -0.553,0 -1,0.448 -1,1 0,0.552 0.447,1 1,1 0.553,0 1,-0.448 1,-1" style="fill:#fff;fill-opacity:1;fill-rule:nonzero;stroke:none"/></g><g id="g92" transform="translate(28,31.5)"><path id="path94" d="M 0,0 C 0,-0.276 -0.224,-0.5 -0.5,-0.5 -0.776,-0.5 -1,-0.276 -1,0 -1,0.276 -0.776,0.5 -0.5,0.5 -0.224,0.5 0,0.276 0,0" style="fill:#fff;fill-opacity:1;fill-rule:nonzero;stroke:none"/></g><g id="g96" transform="translate(33,34)"><path id="path98" d="m 0,0 c 0,-0.552 -0.447,-1 -1,-1 -0.553,0 -1,0.448 -1,1 0,0.552 0.447,1 1,1 0.553,0 1,-0.448 1,-1" style="fill:#fff;fill-opacity:1;fill-rule:nonzero;stroke:none"/></g><g id="g100" transform="translate(33,29.5)"><path id="path102" d="M 0,0 C 0,-0.276 -0.224,-0.5 -0.5,-0.5 -0.776,-0.5 -1,-0.276 -1,0 -1,0.276 -0.776,0.5 -0.5,0.5 -0.224,0.5 0,0.276 0,0" style="fill:#fff;fill-opacity:1;fill-rule:nonzero;stroke:none"/></g></g></g></g></svg>