<svg xmlns="http://www.w3.org/2000/svg" xmlns:svg="http://www.w3.org/2000/svg" style="enable-background:new 0 0 47.5 47.5" id="svg2" version="1.1" viewBox="0 0 47.5 47.5" xml:space="preserve"><metadata id="metadata8"/><defs id="defs6"><clipPath id="clipPath16" clipPathUnits="userSpaceOnUse"><path id="path18" d="M 0,38 38,38 38,0 0,0 0,38 Z"/></clipPath></defs><g id="g10" transform="matrix(1.25,0,0,-1.25,0,47.5)"><g id="g12"><g id="g14" clip-path="url(#clipPath16)"><g id="g20" transform="translate(34.3984,13.3223)"><path id="path22" d="m 0,0 c -7.562,-4.875 -20.062,0.437 -18.375,8.062 1.479,6.684 9.419,4.763 11.225,3.861 1.805,-0.902 0.713,3.889 -3.475,5.327 C -16.298,19.197 -23.243,18.785 -25.437,9 -26.937,2.313 -24,-7.062 -12.719,-7.187 -1.437,-7.312 0,0 0,0" style="fill:#269;fill-opacity:1;fill-rule:nonzero;stroke:none"/></g><g id="g24" transform="translate(36.9883,11.8066)"><path id="path26" d="m 0,0 c 0,2.146 -2.754,2.334 -4,1.119 -2.994,-2.919 -7.402,-4.012 -13.298,-2.861 -10.25,2 -10.342,14.013 -3.333,17.441 3.791,1.855 8.288,-0.341 9.999,-1.655 1.488,-1.143 4.334,-2.66 4.185,-0.751 -0.319,4.061 -8.28,12.761 -18.946,7.261 C -36.06,15.054 -35.988,2.641 -35.988,0.391 l 0,-7.25 c 0,-2.209 1.814,-3.948 4.023,-3.948 l 28,0 c 2.209,0 3.977,1.739 3.977,3.948 0,0 -0.004,6.853 -0.012,6.859" style="fill:#55acee;fill-opacity:1;fill-rule:nonzero;stroke:none"/></g></g></g></g></svg>