<svg xmlns="http://www.w3.org/2000/svg" xmlns:svg="http://www.w3.org/2000/svg" style="enable-background:new 0 0 47.5 47.5" id="svg2" version="1.1" viewBox="0 0 47.5 47.5" xml:space="preserve"><metadata id="metadata8"/><defs id="defs6"><clipPath id="clipPath16" clipPathUnits="userSpaceOnUse"><path id="path18" d="M 5,37 C 2.791,37 1,35.209 1,33 L 1,33 1,5 C 1,2.791 2.791,1 5,1 l 0,0 28,0 c 2.209,0 4,1.791 4,4 l 0,0 0,28 c 0,2.209 -1.791,4 -4,4 l 0,0 -28,0 z"/></clipPath></defs><g id="g10" transform="matrix(1.25,0,0,-1.25,0,47.5)"><g id="g12"><g id="g14" clip-path="url(#clipPath16)"><path id="path20" d="m 37,-1 -38,0 0,38 38,0 0,-38 z" style="fill:#004a77;fill-opacity:1;fill-rule:nonzero;stroke:none"/><g id="g22" transform="translate(-1,10)"><path id="path24" d="m 0,0 0,2 c 0.117,0.049 11.263,4.451 18,16 l 2,-1 C 12.911,4.847 0.503,0.206 0,0" style="fill:#fe5011;fill-opacity:1;fill-rule:nonzero;stroke:none"/></g><g id="g26" transform="translate(21,28)"><path id="path28" d="M 0,0 C 0,0 0,2 -2,2 -4,2 -4,0 -4,0 l 0,-28 4,0 0,28 z" style="fill:#fe5011;fill-opacity:1;fill-rule:nonzero;stroke:none"/></g><path id="path30" d="M 37,6 1,6 1,10 37,10 37,6 Z" style="fill:#fe5011;fill-opacity:1;fill-rule:nonzero;stroke:none"/><g id="g32" transform="translate(39,10)"><path id="path34" d="m 0,0 0,2 c -0.117,0.049 -11.264,4.451 -18,16 l -2,-1 C -12.91,4.847 -0.503,0.206 0,0" style="fill:#fe5011;fill-opacity:1;fill-rule:nonzero;stroke:none"/></g><path id="path36" d="m 11,9 2,0 0,11 -2,0 0,-11 z" style="fill:#fe5011;fill-opacity:1;fill-rule:nonzero;stroke:none"/><path id="path38" d="m 27,9 -2,0 0,11 2,0 0,-11 z" style="fill:#fe5011;fill-opacity:1;fill-rule:nonzero;stroke:none"/><path id="path40" d="M 5,9 7,9 7,15 5,15 5,9 Z" style="fill:#fe5011;fill-opacity:1;fill-rule:nonzero;stroke:none"/><path id="path42" d="m 33,8 -2,0 0,7 2,0 0,-7 z" style="fill:#fe5011;fill-opacity:1;fill-rule:nonzero;stroke:none"/><g id="g44" transform="translate(7.5,30)"><path id="path46" d="m 0,0 c -1.381,0 -2.5,1.119 -2.5,2.5 0,1.13 0.755,2.074 1.784,2.383 C -0.967,4.952 -1.227,5 -1.5,5 c -1.657,0 -3,-1.343 -3,-3 0,-1.657 1.343,-3 3,-3 0.959,0 1.803,0.458 2.353,1.159 C 0.585,0.062 0.301,0 0,0" style="fill:#fff;fill-opacity:1;fill-rule:nonzero;stroke:none"/></g><g id="g48" transform="translate(12,34.5)"><path id="path50" d="M 0,0 C 0,-0.276 -0.224,-0.5 -0.5,-0.5 -0.776,-0.5 -1,-0.276 -1,0 -1,0.276 -0.776,0.5 -0.5,0.5 -0.224,0.5 0,0.276 0,0" style="fill:#fff;fill-opacity:1;fill-rule:nonzero;stroke:none"/></g><g id="g52" transform="translate(28,25.5)"><path id="path54" d="M 0,0 C 0,-0.276 -0.224,-0.5 -0.5,-0.5 -0.776,-0.5 -1,-0.276 -1,0 -1,0.276 -0.776,0.5 -0.5,0.5 -0.224,0.5 0,0.276 0,0" style="fill:#fff;fill-opacity:1;fill-rule:nonzero;stroke:none"/></g><g id="g56" transform="translate(9,25.5)"><path id="path58" d="M 0,0 C 0,-0.276 -0.224,-0.5 -0.5,-0.5 -0.776,-0.5 -1,-0.276 -1,0 -1,0.276 -0.776,0.5 -0.5,0.5 -0.224,0.5 0,0.276 0,0" style="fill:#fff;fill-opacity:1;fill-rule:nonzero;stroke:none"/></g><g id="g60" transform="translate(24,32)"><path id="path62" d="m 0,0 c 0,-0.552 -0.447,-1 -1,-1 -0.553,0 -1,0.448 -1,1 0,0.552 0.447,1 1,1 0.553,0 1,-0.448 1,-1" style="fill:#fff;fill-opacity:1;fill-rule:nonzero;stroke:none"/></g><g id="g64" transform="translate(6,20)"><path id="path66" d="m 0,0 c 0,-0.552 -0.447,-1 -1,-1 -0.553,0 -1,0.448 -1,1 0,0.552 0.447,1 1,1 0.553,0 1,-0.448 1,-1" style="fill:#fff;fill-opacity:1;fill-rule:nonzero;stroke:none"/></g><g id="g68" transform="translate(14,30)"><path id="path70" d="m 0,0 c 0,-0.552 -0.447,-1 -1,-1 -0.553,0 -1,0.448 -1,1 0,0.552 0.447,1 1,1 0.553,0 1,-0.448 1,-1" style="fill:#fff;fill-opacity:1;fill-rule:nonzero;stroke:none"/></g><g id="g72" transform="translate(34,20)"><path id="path74" d="m 0,0 c 0,-0.552 -0.447,-1 -1,-1 -0.553,0 -1,0.448 -1,1 0,0.552 0.447,1 1,1 0.553,0 1,-0.448 1,-1" style="fill:#fff;fill-opacity:1;fill-rule:nonzero;stroke:none"/></g><g id="g76" transform="translate(28,31.5)"><path id="path78" d="M 0,0 C 0,-0.276 -0.224,-0.5 -0.5,-0.5 -0.776,-0.5 -1,-0.276 -1,0 -1,0.276 -0.776,0.5 -0.5,0.5 -0.224,0.5 0,0.276 0,0" style="fill:#fff;fill-opacity:1;fill-rule:nonzero;stroke:none"/></g><g id="g80" transform="translate(33,34)"><path id="path82" d="m 0,0 c 0,-0.552 -0.447,-1 -1,-1 -0.553,0 -1,0.448 -1,1 0,0.552 0.447,1 1,1 0.553,0 1,-0.448 1,-1" style="fill:#fff;fill-opacity:1;fill-rule:nonzero;stroke:none"/></g><g id="g84" transform="translate(33,29.5)"><path id="path86" d="M 0,0 C 0,-0.276 -0.224,-0.5 -0.5,-0.5 -0.776,-0.5 -1,-0.276 -1,0 -1,0.276 -0.776,0.5 -0.5,0.5 -0.224,0.5 0,0.276 0,0" style="fill:#fff;fill-opacity:1;fill-rule:nonzero;stroke:none"/></g></g></g></g></svg>