<svg xmlns="http://www.w3.org/2000/svg" xmlns:svg="http://www.w3.org/2000/svg" style="enable-background:new 0 0 47.5 47.5" id="svg2" version="1.1" viewBox="0 0 47.5 47.5" xml:space="preserve"><metadata id="metadata8"/><defs id="defs6"><clipPath id="clipPath16" clipPathUnits="userSpaceOnUse"><path id="path18" d="M 5,37 C 2.791,37 1,35.209 1,33 L 1,33 1,5 C 1,2.791 2.791,1 5,1 l 0,0 28,0 c 2.209,0 4,1.791 4,4 l 0,0 0,28 c 0,2.209 -1.791,4 -4,4 l 0,0 -28,0 z"/></clipPath></defs><g id="g10" transform="matrix(1.25,0,0,-1.25,0,47.5)"><g id="g12"><g id="g14" clip-path="url(#clipPath16)"><path id="path20" d="M 38,0 0,0 0,38 38,38 38,0 Z" style="fill:#f4900c;fill-opacity:1;fill-rule:nonzero;stroke:none"/><g id="g22" transform="translate(11,1)"><path id="path24" d="m 0,0 0,29 4,4 2,0 4,-4 L 10,0 0,0 Z" style="fill:#485359;fill-opacity:1;fill-rule:nonzero;stroke:none"/></g><g id="g26" transform="translate(34,26)"><path id="path28" d="m 0,0 c 0,1 -1,1 -1,1 l -7,0 c 0,0 -1,0 -1,-1 l 0,-25 9,0 0,25 z" style="fill:#485359;fill-opacity:1;fill-rule:nonzero;stroke:none"/></g><g id="g30" transform="translate(29,20)"><path id="path32" d="m 0,0 c 0,1 -1,1 -1,1 l -8,0 c -1,0 -1,-1 -1,-1 l 0,-19 10,0 0,19 z" style="fill:#292f33;fill-opacity:1;fill-rule:nonzero;stroke:none"/></g><g id="g34" transform="translate(7,23)"><path id="path36" d="m 0,0 c 0,0 0,1 -1,1 l -5,0 0,-23 6,0 0,22 z" style="fill:#292f33;fill-opacity:1;fill-rule:nonzero;stroke:none"/></g><g id="g38" transform="translate(13,17)"><path id="path40" d="m 0,0 c 0,0 0,1 -1,1 l -6,0 c 0,0 -1,10e-4 -1,-1 l 0,-16 8,0 0,16 z" style="fill:#292f33;fill-opacity:1;fill-rule:nonzero;stroke:none"/></g><g id="g42" transform="translate(32,11)"><path id="path44" d="M 0,0 C 0,0 0,1 1,1 L 5,1 5,-10 0,-10 0,0 Z" style="fill:#292f33;fill-opacity:1;fill-rule:nonzero;stroke:none"/></g><path id="path46" d="M 11,6 9,6 9,8 11,8 11,6 Z" style="fill:#ffcc4d;fill-opacity:1;fill-rule:nonzero;stroke:none"/><path id="path48" d="m 11,14 -2,0 0,2 2,0 0,-2 z" style="fill:#ffcc4d;fill-opacity:1;fill-rule:nonzero;stroke:none"/><path id="path50" d="m 9,10 -2,0 0,2 2,0 0,-2 z" style="fill:#ffcc4d;fill-opacity:1;fill-rule:nonzero;stroke:none"/><path id="path52" d="m 19,26 -2,0 0,2 2,0 0,-2 z" style="fill:#ffcc4d;fill-opacity:1;fill-rule:nonzero;stroke:none"/><path id="path54" d="m 19,22 -2,0 0,2 2,0 0,-2 z" style="fill:#ffcc4d;fill-opacity:1;fill-rule:nonzero;stroke:none"/><path id="path56" d="m 17,18 -2,0 0,2 2,0 0,-2 z" style="fill:#ffcc4d;fill-opacity:1;fill-rule:nonzero;stroke:none"/><path id="path58" d="m 27,17 -2,0 0,2 2,0 0,-2 z" style="fill:#ffcc4d;fill-opacity:1;fill-rule:nonzero;stroke:none"/><path id="path60" d="m 25,13 -2,0 0,2 2,0 0,-2 z" style="fill:#ffcc4d;fill-opacity:1;fill-rule:nonzero;stroke:none"/><path id="path62" d="m 23,7 -2,0 0,2 2,0 0,-2 z" style="fill:#ffcc4d;fill-opacity:1;fill-rule:nonzero;stroke:none"/><path id="path64" d="m 32,23 -2,0 0,2 2,0 0,-2 z" style="fill:#ffcc4d;fill-opacity:1;fill-rule:nonzero;stroke:none"/><path id="path66" d="m 32,19 -2,0 0,2 2,0 0,-2 z" style="fill:#ffcc4d;fill-opacity:1;fill-rule:nonzero;stroke:none"/></g></g></g></svg>