<svg xmlns="http://www.w3.org/2000/svg" xmlns:svg="http://www.w3.org/2000/svg" style="enable-background:new 0 0 47.5 47.5" id="svg2" version="1.1" viewBox="0 0 47.5 47.5" xml:space="preserve"><metadata id="metadata8"/><defs id="defs6"><clipPath id="clipPath16" clipPathUnits="userSpaceOnUse"><path id="path18" d="M 0,38 38,38 38,0 0,0 0,38 Z"/></clipPath><clipPath id="clipPath32" clipPathUnits="userSpaceOnUse"><path id="path34" d="M 15.211,29.894 3,5 4,4 5,3 29.894,15.211 c 0.724,0.363 1.159,1.124 1.101,1.93 l 0,0 c -0.058,0.807 -0.596,1.501 -1.362,1.756 l 0,0 L 28,19.442 28,21 c 0,0.918 -0.625,1.718 -1.515,1.94 l 0,0 -2.836,0.709 -0.709,2.836 C 22.718,27.375 21.918,28 21,28 l 0,0 -1.558,0 -0.545,1.633 c -0.255,0.767 -0.948,1.304 -1.756,1.362 l 0,0 C 17.095,30.999 17.047,31 16.999,31 l 0,0 c -0.752,0 -1.447,-0.425 -1.788,-1.106"/></clipPath></defs><g id="g10" transform="matrix(1.25,0,0,-1.25,0,47.5)"><g id="g12"><g id="g14" clip-path="url(#clipPath16)"><g id="g20" transform="translate(2,2)"><path id="path22" d="m 0,0 c -1,1 0,2 0,2 l 26,26 c 0,0 1.479,1.521 0,3 -1.479,1.479 -3,0 -3,0 0,0 -1,-1 -2,0 -1,1 0,2 0,2 0,0 3.521,3.479 7,0 3.5,-3.5 0,-7 0,-7 L 2,0 C 2,0 1,-1 0,0" style="fill:#66757f;fill-opacity:1;fill-rule:nonzero;stroke:none"/></g><g id="g24" transform="translate(4,4)"><path id="path26" d="M 0,0 -1,1 11.211,25.895 C 11.552,26.575 12.247,27 13,27 c 0.047,0 0.094,-0.001 0.142,-0.005 0.807,-0.058 1.5,-0.595 1.755,-1.363 L 15.441,24 17,24 c 0.918,0 1.718,-0.625 1.94,-1.515 l 0.709,-2.836 2.836,-0.709 C 23.375,18.718 24,17.918 24,17 l 0,-1.559 1.633,-0.544 c 0.766,-0.255 1.304,-0.949 1.362,-1.755 0.058,-0.807 -0.377,-1.569 -1.1,-1.931 L 1,-1 0,0 Z" style="fill:#9266cc;fill-opacity:1;fill-rule:nonzero;stroke:none"/></g></g></g><g id="g28"><g id="g30" clip-path="url(#clipPath32)"><g id="g36" transform="translate(22,32)"><path id="path38" d="m 0,0 -19,-28 0,-1 21,21 -2,8 z" style="fill:#744eaa;fill-opacity:1;fill-rule:nonzero;stroke:none"/></g><g id="g40" transform="translate(30,21)"><path id="path42" d="m 0,0 -26,-18 2,-1 29,13 -5,6 z" style="fill:#744eaa;fill-opacity:1;fill-rule:nonzero;stroke:none"/></g></g></g></g></svg>