<svg xmlns="http://www.w3.org/2000/svg" xmlns:svg="http://www.w3.org/2000/svg" style="enable-background:new 0 0 47.5 47.5" id="svg2" version="1.1" viewBox="0 0 47.5 47.5" xml:space="preserve"><metadata id="metadata8"/><defs id="defs6"><clipPath id="clipPath16" clipPathUnits="userSpaceOnUse"><path id="path18" d="M 0,38 38,38 38,0 0,0 0,38 Z"/></clipPath></defs><g id="g10" transform="matrix(1.25,0,0,-1.25,0,47.5)"><g id="g12"><g id="g14" clip-path="url(#clipPath16)"><g id="g20" transform="translate(19,37)"><path id="path22" d="m 0,0 0,-36 c 9.941,0 18,8.059 18,18 C 18,-8.059 9.941,0 0,0" style="fill:#ccd6dd;fill-opacity:1;fill-rule:nonzero;stroke:none"/></g><g id="g24" transform="translate(1,19)"><path id="path26" d="m 0,0 c 0,-9.941 8.059,-18 18,-18 l 0,36 C 8.059,18 0,9.941 0,0" style="fill:#66757f;fill-opacity:1;fill-rule:nonzero;stroke:none"/></g><g id="g28" transform="translate(23,28.5)"><path id="path30" d="M 0,0 C 0,-1.933 1.566,-3.5 3.5,-3.5 5.434,-3.5 7,-1.933 7,0 7,1.933 5.434,3.5 3.5,3.5 1.566,3.5 0,1.933 0,0" style="fill:#b8c5cd;fill-opacity:1;fill-rule:nonzero;stroke:none"/></g><g id="g32" transform="translate(10,21)"><path id="path34" d="M 0,0 C 0,-1.657 1.343,-3 3,-3 4.657,-3 6,-1.657 6,0 6,1.657 4.657,3 3,3 1.343,3 0,1.657 0,0" style="fill:#5b6876;fill-opacity:1;fill-rule:nonzero;stroke:none"/></g><g id="g36" transform="translate(11,9.5)"><path id="path38" d="M 0,0 C 0,-1.934 1.566,-3.5 3.5,-3.5 5.434,-3.5 7,-1.934 7,0 7,1.934 5.434,3.5 3.5,3.5 1.566,3.5 0,1.934 0,0" style="fill:#5b6876;fill-opacity:1;fill-rule:nonzero;stroke:none"/></g><g id="g40" transform="translate(14,31)"><path id="path42" d="M 0,0 C 0,-1.104 0.896,-2 2,-2 3.104,-2 4,-1.104 4,0 4,1.104 3.104,2 2,2 0.896,2 0,1.104 0,0" style="fill:#5b6876;fill-opacity:1;fill-rule:nonzero;stroke:none"/></g><g id="g44" transform="translate(35,19)"><path id="path46" d="m 0,0 c 0,-0.553 -0.447,-1 -1,-1 -0.553,0 -1,0.447 -1,1 0,0.552 0.447,1 1,1 0.553,0 1,-0.448 1,-1" style="fill:#b8c5cd;fill-opacity:1;fill-rule:nonzero;stroke:none"/></g><g id="g48" transform="translate(8,28)"><path id="path50" d="m 0,0 c 0,-0.553 -0.447,-1 -1,-1 -0.553,0 -1,0.447 -1,1 0,0.552 0.447,1 1,1 0.553,0 1,-0.448 1,-1" style="fill:#5b6876;fill-opacity:1;fill-rule:nonzero;stroke:none"/></g><g id="g52" transform="translate(23,6)"><path id="path54" d="m 0,0 c 0,-0.553 -0.447,-1 -1,-1 -0.553,0 -1,0.447 -1,1 0,0.553 0.447,1 1,1 0.553,0 1,-0.447 1,-1" style="fill:#b8c5cd;fill-opacity:1;fill-rule:nonzero;stroke:none"/></g><g id="g56" transform="translate(3,18)"><path id="path58" d="M 0,0 C 0,-1.104 0.896,-2 2,-2 3.104,-2 4,-1.104 4,0 4,1.104 3.104,2 2,2 0.896,2 0,1.104 0,0" style="fill:#5b6876;fill-opacity:1;fill-rule:nonzero;stroke:none"/></g><g id="g60" transform="translate(25,14)"><path id="path62" d="M 0,0 C 0,-1.104 0.896,-2 2,-2 3.104,-2 4,-1.104 4,0 4,1.104 3.104,2 2,2 0.896,2 0,1.104 0,0" style="fill:#b8c5cd;fill-opacity:1;fill-rule:nonzero;stroke:none"/></g></g></g></g></svg>