<svg xmlns="http://www.w3.org/2000/svg" xmlns:svg="http://www.w3.org/2000/svg" style="enable-background:new 0 0 47.5 47.5" id="svg2" version="1.1" viewBox="0 0 47.5 47.5" xml:space="preserve"><metadata id="metadata8"/><defs id="defs6"><clipPath id="clipPath16" clipPathUnits="userSpaceOnUse"><path id="path18" d="M 0,38 38,38 38,0 0,0 0,38 Z"/></clipPath></defs><g id="g10" transform="matrix(1.25,0,0,-1.25,0,47.5)"><g id="g12"><g id="g14" clip-path="url(#clipPath16)"><g id="g20" transform="translate(31.3115,36.2236)"><path id="path22" d="m 0,0 c 1.688,-18.224 -10.312,-31.224 -29.535,-29.536 8.199,-7.717 21.091,-7.588 29.107,0.429 C 7.589,-21.091 7.719,-8.198 0,0" style="fill:#ccd6dd;fill-opacity:1;fill-rule:nonzero;stroke:none"/></g><g id="g24" transform="translate(31.7051,21.085)"><path id="path26" d="m 0,0 c -0.453,-0.454 -0.453,-1.189 0,-1.644 0.454,-0.453 1.189,-0.453 1.644,0 0.454,0.455 0.455,1.19 0,1.644 C 1.189,0.454 0.454,0.454 0,0" style="fill:#b8c5cd;fill-opacity:1;fill-rule:nonzero;stroke:none"/></g><g id="g28" transform="translate(15.6831,6.7051)"><path id="path30" d="m 0,0 c -0.682,-0.681 -0.682,-1.783 0,-2.465 0.68,-0.681 1.784,-0.681 2.464,0 0.681,0.682 0.681,1.784 0,2.465 C 1.784,0.682 0.68,0.682 0,0" style="fill:#b8c5cd;fill-opacity:1;fill-rule:nonzero;stroke:none"/></g><g id="g32" transform="translate(29.6514,8.8516)"><path id="path34" d="m 0,0 c -1.135,-1.135 -2.974,-1.135 -4.108,0 -1.135,1.135 -1.135,2.975 0,4.107 1.134,1.136 2.973,1.136 4.108,0 C 1.135,2.975 1.135,1.135 0,0" style="fill:#b8c5cd;fill-opacity:1;fill-rule:nonzero;stroke:none"/></g></g></g></g></svg>