<svg xmlns="http://www.w3.org/2000/svg" xmlns:svg="http://www.w3.org/2000/svg" style="enable-background:new 0 0 47.5 47.5" id="svg2" version="1.1" viewBox="0 0 47.5 47.5" xml:space="preserve"><metadata id="metadata8"/><defs id="defs6"><clipPath id="clipPath16" clipPathUnits="userSpaceOnUse"><path id="path18" d="M 0,38 38,38 38,0 0,0 0,38 Z"/></clipPath></defs><g id="g10" transform="matrix(1.25,0,0,-1.25,0,47.5)"><g id="g12"><g id="g14" clip-path="url(#clipPath16)"><g id="g20" transform="translate(37,5)"><path id="path22" d="m 0,0 c 0,-2.209 -1.791,-4 -4,-4 l -28,0 c -2.209,0 -4,1.791 -4,4 l 0,28 c 0,2.209 1.791,4 4,4 l 28,0 c 2.209,0 4,-1.791 4,-4 L 0,0 Z" style="fill:#269;fill-opacity:1;fill-rule:nonzero;stroke:none"/></g><g id="g24" transform="translate(12,28)"><path id="path26" d="M 0,0 C 0,0 7.29,4.557 21,4.969 21.652,4.989 23,5 23,4 17,-5 14,-19 14,-19 L 0,0 Z" style="fill:#f4900c;fill-opacity:1;fill-rule:nonzero;stroke:none"/></g><g id="g28" transform="translate(13,21)"><path id="path30" d="M 0,0 C 0,0 12,11 20,11.969 20.647,12.048 22,12 22,11 15,7 10,-8 10,-8 L 0,0 Z" style="fill:#ffac33;fill-opacity:1;fill-rule:nonzero;stroke:none"/></g><g id="g32" transform="translate(16.1558,24.562)"><path id="path34" d="m 0,0 c 0.826,-0.727 2.388,-1.164 3.471,-0.972 l 4.893,0.866 C 9.448,0.085 9.977,-0.584 9.542,-1.594 L 7.574,-6.158 C 7.138,-7.167 7.205,-8.788 7.722,-9.759 l 2.335,-4.384 c 0.518,-0.972 0.044,-1.682 -1.051,-1.58 l -4.947,0.463 c -1.095,0.101 -2.616,-0.462 -3.379,-1.254 l -3.451,-3.577 c -0.763,-0.792 -1.585,-0.562 -1.826,0.511 l -1.09,4.848 c -0.241,1.073 -1.247,2.345 -2.236,2.827 l -4.467,2.175 c -0.989,0.481 -1.025,1.335 -0.078,1.897 l 4.274,2.533 c 0.946,0.561 1.844,1.911 1.997,3.001 l 0.688,4.92 c 0.153,1.09 0.953,1.387 1.779,0.66 L 0,0 Z" style="fill:#ffd983;fill-opacity:1;fill-rule:nonzero;stroke:none"/></g></g></g></g></svg>