<svg xmlns="http://www.w3.org/2000/svg" xmlns:svg="http://www.w3.org/2000/svg" style="enable-background:new 0 0 47.5 47.5" id="svg2" version="1.1" viewBox="0 0 47.5 47.5" xml:space="preserve"><metadata id="metadata8"/><defs id="defs6"><clipPath id="clipPath16" clipPathUnits="userSpaceOnUse"><path id="path18" d="M 0,38 38,38 38,0 0,0 0,38 Z"/></clipPath></defs><g id="g10" transform="matrix(1.25,0,0,-1.25,0,47.5)"><g id="g12"><g id="g14" clip-path="url(#clipPath16)"><g id="g20" transform="translate(23,4)"><path id="path22" d="m 0,0 c 0,-2.209 -1.791,-3 -4,-3 -2.209,0 -4,0.791 -4,3 l 1,9 c 0,2.209 0.791,2 3,2 2.209,0 3,0.209 3,-2 L 0,0 Z" style="fill:#662113;fill-opacity:1;fill-rule:nonzero;stroke:none"/></g><g id="g24" transform="translate(32.4063,9.7031)"><path id="path26" d="m 0,0 c -6.963,5.965 -9.783,14.506 -13.406,14.506 -3.624,0 -6.444,-8.541 -13.406,-14.506 -2.925,-2.507 -1.532,-3.957 2.479,-3.667 3.576,0.258 6.92,1.069 10.927,1.069 4.007,0 7.351,-0.811 10.926,-1.069 C 1.531,-3.957 2.925,-2.507 0,0" style="fill:#5c913b;fill-opacity:1;fill-rule:nonzero;stroke:none"/></g><g id="g28" transform="translate(30.1445,12.0664)"><path id="path30" d="m 0,0 c -5.351,4.906 -8.357,11.934 -11.145,11.934 -2.784,0 -5.792,-7.028 -11.143,-11.934 -4.253,-3.898 5.572,-4.773 11.143,0 C -5.575,-4.773 4.251,-3.898 0,0" style="fill:#3e721d;fill-opacity:1;fill-rule:nonzero;stroke:none"/></g><g id="g32" transform="translate(30.1445,16.041)"><path id="path34" d="m 0,0 c -5.351,4.584 -8.357,11.148 -11.145,11.148 -2.784,0 -5.792,-6.564 -11.143,-11.148 -4.253,-3.642 5.572,-4.459 11.143,0 C -5.575,-4.459 4.251,-3.642 0,0" style="fill:#5c913b;fill-opacity:1;fill-rule:nonzero;stroke:none"/></g><g id="g36" transform="translate(27.7002,19.2969)"><path id="path38" d="m 0,0 c -4.177,3.579 -6.524,8.703 -8.7,8.703 -2.175,0 -4.523,-5.124 -8.7,-8.703 -3.32,-2.844 4.35,-3.481 8.7,0 4.348,-3.481 12.019,-2.844 8.7,0" style="fill:#3e721d;fill-opacity:1;fill-rule:nonzero;stroke:none"/></g><g id="g40" transform="translate(27.7002,22.2744)"><path id="path42" d="m 0,0 c -4.177,3.579 -6.524,8.703 -8.7,8.703 -2.175,0 -4.523,-5.124 -8.7,-8.703 -3.32,-2.844 4.35,-3.481 8.7,0 4.348,-3.481 12.019,-2.844 8.7,0" style="fill:#5c913b;fill-opacity:1;fill-rule:nonzero;stroke:none"/></g><g id="g44" transform="translate(26.0215,24.9189)"><path id="path46" d="m 0,0 c -3.371,2.888 -5.266,7.024 -7.021,7.024 -1.755,0 -3.65,-4.136 -7.022,-7.024 -2.679,-2.295 3.511,-2.81 7.022,0 C -3.512,-2.81 2.68,-2.295 0,0" style="fill:#3e721d;fill-opacity:1;fill-rule:nonzero;stroke:none"/></g><g id="g48" transform="translate(26.0215,27.1606)"><path id="path50" d="m 0,0 c -3.371,2.888 -5.266,7.024 -7.021,7.024 -1.755,0 -3.65,-4.136 -7.022,-7.024 -2.679,-2.295 3.511,-2.81 7.022,0 C -3.512,-2.81 2.68,-2.295 0,0" style="fill:#5c913b;fill-opacity:1;fill-rule:nonzero;stroke:none"/></g><g id="g52" transform="translate(24.3428,30.4604)"><path id="path54" d="M 0,0 C -2.564,2.197 -4.007,5.345 -5.343,5.345 -6.678,5.345 -8.121,2.197 -10.686,0 -12.724,-1.747 -8.014,-2.138 -5.343,0 -2.672,-2.138 2.039,-1.747 0,0" style="fill:#3e721d;fill-opacity:1;fill-rule:nonzero;stroke:none"/></g><g id="g56" transform="translate(24.3428,31.6553)"><path id="path58" d="M 0,0 C -2.564,2.197 -4.007,5.345 -5.343,5.345 -6.678,5.345 -8.121,2.197 -10.686,0 -12.724,-1.747 -8.014,-2.138 -5.343,0 -2.672,-2.138 2.039,-1.747 0,0" style="fill:#5c913b;fill-opacity:1;fill-rule:nonzero;stroke:none"/></g></g></g></g></svg>