<svg xmlns="http://www.w3.org/2000/svg" xmlns:svg="http://www.w3.org/2000/svg" style="enable-background:new 0 0 47.5 47.5" id="svg2" version="1.1" viewBox="0 0 47.5 47.5" xml:space="preserve"><metadata id="metadata8"/><defs id="defs6"><clipPath id="clipPath16" clipPathUnits="userSpaceOnUse"><path id="path18" d="M 0,38 38,38 38,0 0,0 0,38 Z"/></clipPath></defs><g id="g10" transform="matrix(1.25,0,0,-1.25,0,47.5)"><g id="g12"><g id="g14" clip-path="url(#clipPath16)"><g id="g20" transform="translate(23.9111,22.6025)"><path id="path22" d="m 0,0 c -1.082,-0.719 -2.047,-1.559 -2.88,-2.422 -0.127,4.245 -1.147,9.735 -6.772,12.423 -1.113,6.054 -14.093,2.978 -12.931,2.391 2.314,-1.171 3.545,-4.148 5.034,-5.715 2.653,-2.792 5.603,-2.964 7.07,-0.779 3.468,-2.254 3.697,-6.529 3.59,-11.098 -0.011,-0.505 -0.022,-0.976 -0.022,-1.403 l 0,-8 0,-6 c 0,-1.104 4,-1.104 4,0 l 0,6 0,5.491 c 0.542,0.954 2.122,3.505 4.43,5.294 1.585,-1.393 4.141,-0.949 6.462,1.495 1.49,1.567 2.293,4.544 4.608,5.715 C 13.81,4.009 -0.212,7.386 0,0" style="fill:#77b255;fill-opacity:1;fill-rule:nonzero;stroke:none"/></g></g></g></g></svg>