<svg xmlns="http://www.w3.org/2000/svg" xmlns:svg="http://www.w3.org/2000/svg" style="enable-background:new 0 0 47.5 47.5" id="svg2" version="1.1" viewBox="0 0 47.5 47.5" xml:space="preserve"><metadata id="metadata8"/><defs id="defs6"><clipPath id="clipPath16" clipPathUnits="userSpaceOnUse"><path id="path18" d="M 0,38 38,38 38,0 0,0 0,38 Z"/></clipPath></defs><g id="g10" transform="matrix(1.25,0,0,-1.25,0,47.5)"><g id="g12"><g id="g14" clip-path="url(#clipPath16)"><g id="g20" transform="translate(20.3203,11.6416)"><path id="path22" d="m 0,0 c -0.113,0 -0.217,-0.003 -0.32,-0.005 l 0,0.415 c 4.804,0.479 8.548,4.264 8.548,7.301 0,3.249 0,-1.47 -9.562,-1.47 -9.558,0 -9.558,4.719 -9.558,1.47 0,-3.043 3.757,-6.838 8.572,-7.305 l 0,-0.411 C -2.424,-0.003 -2.527,0 -2.641,0 c -2.553,0 -6.603,2.05 -6.603,1.32 0,-0.645 4.186,-4.016 6.924,-4.796 l 0,-6.166 c 0,-0.552 0.447,-1 1,-1 0.552,0 1,0.448 1,1 l 0,6.166 C 2.418,-2.696 6.604,0.675 6.604,1.32 6.604,2.05 2.554,0 0,0" style="fill:#3e721d;fill-opacity:1;fill-rule:nonzero;stroke:none"/></g><g id="g24" transform="translate(27.5273,29.647)"><path id="path26" d="m 0,0 c -3.887,4.412 1.506,5.882 -2.592,5.882 -0.713,0 -1.921,-0.44 -3.29,-1.189 -0.694,1.572 -1.622,2.66 -2.645,2.66 -2.051,0 -3.726,-4.342 -3.873,-8.27 -1.109,-1.542 -1.855,-3.234 -1.855,-4.965 0,-6.092 2.59,-8.824 6.479,-8.824 C 0,-14.706 5.867,-6.658 0,0" style="fill:#a0041e;fill-opacity:1;fill-rule:nonzero;stroke:none"/></g><g id="g28" transform="translate(24.7275,23.7646)"><path id="path30" d="m 0,0 c 0,-6.092 -2.59,-8.823 -6.479,-8.823 -7.776,0 -13.644,8.048 -7.776,14.705 3.888,4.412 -1.506,5.883 2.592,5.883 C -9.071,11.765 0,6.091 0,0" style="fill:#be1931;fill-opacity:1;fill-rule:nonzero;stroke:none"/></g></g></g></g></svg>