<svg xmlns="http://www.w3.org/2000/svg" xmlns:svg="http://www.w3.org/2000/svg" style="enable-background:new 0 0 47.5 47.5" id="svg2" version="1.1" viewBox="0 0 47.5 47.5" xml:space="preserve"><metadata id="metadata8"/><defs id="defs6"><clipPath id="clipPath16" clipPathUnits="userSpaceOnUse"><path id="path18" d="M 0,38 38,38 38,0 0,0 0,38 Z"/></clipPath><clipPath id="clipPath36" clipPathUnits="userSpaceOnUse"><path id="path38" d="M 6.391,14.349 C 5.796,11.376 6.476,9.682 7.216,8.652 l 0,0 C 7.202,8.595 7.199,8.549 7.223,8.527 l 0,0 C 7.342,8.405 7.486,8.263 7.651,8.113 l 0,0 C 7.796,7.955 7.934,7.814 8.054,7.693 l 0,0 C 8.075,7.673 8.12,7.679 8.168,7.689 l 0,0 c 1.07,-0.795 2.85,-1.582 5.861,-0.978 l 0,0 c 16.638,3.326 19.285,22.309 19.285,23.972 l 0,0 c 0,0 -0.145,1.727 -0.781,2.253 l 0,0 c -0.435,0.546 -2.018,0.546 -2.018,0.546 l 0,0 c -1.664,0 -20.797,-2.496 -24.124,-19.133"/></clipPath><clipPath id="clipPath84" clipPathUnits="userSpaceOnUse"><path id="path86" d="M 0,38 38,38 38,0 0,0 0,38 Z"/></clipPath></defs><g id="g10" transform="matrix(1.25,0,0,-1.25,0,47.5)"><g id="g12"><g id="g14" clip-path="url(#clipPath16)"><g id="g20" transform="translate(16.373,35.978)"><path id="path22" d="m 0,0 c -1.664,-1.664 -6.655,-8.318 -4.159,-14.142 2.495,-5.823 5.909,-2.239 7.486,2.495 0.832,2.496 0.832,5.824 -0.831,10.815 C 1.664,1.664 0,0 0,0" style="fill:#5c913b;fill-opacity:1;fill-rule:nonzero;stroke:none"/></g><g id="g24" transform="translate(35.6768,16.6738)"><path id="path26" d="m 0,0 c -1.663,-1.663 -8.319,-6.655 -14.142,-4.159 -5.823,2.496 -2.24,5.909 2.496,7.486 C -9.149,4.159 -5.823,4.16 -0.832,2.496 1.663,1.664 0,0 0,0" style="fill:#5c913b;fill-opacity:1;fill-rule:nonzero;stroke:none"/></g><g id="g28" transform="translate(33.3145,30.6826)"><path id="path30" d="m 0,0 c 0,0 -0.145,1.727 -0.781,2.253 -0.436,0.546 -2.018,0.546 -2.018,0.546 -1.664,0 -20.798,-2.495 -24.125,-19.133 -0.595,-2.973 0.086,-4.666 0.826,-5.697 -0.015,-0.057 -0.018,-0.103 0.006,-0.125 0.12,-0.121 0.263,-0.264 0.428,-0.413 0.145,-0.159 0.284,-0.3 0.403,-0.42 0.022,-0.02 0.067,-0.015 0.115,-0.005 1.07,-0.795 2.849,-1.581 5.86,-0.978 C -2.647,-20.646 -0.001,-1.663 0,0" style="fill:#f4900c;fill-opacity:1;fill-rule:nonzero;stroke:none"/></g></g></g><g id="g32"><g id="g34" clip-path="url(#clipPath36)"><g id="g40" transform="translate(25.7686,26.5654)"><path id="path42" d="m 0,0 c -0.446,-0.446 -1.172,-0.446 -1.617,0 l -1.618,1.618 c -0.447,0.446 -0.447,1.17 0,1.617 0.446,0.447 1.172,0.447 1.618,0 L 0,1.618 C 0.446,1.171 0.446,0.447 0,0" style="fill:#f7b82d;fill-opacity:1;fill-rule:nonzero;stroke:none"/></g><g id="g44" transform="translate(17.6812,26.5654)"><path id="path46" d="m 0,0 c -0.446,-0.446 -1.171,-0.446 -1.617,0 l -1.618,1.618 c -0.446,0.446 -0.446,1.17 0,1.617 0.447,0.447 1.171,0.447 1.618,0 L 0,1.618 C 0.447,1.171 0.447,0.447 0,0" style="fill:#f7b82d;fill-opacity:1;fill-rule:nonzero;stroke:none"/></g><g id="g48" transform="translate(20.1074,28.9922)"><path id="path50" d="m 0,0 c -0.447,-0.447 -1.17,-0.447 -1.617,0 l -1.618,1.617 c -0.447,0.447 -0.447,1.171 0,1.617 0.447,0.447 1.171,0.447 1.618,0 L 0,1.617 C 0.446,1.17 0.446,0.446 0,0" style="fill:#f7b82d;fill-opacity:1;fill-rule:nonzero;stroke:none"/></g><g id="g52" transform="translate(15.2559,24.1392)"><path id="path54" d="m 0,0 c -0.447,-0.446 -1.171,-0.446 -1.619,0 l -1.616,1.618 c -0.447,0.446 -0.447,1.171 0,1.617 0.446,0.447 1.17,0.447 1.616,0 L 0,1.618 C 0.446,1.171 0.446,0.447 0,0" style="fill:#f7b82d;fill-opacity:1;fill-rule:nonzero;stroke:none"/></g><g id="g56" transform="translate(28.1943,28.9922)"><path id="path58" d="m 0,0 c -0.446,-0.447 -1.17,-0.447 -1.617,0 l -1.617,1.617 c -0.448,0.447 -0.448,1.171 0,1.617 0.447,0.447 1.17,0.447 1.617,0 L 0,1.617 C 0.446,1.17 0.446,0.446 0,0" style="fill:#f7b82d;fill-opacity:1;fill-rule:nonzero;stroke:none"/></g><g id="g60" transform="translate(30.6172,31.3828)"><path id="path62" d="m 0,0 c -0.446,-0.447 -1.17,-0.447 -1.617,0 l -1.617,1.617 c -0.448,0.447 -0.448,1.171 0,1.617 0.447,0.448 1.17,0.448 1.617,0 L 0,1.617 C 0.446,1.17 0.446,0.446 0,0" style="fill:#f7b82d;fill-opacity:1;fill-rule:nonzero;stroke:none"/></g><g id="g64" transform="translate(23.3428,24.1392)"><path id="path66" d="m 0,0 c -0.447,-0.446 -1.172,-0.446 -1.618,0 l -1.617,1.618 c -0.448,0.446 -0.448,1.171 0,1.617 0.446,0.447 1.171,0.447 1.617,0 L 0,1.618 C 0.446,1.171 0.446,0.447 0,0" style="fill:#f7b82d;fill-opacity:1;fill-rule:nonzero;stroke:none"/></g><g id="g68" transform="translate(20.915,21.7134)"><path id="path70" d="m 0,0 c -0.445,-0.446 -1.17,-0.446 -1.617,0 l -1.617,1.618 c -0.446,0.446 -0.446,1.17 0,1.617 0.447,0.447 1.171,0.447 1.617,0 L 0,1.618 C 0.447,1.171 0.447,0.447 0,0" style="fill:#f7b82d;fill-opacity:1;fill-rule:nonzero;stroke:none"/></g><g id="g72" transform="translate(16.064,16.8613)"><path id="path74" d="m 0,0 c -0.447,-0.446 -1.171,-0.446 -1.618,0 l -1.617,1.618 c -0.447,0.445 -0.447,1.17 0,1.617 0.447,0.447 1.171,0.446 1.617,0 L 0,1.618 C 0.446,1.17 0.447,0.447 0,0" style="fill:#f7b82d;fill-opacity:1;fill-rule:nonzero;stroke:none"/></g><g id="g76" transform="translate(18.4902,19.2871)"><path id="path78" d="m 0,0 c -0.447,-0.446 -1.171,-0.446 -1.618,0 l -1.616,1.617 c -0.448,0.447 -0.448,1.172 0,1.618 0.445,0.447 1.17,0.447 1.616,0 L 0,1.617 C 0.447,1.171 0.447,0.447 0,0" style="fill:#f7b82d;fill-opacity:1;fill-rule:nonzero;stroke:none"/></g></g></g><g id="g80"><g id="g82" clip-path="url(#clipPath84)"><g id="g88" transform="translate(28.8662,13.4258)"><path id="path90" d="m 0,0 c -7.125,2.374 -15.097,-0.651 -19.418,-3.576 2.925,4.321 5.95,12.294 3.576,19.418 -0.933,2.8 -5.601,5.601 -8.402,2.801 -0.934,-0.934 -1.867,-1.868 0,-1.868 1.867,0 4.667,-2.8 3.735,-5.6 -0.836,-2.505 -6.889,-8.742 -4.154,-15.375 -0.269,-0.115 -0.523,-0.279 -0.743,-0.499 l -0.715,-0.714 c -0.919,-0.919 -0.919,-2.409 -0.001,-3.329 l 0.716,-0.716 c 0.92,-0.92 2.409,-0.92 3.328,0 l 0.716,0.716 c 0.123,0.123 0.226,0.258 0.316,0.398 6.999,-3.84 13.747,2.799 16.379,3.677 2.8,0.933 5.6,-1.868 5.6,-3.734 0,-1.868 0.933,-0.934 1.867,0 C 5.601,-5.602 2.799,-0.932 0,0" style="fill:#77b255;fill-opacity:1;fill-rule:nonzero;stroke:none"/></g></g></g></g></svg>