<svg xmlns="http://www.w3.org/2000/svg" xmlns:svg="http://www.w3.org/2000/svg" style="enable-background:new 0 0 47.5 47.5" id="svg2" version="1.1" viewBox="0 0 47.5 47.5" xml:space="preserve"><metadata id="metadata8"/><defs id="defs6"><clipPath id="clipPath16" clipPathUnits="userSpaceOnUse"><path id="path18" d="M 0,38 38,38 38,0 0,0 0,38 Z"/></clipPath><clipPath id="clipPath28" clipPathUnits="userSpaceOnUse"><path id="path30" d="m 1,19 c 0,-2.209 1.791,-4 4,-4 l 0,0 28,0 c 2.209,0 4,1.791 4,4 l 0,0 c 0,10 -8.059,18 -18,18 l 0,0 C 9.059,37 1,29 1,19"/></clipPath></defs><g id="g10" transform="matrix(1.25,0,0,-1.25,0,47.5)"><g id="g12"><g id="g14" clip-path="url(#clipPath16)"><g id="g20" transform="translate(28,4)"><path id="path22" d="m 0,0 c 0,-2.209 -1.791,-3 -4,-3 l -10,0 c -2.209,0 -4,0.791 -4,3 0,2.209 3,7 3,13 0,6 12,6 12,0 C -3,7 0,2.209 0,0" style="fill:#99aab5;fill-opacity:1;fill-rule:nonzero;stroke:none"/></g></g></g><g id="g24"><g id="g26" clip-path="url(#clipPath28)"><g id="g32" transform="translate(19,37.6113)"><path id="path34" d="m 0,0 c -10.494,0 -19,-8.639 -19,-19.194 0,-2.332 1.891,-4.417 4.222,-4.417 l 29.555,0 c 2.332,0 4.223,2.085 4.223,4.417 C 19,-8.639 10.494,0 0,0" style="fill:#dd2e44;fill-opacity:1;fill-rule:nonzero;stroke:none"/></g><g id="g36" transform="translate(8.7085,20.542)"><path id="path38" d="m 0,0 c -3.4,0 -6.167,2.766 -6.167,6.167 0,3.4 2.767,6.166 6.167,6.166 3.4,0 6.167,-2.766 6.167,-6.166 C 6.167,2.766 3.4,0 0,0" style="fill:#f4abba;fill-opacity:1;fill-rule:nonzero;stroke:none"/></g><g id="g40" transform="translate(8.7085,33)"><path id="path42" d="m 0,0 c -3.475,0 -6.292,-2.817 -6.292,-6.292 0,-3.474 2.817,-6.291 6.292,-6.291 3.475,0 6.292,2.817 6.292,6.291 C 6.292,-2.817 3.475,0 0,0 m 0,-0.25 c 3.331,0 6.042,-2.71 6.042,-6.042 0,-3.331 -2.711,-6.041 -6.042,-6.041 -3.331,0 -6.042,2.71 -6.042,6.041 0,3.332 2.711,6.042 6.042,6.042" style="fill:#f4abba;fill-opacity:1;fill-rule:nonzero;stroke:none"/></g><g id="g44" transform="translate(35.666,25.8115)"><path id="path46" d="M 0,0 C -0.96,2.357 -2.404,4.455 -4.209,6.184 -6.674,6.16 -8.666,4.159 -8.666,1.688 c 0,-2.485 2.015,-4.5 4.5,-4.5 1.887,0 3.497,1.165 4.166,2.812" style="fill:#f4abba;fill-opacity:1;fill-rule:nonzero;stroke:none"/></g><g id="g48" transform="translate(27,21)"><path id="path50" d="M 0,0 C 0,-2.485 -2.015,-4.5 -4.5,-4.5 -6.985,-4.5 -9,-2.485 -9,0 -9,2.485 -6.985,4.5 -4.5,4.5 -2.015,4.5 0,2.485 0,0" style="fill:#f4abba;fill-opacity:1;fill-rule:nonzero;stroke:none"/></g><g id="g52" transform="translate(24,32)"><path id="path54" d="m 0,0 c 0,-1.656 -1.343,-3 -3,-3 -1.657,0 -3,1.344 -3,3 0,1.657 1.343,3 3,3 1.657,0 3,-1.343 3,-3" style="fill:#f4abba;fill-opacity:1;fill-rule:nonzero;stroke:none"/></g></g></g></g></svg>