<svg xmlns="http://www.w3.org/2000/svg" xmlns:svg="http://www.w3.org/2000/svg" style="enable-background:new 0 0 47.5 47.5" id="svg2" version="1.1" viewBox="0 0 47.5 47.5" xml:space="preserve"><metadata id="metadata8"/><defs id="defs6"><clipPath id="clipPath16" clipPathUnits="userSpaceOnUse"><path id="path18" d="M 0,38 38,38 38,0 0,0 0,38 Z"/></clipPath></defs><g id="g10" transform="matrix(1.25,0,0,-1.25,0,47.5)"><g id="g12"><g id="g14" clip-path="url(#clipPath16)"><g id="g20" transform="translate(3.4717,30.4277)"><path id="path22" d="m 0,0 c -0.943,-2.125 -1.472,-4.466 -1.472,-6.928 0,-9.665 8.059,-17.5 18,-17.5 7.746,0 14.33,4.767 16.868,11.441 L 0,0 Z" style="fill:#5c913b;fill-opacity:1;fill-rule:nonzero;stroke:none"/></g><g id="g24" transform="translate(5.3315,29.7046)"><path id="path26" d="m 0,0 c -0.853,-1.902 -1.332,-3.998 -1.332,-6.205 0,-8.59 7.164,-15.555 16,-15.555 6.905,0 12.77,4.26 15.013,10.218 L 0,0 Z" style="fill:#ffe8b6;fill-opacity:1;fill-rule:nonzero;stroke:none"/></g><g id="g28" transform="translate(7.1909,28.9814)"><path id="path30" d="m 0,0 c -0.761,-1.678 -1.191,-3.53 -1.191,-5.481 0,-7.518 6.268,-13.612 14,-13.612 6.063,0 11.21,3.753 13.156,8.995 L 0,0 Z" style="fill:#dd2e44;fill-opacity:1;fill-rule:nonzero;stroke:none"/></g><g id="g32" transform="translate(10.916,22.7227)"><path id="path34" d="m 0,0 c -0.307,-0.46 -0.741,-0.708 -0.971,-0.555 -0.23,0.154 -0.168,0.65 0.139,1.11 0.307,0.46 0.741,0.708 0.971,0.554 C 0.369,0.956 0.307,0.46 0,0" style="fill:#000;fill-opacity:1;fill-rule:nonzero;stroke:none"/></g><g id="g36" transform="translate(16.916,21.7227)"><path id="path38" d="m 0,0 c -0.307,-0.46 -0.741,-0.708 -0.971,-0.555 -0.23,0.154 -0.168,0.65 0.139,1.11 0.307,0.46 0.741,0.708 0.971,0.554 C 0.369,0.956 0.307,0.46 0,0" style="fill:#000;fill-opacity:1;fill-rule:nonzero;stroke:none"/></g><g id="g40" transform="translate(21.998,17.0449)"><path id="path42" d="m 0,0 c 0.05,-0.551 -0.132,-1.016 -0.406,-1.041 -0.276,-0.025 -0.538,0.4 -0.588,0.951 -0.051,0.551 0.132,1.016 0.406,1.04 C -0.312,0.977 -0.05,0.552 0,0" style="fill:#000;fill-opacity:1;fill-rule:nonzero;stroke:none"/></g><g id="g44" transform="translate(12.998,19.0449)"><path id="path46" d="m 0,0 c 0.05,-0.551 -0.132,-1.016 -0.406,-1.041 -0.276,-0.025 -0.538,0.4 -0.588,0.951 -0.05,0.551 0.132,1.016 0.406,1.04 C -0.312,0.977 -0.05,0.552 0,0" style="fill:#000;fill-opacity:1;fill-rule:nonzero;stroke:none"/></g><g id="g48" transform="translate(16.8994,13.6992)"><path id="path50" d="m 0,0 c -0.333,-0.441 -0.78,-0.663 -1,-0.497 -0.222,0.166 -0.129,0.658 0.204,1.099 0.334,0.441 0.781,0.663 1,0.497 C 0.426,0.933 0.334,0.441 0,0" style="fill:#000;fill-opacity:1;fill-rule:nonzero;stroke:none"/></g><g id="g52" transform="translate(24.9355,13.2451)"><path id="path54" d="m 0,0 c 0.272,-0.481 0.299,-0.979 0.06,-1.115 -0.242,-0.137 -0.657,0.142 -0.929,0.624 -0.274,0.48 -0.299,0.978 -0.059,1.115 C -0.687,0.762 -0.273,0.482 0,0" style="fill:#000;fill-opacity:1;fill-rule:nonzero;stroke:none"/></g><g id="g56" transform="translate(17.918,18.2734)"><path id="path58" d="M 0,0 C 0.303,-0.463 0.362,-0.958 0.131,-1.109 -0.1,-1.262 -0.532,-1.01 -0.835,-0.547 -1.138,-0.085 -1.196,0.411 -0.966,0.562 -0.735,0.715 -0.303,0.464 0,0" style="fill:#000;fill-opacity:1;fill-rule:nonzero;stroke:none"/></g><g id="g60" transform="translate(26.8994,16.6992)"><path id="path62" d="m 0,0 c -0.333,-0.441 -0.78,-0.663 -1.001,-0.497 -0.221,0.166 -0.129,0.658 0.205,1.099 0.333,0.442 0.78,0.663 1,0.497 C 0.426,0.933 0.335,0.441 0,0" style="fill:#000;fill-opacity:1;fill-rule:nonzero;stroke:none"/></g></g></g></g></svg>