<svg xmlns="http://www.w3.org/2000/svg" xmlns:svg="http://www.w3.org/2000/svg" style="enable-background:new 0 0 47.5 47.5" id="svg2" version="1.1" viewBox="0 0 47.5 47.5" xml:space="preserve"><metadata id="metadata8"/><defs id="defs6"><clipPath id="clipPath16" clipPathUnits="userSpaceOnUse"><path id="path18" d="M 0,38 38,38 38,0 0,0 0,38 Z"/></clipPath></defs><g id="g10" transform="matrix(1.25,0,0,-1.25,0,47.5)"><g id="g12"><g id="g14" clip-path="url(#clipPath16)"><g id="g20" transform="translate(7,33)"><path id="path22" d="m 0,0 c 3,0 5,-2 8,-6 3,-4 7.957,-7.191 12,-8 5,-1 9,-5 9,-11 0,-4.897 -3.846,-7 -9,-7 -5,0 -9,3 -14,8 -5,5 -10,14 -10,18 0,4 1,6 4,6" style="fill:#744eaa;fill-opacity:1;fill-rule:nonzero;stroke:none"/></g><g id="g24" transform="translate(4.5146,37)"><path id="path26" d="m 0,0 c 1.248,0 1.248,-1.248 1.248,-2.495 0,-1.764 1.247,-1.129 2.495,-1.129 C 4.99,-3.624 7.485,-6 7.485,-6 l -3.742,0 c -1.248,0 0,-2.614 -1.248,-2.614 -1.247,0 -1.247,1.188 -2.495,1.188 -1.248,0 -1.515,-3.574 -1.515,-3.574 0,0 -1.604,4.153 0.267,6.024 C 0,-3.728 -2.495,0 0,0" style="fill:#77b255;fill-opacity:1;fill-rule:nonzero;stroke:none"/></g></g></g></g></svg>