<svg xmlns="http://www.w3.org/2000/svg" xmlns:svg="http://www.w3.org/2000/svg" style="enable-background:new 0 0 47.5 47.5" id="svg2" version="1.1" viewBox="0 0 47.5 47.5" xml:space="preserve"><metadata id="metadata8"/><defs id="defs6"><clipPath id="clipPath16" clipPathUnits="userSpaceOnUse"><path id="path18" d="M 0,38 38,38 38,0 0,0 0,38 Z"/></clipPath><clipPath id="clipPath56" clipPathUnits="userSpaceOnUse"><path id="path58" d="M 15,34 C 10,30 2,19 2,11 l 0,0 C 2,1.611 9.609,2 19,2 l 0,0 c 9.391,0 17,-0.389 17,9 l 0,0 c 0,5 -6,18 -13,23 l 0,0 c -1.427,1.019 -2.732,1.519 -4.021,1.519 l 0,0 C 17.673,35.519 16.383,35.006 15,34"/></clipPath></defs><g id="g10" transform="matrix(1.25,0,0,-1.25,0,47.5)"><g id="g12"><g id="g14" clip-path="url(#clipPath16)"><g id="g20" transform="translate(36,11)"><path id="path22" d="m 0,0 c 0,-9.389 -7.609,-9 -17,-9 -9.391,0 -17,-0.389 -17,9 0,8 8,19 13,23 2.75,2 5.129,2.051 8,0 C -6,18 0,5 0,0" style="fill:#eee;fill-opacity:1;fill-rule:nonzero;stroke:none"/></g><g id="g24" transform="translate(28.2578,7.3584)"><path id="path26" d="m 0,0 c -0.461,-0.316 -1.091,-0.199 -1.406,0.263 -0.316,0.46 -0.198,1.091 0.261,1.406 l 1.67,1.144 C 0.985,3.128 1.614,3.011 1.931,2.55 2.246,2.09 2.129,1.459 1.668,1.145 L 0,0 Z" style="fill:#ccd6dd;fill-opacity:1;fill-rule:nonzero;stroke:none"/></g><g id="g28" transform="translate(30.6963,14.4531)"><path id="path30" d="M 0,0 C -0.512,0.207 -0.758,0.792 -0.549,1.303 -0.34,1.814 0.244,2.061 0.755,1.852 L 2.607,1.097 C 3.118,0.889 3.364,0.306 3.156,-0.206 2.948,-0.718 2.364,-0.964 1.853,-0.755 L 0,0 Z" style="fill:#ccd6dd;fill-opacity:1;fill-rule:nonzero;stroke:none"/></g><g id="g32" transform="translate(26.2021,19.709)"><path id="path34" d="m 0,0 c -0.519,0.21 -0.768,0.801 -0.555,1.318 0.209,0.517 0.801,0.766 1.317,0.556 L 2.637,1.11 C 3.152,0.899 3.401,0.31 3.19,-0.208 2.979,-0.725 2.391,-0.974 1.872,-0.763 L 0,0 Z" style="fill:#ccd6dd;fill-opacity:1;fill-rule:nonzero;stroke:none"/></g><g id="g36" transform="translate(5.2012,12.709)"><path id="path38" d="m 0,0 c -0.517,0.21 -0.766,0.801 -0.554,1.318 0.21,0.517 0.801,0.766 1.318,0.556 L 2.637,1.11 C 3.154,0.899 3.402,0.31 3.192,-0.208 2.981,-0.726 2.391,-0.975 1.874,-0.764 L 0,0 Z" style="fill:#ccd6dd;fill-opacity:1;fill-rule:nonzero;stroke:none"/></g><g id="g40" transform="translate(8.7578,18.8584)"><path id="path42" d="m 0,0 c -0.461,-0.316 -1.091,-0.199 -1.406,0.264 -0.316,0.46 -0.198,1.09 0.261,1.405 l 1.67,1.144 C 0.985,3.128 1.614,3.011 1.931,2.55 2.246,2.09 2.129,1.459 1.668,1.144 L 0,0 Z" style="fill:#ccd6dd;fill-opacity:1;fill-rule:nonzero;stroke:none"/></g><g id="g44" transform="translate(17.7861,15.1191)"><path id="path46" d="M 0,0 C -0.768,0.312 -1.137,1.188 -0.824,1.956 -0.51,2.722 0.365,3.091 1.132,2.779 L 3.91,1.646 C 4.677,1.334 5.046,0.46 4.734,-0.308 4.422,-1.075 3.546,-1.444 2.778,-1.132 L 0,0 Z" style="fill:#ccd6dd;fill-opacity:1;fill-rule:nonzero;stroke:none"/></g><g id="g48" transform="translate(11.6016,9.0674)"><path id="path50" d="M 0,0 C 0.522,0.199 1.106,-0.062 1.306,-0.586 1.503,-1.105 1.239,-1.691 0.718,-1.889 l -1.892,-0.72 c -0.518,-0.2 -1.103,0.063 -1.302,0.586 -0.2,0.523 0.063,1.106 0.585,1.306 L 0,0 Z" style="fill:#ccd6dd;fill-opacity:1;fill-rule:nonzero;stroke:none"/></g></g></g><g id="g52"><g id="g54" clip-path="url(#clipPath56)"><g id="g60" transform="translate(27,2)"><path id="path62" d="m 0,0 c 0,-1.104 -0.896,-2 -2,-2 l -12,0 c -1.104,0 -2,0.896 -2,2 l 0,12 c 0,1.104 0.896,2 2,2 l 12,0 c 1.104,0 2,-0.896 2,-2 L 0,0 Z" style="fill:#292f33;fill-opacity:1;fill-rule:nonzero;stroke:none"/></g></g></g></g></svg>