<svg xmlns="http://www.w3.org/2000/svg" xmlns:svg="http://www.w3.org/2000/svg" style="enable-background:new 0 0 47.5 47.5" id="svg2" version="1.1" viewBox="0 0 47.5 47.5" xml:space="preserve"><metadata id="metadata8"/><defs id="defs6"><clipPath id="clipPath16" clipPathUnits="userSpaceOnUse"><path id="path18" d="M 0,38 38,38 38,0 0,0 0,38 Z"/></clipPath></defs><g id="g10" transform="matrix(1.25,0,0,-1.25,0,47.5)"><g id="g12"><g id="g14" clip-path="url(#clipPath16)"><g id="g20" transform="translate(8.6812,27.9033)"><path id="path22" d="m 0,0 c 1.587,3.151 7.698,1.916 11.958,-2.171 2.698,-2.586 8.056,-1.498 11.499,-4.804 3.493,-3.354 3.258,-9.361 -3.053,-15.767 -5.085,-5.161 -12.085,-5.161 -16.25,-1.545 -4.388,3.81 -2.475,8.61 -4.411,13.585 C -2.194,-5.726 -4.581,-0.278 0,0" style="fill:#a6d388;fill-opacity:1;fill-rule:nonzero;stroke:none"/></g><g id="g24" transform="translate(9.1782,27.4658)"><path id="path26" d="M 0,0 C -0.43,-0.448 -1.114,-0.489 -1.527,-0.093 -4.735,2.986 -5.445,7.452 -5.473,7.683 -5.547,8.27 -5.125,8.84 -4.535,8.961 -3.942,9.082 -3.403,8.705 -3.33,8.12 -3.324,8.07 -2.672,4.123 0.03,1.529 0.443,1.132 0.43,0.448 0,0" style="fill:#662113;fill-opacity:1;fill-rule:nonzero;stroke:none"/></g></g></g></g></svg>