<svg xmlns="http://www.w3.org/2000/svg" xmlns:svg="http://www.w3.org/2000/svg" style="enable-background:new 0 0 47.5 47.5" id="svg2" version="1.1" viewBox="0 0 47.5 47.5" xml:space="preserve"><metadata id="metadata8"/><defs id="defs6"><clipPath id="clipPath16" clipPathUnits="userSpaceOnUse"><path id="path18" d="M 0,38 38,38 38,0 0,0 0,38 Z"/></clipPath><clipPath id="clipPath32" clipPathUnits="userSpaceOnUse"><path id="path34" d="m 23.795,8.428 0.399,-3.055 c 0.531,-4.074 5.628,-4.3 6.248,-2.126 l 0,0 0.933,4.042 4.041,0.932 c 2.173,0.621 1.949,5.718 -2.125,6.25 l 0,0 -3.055,0.398 c -0.324,0.042 -0.641,0.063 -0.949,0.063 l 0,0 c -3.564,0 -5.981,-2.755 -5.492,-6.504"/></clipPath><clipPath id="clipPath44" clipPathUnits="userSpaceOnUse"><path id="path46" d="M 8.051,35.588 7.116,31.547 3.075,30.613 C 0.901,29.993 1.127,24.897 5.201,24.365 l 0,0 3.055,-0.399 c 4.074,-0.531 6.973,2.367 6.441,6.441 l 0,0 -0.399,3.055 c -0.316,2.429 -2.256,3.49 -3.902,3.49 l 0,0 c -1.115,0 -2.095,-0.486 -2.345,-1.364"/></clipPath><clipPath id="clipPath56" clipPathUnits="userSpaceOnUse"><path id="path58" d="M 0,38 38,38 38,0 0,0 0,38 Z"/></clipPath><clipPath id="clipPath68" clipPathUnits="userSpaceOnUse"><path id="path70" d="m 12.246,27.21 c -4.159,-4.161 -4.158,-10.905 0,-15.064 l 0,0 c 4.161,-4.159 10.905,-4.159 15.064,0 l 0,0 c 4.159,4.159 4.159,10.903 0,15.064 l 0,0 c -2.08,2.079 -4.806,3.119 -7.532,3.119 l 0,0 c -2.726,0 -5.452,-1.04 -7.532,-3.119"/></clipPath></defs><g id="g10" transform="matrix(1.25,0,0,-1.25,0,47.5)"><g id="g12"><g id="g14" clip-path="url(#clipPath16)"><g id="g20" transform="translate(14.2983,33.4624)"><path id="path22" d="m 0,0 c -0.531,4.075 -5.627,4.299 -6.248,2.125 l -0.934,-4.041 -4.041,-0.933 c -2.174,-0.621 -1.949,-5.717 2.126,-6.248 l 3.054,-0.399 c 4.074,-0.531 6.973,2.367 6.441,6.441 L 0,0 Z" style="fill:#dd2e44;fill-opacity:1;fill-rule:nonzero;stroke:none"/></g><g id="g24" transform="translate(33.291,14.4707)"><path id="path26" d="m 0,0 c 4.074,-0.531 4.299,-5.629 2.125,-6.249 l -4.041,-0.933 -0.934,-4.042 c -0.62,-2.173 -5.716,-1.948 -6.248,2.126 l -0.398,3.055 c -0.531,4.074 2.367,6.973 6.441,6.441 L 0,0 Z" style="fill:#dd2e44;fill-opacity:1;fill-rule:nonzero;stroke:none"/></g></g></g><g id="g28"><g id="g30" clip-path="url(#clipPath32)"><g id="g36" transform="translate(22.5537,16.9023)"><path id="path38" d="m 0,0 c -2.846,-2.846 -3.734,-6.572 -1.981,-8.324 1.75,-1.751 5.477,-0.864 8.323,1.982 2.846,2.846 3.733,6.573 1.982,8.324 C 6.572,3.734 2.846,2.846 0,0" style="fill:#be1931;fill-opacity:1;fill-rule:nonzero;stroke:none"/></g></g></g><g id="g40"><g id="g42" clip-path="url(#clipPath44)"><g id="g48" transform="translate(10.6616,28.7944)"><path id="path50" d="m 0,0 c -2.846,-2.846 -3.733,-6.573 -1.982,-8.324 1.752,-1.752 5.478,-0.864 8.324,1.982 2.847,2.846 3.734,6.572 1.982,8.324 C 6.573,3.733 2.846,2.846 0,0" style="fill:#be1931;fill-opacity:1;fill-rule:nonzero;stroke:none"/></g></g></g><g id="g52"><g id="g54" clip-path="url(#clipPath56)"><g id="g60" transform="translate(27.3096,12.1465)"><path id="path62" d="m 0,0 c -4.159,-4.16 -10.903,-4.16 -15.063,0 -4.159,4.159 -4.159,10.903 0,15.063 4.16,4.159 10.904,4.159 15.063,0 C 4.16,10.903 4.16,4.159 0,0" style="fill:#dd2e44;fill-opacity:1;fill-rule:nonzero;stroke:none"/></g></g></g><g id="g64"><g id="g66" clip-path="url(#clipPath68)"><g id="g72" transform="translate(19.7085,19.9585)"><path id="path74" d="m 0,0 c -4.184,-2.535 -11.269,-3.17 -12.486,1.679 -1.162,-2.766 -1.21,-5.46 0.246,-7.156 C -10.783,-7.174 -4.02,-6.988 0,0" style="fill:#f5f8fa;fill-opacity:1;fill-rule:nonzero;stroke:none"/></g><g id="g76" transform="translate(19.75,20)"><path id="path78" d="m 0,0 c 0.643,-4.85 -2.532,-12.044 -7.461,-11.212 2.066,-2.175 4.514,-3.3 6.652,-2.646 C 1.331,-13.205 4.787,-6.486 0,0" style="fill:#f5f8fa;fill-opacity:1;fill-rule:nonzero;stroke:none"/></g><g id="g80" transform="translate(19.75,20)"><path id="path82" d="m 0,0 c 4.65,-0.867 8.234,-5.483 6.392,-10.132 2.557,1.568 5.114,2.564 4.921,4.791 C 11.121,-3.114 7.344,3.328 0,0" style="fill:#f5f8fa;fill-opacity:1;fill-rule:nonzero;stroke:none"/></g><g id="g84" transform="translate(19.75,20)"><path id="path86" d="M 0,0 C 1.541,3.333 8.285,6.246 12.168,3.096 11.438,6.006 11.434,8.516 9.25,9 7.067,9.484 -0.976,8.003 0,0" style="fill:#f5f8fa;fill-opacity:1;fill-rule:nonzero;stroke:none"/></g><g id="g88" transform="translate(19.7915,19.9585)"><path id="path90" d="m 0,0 c -3.875,2.042 -5.792,8.042 -1.792,11.042 -3,0 -6,0 -7,-2 C -9.792,7.042 -8,1 0,0" style="fill:#f5f8fa;fill-opacity:1;fill-rule:nonzero;stroke:none"/></g><g id="g92" transform="translate(27.3096,12.1465)"><path id="path94" d="m 0,0 c -4.159,-4.16 -10.903,-4.16 -15.063,0 -4.159,4.159 -4.159,10.903 0,15.063 4.16,4.159 10.904,4.159 15.063,0 C 4.16,10.903 4.16,4.159 0,0 Z" style="fill:none;stroke:#dd2e44;stroke-width:3;stroke-linecap:butt;stroke-linejoin:miter;stroke-miterlimit:10;stroke-dasharray:none;stroke-opacity:1"/></g></g></g></g></svg>