<svg xmlns="http://www.w3.org/2000/svg" xmlns:svg="http://www.w3.org/2000/svg" style="enable-background:new 0 0 47.5 47.5" id="svg2" version="1.1" viewBox="0 0 47.5 47.5" xml:space="preserve"><metadata id="metadata8"/><defs id="defs6"><clipPath id="clipPath16" clipPathUnits="userSpaceOnUse"><path id="path18" d="M 0,38 38,38 38,0 0,0 0,38 Z"/></clipPath><clipPath id="clipPath28" clipPathUnits="userSpaceOnUse"><path id="path30" d="M 3.442,21.978 C 3.264,21.911 3.109,21.797 2.995,21.646 l 0,0 C 1.755,20.012 0.381,13.53 4,10 l 0,0 C 7.556,6.532 10.822,5.696 12.778,5.505 l 0,0 c 0.032,-0.003 0.107,-0.007 0.14,-0.007 l 0,0 c 2.458,0 18.332,10.76 19.524,13.235 l 0,0 c 1.372,2.842 1.281,8.399 -1.98,10.297 l 0,0 c -0.395,0.231 -0.914,0.338 -1.633,0.338 l 0,0 c -5.581,0 -24.581,-7.089 -25.387,-7.39"/></clipPath><clipPath id="clipPath40" clipPathUnits="userSpaceOnUse"><path id="path42" d="M 0,38 38,38 38,0 0,0 0,38 Z"/></clipPath></defs><g id="g10" transform="matrix(1.25,0,0,-1.25,0,47.5)"><g id="g12"><g id="g14" clip-path="url(#clipPath16)"><g id="g20" transform="translate(12.918,5.498)"><path id="path22" d="m 0,0 0,0 c -0.033,0 -0.108,0.004 -0.14,0.007 -1.957,0.191 -6.023,1.362 -8.778,5.495 -2,3 -2.245,9.012 -1.004,10.646 0.114,0.151 0.268,0.266 0.445,0.332 0.807,0.302 19.807,7.39 25.388,7.39 0.719,0 1.238,-0.107 1.633,-0.337 3.261,-1.899 3.352,-7.456 1.98,-10.299 C 18.332,10.761 2.458,0 0,0" style="fill:#eee;fill-opacity:1;fill-rule:nonzero;stroke:none"/></g></g></g><g id="g24"><g id="g26" clip-path="url(#clipPath28)"><g id="g32" transform="translate(14,18)"><path id="path34" d="M 0,0 C -1,-3 -3,-14 2,-16 7,-18 26,-4.083 24,1.458 22,7 17,12 13,9 9,6 0,0 0,0" style="fill:#ccd6dd;fill-opacity:1;fill-rule:nonzero;stroke:none"/></g></g></g><g id="g36"><g id="g38" clip-path="url(#clipPath40)"><g id="g44" transform="translate(33.0176,30.4795)"><path id="path46" d="m 0,0 c -0.227,0.213 -0.541,0.309 -0.846,0.257 l -29.376,-4.833 c -0.492,-0.081 -0.85,-0.514 -0.837,-1.013 0.027,-1.011 0.019,-1.746 0.01,-2.574 -0.005,-0.46 -0.01,-0.948 -0.01,-1.525 0,-0.297 0.132,-0.579 0.361,-0.769 2.033,-1.687 8.714,-6.157 10.233,-6.917 0.142,-0.07 0.295,-0.105 0.447,-0.105 0.217,0 0.432,0.07 0.61,0.207 2.556,1.966 16.483,9.929 18.664,10.875 0.335,0.146 0.564,0.463 0.598,0.827 0.125,1.373 0.458,4.741 0.458,4.742 C 0.342,-0.519 0.228,-0.212 0,0" style="fill:#a0041e;fill-opacity:1;fill-rule:nonzero;stroke:none"/></g><g id="g48" transform="translate(33.085,30.4106)"><path id="path50" d="m 0,0 c -2.02,2.295 -9.627,5.574 -10.917,5.63 -0.081,0.004 -0.159,-0.003 -0.238,-0.018 -10.106,-2.013 -16.719,-7.806 -19.209,-9.987 l -0.416,-0.362 c -0.232,-0.2 -0.359,-0.496 -0.345,-0.802 0.013,-0.306 0.167,-0.589 0.416,-0.768 0.338,-0.243 8.316,-5.96 10.257,-7.058 0.154,-0.086 0.323,-0.129 0.492,-0.129 0.24,0 0.479,0.087 0.667,0.254 3.914,3.499 17.099,10.961 18.897,11.644 0.307,0.117 0.537,0.376 0.616,0.695 C 0.299,-0.583 0.217,-0.246 0,0" style="fill:#dd2e44;fill-opacity:1;fill-rule:nonzero;stroke:none"/></g><g id="g52" transform="translate(8.417,28.4165)"><path id="path54" d="M 0,0 C 0.875,-2.667 1.333,-5.417 1.75,-7.833" style="fill:none;stroke:#ea596e;stroke-width:2;stroke-linecap:round;stroke-linejoin:round;stroke-miterlimit:10;stroke-dasharray:none;stroke-opacity:1"/></g><g id="g56" transform="translate(13.9585,31.8335)"><path id="path58" d="M 0,0 C 1.042,-2.833 2.167,-9.333 2.25,-11" style="fill:none;stroke:#ea596e;stroke-width:2;stroke-linecap:round;stroke-linejoin:round;stroke-miterlimit:10;stroke-dasharray:none;stroke-opacity:1"/></g><g id="g60" transform="translate(20,34)"><path id="path62" d="M 0,0 C 1,-3 1.592,-7.763 1.834,-9.375" style="fill:none;stroke:#ea596e;stroke-width:2;stroke-linecap:round;stroke-linejoin:round;stroke-miterlimit:10;stroke-dasharray:none;stroke-opacity:1"/></g><g id="g64" transform="translate(26.459,32.9585)"><path id="path66" d="M 0,0 C 0.5,-1.417 0.833,-2.833 1.041,-4.917" style="fill:none;stroke:#ea596e;stroke-width:2;stroke-linecap:round;stroke-linejoin:round;stroke-miterlimit:10;stroke-dasharray:none;stroke-opacity:1"/></g><g id="g68" transform="translate(33.1357,14)"><path id="path70" d="m 0,0 c -1.714,1.235 -4.055,2 -6.636,2 -2.581,0 -4.922,-0.765 -6.635,-2 l -2.865,0 0,-5 c 0,-3.859 4.262,-7 9.5,-7 5.239,0 9.5,3.141 9.5,7 l 0,5 L 0,0 Z" style="fill:#292f33;fill-opacity:1;fill-rule:nonzero;stroke:none"/></g><g id="g72" transform="translate(26.5,21)"><path id="path74" d="m 0,0 c -5.238,0 -9.5,-3.141 -9.5,-7 0,-3.859 4.262,-7 9.5,-7 5.238,0 9.5,3.141 9.5,7 0,3.859 -4.262,7 -9.5,7" style="fill:#292f33;fill-opacity:1;fill-rule:nonzero;stroke:none"/></g><g id="g76" transform="translate(33.583,14)"><path id="path78" d="m 0,0 c 0,-2.762 -3.171,-5 -7.083,-5 -3.912,0 -7.084,2.238 -7.084,5 0,2.762 3.172,5 7.084,5 C -3.171,5 0,2.762 0,0" style="fill:#e1e8ed;fill-opacity:1;fill-rule:nonzero;stroke:none"/></g><g id="g80" transform="translate(33.583,14)"><path id="path82" d="m 0,0 c 0,-2.762 -3.171,-5 -7.083,-5 -3.912,0 -7.084,2.238 -7.084,5 0,2.762 3.172,5 7.084,5 C -3.171,5 0,2.762 0,0 Z" style="fill:none;stroke:#e1e8ed;stroke-width:1.66700006;stroke-linecap:round;stroke-linejoin:round;stroke-miterlimit:10;stroke-dasharray:none;stroke-opacity:1"/></g><g id="g84" transform="translate(22.209,14.458)"><path id="path86" d="M 0,0 C 0,0.422 1.806,0.335 4.291,0.335 6.776,0.335 8.5,0.881 8.5,0.459 8.5,-1.316 6.776,-3.093 4.291,-3.093 1.806,-3.093 0,-1.775 0,0" style="fill:#77b255;fill-opacity:1;fill-rule:nonzero;stroke:none"/></g><g id="g88" transform="translate(22.209,14.458)"><path id="path90" d="M 0,0 C 0,0.422 1.806,0.335 4.291,0.335 6.776,0.335 8.5,0.881 8.5,0.459 8.5,-1.316 6.776,-3.093 4.291,-3.093 1.806,-3.093 0,-1.775 0,0 Z" style="fill:none;stroke:#77b255;stroke-width:1;stroke-linecap:butt;stroke-linejoin:miter;stroke-miterlimit:10;stroke-dasharray:none;stroke-opacity:1"/></g><g id="g92" transform="translate(31,15)"><path id="path94" d="M 0,0 C 0,0 -2,1 -5,0 -7.357,-0.786 -9,-2.561 -9,-0.785 -9,0.99 -6.985,2.428 -4.5,2.428 -2.015,2.428 0,1 0,0" style="fill:#f4900c;fill-opacity:1;fill-rule:nonzero;stroke:none"/></g><g id="g96" transform="translate(31,15)"><path id="path98" d="M 0,0 C 0,0 -2,1 -5,0 -7.357,-0.786 -9,-2.561 -9,-0.785 -9,0.99 -6.985,2.428 -4.5,2.428 -2.015,2.428 0,1 0,0 Z" style="fill:none;stroke:#f4900c;stroke-width:1;stroke-linecap:round;stroke-linejoin:round;stroke-miterlimit:10;stroke-dasharray:none;stroke-opacity:1"/></g></g></g></g></svg>