<svg xmlns="http://www.w3.org/2000/svg" xmlns:svg="http://www.w3.org/2000/svg" style="enable-background:new 0 0 47.5 47.5" id="svg2" version="1.1" viewBox="0 0 47.5 47.5" xml:space="preserve"><metadata id="metadata8"/><defs id="defs6"><clipPath id="clipPath16" clipPathUnits="userSpaceOnUse"><path id="path18" d="M 0,38 38,38 38,0 0,0 0,38 Z"/></clipPath></defs><g id="g10" transform="matrix(1.25,0,0,-1.25,0,47.5)"><g id="g12"><g id="g14" clip-path="url(#clipPath16)"><g id="g20" transform="translate(34.875,1.7725)"><path id="path22" d="M 0,0 C -0.314,0 -0.628,0.12 -0.868,0.359 L -31.509,31 c -0.48,0.48 -0.48,1.257 0,1.737 0.479,0.479 1.257,0.479 1.736,0 L 0.868,2.096 c 0.48,-0.48 0.48,-1.257 0,-1.737 C 0.628,0.12 0.314,0 0,0" style="fill:#d99e82;fill-opacity:1;fill-rule:nonzero;stroke:none"/></g><g id="g24" transform="translate(16.2544,28.3726)"><path id="path26" d="m 0,0 c 0,-3.729 -3.023,-6.752 -6.752,-6.752 -3.729,0 -6.752,3.023 -6.752,6.752 0,3.729 3.023,6.752 6.752,6.752 C -3.023,6.752 0,3.729 0,0" style="fill:#fcb1e3;fill-opacity:1;fill-rule:nonzero;stroke:none"/></g><g id="g28" transform="translate(23.6211,21.0063)"><path id="path30" d="m 0,0 c 0,-3.729 -3.023,-6.752 -6.752,-6.752 -3.73,0 -6.753,3.023 -6.753,6.752 0,3.729 3.023,6.752 6.753,6.752 C -3.023,6.752 0,3.729 0,0" style="fill:#ffd983;fill-opacity:1;fill-rule:nonzero;stroke:none"/></g><g id="g32" transform="translate(30.9873,13.6406)"><path id="path34" d="m 0,0 c 0,-3.729 -3.024,-6.753 -6.753,-6.753 -3.728,0 -6.752,3.024 -6.752,6.753 0,3.729 3.024,6.752 6.752,6.752 C -3.024,6.752 0,3.729 0,0" style="fill:#a6d388;fill-opacity:1;fill-rule:nonzero;stroke:none"/></g><g id="g36" transform="translate(34.875,1.7725)"><path id="path38" d="m 0,0 c -0.314,0 -0.628,0.12 -0.868,0.359 l -7.52,7.52 c -0.479,0.479 -0.479,1.257 0,1.736 0.481,0.479 1.256,0.479 1.737,0 L 0.868,2.096 c 0.48,-0.48 0.48,-1.257 0,-1.737 C 0.628,0.12 0.314,0 0,0" style="fill:#d99e82;fill-opacity:1;fill-rule:nonzero;stroke:none"/></g></g></g></g></svg>