<svg xmlns="http://www.w3.org/2000/svg" xmlns:svg="http://www.w3.org/2000/svg" style="enable-background:new 0 0 47.5 47.5" id="svg2" version="1.1" viewBox="0 0 47.5 47.5" xml:space="preserve"><metadata id="metadata8"/><defs id="defs6"><clipPath id="clipPath16" clipPathUnits="userSpaceOnUse"><path id="path18" d="M 0,38 38,38 38,0 0,0 0,38 Z"/></clipPath></defs><g id="g10" transform="matrix(1.25,0,0,-1.25,0,47.5)"><g id="g12"><g id="g14" clip-path="url(#clipPath16)"><g id="g20" transform="translate(34,29.7783)"><path id="path22" d="M 0,0 C 0,1.414 0.717,0.707 1.424,1.414 2.84,2.828 3.552,4.95 2.138,6.364 0.723,7.778 -1.396,7.061 -2.811,5.646 -3.518,4.939 -2.808,4.222 -4.222,4.222 l -5.657,0 0.707,-0.698 c 0,0 3.536,-4.944 4.243,-4.236 -0.707,-0.708 4.232,-4.24 4.232,-4.24 L 0,-5.657 0,0 Z" style="fill:#ffac33;fill-opacity:1;fill-rule:nonzero;stroke:none"/></g><g id="g24" transform="translate(31.8994,22)"><path id="path26" d="m 0,0 -4.949,4.95 -4.95,4.949 c -0.707,-0.707 -4.243,0 -5.657,-1.414 L -16.263,7.778 -18.385,5.657 -29.284,-5.242 c -1.562,-1.563 -1.562,-4.096 0,-5.657 l 8.485,-8.486 c 1.562,-1.561 4.095,-1.561 5.657,0 l 9.9,9.9 3.121,3.121 c 0.217,0.217 0.446,0.447 0.707,0.707 C 0,-4.242 -0.707,-0.707 0,0" style="fill:#ccd6dd;fill-opacity:1;fill-rule:nonzero;stroke:none"/></g><g id="g28" transform="translate(33.667,22.3535)"><path id="path30" d="m 0,0 c -0.977,-0.977 -1.852,-1.684 -2.828,-0.707 l -9.193,9.192 c -0.976,0.977 -0.269,1.852 0.708,2.829 0.976,0.976 2.558,0.976 3.535,0 L 0,3.536 C 0.977,2.559 0.977,0.977 0,0" style="fill:#55acee;fill-opacity:1;fill-rule:nonzero;stroke:none"/></g><g id="g32" transform="translate(14,5)"><path id="path34" d="m 0,0 c -0.256,0 -0.512,0.098 -0.707,0.293 -0.391,0.391 -0.391,1.023 0,1.414 l 12,12.001 c 0.391,0.39 1.023,0.39 1.414,0 0.391,-0.391 0.391,-1.024 0,-1.415 l -12,-12 C 0.512,0.098 0.256,0 0,0" style="fill:#99aab5;fill-opacity:1;fill-rule:nonzero;stroke:none"/></g><g id="g36" transform="translate(10,9)"><path id="path38" d="m 0,0 c -0.256,0 -0.512,0.098 -0.707,0.293 -0.391,0.391 -0.391,1.023 0,1.414 l 12,12.001 c 0.391,0.39 1.023,0.39 1.414,0 0.391,-0.391 0.391,-1.024 0,-1.415 l -12,-12 C 0.512,0.098 0.256,0 0,0" style="fill:#99aab5;fill-opacity:1;fill-rule:nonzero;stroke:none"/></g><g id="g40" transform="translate(6,13)"><path id="path42" d="m 0,0 c -0.256,0 -0.512,0.098 -0.707,0.293 -0.391,0.391 -0.391,1.023 0,1.414 l 12,12.001 c 0.391,0.39 1.023,0.39 1.414,0 0.391,-0.391 0.391,-1.024 0,-1.415 l -12,-12 C 0.512,0.098 0.256,0 0,0" style="fill:#99aab5;fill-opacity:1;fill-rule:nonzero;stroke:none"/></g></g></g></g></svg>