<svg xmlns="http://www.w3.org/2000/svg" xmlns:svg="http://www.w3.org/2000/svg" style="enable-background:new 0 0 47.5 47.5" id="svg2" version="1.1" viewBox="0 0 47.5 47.5" xml:space="preserve"><metadata id="metadata8"/><defs id="defs6"><clipPath id="clipPath16" clipPathUnits="userSpaceOnUse"><path id="path18" d="M 0,38 38,38 38,0 0,0 0,38 Z"/></clipPath></defs><g id="g10" transform="matrix(1.25,0,0,-1.25,0,47.5)"><g id="g12"><g id="g14" clip-path="url(#clipPath16)"><g id="g20" transform="translate(28.999,1)"><path id="path22" d="m 0,0 c -0.448,0 -0.855,0.303 -0.969,0.758 -0.036,0.136 -0.926,3.435 -4.272,4.272 -4.704,1.176 -4.758,7.693 -4.758,7.97 0,0.552 0.447,0.998 0.998,0.999 0.554,-0.034 1,-0.445 1.002,-0.997 0,-0.053 0.054,-5.234 3.242,-6.032 C -0.227,5.838 0.925,1.43 0.971,1.242 1.105,0.707 0.779,0.164 0.243,0.03 0.162,0.01 0.08,0 0,0" style="fill:#fcab40;fill-opacity:1;fill-rule:nonzero;stroke:none"/></g><g id="g24" transform="translate(19,12)"><path id="path26" d="m 0,0 c -1.1,0 -1.598,0.805 -1.105,1.789 l 1.21,2.422 c 0.493,0.984 1.297,0.984 1.79,0 L 3.105,1.789 C 3.598,0.805 3.1,0 2,0 L 0,0 Z" style="fill:#bb1a34;fill-opacity:1;fill-rule:nonzero;stroke:none"/></g><g id="g28" transform="translate(29,28)"><path id="path30" d="m 0,0 c 0,-6 -7,-12 -9,-12 -2,0 -9,6 -9,12 0,5.799 4.582,9 9,9 4.418,0 9,-3.201 9,-9" style="fill:#bb1a34;fill-opacity:1;fill-rule:nonzero;stroke:none"/></g><g id="g32" transform="translate(21,15)"><path id="path34" d="m 0,0 -2,0 c -0.552,0 -1,0.447 -1,1 0,0.553 0.448,1 1,1 L 0,2 C 0.553,2 1,1.553 1,1 1,0.447 0.553,0 0,0" style="fill:#fcab40;fill-opacity:1;fill-rule:nonzero;stroke:none"/></g></g></g></g></svg>