<svg xmlns="http://www.w3.org/2000/svg" xmlns:svg="http://www.w3.org/2000/svg" style="enable-background:new 0 0 47.5 47.5" id="svg2" version="1.1" viewBox="0 0 47.5 47.5" xml:space="preserve"><metadata id="metadata8"/><defs id="defs6"><clipPath id="clipPath16" clipPathUnits="userSpaceOnUse"><path id="path18" d="M 0,38 38,38 38,0 0,0 0,38 Z"/></clipPath></defs><g id="g10" transform="matrix(1.25,0,0,-1.25,0,47.5)"><g id="g12"><g id="g14" clip-path="url(#clipPath16)"><g id="g20" transform="translate(6,16)"><path id="path22" d="M 0,0 C 0,-2.209 -1.119,-4 -2.5,-4 -3.881,-4 -5,-2.209 -5,0 -5,2.209 -3.881,4 -2.5,4 -1.119,4 0,2.209 0,0" style="fill:#d79e84;fill-opacity:1;fill-rule:nonzero;stroke:none"/></g><g id="g24" transform="translate(4,18.4375)"><path id="path26" d="M 0,0 C 0,8.526 5.373,15.438 12,15.438 18.627,15.438 24,8.526 24,0 24,-8.525 18.627,-15.438 12,-15.438 5.373,-15.438 0,-8.525 0,0" style="fill:#d79e84;fill-opacity:1;fill-rule:nonzero;stroke:none"/></g><g id="g28" transform="translate(21,37)"><path id="path30" d="M 0,0 C -0.249,0 -0.478,-0.007 -0.713,-0.012 -0.81,-0.01 -0.903,0 -1,0 c -10,0 -17,-4.582 -17,-9 0,-4.418 6.373,-4 13,-4 4.442,0 7.648,0 9.966,0.086 C 4.978,-12.944 4.988,-12.97 5,-13 l 6,-15 2,0 c 0,0 0.343,3.055 1,7 1,6 0.533,21 -14,21" style="fill:#dd2e44;fill-opacity:1;fill-rule:nonzero;stroke:none"/></g><g id="g32" transform="translate(31,16)"><path id="path34" d="M 0,0 C 0,-2.209 -1.119,-4 -2.5,-4 -3.881,-4 -5,-2.209 -5,0 -5,2.209 -3.881,4 -2.5,4 -1.119,4 0,2.209 0,0" style="fill:#d79e84;fill-opacity:1;fill-rule:nonzero;stroke:none"/></g><g id="g36" transform="translate(11,16)"><path id="path38" d="m 0,0 c -0.552,0 -1,0.447 -1,1 l 0,2 C -1,3.552 -0.552,4 0,4 0.552,4 1,3.552 1,3 L 1,1 C 1,0.447 0.552,0 0,0" style="fill:#662113;fill-opacity:1;fill-rule:nonzero;stroke:none"/></g><g id="g40" transform="translate(21,16)"><path id="path42" d="m 0,0 c -0.553,0 -1,0.447 -1,1 l 0,2 C -1,3.552 -0.553,4 0,4 0.553,4 1,3.552 1,3 L 1,1 C 1,0.447 0.553,0 0,0" style="fill:#662113;fill-opacity:1;fill-rule:nonzero;stroke:none"/></g><g id="g44" transform="translate(17,11)"><path id="path46" d="m 0,0 -2,0 c -0.552,0 -1,0.447 -1,1 0,0.553 0.448,1 1,1 L 0,2 C 0.552,2 1,1.553 1,1 1,0.447 0.552,0 0,0" style="fill:#b7755e;fill-opacity:1;fill-rule:nonzero;stroke:none"/></g><g id="g48" transform="translate(28,12)"><path id="path50" d="m 0,0 c 0,2 -2.293,0.707 -3,0 -1,-1 -3,-3 -5,-2 -2.828,1.414 -4,1 -4,1 0,0 -1.171,0.414 -4,-1 -2,-1 -4,1 -5,2 -0.707,0.707 -3,2 -3,0 0,-2 1,-2 1,-2 -1,-2 1,-3 1,-3 0,-3 3,-3 3,-3 0,-3 4,-2 4,-2 1,-1 3,-1 3,-1 0,0 2,0 3,1 0,0 4,-1 4,2 0,0 3,0 3,3 0,0 2,1 1,3 0,0 1,0 1,2" style="fill:#e6e7e8;fill-opacity:1;fill-rule:nonzero;stroke:none"/></g><g id="g52" transform="translate(16,9)"><path id="path54" d="m 0,0 c 7,0 4,-2 0,-2 -4,0 -7,2 0,2" style="fill:#d99e82;fill-opacity:1;fill-rule:nonzero;stroke:none"/></g><g id="g56" transform="translate(2,23)"><path id="path58" d="M 0,0 C 0,2.209 0.896,4 2,4 3.104,4 4,2.209 4,0 4,-2.209 3.104,-4 2,-4 0.896,-4 0,-2.209 0,0" style="fill:#d1d3d4;fill-opacity:1;fill-rule:nonzero;stroke:none"/></g><g id="g60" transform="translate(25,23)"><path id="path62" d="M 0,0 C 0,2.209 0.896,4 2,4 3.104,4 4,2.209 4,0 4,-2.209 3.104,-4 2,-4 0.896,-4 0,-2.209 0,0" style="fill:#d1d3d4;fill-opacity:1;fill-rule:nonzero;stroke:none"/></g><g id="g64" transform="translate(29,8)"><path id="path66" d="M 0,0 C 0,-2.209 1.791,-4 4,-4 6.209,-4 8,-2.209 8,0 8,2.209 6.209,4 4,4 1.791,4 0,2.209 0,0" style="fill:#f1f2f2;fill-opacity:1;fill-rule:nonzero;stroke:none"/></g><g id="g68" transform="translate(30,25)"><path id="path70" d="m 0,0 c 0,-1.104 -0.896,-2 -2,-2 l -25,0 c -1.104,0 -2,0.896 -2,2 l 0,1 c 0,1.104 0.896,2 2,2 L -2,3 C -0.896,3 0,2.104 0,1 L 0,0 Z" style="fill:#f1f2f2;fill-opacity:1;fill-rule:nonzero;stroke:none"/></g></g></g></g></svg>