<svg xmlns="http://www.w3.org/2000/svg" xmlns:svg="http://www.w3.org/2000/svg" style="enable-background:new 0 0 47.5 47.5" id="svg2" version="1.1" viewBox="0 0 47.5 47.5" xml:space="preserve"><metadata id="metadata8"/><defs id="defs6"><clipPath id="clipPath18" clipPathUnits="userSpaceOnUse"><path id="path20" d="M 0,38 38,38 38,0 0,0 0,38 Z"/></clipPath><clipPath id="clipPath50" clipPathUnits="userSpaceOnUse"><path id="path52" d="M 11,16 C 8.791,16 8,14.209 8,12 L 8,12 8,8 C 8,5.791 8.791,4 11,4 l 0,0 25,0 c 2.209,0 -4,3.791 -4,6 l 0,0 c 0,2.209 6.209,6 4,6 l 0,0 -25,0 z"/></clipPath><clipPath id="clipPath62" clipPathUnits="userSpaceOnUse"><path id="path64" d="M 0,38 38,38 38,0 0,0 0,38 Z"/></clipPath><clipPath id="clipPath90" clipPathUnits="userSpaceOnUse"><path id="path92" d="M 11,32 C 8.791,32 8,30.209 8,28 l 0,0 0,-4 c 0,-2.209 0.791,-4 3,-4 l 0,0 25,0 c 2.209,0 -4,3.791 -4,6 l 0,0 c 0,2.209 6.209,6 4,6 l 0,0 -25,0 z"/></clipPath></defs><g id="g10" transform="matrix(1.25,0,0,-1.25,0,47.5)"><path id="path12" d="M 6,1 4,1 4,34 6,34 6,1 Z" style="fill:#ccd6dd;fill-opacity:1;fill-rule:nonzero;stroke:none"/><g id="g14"><g id="g16" clip-path="url(#clipPath18)"><g id="g22" transform="translate(8,34)"><path id="path24" d="m 0,0 c 0,-1.657 -1.343,-3 -3,-3 -1.657,0 -3,1.343 -3,3 0,1.657 1.343,3 3,3 1.657,0 3,-1.343 3,-3" style="fill:#f4900c;fill-opacity:1;fill-rule:nonzero;stroke:none"/></g><g id="g26" transform="translate(10,9)"><path id="path28" d="m 0,0 -5,0 c -0.552,0 -1,0.447 -1,1 0,0.553 0.448,1 1,1 L 0,2 C 0.552,2 1,1.553 1,1 1,0.447 0.552,0 0,0" style="fill:#66757f;fill-opacity:1;fill-rule:nonzero;stroke:none"/></g><g id="g30" transform="translate(28,15)"><path id="path32" d="m 0,0 c 0,-1.656 -2.463,-3 -5.5,-3 -3.038,0 -5.5,1.344 -5.5,3 0,1.656 0.462,4 3.5,4 C -4.463,4 0,1.656 0,0" style="fill:#dd2e44;fill-opacity:1;fill-rule:nonzero;stroke:none"/></g><g id="g34" transform="translate(32,10)"><path id="path36" d="m 0,0 c 0,-2.209 6.209,-6 4,-6 l -25,0 c -2.209,0 -3,1.791 -3,4 l 0,4 c 0,2.209 0.791,4 3,4 L 4,6 C 6.209,6 0,2.209 0,0" style="fill:#dd2e44;fill-opacity:1;fill-rule:nonzero;stroke:none"/></g><g id="g38" transform="translate(16,12)"><path id="path40" d="m 0,0 c 0,-1.656 -1.343,-3 -3,-3 -1.657,0 -3,1.344 -3,3 0,1.656 1.343,3 3,3 1.657,0 3,-1.344 3,-3" style="fill:#fff;fill-opacity:1;fill-rule:nonzero;stroke:none"/></g><g id="g42" transform="translate(14,12.5)"><path id="path44" d="M 0,0 C 0,-0.828 -0.671,-1.5 -1.5,-1.5 -2.329,-1.5 -3,-0.828 -3,0 -3,0.828 -2.329,1.5 -1.5,1.5 -0.671,1.5 0,0.828 0,0" style="fill:#000;fill-opacity:1;fill-rule:nonzero;stroke:none"/></g></g></g><g id="g46"><g id="g48" clip-path="url(#clipPath50)"><g id="g54" transform="translate(16,17)"><path id="path56" d="m 0,0 c 2,-2 7,-7 0,-14 4,-1 10,-1.458 16,-1 6,0.458 6,4.75 6,7.209 C 22,-5.334 28,0 21,1 14,2 0,0 0,0" style="fill:#f4abba;fill-opacity:1;fill-rule:nonzero;stroke:none"/></g></g></g><g id="g58"><g id="g60" clip-path="url(#clipPath62)"><g id="g66" transform="translate(10,25)"><path id="path68" d="m 0,0 -5,0 c -0.552,0 -1,0.448 -1,1 0,0.552 0.448,1 1,1 L 0,2 C 0.552,2 1,1.552 1,1 1,0.448 0.552,0 0,0" style="fill:#66757f;fill-opacity:1;fill-rule:nonzero;stroke:none"/></g><g id="g70" transform="translate(28,31)"><path id="path72" d="m 0,0 c 0,-1.657 -2.463,-3 -5.5,-3 -3.038,0 -5.5,1.343 -5.5,3 0,1.657 0.462,4 3.5,4 C -4.463,4 0,1.657 0,0" style="fill:#55acee;fill-opacity:1;fill-rule:nonzero;stroke:none"/></g><g id="g74" transform="translate(32,26)"><path id="path76" d="m 0,0 c 0,-2.209 6.209,-6 4,-6 l -25,0 c -2.209,0 -3,1.791 -3,4 l 0,4 c 0,2.209 0.791,4 3,4 L 4,6 C 6.209,6 0,2.209 0,0" style="fill:#55acee;fill-opacity:1;fill-rule:nonzero;stroke:none"/></g><g id="g78" transform="translate(16,28)"><path id="path80" d="m 0,0 c 0,-1.657 -1.343,-3 -3,-3 -1.657,0 -3,1.343 -3,3 0,1.657 1.343,3 3,3 1.657,0 3,-1.343 3,-3" style="fill:#fff;fill-opacity:1;fill-rule:nonzero;stroke:none"/></g><g id="g82" transform="translate(14,28.5)"><path id="path84" d="M 0,0 C 0,-0.829 -0.671,-1.5 -1.5,-1.5 -2.329,-1.5 -3,-0.829 -3,0 -3,0.829 -2.329,1.5 -1.5,1.5 -0.671,1.5 0,0.829 0,0" style="fill:#000;fill-opacity:1;fill-rule:nonzero;stroke:none"/></g></g></g><g id="g86"><g id="g88" clip-path="url(#clipPath90)"><g id="g94" transform="translate(16,33)"><path id="path96" d="m 0,0 c 2,-2 7,-7 0,-14 4,-1 10,-1.458 16,-1 6,0.458 6,4.75 6,7.208 C 22,-5.333 28,0 21,1 14,2 0,0 0,0" style="fill:#bbddf5;fill-opacity:1;fill-rule:nonzero;stroke:none"/></g></g></g></g></svg>