<svg xmlns="http://www.w3.org/2000/svg" xmlns:svg="http://www.w3.org/2000/svg" style="enable-background:new 0 0 47.5 47.5" id="svg2" version="1.1" viewBox="0 0 47.5 47.5" xml:space="preserve"><metadata id="metadata8"/><defs id="defs6"><clipPath id="clipPath16" clipPathUnits="userSpaceOnUse"><path id="path18" d="M 0,38 38,38 38,0 0,0 0,38 Z"/></clipPath></defs><g id="g10" transform="matrix(1.25,0,0,-1.25,0,47.5)"><g id="g12"><g id="g14" clip-path="url(#clipPath16)"><g id="g20" transform="translate(34.8291,19.2725)"><path id="path22" d="m 0,0 c -0.491,-1.981 -1.376,-2.514 -3.356,-2.022 l -11.655,2.887 c -1.98,0.491 -0.499,1.827 -0.008,3.808 l 1.555,6.276 c 0.491,1.98 -0.195,3.855 1.785,3.364 L -0.023,11.425 C 1.956,10.934 2.491,10.049 2,8.068 L 0,0 Z" style="fill:#eee;fill-opacity:1;fill-rule:nonzero;stroke:none"/></g><g id="g24" transform="translate(15.1987,3.0762)"><path id="path26" d="m 0,0 c -0.073,0 -0.147,0.009 -0.221,0.027 -0.495,0.121 -0.798,0.622 -0.676,1.118 l 7.608,30.918 c 0.122,0.496 0.622,0.798 1.118,0.676 0.495,-0.122 0.797,-0.622 0.675,-1.117 L 0.896,0.703 C 0.793,0.282 0.416,0 0,0" style="fill:#99aab5;fill-opacity:1;fill-rule:nonzero;stroke:none"/></g><g id="g28" transform="translate(31.3467,24.4175)"><path id="path30" d="m 0,0 c -0.43,-1.733 -2.183,-2.79 -3.915,-2.36 -1.733,0.429 -2.791,2.182 -2.361,3.915 0.429,1.733 2.183,2.79 3.916,2.36 C -0.628,3.486 0.429,1.733 0,0" style="fill:#be1931;fill-opacity:1;fill-rule:nonzero;stroke:none"/></g><g id="g32" transform="translate(3.3691,19.2725)"><path id="path34" d="m 0,0 c 0.491,-1.981 1.375,-2.514 3.356,-2.022 l 11.655,2.887 c 1.98,0.491 0.499,1.827 0.008,3.808 l -1.556,6.276 c -0.49,1.98 0.196,3.855 -1.785,3.364 L 0.023,11.425 C -1.957,10.934 -2.491,10.049 -2,8.068 L 0,0 Z" style="fill:#eee;fill-opacity:1;fill-rule:nonzero;stroke:none"/></g><g id="g36" transform="translate(22.999,3.0762)"><path id="path38" d="m 0,0 c -0.415,0 -0.792,0.282 -0.896,0.703 l -7.608,30.919 c -0.121,0.495 0.181,0.995 0.676,1.117 0.499,0.121 0.996,-0.181 1.118,-0.676 L 0.897,1.145 C 1.02,0.649 0.717,0.148 0.222,0.027 0.147,0.009 0.073,0 0,0" style="fill:#99aab5;fill-opacity:1;fill-rule:nonzero;stroke:none"/></g><g id="g40" transform="translate(6.8516,24.4175)"><path id="path42" d="m 0,0 c 0.43,-1.733 2.183,-2.79 3.916,-2.36 1.732,0.429 2.79,2.182 2.36,3.915 C 5.847,3.288 4.093,4.345 2.361,3.915 0.628,3.486 -0.429,1.733 0,0" style="fill:#be1931;fill-opacity:1;fill-rule:nonzero;stroke:none"/></g></g></g></g></svg>