<svg xmlns="http://www.w3.org/2000/svg" xmlns:svg="http://www.w3.org/2000/svg" style="enable-background:new 0 0 47.5 47.5" id="svg2" version="1.1" viewBox="0 0 47.5 47.5" xml:space="preserve"><metadata id="metadata8"/><defs id="defs6"><clipPath id="clipPath16" clipPathUnits="userSpaceOnUse"><path id="path18" d="M 0,38 38,38 38,0 0,0 0,38 Z"/></clipPath></defs><g id="g10" transform="matrix(1.25,0,0,-1.25,0,47.5)"><g id="g12"><g id="g14" clip-path="url(#clipPath16)"><g id="g20" transform="translate(34,6)"><path id="path22" d="m 0,0 c 0,-2.2 -1.8,-4 -4,-4 l -22,0 c -2.2,0 -4,1.8 -4,4 l 0,17 c 0,2.2 1.8,4 4,4 l 22,0 c 2.2,0 4,-1.8 4,-4 L 0,0 Z" style="fill:#fdd888;fill-opacity:1;fill-rule:nonzero;stroke:none"/></g><g id="g24" transform="translate(37,26)"><path id="path26" d="m 0,0 c 0,-2.2 -1.8,-4 -4,-4 l -28,0 c -2.2,0 -4,1.8 -4,4 0,2.2 1.8,4 4,4 L -4,4 C -1.8,4 0,2.2 0,0" style="fill:#fdd888;fill-opacity:1;fill-rule:nonzero;stroke:none"/></g><path id="path28" d="m 34,20 -30,0 0,2 30,0 0,-2 z" style="fill:#fcab40;fill-opacity:1;fill-rule:nonzero;stroke:none"/><g id="g30" transform="translate(20,33.9995)"><path id="path32" d="m 0,0 -2,0 c -1.656,0 -3,-1.343 -3,-3 l 0,0 0,-29 8,0 0,29 C 3,-1.343 1.657,0 0,0" style="fill:#da2f47;fill-opacity:1;fill-rule:nonzero;stroke:none"/></g><g id="g34" transform="translate(17,30)"><path id="path36" d="M 0,0 C 1.1,0 1.263,0.516 0.361,1.147 L -6.361,5.853 C -7.263,6.484 -8.446,6.219 -8.992,5.264 L -11.008,1.736 C -11.554,0.781 -11.1,0 -10,0 L 0,0 Z" style="fill:#da2f47;fill-opacity:1;fill-rule:nonzero;stroke:none"/></g><g id="g38" transform="translate(21,30)"><path id="path40" d="M 0,0 C -1.1,0 -1.263,0.516 -0.361,1.147 L 6.361,5.853 C 7.263,6.484 8.446,6.219 8.992,5.264 L 11.008,1.736 C 11.554,0.781 11.1,0 10,0 L 0,0 Z" style="fill:#da2f47;fill-opacity:1;fill-rule:nonzero;stroke:none"/></g></g></g></g></svg>