<svg xmlns="http://www.w3.org/2000/svg" xmlns:svg="http://www.w3.org/2000/svg" style="enable-background:new 0 0 47.5 47.5" id="svg2" version="1.1" viewBox="0 0 47.5 47.5" xml:space="preserve"><metadata id="metadata8"/><defs id="defs6"><clipPath id="clipPath16" clipPathUnits="userSpaceOnUse"><path id="path18" d="M 0,38 38,38 38,0 0,0 0,38 Z"/></clipPath></defs><g id="g10" transform="matrix(1.25,0,0,-1.25,0,47.5)"><g id="g12"><g id="g14" clip-path="url(#clipPath16)"><g id="g20" transform="translate(18,1)"><path id="path22" d="m 0,0 c -1.32,0 -9.241,0.826 -10.707,2.293 -0.215,0.216 -0.321,0.518 -0.287,0.82 0.035,0.303 0.205,0.574 0.464,0.735 4.563,2.852 6.825,7.968 6.541,14.796 C -3.996,18.805 -4,18.925 -4,19 c 0,0.552 0.448,1 1,1 l 9,0 C 6.522,20 6.957,19.598 6.997,19.077 7.838,8.146 4.529,3.294 3.067,1.716 2.043,0.609 0.954,0 0,0" style="fill:#99aab5;fill-opacity:1;fill-rule:nonzero;stroke:none"/></g><g id="g24" transform="translate(19,19)"><path id="path26" d="m 0,0 c -0.552,0 -1,0.448 -1,1 l 0,3 C -1,4.552 -0.552,5 0,5 0.552,5 1,4.552 1,4 L 1,1 C 1,0.448 0.552,0 0,0" style="fill:#3e721d;fill-opacity:1;fill-rule:nonzero;stroke:none"/></g><g id="g28" transform="translate(27,27)"><path id="path30" d="m 0,0 c 0,-4.418 -3.582,-5 -8,-5 -4.418,0 -8,0.582 -8,5 0,4.418 3.582,8 8,8 4.418,0 8,-3.582 8,-8" style="fill:#77b255;fill-opacity:1;fill-rule:nonzero;stroke:none"/></g><g id="g32" transform="translate(19,33)"><path id="path34" d="m 0,0 c -0.552,0 -1,0.448 -1,1 l 0,2 C -1,3.552 -0.552,4 0,4 0.552,4 1,3.552 1,3 L 1,1 C 1,0.448 0.552,0 0,0" style="fill:#3e721d;fill-opacity:1;fill-rule:nonzero;stroke:none"/></g><g id="g36" transform="translate(21,16)"><path id="path38" d="m 0,0 c 0,-1.104 -0.896,-2 -2,-2 -1.104,0 -2,0.896 -2,2 0,1.104 0.896,2 2,2 1.104,0 2,-0.896 2,-2" style="fill:#fff;fill-opacity:1;fill-rule:nonzero;stroke:none"/></g><g id="g40" transform="translate(20,10)"><path id="path42" d="m 0,0 c 0,-1.104 -0.896,-2 -2,-2 -1.104,0 -2,0.896 -2,2 0,1.104 0.896,2 2,2 1.104,0 2,-0.896 2,-2" style="fill:#fff;fill-opacity:1;fill-rule:nonzero;stroke:none"/></g><g id="g44" transform="translate(17,4.5)"><path id="path46" d="m 0,0 c 0,-0.828 -0.896,-1.5 -2,-1.5 -1.104,0 -2,0.672 -2,1.5 0,0.828 0.896,1.5 2,1.5 1.104,0 2,-0.672 2,-1.5" style="fill:#fff;fill-opacity:1;fill-rule:nonzero;stroke:none"/></g></g></g></g></svg>