<svg xmlns="http://www.w3.org/2000/svg" xmlns:svg="http://www.w3.org/2000/svg" style="enable-background:new 0 0 47.5 47.5" id="svg2" version="1.1" viewBox="0 0 47.5 47.5" xml:space="preserve"><metadata id="metadata8"/><defs id="defs6"><clipPath id="clipPath16" clipPathUnits="userSpaceOnUse"><path id="path18" d="M 0,38 38,38 38,0 0,0 0,38 Z"/></clipPath></defs><g id="g10" transform="matrix(1.25,0,0,-1.25,0,47.5)"><g id="g12"><g id="g14" clip-path="url(#clipPath16)"><g id="g20" transform="translate(25,26.0005)"><path id="path22" d="m 0,0 c 0,-3.866 -3.135,-7 -7,-7 -3.867,0 -7,3.134 -7,7 0,3.866 3.133,7 7,7 3.865,0 7,-3.134 7,-7" style="fill:#58595b;fill-opacity:1;fill-rule:nonzero;stroke:none"/></g><g id="g24" transform="translate(34.999,23.0005)"><path id="path26" d="m 0,0 c 0,-3.313 -2.687,-6 -6,-6 -3.313,0 -6,2.687 -6,6 0,3.313 2.687,6 6,6 3.313,0 6,-2.687 6,-6" style="fill:#58595b;fill-opacity:1;fill-rule:nonzero;stroke:none"/></g><g id="g28" transform="translate(23,26.0005)"><path id="path30" d="m 0,0 c 0,-2.761 -2.239,-5 -5,-5 -2.762,0 -5,2.239 -5,5 0,2.761 2.238,5 5,5 2.761,0 5,-2.239 5,-5" style="fill:#939598;fill-opacity:1;fill-rule:nonzero;stroke:none"/></g><g id="g32" transform="translate(20,26.0005)"><path id="path34" d="m 0,0 c 0,-1.104 -1,-2 -2,-2 -1,0 -2,0.896 -2,2 0,1.104 0.896,2 2,2 1.104,0 2,-0.896 2,-2" style="fill:#bcbec0;fill-opacity:1;fill-rule:nonzero;stroke:none"/></g><g id="g36" transform="translate(31,8)"><path id="path38" d="m 0,0 c 0,-2.209 -1.791,-4 -4,-4 l -13,0 c -2.209,0 -4,1.791 -4,4 l 0,8 c 0,2.209 1.791,4 4,4 l 13,0 c 2.209,0 4,-1.791 4,-4 L 0,0 Z" style="fill:#58595b;fill-opacity:1;fill-rule:nonzero;stroke:none"/></g><path id="path40" d="m 24,19 -3,0 0,3 3,0 0,-3 z" style="fill:#58595b;fill-opacity:1;fill-rule:nonzero;stroke:none"/><g id="g42" transform="translate(32.999,23.0005)"><path id="path44" d="m 0,0 c 0,-2.209 -1.791,-4 -4,-4 -2.209,0 -4,1.791 -4,4 0,2.209 1.791,4 4,4 2.209,0 4,-1.791 4,-4" style="fill:#939598;fill-opacity:1;fill-rule:nonzero;stroke:none"/></g><g id="g46" transform="translate(30.999,23.0005)"><path id="path48" d="m 0,0 c 0,-1.104 -0.896,-2 -2,-2 -1.104,0 -2,0.896 -2,2 0,1.104 0.896,2 2,2 1.104,0 2,-0.896 2,-2" style="fill:#bcbec0;fill-opacity:1;fill-rule:nonzero;stroke:none"/></g><g id="g50" transform="translate(10.9995,16)"><path id="path52" d="M 0,0 -1.999,0 -2,0 l -6,4 -1,0 0,-14 1,0 6,4 10e-4,0 L 0,-6 c 1.657,0 3,1.343 3,3 0,1.657 -1.343,3 -3,3" style="fill:#58595b;fill-opacity:1;fill-rule:nonzero;stroke:none"/></g><g id="g54" transform="translate(33,16)"><path id="path56" d="m 0,0 0,-1 -5,0 c -1.104,0 -2,-0.896 -2,-2 0,-1.104 0.896,-2 2,-2 l 5,0 0,-1 3,0 0,6 -3,0 z" style="fill:#58595b;fill-opacity:1;fill-rule:nonzero;stroke:none"/></g><path id="path58" d="M 28,7 18,7 18,17 28,17 28,7 Z" style="fill:#808285;fill-opacity:1;fill-rule:nonzero;stroke:none"/><path id="path60" d="m 26,9 -6,0 0,6 6,0 0,-6 z" style="fill:#58595b;fill-opacity:1;fill-rule:nonzero;stroke:none"/><g id="g62" transform="translate(15.999,9)"><path id="path64" d="m 0,0 c 0,-1.104 -0.896,-2 -2,-2 -1.104,0 -2,0.896 -2,2 0,1.104 0.896,2 2,2 1.104,0 2,-0.896 2,-2" style="fill:#808285;fill-opacity:1;fill-rule:nonzero;stroke:none"/></g></g></g></g></svg>