<svg xmlns="http://www.w3.org/2000/svg" xmlns:svg="http://www.w3.org/2000/svg" style="enable-background:new 0 0 47.5 47.5" id="svg2" version="1.1" viewBox="0 0 47.5 47.5" xml:space="preserve"><metadata id="metadata8"/><defs id="defs6"><clipPath id="clipPath16" clipPathUnits="userSpaceOnUse"><path id="path18" d="M 0,38 38,38 38,0 0,0 0,38 Z"/></clipPath></defs><g id="g10" transform="matrix(1.25,0,0,-1.25,0,47.5)"><g id="g12"><g id="g14" clip-path="url(#clipPath16)"><g id="g20" transform="translate(36,5)"><path id="path22" d="m 0,0 c 0,-2.2 -1.8,-4 -4,-4 l -26,0 c -2.2,0 -4,1.8 -4,4 l 0,13 c 0,2.2 1.8,4 4,4 l 26,0 c 2.2,0 4,-1.8 4,-4 L 0,0 Z" style="fill:#3f7123;fill-opacity:1;fill-rule:nonzero;stroke:none"/></g><path id="path24" d="m 36,16 -34,0 0,6 34,0 0,-6 z" style="fill:#3f7123;fill-opacity:1;fill-rule:nonzero;stroke:none"/><path id="path26" d="m 36,15 -34,0 0,7 34,0 0,-7 z" style="fill:#ccd6dd;fill-opacity:1;fill-rule:nonzero;stroke:none"/><g id="g28" transform="translate(27,22)"><path id="path30" d="m 0,0 -4,-7 7,0 4,7 -7,0 z m -14,0 -4,-7 7,0 4,7 -7,0 z m -11,0 4,0 -4,-7 0,7 z" style="fill:#292f33;fill-opacity:1;fill-rule:nonzero;stroke:none"/></g><g id="g32" transform="translate(34.9941,30.2075)"><path id="path34" d="M 0,0 -32.994,-8.208 -34.685,-1.415 -1.689,6.793 0,0 Z" style="fill:#ccd6dd;fill-opacity:1;fill-rule:nonzero;stroke:none"/></g><g id="g36" transform="translate(33.0537,29.7246)"><path id="path38" d="M 0,0 -5.572,5.828 -12.365,4.138 -6.793,-1.689 0,0 Z m -13.586,-3.379 -5.572,5.827 -6.793,-1.69 5.572,-5.827 6.793,1.69 z m -19.158,2.447 5.572,-5.827 -3.882,-0.966 -1.69,6.793 z" style="fill:#292f33;fill-opacity:1;fill-rule:nonzero;stroke:none"/></g></g></g></g></svg>