<svg xmlns="http://www.w3.org/2000/svg" xmlns:svg="http://www.w3.org/2000/svg" style="enable-background:new 0 0 47.5 47.5" id="svg2" version="1.1" viewBox="0 0 47.5 47.5" xml:space="preserve"><metadata id="metadata8"/><defs id="defs6"><clipPath id="clipPath16" clipPathUnits="userSpaceOnUse"><path id="path18" d="M 0,38 38,38 38,0 0,0 0,38 Z"/></clipPath></defs><g id="g10" transform="matrix(1.25,0,0,-1.25,0,47.5)"><g id="g12"><g id="g14" clip-path="url(#clipPath16)"><g id="g20" transform="translate(23,32.4126)"><path id="path22" d="m 0,0 c 0,-6.075 -3.667,-18.333 -11,-18.333 -7.333,0 -11,12.258 -11,18.333 0,7.181 8.25,3.667 11,3.667 2.712,0 11,3.552 11,-3.667" style="fill:#a6d388;fill-opacity:1;fill-rule:nonzero;stroke:none"/></g><g id="g24" transform="translate(6.5,25.0796)"><path id="path26" d="M 0,0 C 4.583,-2.75 7.333,-2.75 11,0 13.75,1.833 9.167,-6.417 5.5,-6.417 1.833,-6.417 -2.75,1.833 0,0" style="fill:#5c913b;fill-opacity:1;fill-rule:nonzero;stroke:none"/></g><g id="g28" transform="translate(4.666,28.7456)"><path id="path30" d="M 0,0 C -0.138,0 -0.278,0.031 -0.41,0.097 -0.862,0.324 -1.046,0.874 -0.819,1.327 -0.183,2.6 1.114,3.477 2.484,3.563 3.323,3.609 4.942,3.407 6.263,1.425 6.544,1.004 6.43,0.435 6.009,0.154 5.586,-0.126 5.018,-0.013 4.738,0.409 4.127,1.324 3.383,1.782 2.598,1.732 1.868,1.687 1.17,1.206 0.82,0.507 0.66,0.186 0.336,0 0,0" style="fill:#5c913b;fill-opacity:1;fill-rule:nonzero;stroke:none"/></g><g id="g32" transform="translate(19.334,28.7456)"><path id="path34" d="m 0,0 c -0.336,0 -0.66,0.186 -0.82,0.507 -0.35,0.699 -1.048,1.18 -1.778,1.225 -0.776,0.042 -1.529,-0.408 -2.14,-1.323 -0.282,-0.422 -0.85,-0.535 -1.271,-0.255 -0.421,0.281 -0.535,0.85 -0.254,1.271 1.32,1.983 2.931,2.186 3.779,2.138 C -1.114,3.477 0.183,2.6 0.819,1.327 1.046,0.874 0.862,0.324 0.41,0.097 0.278,0.031 0.138,0 0,0" style="fill:#5c913b;fill-opacity:1;fill-rule:nonzero;stroke:none"/></g><g id="g36" transform="translate(37,19.3335)"><path id="path38" d="m 0,0 c 0,-6.075 -3.667,-18.333 -11,-18.333 -7.333,0 -11,12.258 -11,18.333 0,7.181 8.25,3.667 11,3.667 2.713,0 11,3.552 11,-3.667" style="fill:#cbb7ea;fill-opacity:1;fill-rule:nonzero;stroke:none"/></g><g id="g40" transform="translate(30.5,6.8486)"><path id="path42" d="m 0,0 c -3.5,2.151 -5.5,2.151 -9,0 -2.75,-1.833 0.833,4.417 4.5,4.417 3.667,0 7.25,-6.25 4.5,-4.417" style="fill:#9266cc;fill-opacity:1;fill-rule:nonzero;stroke:none"/></g><g id="g44" transform="translate(17.9995,15.083)"><path id="path46" d="m 0,0 c -0.138,0 -0.278,0.031 -0.41,0.097 -0.452,0.226 -0.636,0.777 -0.409,1.23 0.699,1.4 2.403,2.49 4.051,2.592 C 4.721,4.019 6.046,3.334 6.93,2.009 7.211,1.587 7.097,1.019 6.676,0.737 6.255,0.456 5.686,0.57 5.405,0.991 4.883,1.773 4.19,2.139 3.346,2.09 2.225,2.021 1.182,1.23 0.82,0.507 0.66,0.186 0.336,0 0,0" style="fill:#9266cc;fill-opacity:1;fill-rule:nonzero;stroke:none"/></g><g id="g48" transform="translate(34.001,15.083)"><path id="path50" d="M 0,0 C -0.337,0 -0.66,0.186 -0.821,0.508 -1.182,1.23 -2.225,2.02 -3.346,2.09 -4.187,2.137 -4.885,1.773 -5.405,0.991 -5.686,0.57 -6.256,0.456 -6.677,0.737 c -0.421,0.282 -0.535,0.85 -0.254,1.272 0.884,1.325 2.188,2.009 3.7,1.91 C -1.583,3.816 0.12,2.726 0.819,1.326 1.045,0.874 0.861,0.323 0.408,0.097 0.277,0.031 0.138,0 0,0" style="fill:#9266cc;fill-opacity:1;fill-rule:nonzero;stroke:none"/></g></g></g></g></svg>