<svg xmlns="http://www.w3.org/2000/svg" xmlns:svg="http://www.w3.org/2000/svg" style="enable-background:new 0 0 47.5 47.5" id="svg2" version="1.1" viewBox="0 0 47.5 47.5" xml:space="preserve"><metadata id="metadata8"/><defs id="defs6"><clipPath id="clipPath16" clipPathUnits="userSpaceOnUse"><path id="path18" d="M 0,38 38,38 38,0 0,0 0,38 Z"/></clipPath></defs><g id="g10" transform="matrix(1.25,0,0,-1.25,0,47.5)"><g id="g12"><g id="g14" clip-path="url(#clipPath16)"><g id="g20" transform="translate(37,5)"><path id="path22" d="m 0,0 c 0,-2.209 -1.791,-4 -4,-4 l -28,0 c -2.209,0 -4,1.791 -4,4 l 0,28 c 0,2.209 1.791,4 4,4 l 28,0 c 2.209,0 4,-1.791 4,-4 L 0,0 Z" style="fill:#88c9f9;fill-opacity:1;fill-rule:nonzero;stroke:none"/></g><path id="path24" d="m 17,3 -2,0 0,11 2,0 0,-11 z" style="fill:#a0041e;fill-opacity:1;fill-rule:nonzero;stroke:none"/><path id="path26" d="M 9,3 11,3 11,15 9,15 9,3 Z" style="fill:#a0041e;fill-opacity:1;fill-rule:nonzero;stroke:none"/><path id="path28" d="m 23,16 -2,0 0,-13 2,0 0,13 z" style="fill:#a0041e;fill-opacity:1;fill-rule:nonzero;stroke:none"/><path id="path30" d="m 29,21 -2,0 0,-18 2,0 0,18 z" style="fill:#a0041e;fill-opacity:1;fill-rule:nonzero;stroke:none"/><path id="path32" d="m 35,26 -2,0 0,-23 2,0 0,23 z" style="fill:#a0041e;fill-opacity:1;fill-rule:nonzero;stroke:none"/><path id="path34" d="M 5,3 3,3 3,16 5,16 5,3 Z" style="fill:#a0041e;fill-opacity:1;fill-rule:nonzero;stroke:none"/><g id="g36" transform="translate(35,28.7778)"><path id="path38" d="m 0,0 c -4.107,-4.63 -13.207,-13.778 -21,-13.778 -4.636,0 -8.6,1.417 -11,2.528 l 0,-2.201 c 2.615,-1.117 6.483,-2.327 11,-2.327 7.763,0 16.237,7.691 21,12.785 L 0,0 Z" style="fill:#dd2e44;fill-opacity:1;fill-rule:nonzero;stroke:none"/></g><g id="g40" transform="translate(27,23)"><path id="path42" d="m 0,0 c 0,-1.104 -0.447,-2 -1,-2 -0.553,0 -1,0.896 -1,2 0,1.104 0.447,2 1,2 0.553,0 1,-0.896 1,-2" style="fill:#66757f;fill-opacity:1;fill-rule:nonzero;stroke:none"/></g><g id="g44" transform="translate(27,26)"><path id="path46" d="m 0,0 c 0,-0.552 -0.447,-1 -1,-1 -0.553,0 -1,0.448 -1,1 0,0.552 0.447,1 1,1 0.553,0 1,-0.448 1,-1" style="fill:#66757f;fill-opacity:1;fill-rule:nonzero;stroke:none"/></g><g id="g48" transform="translate(32,27)"><path id="path50" d="m 0,0 c 0,-1.104 -0.447,-2 -1,-2 -0.553,0 -1,0.896 -1,2 0,1.104 0.447,2 1,2 0.553,0 1,-0.896 1,-2" style="fill:#66757f;fill-opacity:1;fill-rule:nonzero;stroke:none"/></g><g id="g52" transform="translate(31.667,29.6665)"><path id="path54" d="m 0,0 0.333,-2.667 -1,-1 -1.505,1.505 C -3.124,-3.09 -3.95,-3.836 -4.667,-4.44 l 0,-2.227 -1,-1 -1.391,1.391 c -1.382,-0.96 -2.069,-1.309 -2.609,-2.391 -1,-2 -2,-6 1,-4 5.582,3.721 12,10 12,10 l 0,6 C 2.468,2.467 1.175,1.175 0,0" style="fill:#ffcc4d;fill-opacity:1;fill-rule:nonzero;stroke:none"/></g><g id="g56" transform="translate(32,30)"><path id="path58" d="m 0,0 c 0,-0.552 -0.447,-1 -1,-1 -0.553,0 -1,0.448 -1,1 0,0.552 0.447,1 1,1 0.553,0 1,-0.448 1,-1" style="fill:#66757f;fill-opacity:1;fill-rule:nonzero;stroke:none"/></g></g></g></g></svg>