<svg xmlns="http://www.w3.org/2000/svg" xmlns:svg="http://www.w3.org/2000/svg" style="enable-background:new 0 0 47.5 47.5" id="svg2" version="1.1" viewBox="0 0 47.5 47.5" xml:space="preserve"><metadata id="metadata8"/><defs id="defs6"><clipPath id="clipPath16" clipPathUnits="userSpaceOnUse"><path id="path18" d="M 0,38 38,38 38,0 0,0 0,38 Z"/></clipPath></defs><g id="g10" transform="matrix(1.25,0,0,-1.25,0,47.5)"><g id="g12"><g id="g14" clip-path="url(#clipPath16)"><g id="g20" transform="translate(29,11)"><path id="path22" d="m 0,0 c 0,-2.762 -2.238,-5 -5,-5 -2.762,0 -5,2.238 -5,5 0,2.762 2.238,5 5,5 2.762,0 5,-2.238 5,-5" style="fill:#292f33;fill-opacity:1;fill-rule:nonzero;stroke:none"/></g><g id="g24" transform="translate(19,11)"><path id="path26" d="m 0,0 c 0,-2.762 -2.239,-5 -5,-5 -2.761,0 -5,2.238 -5,5 0,2.762 2.239,5 5,5 2.761,0 5,-2.238 5,-5" style="fill:#292f33;fill-opacity:1;fill-rule:nonzero;stroke:none"/></g><path id="path28" d="m 27,10 -16,0 0,16 16,0 0,-16 z" style="fill:#292f33;fill-opacity:1;fill-rule:nonzero;stroke:none"/><g id="g30" transform="translate(19,18)"><path id="path32" d="m 0,0 c 0,4.418 -3.582,8 -8,8 -4.111,0 -7.494,-3.103 -7.945,-7.093 l -0.004,0.002 -2,-12.36 0.004,-0.003 C -17.978,-11.632 -18,-11.813 -18,-12 c 0,-1.657 1.343,-3 3,-3 0.68,0 1.3,0.234 1.803,0.616 l 0.009,-0.006 10.157,8.127 c 0.059,0.047 0.119,0.093 0.177,0.142 l 0.072,0.058 -0.006,0.002 C -1.083,-4.594 0,-2.425 0,0" style="fill:#292f33;fill-opacity:1;fill-rule:nonzero;stroke:none"/></g><g id="g34" transform="translate(19,18)"><path id="path36" d="m 0,0 c 0,4.418 3.582,8 8,8 4.111,0 7.494,-3.103 7.945,-7.093 l 0.004,0.002 2,-12.36 -0.004,-0.003 C 17.978,-11.632 18,-11.813 18,-12 c 0,-1.657 -1.343,-3 -3,-3 -0.68,0 -1.3,0.234 -1.803,0.616 L 13.188,-14.39 3.031,-6.263 C 2.972,-6.216 2.912,-6.17 2.854,-6.121 l -0.072,0.058 0.005,0.002 C 1.084,-4.594 0,-2.425 0,0" style="fill:#292f33;fill-opacity:1;fill-rule:nonzero;stroke:none"/></g><g id="g38" transform="translate(23,19)"><path id="path40" d="m 0,0 c 0,-2.761 2.24,-5 5,-5 2.762,0 5,2.239 5,5 C 10,2.761 7.762,5 5,5 2.24,5 0,2.761 0,0" style="fill:#f18f26;fill-opacity:1;fill-rule:nonzero;stroke:none"/></g><g id="g42" transform="translate(27,11)"><path id="path44" d="m 0,0 c 0,-1.657 -1.343,-3 -3,-3 -1.657,0 -3,1.343 -3,3 0,1.657 1.343,3 3,3 1.657,0 3,-1.343 3,-3" style="fill:#67757f;fill-opacity:1;fill-rule:nonzero;stroke:none"/></g><g id="g46" transform="translate(17,11)"><path id="path48" d="m 0,0 c 0,-1.657 -1.343,-3 -3,-3 -1.657,0 -3,1.343 -3,3 0,1.657 1.343,3 3,3 1.657,0 3,-1.343 3,-3" style="fill:#67757f;fill-opacity:1;fill-rule:nonzero;stroke:none"/></g><g id="g50" transform="translate(5,19)"><path id="path52" d="m 0,0 c 0,-2.761 2.24,-5 5,-5 2.762,0 5,2.239 5,5 C 10,2.761 7.762,5 5,5 2.24,5 0,2.761 0,0" style="fill:#67757f;fill-opacity:1;fill-rule:nonzero;stroke:none"/></g><g id="g54" transform="translate(29,21.5)"><path id="path56" d="M 0,0 C 0,-0.829 -0.672,-1.5 -1.5,-1.5 -2.328,-1.5 -3,-0.829 -3,0 -3,0.829 -2.328,1.5 -1.5,1.5 -0.672,1.5 0,0.829 0,0" style="fill:#f18f26;fill-opacity:1;fill-rule:nonzero;stroke:none"/></g><g id="g58" transform="translate(32,18.5)"><path id="path60" d="M 0,0 C 0,-0.828 -0.672,-1.5 -1.5,-1.5 -2.328,-1.5 -3,-0.828 -3,0 -3,0.828 -2.328,1.5 -1.5,1.5 -0.672,1.5 0,0.828 0,0" style="fill:#f18f26;fill-opacity:1;fill-rule:nonzero;stroke:none"/></g><g id="g62" transform="translate(19.0005,25.9995)"><path id="path64" d="M 0,0 C -0.552,0 -1,0.448 -1,1 -1,3.025 -1.545,3.795 -2.071,4.54 -2.506,5.155 -3,5.853 -3,7 c 0,2.588 2.448,3.843 2.552,3.895 0.493,0.249 1.093,0.047 1.342,-0.447 C 1.141,9.954 0.941,9.354 0.447,9.106 0.438,9.102 -1,8.342 -1,7 -1,6.509 -0.828,6.245 -0.438,5.694 0.168,4.836 1,3.661 1,1 1,0.448 0.552,0 0,0" style="fill:#292f33;fill-opacity:1;fill-rule:nonzero;stroke:none"/></g><g id="g66" transform="translate(25,26)"><path id="path68" d="m 0,0 c 0,-1.104 -0.896,-2 -2,-2 l -8,0 c -1.104,0 -2,0.896 -2,2 0,1.104 0.896,2 2,2 l 8,0 C -0.896,2 0,1.104 0,0" style="fill:#292f33;fill-opacity:1;fill-rule:nonzero;stroke:none"/></g></g></g></g></svg>