<svg xmlns="http://www.w3.org/2000/svg" xmlns:svg="http://www.w3.org/2000/svg" style="enable-background:new 0 0 47.5 47.5" id="svg2" version="1.1" viewBox="0 0 47.5 47.5" xml:space="preserve"><metadata id="metadata8"/><defs id="defs6"><clipPath id="clipPath16" clipPathUnits="userSpaceOnUse"><path id="path18" d="M 0,38 38,38 38,0 0,0 0,38 Z"/></clipPath></defs><g id="g10" transform="matrix(1.25,0,0,-1.25,0,47.5)"><g id="g12"><g id="g14" clip-path="url(#clipPath16)"><g id="g20" transform="translate(37,5)"><path id="path22" d="m 0,0 c 0,-2.209 -1.791,-4 -4,-4 l -28,0 c -2.209,0 -4,1.791 -4,4 l 0,28 c 0,2.209 1.791,4 4,4 l 28,0 c 2.209,0 4,-1.791 4,-4 L 0,0 Z" style="fill:#88c9f9;fill-opacity:1;fill-rule:nonzero;stroke:none"/></g><g id="g24" transform="translate(19,10)"><path id="path26" d="m 0,0 c -6.076,0 -11,4.925 -11,11 0,6.075 4.924,11 11,11 C 6.075,22 11,17.075 11,11 11,4.925 6.075,0 0,0 M 0,24 C -7.18,24 -13,18.18 -13,11 -13,3.82 -7.18,-2 0,-2 7.18,-2 13,3.82 13,11 13,18.18 7.18,24 0,24" style="fill:#ffe8b6;fill-opacity:1;fill-rule:nonzero;stroke:none"/></g><g id="g28" transform="translate(22,30.5)"><path id="path30" d="m 0,0 c 0,-1.381 -1.119,-2.5 -2.5,-2.5 l -1,0 c -1.381,0 -2.5,1.119 -2.5,2.5 0,1.381 1.119,2.5 2.5,2.5 l 1,0 C -1.119,2.5 0,1.381 0,0" style="fill:#ea596e;fill-opacity:1;fill-rule:nonzero;stroke:none"/></g><g id="g32" transform="translate(13,27.5)"><path id="path34" d="m 0,0 c 0,-1.381 -1.119,-2.5 -2.5,-2.5 l -1,0 c -1.381,0 -2.5,1.119 -2.5,2.5 0,1.381 1.119,2.5 2.5,2.5 l 1,0 C -1.119,2.5 0,1.381 0,0" style="fill:#ea596e;fill-opacity:1;fill-rule:nonzero;stroke:none"/></g><g id="g36" transform="translate(31,27.5)"><path id="path38" d="m 0,0 c 0,-1.381 -1.119,-2.5 -2.5,-2.5 l -1,0 c -1.381,0 -2.5,1.119 -2.5,2.5 0,1.381 1.119,2.5 2.5,2.5 l 1,0 C -1.119,2.5 0,1.381 0,0" style="fill:#ea596e;fill-opacity:1;fill-rule:nonzero;stroke:none"/></g><g id="g40" transform="translate(34,18.5)"><path id="path42" d="m 0,0 c 0,-1.381 -1.119,-2.5 -2.5,-2.5 l -1,0 c -1.381,0 -2.5,1.119 -2.5,2.5 0,1.381 1.119,2.5 2.5,2.5 l 1,0 C -1.119,2.5 0,1.381 0,0" style="fill:#ea596e;fill-opacity:1;fill-rule:nonzero;stroke:none"/></g><g id="g44" transform="translate(10,18.5)"><path id="path46" d="m 0,0 c 0,-1.381 -1.119,-2.5 -2.5,-2.5 l -1,0 c -1.381,0 -2.5,1.119 -2.5,2.5 0,1.381 1.119,2.5 2.5,2.5 l 1,0 C -1.119,2.5 0,1.381 0,0" style="fill:#ea596e;fill-opacity:1;fill-rule:nonzero;stroke:none"/></g><g id="g48" transform="translate(13,10.5)"><path id="path50" d="m 0,0 c 0,-1.381 -1.119,-2.5 -2.5,-2.5 l -1,0 c -1.381,0 -2.5,1.119 -2.5,2.5 0,1.381 1.119,2.5 2.5,2.5 l 1,0 C -1.119,2.5 0,1.381 0,0" style="fill:#ea596e;fill-opacity:1;fill-rule:nonzero;stroke:none"/></g><g id="g52" transform="translate(31,10.5)"><path id="path54" d="m 0,0 c 0,-1.381 -1.119,-2.5 -2.5,-2.5 l -1,0 c -1.381,0 -2.5,1.119 -2.5,2.5 0,1.381 1.119,2.5 2.5,2.5 l 1,0 C -1.119,2.5 0,1.381 0,0" style="fill:#ea596e;fill-opacity:1;fill-rule:nonzero;stroke:none"/></g><g id="g56" transform="translate(22,6.5)"><path id="path58" d="m 0,0 c 0,-1.381 -1.119,-2.5 -2.5,-2.5 l -1,0 c -1.381,0 -2.5,1.119 -2.5,2.5 0,1.381 1.119,2.5 2.5,2.5 l 1,0 C -1.119,2.5 0,1.381 0,0" style="fill:#ea596e;fill-opacity:1;fill-rule:nonzero;stroke:none"/></g><g id="g60" transform="translate(21.9492,7)"><path id="path62" d="m 0,0 c -0.231,1.142 -1.239,2 -2.449,2 l -1,0 C -4.659,2 -5.667,1.142 -5.899,0 L 0,0 Z" style="fill:#fff;fill-opacity:1;fill-rule:nonzero;stroke:none"/></g><g id="g64" transform="translate(12.9492,11)"><path id="path66" d="m 0,0 c -0.231,1.142 -1.239,2 -2.449,2 l -1,0 C -4.659,2 -5.667,1.142 -5.899,0 L 0,0 Z" style="fill:#fff;fill-opacity:1;fill-rule:nonzero;stroke:none"/></g><g id="g68" transform="translate(9.9492,19)"><path id="path70" d="m 0,0 c -0.231,1.142 -1.239,2 -2.449,2 l -1,0 C -4.659,2 -5.667,1.142 -5.899,0 L 0,0 Z" style="fill:#fff;fill-opacity:1;fill-rule:nonzero;stroke:none"/></g><g id="g72" transform="translate(33.9492,19)"><path id="path74" d="m 0,0 c -0.231,1.142 -1.239,2 -2.449,2 l -1,0 C -4.658,2 -5.667,1.142 -5.898,0 L 0,0 Z" style="fill:#fff;fill-opacity:1;fill-rule:nonzero;stroke:none"/></g><g id="g76" transform="translate(30.9492,11)"><path id="path78" d="m 0,0 c -0.231,1.142 -1.239,2 -2.449,2 l -1,0 C -4.658,2 -5.667,1.142 -5.898,0 L 0,0 Z" style="fill:#fff;fill-opacity:1;fill-rule:nonzero;stroke:none"/></g><g id="g80" transform="translate(30.9492,28)"><path id="path82" d="m 0,0 c -0.231,1.142 -1.239,2 -2.449,2 l -1,0 C -4.658,2 -5.667,1.142 -5.898,0 L 0,0 Z" style="fill:#fff;fill-opacity:1;fill-rule:nonzero;stroke:none"/></g><g id="g84" transform="translate(21.9492,31)"><path id="path86" d="m 0,0 c -0.231,1.142 -1.239,2 -2.449,2 l -1,0 C -4.659,2 -5.667,1.142 -5.899,0 L 0,0 Z" style="fill:#fff;fill-opacity:1;fill-rule:nonzero;stroke:none"/></g><g id="g88" transform="translate(12.9492,28)"><path id="path90" d="m 0,0 c -0.231,1.142 -1.239,2 -2.449,2 l -1,0 C -4.659,2 -5.667,1.142 -5.899,0 L 0,0 Z" style="fill:#fff;fill-opacity:1;fill-rule:nonzero;stroke:none"/></g><g id="g92" transform="translate(27.001,3)"><path id="path94" d="M 0,0 C -0.376,0 -0.735,0.212 -0.906,0.574 L -8.001,15.651 -15.097,0.574 c -0.236,-0.5 -0.831,-0.713 -1.33,-0.479 -0.5,0.235 -0.715,0.831 -0.479,1.331 l 8,17 c 0.165,0.35 0.518,0.574 0.905,0.574 0.387,0 0.74,-0.224 0.905,-0.574 l 8,-17 C 1.139,0.926 0.925,0.33 0.425,0.095 0.287,0.03 0.143,0 0,0" style="fill:#414042;fill-opacity:1;fill-rule:nonzero;stroke:none"/></g><g id="g96" transform="translate(15.9995,21)"><path id="path98" d="M 0,0 C 0,1.657 1.343,3 3,3 4.657,3 6,1.657 6,0 6,-1.657 4.657,-3 3,-3 1.343,-3 0,-1.657 0,0" style="fill:#414042;fill-opacity:1;fill-rule:nonzero;stroke:none"/></g></g></g></g></svg>