<svg xmlns="http://www.w3.org/2000/svg" xmlns:svg="http://www.w3.org/2000/svg" style="enable-background:new 0 0 47.5 47.5" id="svg2" version="1.1" viewBox="0 0 47.5 47.5" xml:space="preserve"><metadata id="metadata8"/><defs id="defs6"><clipPath id="clipPath16" clipPathUnits="userSpaceOnUse"><path id="path18" d="M 0,38 38,38 38,0 0,0 0,38 Z"/></clipPath></defs><g id="g10" transform="matrix(1.25,0,0,-1.25,0,47.5)"><g id="g12"><g id="g14" clip-path="url(#clipPath16)"><g id="g20" transform="translate(36.999,25.0825)"><path id="path22" d="m 0,0 c 0,-3.803 -3.082,-6.885 -6.885,-6.885 -3.802,0 -6.884,3.082 -6.884,6.885 0,3.802 3.082,6.884 6.884,6.884 C -3.082,6.884 0,3.802 0,0" style="fill:#939598;fill-opacity:1;fill-rule:nonzero;stroke:none"/></g><g id="g24" transform="translate(33.8096,18.4316)"><path id="path26" d="m 0,0 c -0.336,-0.336 -0.881,-0.336 -1.217,0 l -9.127,9.128 c -0.336,0.336 -0.336,0.881 0,1.217 l 1.217,1.217 c 0.336,0.336 0.881,0.336 1.217,0 L 1.217,2.434 c 0.336,-0.336 0.336,-0.881 0,-1.217 L 0,0 Z" style="fill:#58595b;fill-opacity:1;fill-rule:nonzero;stroke:none"/></g><g id="g28" transform="translate(27.7393,18.2959)"><path id="path30" d="M 0,0 -4.325,4.327 C -5.104,5.105 -6.32,5.06 -7.044,4.226 l -9.158,-10.575 c -1.219,-1.408 -1.462,-3.353 -0.711,-4.73 l -4.911,-4.912 1.409,-1.409 4.877,4.877 c 1.382,-0.84 3.411,-0.61 4.863,0.648 l 10.574,9.157 C 0.732,-1.994 0.779,-0.777 0,0" style="fill:#414042;fill-opacity:1;fill-rule:nonzero;stroke:none"/></g><g id="g32" transform="translate(5,31)"><path id="path34" d="M 0,0 0,-8.122 C -0.314,-8.047 -0.648,-8 -1,-8 c -1.657,0 -3,-0.895 -3,-2 0,-1.104 1.343,-2 3,-2 1.656,0 2.999,0.896 3,2 l 0,0 0,6.111 5,-2.222 0,-5.011 C 6.686,-11.047 6.352,-11 6,-11 c -1.657,0 -3,-0.895 -3,-2 0,-1.104 1.343,-2 3,-2 1.656,0 2.999,0.896 3,2 l 0,0 0,9 0,0 -9,4 z" style="fill:#55acee;fill-opacity:1;fill-rule:nonzero;stroke:none"/></g><g id="g36" transform="translate(19,36)"><path id="path38" d="M 0,0 0,-8.123 C -0.314,-8.048 -0.647,-8 -1,-8 c -1.657,0 -3,-0.895 -3,-2 0,-1.104 1.343,-2 3,-2 1.656,0 3,0.896 3,2 L 2,0 0,0 Z" style="fill:#55acee;fill-opacity:1;fill-rule:nonzero;stroke:none"/></g></g></g></g></svg>