<svg xmlns="http://www.w3.org/2000/svg" xmlns:svg="http://www.w3.org/2000/svg" style="enable-background:new 0 0 47.5 47.5" id="svg2" version="1.1" viewBox="0 0 47.5 47.5" xml:space="preserve"><metadata id="metadata8"/><defs id="defs6"><clipPath id="clipPath16" clipPathUnits="userSpaceOnUse"><path id="path18" d="M 0,38 38,38 38,0 0,0 0,38 Z"/></clipPath></defs><g id="g10" transform="matrix(1.25,0,0,-1.25,0,47.5)"><g id="g12"><g id="g14" clip-path="url(#clipPath16)"><g id="g20" transform="translate(35.209,36.7935)"><path id="path22" d="m 0,0 -22.418,-2.587 c -0.985,-0.114 -1.791,-1.017 -1.791,-2.009 l 0,-0.197 0,-4.198 0,-14.387 c -0.91,0.371 -1.925,0.585 -3,0.585 -3.865,0 -7,-2.686 -7,-6 0,-3.315 3.135,-6 7,-6 3.865,0 7,2.685 7,6 l 0,18.461 18,2.077 0,-13.123 c -0.91,0.371 -1.925,0.585 -3,0.585 -3.865,0 -7,-2.686 -7,-6 0,-3.315 3.135,-6 7,-6 3.865,0 7,2.685 7,6 l 0,20.802 0,4.395 C 1.791,-0.604 0.985,0.114 0,0" style="fill:#5dadec;fill-opacity:1;fill-rule:nonzero;stroke:none"/></g></g></g></g></svg>