<svg xmlns="http://www.w3.org/2000/svg" xmlns:svg="http://www.w3.org/2000/svg" style="enable-background:new 0 0 47.5 47.5" id="svg2" version="1.1" viewBox="0 0 47.5 47.5" xml:space="preserve"><metadata id="metadata8"/><defs id="defs6"><clipPath id="clipPath16" clipPathUnits="userSpaceOnUse"><path id="path18" d="M 0,38 38,38 38,0 0,0 0,38 Z"/></clipPath></defs><g id="g10" transform="matrix(1.25,0,0,-1.25,0,47.5)"><g id="g12"><g id="g14" clip-path="url(#clipPath16)"><g id="g20" transform="translate(37,10)"><path id="path22" d="m 0,0 c 0,-2.209 -1.791,-4 -4,-4 l -28,0 c -2.209,0 -4,1.791 -4,4 l 0,18 c 0,2.209 1.791,4 4,4 l 28,0 c 2.209,0 4,-1.791 4,-4 L 0,0 Z" style="fill:#292f33;fill-opacity:1;fill-rule:nonzero;stroke:none"/></g><g id="g24" transform="translate(12,13)"><path id="path26" d="m 0,0 c 0,-2.209 -0.791,-3 -3,-3 l -4,0 c -2.209,0 -3,0.791 -3,3 l 0,12 c 0,2.209 0.791,3 3,3 l 4,0 c 2.209,0 3,-0.791 3,-3 L 0,0 Z" style="fill:#ccd6dd;fill-opacity:1;fill-rule:nonzero;stroke:none"/></g><g id="g28" transform="translate(24,13)"><path id="path30" d="m 0,0 c 0,-2.209 -0.791,-3 -3,-3 l -4,0 c -2.209,0 -3,0.791 -3,3 l 0,12 c 0,2.209 0.791,3 3,3 l 4,0 c 2.209,0 3,-0.791 3,-3 L 0,0 Z" style="fill:#ccd6dd;fill-opacity:1;fill-rule:nonzero;stroke:none"/></g><g id="g32" transform="translate(36,13)"><path id="path34" d="m 0,0 c 0,-2.209 -0.791,-3 -3,-3 l -4,0 c -2.209,0 -3,0.791 -3,3 l 0,12 c 0,2.209 0.791,3 3,3 l 4,0 c 2.209,0 3,-0.791 3,-3 L 0,0 Z" style="fill:#ccd6dd;fill-opacity:1;fill-rule:nonzero;stroke:none"/></g><path id="path36" d="M 12,14 2,14 2,24 12,24 12,14 Z" style="fill:#e1e8ed;fill-opacity:1;fill-rule:nonzero;stroke:none"/><path id="path38" d="m 24,14 -10,0 0,10 10,0 0,-10 z" style="fill:#e1e8ed;fill-opacity:1;fill-rule:nonzero;stroke:none"/><path id="path40" d="m 36,14 -10,0 0,10 10,0 0,-10 z" style="fill:#e1e8ed;fill-opacity:1;fill-rule:nonzero;stroke:none"/><g id="g42" transform="translate(31.7949,21.3149)"><path id="path44" d="M 0,0 -2.816,0 C -3.41,0 -3.63,0.385 -3.63,0.759 c 0,0.385 0.209,0.759 0.814,0.759 l 3.983,0 C 1.729,1.518 1.959,1.012 1.959,0.726 1.959,0.506 1.838,0.275 1.706,0 l -2.728,-5.545 c -0.308,-0.616 -0.429,-0.836 -0.925,-0.836 -0.605,0 -0.912,0.463 -0.912,0.781 0,0.133 0.033,0.231 0.109,0.385 L 0,0 Z" style="fill:#be1931;fill-opacity:1;fill-rule:nonzero;stroke:none"/></g><g id="g46" transform="translate(19.7954,21.3149)"><path id="path48" d="M 0,0 -2.816,0 C -3.41,0 -3.63,0.385 -3.63,0.759 c 0,0.385 0.209,0.759 0.814,0.759 l 3.983,0 C 1.728,1.518 1.958,1.012 1.958,0.726 1.958,0.506 1.837,0.275 1.706,0 l -2.729,-5.545 c -0.308,-0.616 -0.429,-0.836 -0.924,-0.836 -0.605,0 -0.913,0.463 -0.913,0.781 0,0.133 0.033,0.231 0.11,0.385 L 0,0 Z" style="fill:#be1931;fill-opacity:1;fill-rule:nonzero;stroke:none"/></g><g id="g50" transform="translate(7.7954,21.3149)"><path id="path52" d="M 0,0 -2.816,0 C -3.41,0 -3.63,0.385 -3.63,0.759 c 0,0.385 0.209,0.759 0.814,0.759 l 3.983,0 C 1.728,1.518 1.958,1.012 1.958,0.726 1.958,0.506 1.837,0.275 1.706,0 l -2.729,-5.545 c -0.308,-0.616 -0.429,-0.836 -0.924,-0.836 -0.605,0 -0.913,0.463 -0.913,0.781 0,0.133 0.033,0.231 0.11,0.385 L 0,0 Z" style="fill:#be1931;fill-opacity:1;fill-rule:nonzero;stroke:none"/></g><g id="g54" transform="translate(4.0605,28)"><path id="path56" d="m 0,0 c -0.04,-0.162 -0.061,-0.329 -0.061,-0.5 0,-1.381 1.344,-2.5 3,-2.5 1.657,0 3,1.119 3,2.5 0,0.171 -0.021,0.338 -0.06,0.5 L 0,0 Z" style="fill:#9266cc;fill-opacity:1;fill-rule:nonzero;stroke:none"/></g><g id="g58" transform="translate(16.0605,28)"><path id="path60" d="m 0,0 c -0.04,-0.162 -0.061,-0.329 -0.061,-0.5 0,-1.381 1.344,-2.5 3,-2.5 1.657,0 3,1.119 3,2.5 0,0.171 -0.021,0.338 -0.06,0.5 L 0,0 Z" style="fill:#9266cc;fill-opacity:1;fill-rule:nonzero;stroke:none"/></g><g id="g62" transform="translate(28.0605,28)"><path id="path64" d="m 0,0 c -0.039,-0.162 -0.061,-0.329 -0.061,-0.5 0,-1.381 1.344,-2.5 3,-2.5 1.657,0 3,1.119 3,2.5 0,0.171 -0.021,0.338 -0.06,0.5 L 0,0 Z" style="fill:#9266cc;fill-opacity:1;fill-rule:nonzero;stroke:none"/></g><g id="g66" transform="translate(9.8164,10)"><path id="path68" d="m 0,0 c 0.111,0.157 0.184,0.324 0.184,0.5 0,0.828 -1.344,1.5 -3,1.5 -1.657,0 -3,-0.672 -3,-1.5 0,-0.176 0.072,-0.343 0.183,-0.5 L 0,0 Z" style="fill:#f4900c;fill-opacity:1;fill-rule:nonzero;stroke:none"/></g><g id="g70" transform="translate(21.8164,10)"><path id="path72" d="m 0,0 c 0.111,0.157 0.184,0.324 0.184,0.5 0,0.828 -1.344,1.5 -3,1.5 -1.657,0 -3,-0.672 -3,-1.5 0,-0.176 0.072,-0.343 0.183,-0.5 L 0,0 Z" style="fill:#f4900c;fill-opacity:1;fill-rule:nonzero;stroke:none"/></g><g id="g74" transform="translate(33.8164,10)"><path id="path76" d="m 0,0 c 0.111,0.157 0.184,0.324 0.184,0.5 0,0.828 -1.344,1.5 -3,1.5 -1.657,0 -3,-0.672 -3,-1.5 0,-0.176 0.072,-0.343 0.183,-0.5 L 0,0 Z" style="fill:#f4900c;fill-opacity:1;fill-rule:nonzero;stroke:none"/></g></g></g></g></svg>