<svg xmlns="http://www.w3.org/2000/svg" xmlns:svg="http://www.w3.org/2000/svg" style="enable-background:new 0 0 47.5 47.5" id="svg2" version="1.1" viewBox="0 0 47.5 47.5" xml:space="preserve"><metadata id="metadata8"/><defs id="defs6"><clipPath id="clipPath16" clipPathUnits="userSpaceOnUse"><path id="path18" d="M 0,38 38,38 38,0 0,0 0,38 Z"/></clipPath></defs><g id="g10" transform="matrix(1.25,0,0,-1.25,0,47.5)"><g id="g12"><g id="g14" clip-path="url(#clipPath16)"><g id="g20" transform="translate(15,21)"><path id="path22" d="m 0,0 -5,-10 c 0,0 -1,-2 1,-2 1,0 2,2 2,2 L 12,9 c 0,0 2,4 8,1 L 20,8 C 17,9 16,7 16,7 L 1,-17 c 0,0 -2,-3 -7,-3 -6,0 -7,5 -7,8 0,2 1,4 2,6 1,2 -2,6 -2,6 L 0,0 Z" style="fill:#fcab40;fill-opacity:1;fill-rule:evenodd;stroke:none"/></g><g id="g24" transform="translate(8.5,17)"><path id="path26" d="M 0,0 C -3.46,0 -7.5,1.048 -7.5,4 -7.5,6.953 -3.46,8 0,8 3.46,8 7.5,6.953 7.5,4 7.5,1.048 3.46,0 0,0" style="fill:#fdcb58;fill-opacity:1;fill-rule:nonzero;stroke:none"/></g><g id="g28" transform="translate(22,20)"><path id="path30" d="m 0,0 c 0,-1.104 -0.896,-2 -2,-2 -1.104,0 -2,0.896 -2,2 0,1.104 0.896,2 2,2 1.104,0 2,-0.896 2,-2" style="fill:#ccd6dd;fill-opacity:1;fill-rule:nonzero;stroke:none"/></g><g id="g32" transform="translate(25,24)"><path id="path34" d="m 0,0 c 0,-1.104 -0.896,-2 -2,-2 -1.104,0 -2,0.896 -2,2 0,1.104 0.896,2 2,2 1.104,0 2,-0.896 2,-2" style="fill:#ccd6dd;fill-opacity:1;fill-rule:nonzero;stroke:none"/></g><g id="g36" transform="translate(28,28)"><path id="path38" d="m 0,0 c 0,-1.104 -0.896,-2 -2,-2 -1.104,0 -2,0.896 -2,2 0,1.104 0.896,2 2,2 1.104,0 2,-0.896 2,-2" style="fill:#ccd6dd;fill-opacity:1;fill-rule:nonzero;stroke:none"/></g><g id="g40" transform="translate(34.998,26.9995)"><path id="path42" d="m 0,0 c -0.3,0 -0.605,0.068 -0.893,0.211 l -2,1 c -0.988,0.495 -1.388,1.696 -0.894,2.684 0.493,0.986 1.693,1.39 2.683,0.895 l 2,-1 C 1.885,3.295 2.285,2.094 1.791,1.106 1.44,0.405 0.734,0 0,0" style="fill:#9aaab4;fill-opacity:1;fill-rule:nonzero;stroke:none"/></g><g id="g44" transform="translate(17.2651,11.7754)"><path id="path46" d="M 0,0 -1.268,-1.548 -7.458,3.52 -6.192,5.067 0,0 Z" style="fill:#fcab40;fill-opacity:1;fill-rule:evenodd;stroke:none"/></g></g></g></g></svg>