<svg xmlns="http://www.w3.org/2000/svg" xmlns:svg="http://www.w3.org/2000/svg" style="enable-background:new 0 0 47.5 47.5" id="svg2" version="1.1" viewBox="0 0 47.5 47.5" xml:space="preserve"><metadata id="metadata8"/><defs id="defs6"><clipPath id="clipPath16" clipPathUnits="userSpaceOnUse"><path id="path18" d="M 0,38 38,38 38,0 0,0 0,38 Z"/></clipPath></defs><g id="g10" transform="matrix(1.25,0,0,-1.25,0,47.5)"><g id="g12"><g id="g14" clip-path="url(#clipPath16)"><g id="g20" transform="translate(15.1816,36.8325)"><path id="path22" d="m 0,0 -6.363,-1.301 c -0.45,-0.093 -0.819,-0.544 -0.819,-1.003 l 0,-1.529 0,-2.255 0,-12.073 c -0.613,0.209 -1.287,0.328 -2,0.328 -2.761,0 -5,-1.741 -5,-3.888 0,-2.148 2.239,-3.889 5,-3.889 2.713,0 4.909,1.683 4.986,3.777 l 0.014,0 0,15.523 L 0,-5.455 c 0.45,0.093 0.818,0.544 0.818,1.003 l 0,3.785 C 0.818,-0.208 0.45,0.092 0,0" style="fill:#5dadec;fill-opacity:1;fill-rule:nonzero;stroke:none"/></g><g id="g24" transform="translate(36.1816,32.8325)"><path id="path26" d="m 0,0 -6.363,-1.301 c -0.45,-0.093 -0.819,-0.544 -0.819,-1.003 l 0,-1.529 0,-2.255 0,-12.073 c -0.613,0.209 -1.288,0.328 -2,0.328 -2.761,0 -5,-1.741 -5,-3.888 0,-2.148 2.239,-3.889 5,-3.889 2.713,0 4.909,1.683 4.986,3.777 l 0.014,0 0,15.523 L 0,-5.455 c 0.45,0.093 0.818,0.544 0.818,1.003 l 0,3.785 C 0.818,-0.208 0.45,0.092 0,0" style="fill:#5dadec;fill-opacity:1;fill-rule:nonzero;stroke:none"/></g><g id="g28" transform="translate(24.1816,26.8325)"><path id="path30" d="m 0,0 -6.363,-1.301 c -0.45,-0.093 -0.819,-0.544 -0.819,-1.003 l 0,-1.529 0,-2.255 0,-12.073 c -0.613,0.209 -1.287,0.328 -2,0.328 -2.761,0 -5,-1.741 -5,-3.888 0,-2.148 2.239,-3.889 5,-3.889 2.713,0 4.909,1.683 4.986,3.777 l 0.014,0 0,15.523 L 0,-5.455 c 0.45,0.093 0.818,0.544 0.818,1.003 l 0,3.785 C 0.818,-0.208 0.45,0.092 0,0" style="fill:#5dadec;fill-opacity:1;fill-rule:nonzero;stroke:none"/></g></g></g></g></svg>