<svg xmlns="http://www.w3.org/2000/svg" xmlns:svg="http://www.w3.org/2000/svg" style="enable-background:new 0 0 47.5 47.5" id="svg2" version="1.1" viewBox="0 0 47.5 47.5" xml:space="preserve"><metadata id="metadata8"/><defs id="defs6"><clipPath id="clipPath16" clipPathUnits="userSpaceOnUse"><path id="path18" d="M 0,38 38,38 38,0 0,0 0,38 Z"/></clipPath><clipPath id="clipPath28" clipPathUnits="userSpaceOnUse"><path id="path30" d="M 1,19 C 1,9.059 9.059,1 19,1 l 0,0 c 9.94,0 18,8.059 18,18 l 0,0 c 0,9.941 -8.059,18 -18,18 l 0,0 C 9.059,37 1,28.941 1,19"/></clipPath></defs><g id="g10" transform="matrix(1.25,0,0,-1.25,0,47.5)"><g id="g12"><g id="g14" clip-path="url(#clipPath16)"><g id="g20" transform="translate(19,1)"><path id="path22" d="m 0,0 c -9.941,0 -18,8.059 -18,18 0,9.941 8.059,18 18,18 C 9.941,36 18,27.941 18,18 18,8.059 9.94,0 0,0" style="fill:#77b255;fill-opacity:1;fill-rule:nonzero;stroke:none"/></g></g></g><g id="g24"><g id="g26" clip-path="url(#clipPath28)"><g id="g32" transform="translate(35,33)"><path id="path34" d="m 0,0 c 4.352,0 9,-3.678 9,-14 0,-10.322 -4.648,-14 -9,-14 -4.352,0 -9,3.678 -9,14 0,10.322 4.648,14 9,14" style="fill:#a6d388;fill-opacity:1;fill-rule:nonzero;stroke:none"/></g><g id="g36" transform="translate(35,7)"><path id="path38" d="M 0,0 C 4.318,0 7,4.598 7,12 7,19.402 4.318,24 0,24 -4.318,24 -7,19.402 -7,12 -7,4.598 -4.318,0 0,0 M 0,26 C 4.352,26 9,22.322 9,12 9,1.678 4.352,-2 0,-2 c -4.352,0 -9,3.678 -9,14 0,10.322 4.648,14 9,14" style="fill:#fff;fill-opacity:1;fill-rule:nonzero;stroke:none"/></g><g id="g40" transform="translate(3,33)"><path id="path42" d="m 0,0 c 4.351,0 9,-3.678 9,-14 0,-10.322 -4.649,-14 -9,-14 -4.351,0 -9,3.678 -9,14 0,10.322 4.649,14 9,14" style="fill:#a6d388;fill-opacity:1;fill-rule:nonzero;stroke:none"/></g><g id="g44" transform="translate(3,7)"><path id="path46" d="M 0,0 C 4.317,0 7,4.598 7,12 7,19.402 4.317,24 0,24 -4.317,24 -7,19.402 -7,12 -7,4.599 -4.317,0 0,0 M 0,26 C 4.351,26 9,22.322 9,12 9,1.678 4.351,-2 0,-2 c -4.351,0 -9,3.678 -9,14 0,10.322 4.649,14 9,14" style="fill:#fff;fill-opacity:1;fill-rule:nonzero;stroke:none"/></g></g></g></g></svg>