<svg xmlns="http://www.w3.org/2000/svg" xmlns:svg="http://www.w3.org/2000/svg" style="enable-background:new 0 0 47.5 47.5" id="svg2" version="1.1" viewBox="0 0 47.5 47.5" xml:space="preserve"><metadata id="metadata8"/><defs id="defs6"><clipPath id="clipPath16" clipPathUnits="userSpaceOnUse"><path id="path18" d="M 0,38 38,38 38,0 0,0 0,38 Z"/></clipPath></defs><g id="g10" transform="matrix(1.25,0,0,-1.25,0,47.5)"><g id="g12"><g id="g14" clip-path="url(#clipPath16)"><g id="g20" transform="translate(37,14)"><path id="path22" d="m 0,0 c 0,-1.104 -0.896,-2 -2,-2 l -30,0 c -1.104,0 -2,0.896 -2,2 l 0,20 c 0,1.104 0.896,2 2,2 l 30,0 c 1.104,0 2,-0.896 2,-2 L 0,0 Z" style="fill:#292f33;fill-opacity:1;fill-rule:nonzero;stroke:none"/></g><path id="path24" d="m 13,28 -9,0 0,8 9,0 0,-8 z" style="fill:#e1e8ed;fill-opacity:1;fill-rule:nonzero;stroke:none"/><path id="path26" d="m 21,20 -8,0 0,8 8,0 0,-8 z" style="fill:#e1e8ed;fill-opacity:1;fill-rule:nonzero;stroke:none"/><path id="path28" d="m 29,28 -8,0 0,8 8,0 0,-8 z" style="fill:#e1e8ed;fill-opacity:1;fill-rule:nonzero;stroke:none"/><path id="path30" d="m 13,12 -8,0 0,8 8,0 0,-8 z" style="fill:#e1e8ed;fill-opacity:1;fill-rule:nonzero;stroke:none"/><path id="path32" d="m 29,12 -8,0 0,8 8,0 0,-8 z" style="fill:#e1e8ed;fill-opacity:1;fill-rule:nonzero;stroke:none"/><path id="path34" d="m 37,20 -8,0 0,8 8,0 0,-8 z" style="fill:#e1e8ed;fill-opacity:1;fill-rule:nonzero;stroke:none"/><g id="g36" transform="translate(5,3)"><path id="path38" d="m 0,0 c 0,-1.104 -0.896,-2 -2,-2 -1.104,0 -2,0.896 -2,2 l 0,32 c 0,1.104 0.896,2 2,2 1.104,0 2,-0.896 2,-2 L 0,0 Z" style="fill:#553788;fill-opacity:1;fill-rule:nonzero;stroke:none"/></g></g></g></g></svg>