<svg xmlns="http://www.w3.org/2000/svg" xmlns:svg="http://www.w3.org/2000/svg" style="enable-background:new 0 0 47.5 47.5" id="svg2" version="1.1" viewBox="0 0 47.5 47.5" xml:space="preserve"><metadata id="metadata8"/><defs id="defs6"><clipPath id="clipPath16" clipPathUnits="userSpaceOnUse"><path id="path18" d="M 0,38 38,38 38,0 0,0 0,38 Z"/></clipPath><clipPath id="clipPath28" clipPathUnits="userSpaceOnUse"><path id="path30" d="M 8.754,29.246 C 1.923,22.415 -0.639,11.316 3.631,3.631 l 0,0 c 7.685,-4.27 18.784,-1.708 25.615,5.123 l 0,0 c 6.831,6.831 9.393,17.931 5.123,25.615 l 0,0 c -2.562,1.424 -5.502,2.088 -8.538,2.087 l 0,0 c -6.071,0 -12.524,-2.656 -17.077,-7.21"/></clipPath></defs><g id="g10" transform="matrix(1.25,0,0,-1.25,0,47.5)"><g id="g12"><g id="g14" clip-path="url(#clipPath16)"><g id="g20" transform="translate(29.2461,8.7539)"><path id="path22" d="m 0,0 c -6.831,-6.831 -17.931,-9.393 -25.615,-5.123 -4.27,7.685 -1.708,18.785 5.123,25.615 6.83,6.831 17.93,9.393 25.615,5.123 C 9.393,17.931 6.831,6.831 0,0" style="fill:#662113;fill-opacity:1;fill-rule:nonzero;stroke:none"/></g></g></g><g id="g24"><g id="g26" clip-path="url(#clipPath28)"><g id="g32" transform="translate(27.6572,27.6567)"><path id="path34" d="m 0,0 c -0.391,0.391 -1.024,0.391 -1.415,0 l -15.899,-15.899 c -0.391,-0.392 -0.391,-1.024 0,-1.415 0.391,-0.391 1.023,-0.391 1.414,0 L 0,-1.414 C 0.39,-1.023 0.39,-0.391 0,0" style="fill:#e1e8ed;fill-opacity:1;fill-rule:nonzero;stroke:none"/></g><g id="g36" transform="translate(14.8789,10.6357)"><path id="path38" d="m 0,0 c -0.391,-0.391 -1.023,-0.391 -1.415,0 l -2.828,2.829 c -0.39,0.39 -0.391,1.024 0,1.414 0.391,0.391 1.024,0.391 1.414,0 L 0,1.414 C 0.391,1.023 0.391,0.392 0,0" style="fill:#e1e8ed;fill-opacity:1;fill-rule:nonzero;stroke:none"/></g><g id="g40" transform="translate(18.707,14.4648)"><path id="path42" d="m 0,0 c -0.391,-0.392 -1.023,-0.392 -1.414,0 l -2.829,2.828 c -0.39,0.391 -0.39,1.024 0,1.414 0.391,0.391 1.024,0.391 1.415,0 L 0,1.414 C 0.391,1.023 0.391,0.391 0,0" style="fill:#e1e8ed;fill-opacity:1;fill-rule:nonzero;stroke:none"/></g><g id="g44" transform="translate(23.5352,19.293)"><path id="path46" d="m 0,0 c -0.39,-0.391 -1.023,-0.391 -1.414,0 l -2.828,2.828 c -0.391,0.391 -0.391,1.024 0,1.415 0.39,0.39 1.023,0.39 1.414,0 L 0,1.414 C 0.392,1.023 0.391,0.391 0,0" style="fill:#e1e8ed;fill-opacity:1;fill-rule:nonzero;stroke:none"/></g><g id="g48" transform="translate(27.3643,23.1211)"><path id="path50" d="m 0,0 c -0.391,-0.39 -1.023,-0.391 -1.414,0 l -2.829,2.829 c -0.391,0.39 -0.391,1.024 0,1.414 0.39,0.39 1.024,0.39 1.414,0 L 0,1.415 C 0.391,1.023 0.391,0.391 0,0" style="fill:#e1e8ed;fill-opacity:1;fill-rule:nonzero;stroke:none"/></g><g id="g52" transform="translate(16.439,-2.3467)"><path id="path54" d="m 0,0 -18.785,18.785 1.707,1.708 L 1.708,1.708 0,0 Z" style="fill:#e1e8ed;fill-opacity:1;fill-rule:nonzero;stroke:none"/></g><g id="g56" transform="translate(38.6387,19.8535)"><path id="path58" d="m 0,0 -18.785,18.785 1.708,1.708 L 1.708,1.708 0,0 Z" style="fill:#e1e8ed;fill-opacity:1;fill-rule:nonzero;stroke:none"/></g></g></g></g></svg>