<svg xmlns="http://www.w3.org/2000/svg" xmlns:svg="http://www.w3.org/2000/svg" style="enable-background:new 0 0 47.5 47.5" id="svg2" version="1.1" viewBox="0 0 47.5 47.5" xml:space="preserve"><metadata id="metadata8"/><defs id="defs6"><clipPath id="clipPath16" clipPathUnits="userSpaceOnUse"><path id="path18" d="M 0,38 38,38 38,0 0,0 0,38 Z"/></clipPath></defs><g id="g10" transform="matrix(1.25,0,0,-1.25,0,47.5)"><g id="g12"><g id="g14" clip-path="url(#clipPath16)"><g id="g20" transform="translate(6,32)"><path id="path22" d="M 0,0 6,0 C 7.104,0 8,0.104 8,-1 L 8,1 C 8,2.104 7.104,3 6,3 l -8,0 c -2,0 -3.583,-2.125 -3,-5 0,0 1.791,-9.375 1.917,-9.958 C -2.75,-13.5 -0.958,-15 0.958,-15 l 6.959,0 C 9.021,-15 8,-13.104 8,-12 l 0,2 c 0,-1.104 -0.896,-2 -2,-2 l -4,0 c -1.104,0 -1.833,1.042 -2,2 -0.167,0.958 -1.583,7.333 -1.583,7.333 C -1.917,-0.75 -1.104,0 0,0" style="fill:#ffac33;fill-opacity:1;fill-rule:nonzero;stroke:none"/></g><g id="g24" transform="translate(31.8125,32)"><path id="path26" d="m 0,0 -6,0 c -1.104,0 -2.813,0.104 -2.813,-1 l 0,2 c 0,1.104 1.709,2 2.813,2 l 8,0 c 2,0 3.584,-2.125 3,-5 0,0 -1.633,-9.419 -1.771,-10 -0.354,-1.5 -2.042,-3 -4,-3 l -7.145,0 c -1.105,0 -0.897,1.896 -0.897,3 l 0,2 c 0,-1.104 1.709,-2 2.813,-2 l 4,0 c 1.104,0 1.834,1.042 2,2 0.166,0.958 1.584,7.333 1.584,7.333 C 1.916,-0.75 1.104,0 0,0" style="fill:#ffac33;fill-opacity:1;fill-rule:nonzero;stroke:none"/></g><g id="g28" transform="translate(21.709,15)"><path id="path30" d="m 0,0 c 0,6.958 -2.709,0 -2.709,0 0,0 -3,6.958 -3,0 C -5.709,-6.958 -9,-10 -9,-10 l 6.291,0 6,0 C 3.291,-10 0,-6.958 0,0" style="fill:#ffac33;fill-opacity:1;fill-rule:nonzero;stroke:none"/></g><g id="g32" transform="translate(30,30.4233)"><path id="path34" d="m 0,0 c 0,-6.775 -6.77,-18.192 -11,-18.192 -4.231,0 -11,11.417 -11,18.192 0,5.195 1,6.319 3,6.319 1.374,0 6.025,0.027 8,0.027 1.391,0 5.914,0.002 7,0.002 2.917,0 4,-0.685 4,-6.348" style="fill:#ffcc4d;fill-opacity:1;fill-rule:nonzero;stroke:none"/></g><g id="g36" transform="translate(28,4)"><path id="path38" d="m 0,0 c 0,-1.104 0.104,-2 -1,-2 l -16,0 c -1.104,0 -1,0.896 -1,2 l 0,1 c 0,1.104 1.042,2 2.083,2 L -2,3 C -0.958,3 0,2.104 0,1 L 0,0 Z" style="fill:#c1694f;fill-opacity:1;fill-rule:nonzero;stroke:none"/></g><g id="g40" transform="translate(30,2.375)"><path id="path42" d="m 0,0 c 0,-0.76 0.042,-1.375 -1.375,-1.375 l -19.25,0 C -21.917,-1.375 -22,-0.76 -22,0 l 0,0.25 c 0,0.76 0.616,1.375 1.375,1.375 l 19.25,0 C -0.615,1.625 0,1.01 0,0.25 L 0,0 Z" style="fill:#c1694f;fill-opacity:1;fill-rule:nonzero;stroke:none"/></g></g></g></g></svg>