<svg xmlns="http://www.w3.org/2000/svg" xmlns:svg="http://www.w3.org/2000/svg" style="enable-background:new 0 0 47.5 47.5" id="svg2" version="1.1" viewBox="0 0 47.5 47.5" xml:space="preserve"><metadata id="metadata8"/><defs id="defs6"><clipPath id="clipPath18" clipPathUnits="userSpaceOnUse"><path id="path20" d="M 0,38 38,38 38,0 0,0 0,38 Z"/></clipPath></defs><g id="g10" transform="matrix(1.25,0,0,-1.25,0,47.5)"><path id="path12" d="m 26,12 -14,0 0,15 14,0 0,-15 z" style="fill:#edbb9f;fill-opacity:1;fill-rule:nonzero;stroke:none"/><g id="g14"><g id="g16" clip-path="url(#clipPath18)"><g id="g22" transform="translate(2,19)"><path id="path24" d="m 0,0 0,-16 c 0,-1.104 0.896,-2 2,-2 l 30,0 c 1.104,0 2,0.896 2,2 L 34,0 0,0 Z" style="fill:#be1931;fill-opacity:1;fill-rule:nonzero;stroke:none"/></g><path id="path26" d="m 36,20 -34,0 0,3 34,0 0,-3 z" style="fill:#ffe8b6;fill-opacity:1;fill-rule:nonzero;stroke:none"/><path id="path28" d="m 36,19 -34,0 0,2 34,0 0,-2 z" style="fill:#c1694f;fill-opacity:1;fill-rule:nonzero;stroke:none"/><g id="g30" transform="translate(19,10)"><path id="path32" d="m 0,0 c -1.657,0 -3,-1.343 -3,-3 l 0,-6 6,0 0,6 C 3,-1.343 1.657,0 0,0" style="fill:#d1d3d4;fill-opacity:1;fill-rule:nonzero;stroke:none"/></g><g id="g34" transform="translate(29,10)"><path id="path36" d="m 0,0 c -1.656,0 -3,-1.343 -3,-3 l 0,-4 6,0 0,4 C 3,-1.343 1.657,0 0,0" style="fill:#a7a9ac;fill-opacity:1;fill-rule:nonzero;stroke:none"/></g><g id="g38" transform="translate(9,10)"><path id="path40" d="m 0,0 c -1.657,0 -3,-1.343 -3,-3 l 0,-4 6,0 0,4 C 3,-1.343 1.657,0 0,0" style="fill:#a7a9ac;fill-opacity:1;fill-rule:nonzero;stroke:none"/></g><path id="path42" d="m 11,13 -4,0 0,4 4,0 0,-4 z" style="fill:#a7a9ac;fill-opacity:1;fill-rule:nonzero;stroke:none"/><path id="path44" d="m 21,13 -4,0 0,4 4,0 0,-4 z" style="fill:#a7a9ac;fill-opacity:1;fill-rule:nonzero;stroke:none"/><path id="path46" d="m 31,13 -4,0 0,4 4,0 0,-4 z" style="fill:#a7a9ac;fill-opacity:1;fill-rule:nonzero;stroke:none"/><g id="g48" transform="translate(23,33)"><path id="path50" d="m 0,0 c 0,-2.209 -1.792,-4 -4,-4 -2.209,0 -4,1.791 -4,4 0,2.209 1.791,4 4,4 2.208,0 4,-1.791 4,-4" style="fill:#d99e82;fill-opacity:1;fill-rule:nonzero;stroke:none"/></g><path id="path52" d="m 23,29 -8,0 0,4 8,0 0,-4 z" style="fill:#edbb9f;fill-opacity:1;fill-rule:nonzero;stroke:none"/><g id="g54" transform="translate(34,25)"><path id="path56" d="m 0,0 -30,0 c -1.104,0 -2,-0.896 -2,-2 L 2,-2 C 2,-0.896 1.104,0 0,0" style="fill:#d99e82;fill-opacity:1;fill-rule:nonzero;stroke:none"/></g><g id="g58" transform="translate(24,29)"><path id="path60" d="m 0,0 -10,0 c -1.104,0 -2,-0.896 -2,-2 L 2,-2 C 2,-0.896 1.104,0 0,0" style="fill:#d99e82;fill-opacity:1;fill-rule:nonzero;stroke:none"/></g></g></g></g></svg>