<svg xmlns="http://www.w3.org/2000/svg" xmlns:svg="http://www.w3.org/2000/svg" style="enable-background:new 0 0 47.5 47.5" id="svg2" version="1.1" viewBox="0 0 47.5 47.5" xml:space="preserve"><metadata id="metadata8"/><defs id="defs6"><clipPath id="clipPath16" clipPathUnits="userSpaceOnUse"><path id="path18" d="M 0,38 38,38 38,0 0,0 0,38 Z"/></clipPath></defs><g id="g10" transform="matrix(1.25,0,0,-1.25,0,47.5)"><g id="g12"><g id="g14" clip-path="url(#clipPath16)"><g id="g20" transform="translate(18,3)"><path id="path22" d="m 0,0 c 0,-1.104 0.896,-2 2,-2 l 14,0 c 1.104,0 2,0.896 2,2 l 0,16 c 0,1.104 -0.896,2 -2,2 L 2,18 C 0.896,18 0,17.104 0,16 L 0,0 Z" style="fill:#bcbec0;fill-opacity:1;fill-rule:nonzero;stroke:none"/></g><g id="g24" transform="translate(34,21)"><path id="path26" d="m 0,0 -10,0 0,-2 12,0 C 2,-0.896 1.104,0 0,0" style="fill:#414042;fill-opacity:1;fill-rule:nonzero;stroke:none"/></g><path id="path28" d="M 34,3 4,3 4,7 34,7 34,3 Z" style="fill:#3b88c3;fill-opacity:1;fill-rule:nonzero;stroke:none"/><g id="g30" transform="translate(4,21)"><path id="path32" d="m 0,0 c -1.104,0 -2,-0.896 -2,-2 l 0,-16 c 0,-1.104 0.896,-2 2,-2 l 20,0 0,20 -20,0 z" style="fill:#d1d3d4;fill-opacity:1;fill-rule:nonzero;stroke:none"/></g><g id="g34" transform="translate(4,21)"><path id="path36" d="M 0,0 C -1.104,0 -2,-0.896 -2,-2 L 20,-2 20,0 0,0 Z" style="fill:#66757f;fill-opacity:1;fill-rule:nonzero;stroke:none"/></g><path id="path38" d="m 4,13 4,0 0,4 -4,0 0,-4 z" style="fill:#55acee;fill-opacity:1;fill-rule:nonzero;stroke:none"/><path id="path40" d="m 18,13 4,0 0,4 -4,0 0,-4 z" style="fill:#55acee;fill-opacity:1;fill-rule:nonzero;stroke:none"/><path id="path42" d="m 11,13 4,0 0,4 -4,0 0,-4 z" style="fill:#55acee;fill-opacity:1;fill-rule:nonzero;stroke:none"/><path id="path44" d="m 34,13 -4,0 0,4 4,0 0,-4 z" style="fill:#3b88c3;fill-opacity:1;fill-rule:nonzero;stroke:none"/><path id="path46" d="m 28,13 -4,0 0,4 4,0 0,-4 z" style="fill:#3b88c3;fill-opacity:1;fill-rule:nonzero;stroke:none"/><path id="path48" d="M 22,1 4,1 4,7 22,7 22,1 Z" style="fill:#55acee;fill-opacity:1;fill-rule:nonzero;stroke:none"/><path id="path50" d="M 18,1 8,1 8,7 18,7 18,1 Z" style="fill:#3b88c3;fill-opacity:1;fill-rule:nonzero;stroke:none"/><path id="path52" d="M 24,11 2,11 2,7 24,7 24,11 Z" style="fill:#dd2e44;fill-opacity:1;fill-rule:nonzero;stroke:none"/><path id="path54" d="M 18,8 8,8 8,10 18,10 18,8 Z" style="fill:#f4abba;fill-opacity:1;fill-rule:nonzero;stroke:none"/><path id="path56" d="m 16,8 -6,0 0,2 6,0 0,-2 z" style="fill:#fff;fill-opacity:1;fill-rule:nonzero;stroke:none"/><path id="path58" d="m 36,7 -12,0 0,4 12,0 0,-4 z" style="fill:#a0041e;fill-opacity:1;fill-rule:nonzero;stroke:none"/><path id="path60" d="m 8,21 -2,0 0,2 2,0 0,-2 z" style="fill:#414042;fill-opacity:1;fill-rule:nonzero;stroke:none"/><path id="path62" d="m 18,21 2,0 0,2 -2,0 0,-2 z" style="fill:#414042;fill-opacity:1;fill-rule:nonzero;stroke:none"/><g id="g64" transform="translate(22,25)"><path id="path66" d="m 0,0 c 0,-1.104 -0.896,-2 -2,-2 l -14,0 c -1.104,0 -2,0.896 -2,2 l 0,10 c 0,1.104 0.896,2 2,2 l 14,0 c 1.104,0 2,-0.896 2,-2 L 0,0 Z" style="fill:#dd2e44;fill-opacity:1;fill-rule:nonzero;stroke:none"/></g><g id="g68" transform="translate(11.5615,26.8491)"><path id="path70" d="m 0,0 c 0.616,0 1.093,-0.28 1.093,-0.925 0,-0.644 -0.477,-0.924 -1.009,-0.924 l -4.678,0 c -0.617,0 -1.093,0.28 -1.093,0.924 0,0.295 0.182,0.547 0.322,0.715 1.163,1.386 2.424,2.647 3.488,4.188 0.252,0.364 0.49,0.798 0.49,1.303 0,0.574 -0.434,1.078 -1.009,1.078 -1.61,0 -0.84,-2.269 -2.185,-2.269 -0.672,0 -1.022,0.476 -1.022,1.023 0,1.764 1.569,3.179 3.292,3.179 1.723,0 3.109,-1.134 3.109,-2.913 C 0.798,3.432 -1.373,1.499 -2.563,0 L 0,0 Z" style="fill:#fff;fill-opacity:1;fill-rule:nonzero;stroke:none"/></g><g id="g72" transform="translate(17.3003,32.9561)"><path id="path74" d="M 0,0 -0.028,0 -1.919,-3.908 0,-3.908 0,0 Z m -3.376,-5.757 c -0.686,0 -0.98,0.463 -0.98,0.826 0,0.309 0.111,0.477 0.196,0.617 l 3.138,5.687 c 0.308,0.56 0.7,0.813 1.428,0.813 0.813,0 1.611,-0.519 1.611,-1.793 l 0,-4.301 0.238,0 c 0.546,0 0.981,-0.364 0.981,-0.925 0,-0.56 -0.435,-0.924 -0.981,-0.924 l -0.238,0 0,-1.19 C 2.017,-7.69 1.723,-8.04 1.008,-8.04 0.294,-8.04 0,-7.69 0,-6.947 l 0,1.19 -3.376,0 z" style="fill:#fff;fill-opacity:1;fill-rule:nonzero;stroke:none"/></g></g></g></g></svg>