<svg xmlns="http://www.w3.org/2000/svg" xmlns:svg="http://www.w3.org/2000/svg" style="enable-background:new 0 0 47.5 47.5" id="svg2" version="1.1" viewBox="0 0 47.5 47.5" xml:space="preserve"><metadata id="metadata8"/><defs id="defs6"><clipPath id="clipPath16" clipPathUnits="userSpaceOnUse"><path id="path18" d="M 0,38 38,38 38,0 0,0 0,38 Z"/></clipPath></defs><g id="g10" transform="matrix(1.25,0,0,-1.25,0,47.5)"><g id="g12"><g id="g14" clip-path="url(#clipPath16)"><g id="g20" transform="translate(25,27)"><path id="path22" d="m 0,0 c 0,-1.104 -0.896,-2 -2,-2 l -8,0 c -1.104,0 -2,0.896 -2,2 l 0,8 c 0,1.104 0.896,2 2,2 l 8,0 C -0.896,10 0,9.104 0,8 L 0,0 Z" style="fill:#d1d3d4;fill-opacity:1;fill-rule:nonzero;stroke:none"/></g><g id="g24" transform="translate(1,23)"><path id="path26" d="m 0,0 0,-20 c 0,-1.104 0.896,-2 2,-2 l 32,0 c 1.104,0 2,0.896 2,2 L 36,0 0,0 Z" style="fill:#d1d3d4;fill-opacity:1;fill-rule:nonzero;stroke:none"/></g><g id="g28" transform="translate(19,25)"><path id="path30" d="m 0,0 -16,0 c -1.104,0 -2,-0.896 -2,-2 L 2,-2 C 2,-0.896 1.104,0 0,0" style="fill:#808285;fill-opacity:1;fill-rule:nonzero;stroke:none"/></g><g id="g32" transform="translate(35,25)"><path id="path34" d="m 0,0 -16,0 c -1.104,0 -2,-0.896 -2,-2 L 2,-2 C 2,-0.896 1.104,0 0,0" style="fill:#808285;fill-opacity:1;fill-rule:nonzero;stroke:none"/></g><path id="path36" d="m 35,11 -32,0 0,4 32,0 0,-4 z" style="fill:#55acee;fill-opacity:1;fill-rule:nonzero;stroke:none"/><path id="path38" d="m 35,17 -32,0 0,4 32,0 0,-4 z" style="fill:#55acee;fill-opacity:1;fill-rule:nonzero;stroke:none"/><path id="path40" d="M 35,5 3,5 3,9 35,9 35,5 Z" style="fill:#55acee;fill-opacity:1;fill-rule:nonzero;stroke:none"/><path id="path42" d="M 29,1 9,1 9,25 29,25 29,1 Z" style="fill:#e6e7e8;fill-opacity:1;fill-rule:nonzero;stroke:none"/><path id="path44" d="m 27,13 -16,0 0,4 16,0 0,-4 z" style="fill:#55acee;fill-opacity:1;fill-rule:nonzero;stroke:none"/><path id="path46" d="m 27,19 -16,0 0,4 16,0 0,-4 z" style="fill:#55acee;fill-opacity:1;fill-rule:nonzero;stroke:none"/><path id="path48" d="m 27,7 -16,0 0,4 16,0 0,-4 z" style="fill:#55acee;fill-opacity:1;fill-rule:nonzero;stroke:none"/><path id="path50" d="M 24,1 14,1 14,5 24,5 24,1 Z" style="fill:#3b88c3;fill-opacity:1;fill-rule:nonzero;stroke:none"/><g id="g52" transform="translate(23,33)"><path id="path54" d="m 0,0 -3,0 0,3 -2,0 0,-3 -3,0 0,-2 3,0 0,-3 2,0 0,3 3,0 0,2 z" style="fill:#dd2e44;fill-opacity:1;fill-rule:nonzero;stroke:none"/></g><g id="g56" transform="translate(27,27)"><path id="path58" d="m 0,0 -16,0 c -1.104,0 -2,-0.896 -2,-2 L 2,-2 C 2,-0.896 1.104,0 0,0" style="fill:#808285;fill-opacity:1;fill-rule:nonzero;stroke:none"/></g></g></g></g></svg>