<svg xmlns="http://www.w3.org/2000/svg" xmlns:svg="http://www.w3.org/2000/svg" style="enable-background:new 0 0 47.5 47.5" id="svg2" version="1.1" viewBox="0 0 47.5 47.5" xml:space="preserve"><metadata id="metadata8"/><g id="g10" transform="matrix(1.25,0,0,-1.25,0,47.5)"><path id="path12" d="M 32,14 6,14 6,7 32,7 32,14 Z" style="fill:#d1d3d4;fill-opacity:1;fill-rule:nonzero;stroke:none"/><g id="g14" transform="translate(1,1)"><path id="path16" d="M 0,0 36,0 32,7 4,7 0,0 Z" style="fill:#d99e82;fill-opacity:1;fill-rule:nonzero;stroke:none"/></g><g id="g18" transform="translate(31,17)"><path id="path20" d="M 0,0 -24,0 -29,-4 5,-4 0,0 Z" style="fill:#66757f;fill-opacity:1;fill-rule:nonzero;stroke:none"/></g><g id="g22" transform="translate(31,23)"><path id="path24" d="M 0,0 -24,0 -28,-3 4,-3 0,0 Z" style="fill:#66757f;fill-opacity:1;fill-rule:nonzero;stroke:none"/></g><path id="path26" d="m 31,20 -24,0 0,-3 24,0 0,3 z" style="fill:#d1d3d4;fill-opacity:1;fill-rule:nonzero;stroke:none"/><g id="g28" transform="translate(30,28)"><path id="path30" d="M 0,0 -22,0 -23,-5 1,-5 0,0 Z" style="fill:#66757f;fill-opacity:1;fill-rule:nonzero;stroke:none"/></g><g id="g32" transform="translate(25,28)"><path id="path34" d="m 0,0 0,4 -12,0 0,-4 -2,0 0,-2 16,0 0,2 -2,0 z" style="fill:#d1d3d4;fill-opacity:1;fill-rule:nonzero;stroke:none"/></g><g id="g36" transform="translate(13,35)"><path id="path38" d="m 0,0 12,0 0,-2 2,-2 -16,0 2,2 0,2 z" style="fill:#66757f;fill-opacity:1;fill-rule:nonzero;stroke:none"/></g><g id="g40" transform="translate(24,37)"><path id="path42" d="m 0,0 0,-1 -10,0 0,1 -1,0 0,-1 0,-1 1,0 10,0 1,0 0,1 0,1 -1,0 z" style="fill:#99aab5;fill-opacity:1;fill-rule:nonzero;stroke:none"/></g><g id="g44" transform="translate(8.7642,22)"><path id="path46" d="M 0,0 10.236,5.118 20.472,0 0,0 Z" style="fill:#d1d3d4;fill-opacity:1;fill-rule:nonzero;stroke:none"/></g><g id="g48" transform="translate(13,23)"><path id="path50" d="M 0,0 6,3 12,0 0,0 Z m 18,-0.764 -5.105,2.553 -6,3 L 6,5.236 5.105,4.789 l -6,-3 L -6,-0.764 -6,-2 l 6,0 12,0 6,0 0,1.236 z" style="fill:#66757f;fill-opacity:1;fill-rule:nonzero;stroke:none"/></g><path id="path52" d="M 32,8 6,8 6,10 32,10 32,8 Z" style="fill:#6d6e71;fill-opacity:1;fill-rule:nonzero;stroke:none"/></g></svg>