<svg xmlns="http://www.w3.org/2000/svg" xmlns:svg="http://www.w3.org/2000/svg" style="enable-background:new 0 0 47.5 47.5" id="svg2" version="1.1" viewBox="0 0 47.5 47.5" xml:space="preserve"><metadata id="metadata8"/><defs id="defs6"><clipPath id="clipPath18" clipPathUnits="userSpaceOnUse"><path id="path20" d="M 0,38 38,38 38,0 0,0 0,38 Z"/></clipPath></defs><g id="g10" transform="matrix(1.25,0,0,-1.25,0,47.5)"><path id="path12" d="M 34,21 4,21 4,3 34,3 34,21 Z" style="fill:#58595b;fill-opacity:1;fill-rule:nonzero;stroke:none"/><g id="g14"><g id="g16" clip-path="url(#clipPath18)"><g id="g22" transform="translate(3,3)"><path id="path24" d="m 0,0 32,0 c 1.104,0 2,-0.896 2,-2 l -36,0 c 0,1.104 0.896,2 2,2" style="fill:#bcbec0;fill-opacity:1;fill-rule:nonzero;stroke:none"/></g><g id="g26" transform="translate(19,14)"><path id="path28" d="m 0,0 c -1.657,0 -3,-1.343 -3,-3 l 0,-6 6,0 0,6 C 3,-1.343 1.657,0 0,0" style="fill:#231f20;fill-opacity:1;fill-rule:nonzero;stroke:none"/></g><path id="path30" d="M 8,16 4,16 4,5 8,5 8,16 Z" style="fill:#d1d3d4;fill-opacity:1;fill-rule:nonzero;stroke:none"/><path id="path32" d="m 14,16 -4,0 0,-11 4,0 0,11 z" style="fill:#d1d3d4;fill-opacity:1;fill-rule:nonzero;stroke:none"/><path id="path34" d="m 34,16 -4,0 0,-11 4,0 0,11 z" style="fill:#d1d3d4;fill-opacity:1;fill-rule:nonzero;stroke:none"/><path id="path36" d="m 28,16 -4,0 0,-11 4,0 0,11 z" style="fill:#d1d3d4;fill-opacity:1;fill-rule:nonzero;stroke:none"/><path id="path38" d="M 35,3 3,3 3,5 35,5 35,3 Z" style="fill:#a7a9ac;fill-opacity:1;fill-rule:nonzero;stroke:none"/><g id="g40" transform="translate(37,26)"><path id="path42" d="M 0,0 -18,11 -36,0 0,0 Z" style="fill:#58595b;fill-opacity:1;fill-rule:nonzero;stroke:none"/></g><g id="g44" transform="translate(19,34.5996)"><path id="path46" d="m 0,0 -16,-9.6 0,-4 32,0 0,4 L 0,0 Z" style="fill:#d1d3d4;fill-opacity:1;fill-rule:nonzero;stroke:none"/></g><path id="path48" d="m 8,16 -4,0 0,2 4,0 0,-2 z" style="fill:#808285;fill-opacity:1;fill-rule:nonzero;stroke:none"/><path id="path50" d="m 14,16 -4,0 0,2 4,0 0,-2 z" style="fill:#808285;fill-opacity:1;fill-rule:nonzero;stroke:none"/><path id="path52" d="m 28,16 -4,0 0,2 4,0 0,-2 z" style="fill:#808285;fill-opacity:1;fill-rule:nonzero;stroke:none"/><path id="path54" d="m 34,16 -4,0 0,2 4,0 0,-2 z" style="fill:#808285;fill-opacity:1;fill-rule:nonzero;stroke:none"/><path id="path56" d="m 36,20 -34,0 0,5 34,0 0,-5 z" style="fill:#d1d3d4;fill-opacity:1;fill-rule:nonzero;stroke:none"/><g id="g58" transform="translate(37,25)"><path id="path60" d="m 0,0 c 0,-0.552 -0.447,-1 -1,-1 l -34,0 c -0.552,0 -1,0.448 -1,1 l 0,1 c 0,0.552 0.448,1 1,1 L -1,2 C -0.447,2 0,1.552 0,1 L 0,0 Z" style="fill:#a7a9ac;fill-opacity:1;fill-rule:nonzero;stroke:none"/></g><g id="g62" transform="translate(37,19)"><path id="path64" d="m 0,0 c 0,-0.552 -0.447,-1 -1,-1 l -34,0 c -0.552,0 -1,0.448 -1,1 l 0,1 c 0,0.552 0.448,1 1,1 L -1,2 C -0.447,2 0,1.552 0,1 L 0,0 Z" style="fill:#a7a9ac;fill-opacity:1;fill-rule:nonzero;stroke:none"/></g><path id="path66" d="M 24,3 14,3 14,5 24,5 24,3 Z" style="fill:#e6e7e8;fill-opacity:1;fill-rule:nonzero;stroke:none"/><path id="path68" d="M 26,1 12,1 12,3 26,3 26,1 Z" style="fill:#f1f2f2;fill-opacity:1;fill-rule:nonzero;stroke:none"/></g></g></g></svg>