<svg xmlns="http://www.w3.org/2000/svg" xmlns:svg="http://www.w3.org/2000/svg" style="enable-background:new 0 0 47.5 47.5" id="svg2" version="1.1" viewBox="0 0 47.5 47.5" xml:space="preserve"><metadata id="metadata8"/><defs id="defs6"><clipPath id="clipPath16" clipPathUnits="userSpaceOnUse"><path id="path18" d="M 0,38 38,38 38,0 0,0 0,38 Z"/></clipPath></defs><g id="g10" transform="matrix(1.25,0,0,-1.25,0,47.5)"><g id="g12"><g id="g14" clip-path="url(#clipPath16)"><g id="g20" transform="translate(37,3)"><path id="path22" d="m 0,0 c 0,-1.104 -0.896,-2 -2,-2 l -32,0 c -1.104,0 -2,0.896 -2,2 l 0,19 c 0,1.104 0.896,2 2,2 l 32,0 c 1.104,0 2,-0.896 2,-2 L 0,0 Z" style="fill:#ffcc4d;fill-opacity:1;fill-rule:nonzero;stroke:none"/></g><g id="g24" transform="translate(35,24)"><path id="path26" d="m 0,0 -32,0 c -1.104,0 -2,-0.896 -2,-2 L 2,-2 C 2,-0.896 1.104,0 0,0" style="fill:#6d6e71;fill-opacity:1;fill-rule:nonzero;stroke:none"/></g><path id="path28" d="M 35,9 3,9 3,13 35,13 35,9 Z" style="fill:#3b88c3;fill-opacity:1;fill-rule:nonzero;stroke:none"/><path id="path30" d="m 35,15 -32,0 0,4 32,0 0,-4 z" style="fill:#3b88c3;fill-opacity:1;fill-rule:nonzero;stroke:none"/><path id="path32" d="M 35,3 3,3 3,7 35,7 35,3 Z" style="fill:#3b88c3;fill-opacity:1;fill-rule:nonzero;stroke:none"/><path id="path34" d="m 31,2 -2,0 0,18 2,0 0,-18 z" style="fill:#ffcc4d;fill-opacity:1;fill-rule:nonzero;stroke:none"/><g id="g36" transform="translate(23,37)"><path id="path38" d="m 0,0 -16,0 c -1.104,0 -2,-0.896 -2,-2 l 0,-34 20,0 0,34 C 2,-0.896 1.104,0 0,0" style="fill:#ffe8b6;fill-opacity:1;fill-rule:nonzero;stroke:none"/></g><g id="g40" transform="translate(23,37)"><path id="path42" d="m 0,0 -16,0 c -1.104,0 -2,-0.896 -2,-2 L 2,-2 C 2,-0.896 1.104,0 0,0" style="fill:#808285;fill-opacity:1;fill-rule:nonzero;stroke:none"/></g><path id="path44" d="m 23,15 -16,0 0,4 16,0 0,-4 z" style="fill:#55acee;fill-opacity:1;fill-rule:nonzero;stroke:none"/><path id="path46" d="M 23,9 7,9 7,13 23,13 23,9 Z" style="fill:#55acee;fill-opacity:1;fill-rule:nonzero;stroke:none"/><path id="path48" d="M 23,3 7,3 7,7 23,7 23,3 Z" style="fill:#55acee;fill-opacity:1;fill-rule:nonzero;stroke:none"/><path id="path50" d="m 13,1 -2,0 0,29 2,0 0,-29 z" style="fill:#ffe8b6;fill-opacity:1;fill-rule:nonzero;stroke:none"/><path id="path52" d="m 19,1 -2,0 0,29 2,0 0,-29 z" style="fill:#ffe8b6;fill-opacity:1;fill-rule:nonzero;stroke:none"/><path id="path54" d="m 17,1 -4,0 0,6 4,0 0,-6 z" style="fill:#269;fill-opacity:1;fill-rule:nonzero;stroke:none"/><g id="g56" transform="translate(21,28)"><path id="path58" d="m 0,0 c 0,-3.313 -2.687,-6 -6,-6 -3.313,0 -6,2.687 -6,6 0,3.313 2.687,6 6,6 3.313,0 6,-2.687 6,-6" style="fill:#a7a9ac;fill-opacity:1;fill-rule:nonzero;stroke:none"/></g><g id="g60" transform="translate(19,28)"><path id="path62" d="m 0,0 c 0,-2.209 -1.791,-4 -4,-4 -2.209,0 -4,1.791 -4,4 0,2.209 1.791,4 4,4 2.209,0 4,-1.791 4,-4" style="fill:#e6e7e8;fill-opacity:1;fill-rule:nonzero;stroke:none"/></g><g id="g64" transform="translate(18,27)"><path id="path66" d="m 0,0 -3,0 c -0.552,0 -1,0.448 -1,1 l 0,5 c 0,0.552 0.448,1 1,1 0.552,0 1,-0.448 1,-1 L -2,2 0,2 C 0.552,2 1,1.552 1,1 1,0.448 0.552,0 0,0" style="fill:#a0041e;fill-opacity:1;fill-rule:nonzero;stroke:none"/></g></g></g></g></svg>