<svg xmlns="http://www.w3.org/2000/svg" xmlns:svg="http://www.w3.org/2000/svg" style="enable-background:new 0 0 47.5 47.5" id="svg2" version="1.1" viewBox="0 0 47.5 47.5" xml:space="preserve"><metadata id="metadata8"/><defs id="defs6"><clipPath id="clipPath16" clipPathUnits="userSpaceOnUse"><path id="path18" d="M 0,38 38,38 38,0 0,0 0,38 Z"/></clipPath></defs><g id="g10" transform="matrix(1.25,0,0,-1.25,0,47.5)"><g id="g12"><g id="g14" clip-path="url(#clipPath16)"><g id="g20" transform="translate(1,19)"><path id="path22" d="m 0,0 0,-16 c 0,-1.104 0.896,-2 2,-2 l 32,0 c 1.104,0 2,0.896 2,2 L 36,0 0,0 Z" style="fill:#bcbec0;fill-opacity:1;fill-rule:nonzero;stroke:none"/></g><g id="g24" transform="translate(1,19)"><path id="path26" d="M 0,0 18,6.353 36,0 0,0 Z" style="fill:#66757f;fill-opacity:1;fill-rule:nonzero;stroke:none"/></g><path id="path28" d="m 35,13 -32,0 0,4 32,0 0,-4 z" style="fill:#55acee;fill-opacity:1;fill-rule:nonzero;stroke:none"/><path id="path30" d="M 35,7 3,7 3,11 35,11 35,7 Z" style="fill:#55acee;fill-opacity:1;fill-rule:nonzero;stroke:none"/><path id="path32" d="M 31,2 7,2 7,18 31,18 31,2 Z" style="fill:#bcbec0;fill-opacity:1;fill-rule:nonzero;stroke:none"/><path id="path34" d="M 29,1 9,1 9,32 29,32 29,1 Z" style="fill:#d1d3d4;fill-opacity:1;fill-rule:nonzero;stroke:none"/><path id="path36" d="m 27,13 -16,0 0,4 16,0 0,-4 z" style="fill:#55acee;fill-opacity:1;fill-rule:nonzero;stroke:none"/><path id="path38" d="m 27,7 -16,0 0,4 16,0 0,-4 z" style="fill:#55acee;fill-opacity:1;fill-rule:nonzero;stroke:none"/><path id="path40" d="m 17,6 -2,0 0,18 2,0 0,-18 z" style="fill:#d1d3d4;fill-opacity:1;fill-rule:nonzero;stroke:none"/><path id="path42" d="m 23,6 -2,0 0,18 2,0 0,-18 z" style="fill:#d1d3d4;fill-opacity:1;fill-rule:nonzero;stroke:none"/><path id="path44" d="m 21,1 -4,0 0,4 4,0 0,-4 z" style="fill:#3b88c3;fill-opacity:1;fill-rule:nonzero;stroke:none"/><path id="path46" d="m 24,28 -10,0 0,2 10,0 0,-2 z" style="fill:#dd2e44;fill-opacity:1;fill-rule:nonzero;stroke:none"/><g id="g48" transform="translate(14,26)"><path id="path50" d="m 0,0 0,-2 4,0 0,-4 2,0 0,4 4,0 0,2 -10,0 z" style="fill:#dd2e44;fill-opacity:1;fill-rule:nonzero;stroke:none"/></g><g id="g52" transform="translate(9,32)"><path id="path54" d="M 0,0 10,5 20,0 0,0 Z" style="fill:#66757f;fill-opacity:1;fill-rule:nonzero;stroke:none"/></g></g></g></g></svg>