<svg xmlns="http://www.w3.org/2000/svg" xmlns:svg="http://www.w3.org/2000/svg" style="enable-background:new 0 0 47.5 47.5" id="svg2" version="1.1" viewBox="0 0 47.5 47.5" xml:space="preserve"><metadata id="metadata8"/><defs id="defs6"><clipPath id="clipPath16" clipPathUnits="userSpaceOnUse"><path id="path18" d="M 0,38 38,38 38,0 0,0 0,38 Z"/></clipPath></defs><g id="g10" transform="matrix(1.25,0,0,-1.25,0,47.5)"><g id="g12"><g id="g14" clip-path="url(#clipPath16)"><g id="g20" transform="translate(22,22)"><path id="path22" d="m 0,0 c 0,-2.209 -1.791,-4 -4,-4 l -13,0 c -2.209,0 -4,1.791 -4,4 l 0,3 c 0,2.209 1.791,4 4,4 L -4,7 C -1.791,7 0,5.209 0,3 L 0,0 Z" style="fill:#be1931;fill-opacity:1;fill-rule:nonzero;stroke:none"/></g><g id="g24" transform="translate(37,31)"><path id="path26" d="m 0,0 c 0,-2.209 -1.791,-4 -4,-4 l -12,0 c -2.209,0 -4,1.791 -4,4 l 0,1 c 0,2.209 1.791,4 4,4 L -4,5 C -1.791,5 0,3.209 0,1 L 0,0 Z" style="fill:#be1931;fill-opacity:1;fill-rule:nonzero;stroke:none"/></g><g id="g28" transform="translate(1,25)"><path id="path30" d="m 0,0 0,-22 c 0,-1.104 0.896,-2 2,-2 l 31,0 0,24 -33,0 z" style="fill:#f4abba;fill-opacity:1;fill-rule:nonzero;stroke:none"/></g><path id="path32" d="M 15,1 3,1 3,5 15,5 15,1 Z" style="fill:#3b88c3;fill-opacity:1;fill-rule:nonzero;stroke:none"/><path id="path34" d="M 19,7 3,7 3,11 19,11 19,7 Z" style="fill:#3b88c3;fill-opacity:1;fill-rule:nonzero;stroke:none"/><g id="g36" transform="translate(17,32)"><path id="path38" d="m 0,0 0,-31 18,0 c 1.104,0 2,0.896 2,2 L 20,0 0,0 Z" style="fill:#ffd4de;fill-opacity:1;fill-rule:nonzero;stroke:none"/></g><path id="path40" d="m 35,13 -16,0 0,4 16,0 0,-4 z" style="fill:#55acee;fill-opacity:1;fill-rule:nonzero;stroke:none"/><path id="path42" d="m 35,19 -16,0 0,4 16,0 0,-4 z" style="fill:#55acee;fill-opacity:1;fill-rule:nonzero;stroke:none"/><path id="path44" d="m 35,25 -16,0 0,4 16,0 0,-4 z" style="fill:#55acee;fill-opacity:1;fill-rule:nonzero;stroke:none"/><path id="path46" d="m 35,7 -16,0 0,4 16,0 0,-4 z" style="fill:#55acee;fill-opacity:1;fill-rule:nonzero;stroke:none"/><path id="path48" d="m 25,6 -2,0 0,24 2,0 0,-24 z" style="fill:#ffd4de;fill-opacity:1;fill-rule:nonzero;stroke:none"/><path id="path50" d="m 31,6 -2,0 0,24 2,0 0,-24 z" style="fill:#ffd4de;fill-opacity:1;fill-rule:nonzero;stroke:none"/><path id="path52" d="m 31,1 -8,0 0,4 8,0 0,-4 z" style="fill:#3b88c3;fill-opacity:1;fill-rule:nonzero;stroke:none"/><g id="g54" transform="translate(11,23)"><path id="path56" d="m 0,0 0,-4 -4,0 0,4 -2,0 0,-10 2,0 0,4 4,0 0,-4 2,0 0,10 -2,0 z" style="fill:#dd2e44;fill-opacity:1;fill-rule:nonzero;stroke:none"/></g><path id="path58" d="m 10,6 -2,0 0,6 2,0 0,-6 z" style="fill:#f4abba;fill-opacity:1;fill-rule:nonzero;stroke:none"/><path id="path60" d="m 17,6 -2,0 0,6 2,0 0,-6 z" style="fill:#f4abba;fill-opacity:1;fill-rule:nonzero;stroke:none"/><g id="g62" transform="translate(4,34)"><path id="path64" d="m 0,0 c 0,2.761 3.963,4 5,0 1.122,4 5,2.761 5,0 0,-3 -5,-6 -5,-6 0,0 -5,3 -5,6" style="fill:#ea596e;fill-opacity:1;fill-rule:nonzero;stroke:none"/></g></g></g></g></svg>