<svg xmlns="http://www.w3.org/2000/svg" xmlns:svg="http://www.w3.org/2000/svg" style="enable-background:new 0 0 47.5 47.5" id="svg2" version="1.1" viewBox="0 0 47.5 47.5" xml:space="preserve"><metadata id="metadata8"/><defs id="defs6"><clipPath id="clipPath20" clipPathUnits="userSpaceOnUse"><path id="path22" d="M 0,38 38,38 38,0 0,0 0,38 Z"/></clipPath></defs><g id="g10" transform="matrix(1.25,0,0,-1.25,0,47.5)"><path id="path12" d="M 33,1 5,1 5,20 33,20 33,1 Z" style="fill:#d1d3d4;fill-opacity:1;fill-rule:nonzero;stroke:none"/><path id="path14" d="m 30,19 -23,0 0,5 23,0 0,-5 z" style="fill:#269;fill-opacity:1;fill-rule:nonzero;stroke:none"/><g id="g16"><g id="g18" clip-path="url(#clipPath20)"><g id="g24" transform="translate(2,25)"><path id="path26" d="m 0,0 0,-22 c 0,-1.104 0.896,-2 2,-2 l 4,0 0,24 -6,0 z" style="fill:#a7a9ac;fill-opacity:1;fill-rule:nonzero;stroke:none"/></g><g id="g28" transform="translate(30,25)"><path id="path30" d="m 0,0 0,-24 4,0 c 1.104,0 2,0.896 2,2 L 6,0 0,0 Z" style="fill:#a7a9ac;fill-opacity:1;fill-rule:nonzero;stroke:none"/></g><path id="path32" d="m 23,4 -8,0 0,11 8,0 0,-11 z" style="fill:#f1f2f2;fill-opacity:1;fill-rule:nonzero;stroke:none"/><g id="g34" transform="translate(23,18)"><path id="path36" d="m 0,0 c -0.295,0 -0.558,-0.391 -0.74,-1 l -6.52,0 c -0.182,0.609 -0.445,1 -0.74,1 -0.552,0 -1,-1.344 -1,-3 0,-1.657 0.448,-3 1,-3 0.552,0 1,1.343 1,3 l 6,0 c 0,-1.657 0.447,-3 1,-3 0.553,0 1,1.343 1,3 0,1.656 -0.447,3 -1,3" style="fill:#269;fill-opacity:1;fill-rule:nonzero;stroke:none"/></g><path id="path38" d="m 6,18 -2,0 0,2 2,0 0,-2 z" style="fill:#58595b;fill-opacity:1;fill-rule:nonzero;stroke:none"/><path id="path40" d="m 12,15 -2,0 0,2 2,0 0,-2 z" style="fill:#58595b;fill-opacity:1;fill-rule:nonzero;stroke:none"/><path id="path42" d="m 28,15 -2,0 0,2 2,0 0,-2 z" style="fill:#58595b;fill-opacity:1;fill-rule:nonzero;stroke:none"/><path id="path44" d="m 12,11 -2,0 0,2 2,0 0,-2 z" style="fill:#58595b;fill-opacity:1;fill-rule:nonzero;stroke:none"/><path id="path46" d="m 28,11 -2,0 0,2 2,0 0,-2 z" style="fill:#58595b;fill-opacity:1;fill-rule:nonzero;stroke:none"/><path id="path48" d="m 6,14 -2,0 0,2 2,0 0,-2 z" style="fill:#58595b;fill-opacity:1;fill-rule:nonzero;stroke:none"/><path id="path50" d="m 34,18 -2,0 0,2 2,0 0,-2 z" style="fill:#58595b;fill-opacity:1;fill-rule:nonzero;stroke:none"/><path id="path52" d="m 34,14 -2,0 0,2 2,0 0,-2 z" style="fill:#58595b;fill-opacity:1;fill-rule:nonzero;stroke:none"/><path id="path54" d="m 24,11 -10,0 0,4 10,0 0,-4 z" style="fill:#fff;fill-opacity:1;fill-rule:nonzero;stroke:none"/><g id="g56" transform="translate(19,11)"><path id="path58" d="m 0,0 c -1.104,0 -2,-0.896 -2,-2 l 0,-5 4,0 0,5 C 2,-0.896 1.104,0 0,0" style="fill:#58595b;fill-opacity:1;fill-rule:nonzero;stroke:none"/></g><path id="path60" d="M 25,1 13,1 13,4 25,4 25,1 Z" style="fill:#939598;fill-opacity:1;fill-rule:nonzero;stroke:none"/><g id="g62" transform="translate(2,25)"><path id="path64" d="M 0,0 6,0 C 6,0 4,8 3,8 2,8 0,0 0,0" style="fill:#269;fill-opacity:1;fill-rule:nonzero;stroke:none"/></g><g id="g66" transform="translate(30,25)"><path id="path68" d="M 0,0 6,0 C 6,0 4,8 3,8 2,8 0,0 0,0" style="fill:#269;fill-opacity:1;fill-rule:nonzero;stroke:none"/></g><g id="g70" transform="translate(9,23)"><path id="path72" d="m 0,0 c 0,-0.552 -0.448,-1 -1,-1 l -6,0 c -0.552,0 -1,0.448 -1,1 0,0.552 0.448,1 1,1 l 6,0 C -0.448,1 0,0.552 0,0" style="fill:#d1d3d4;fill-opacity:1;fill-rule:nonzero;stroke:none"/></g><g id="g74" transform="translate(37,23)"><path id="path76" d="m 0,0 c 0,-0.552 -0.447,-1 -1,-1 l -6,0 c -0.553,0 -1,0.448 -1,1 0,0.552 0.447,1 1,1 l 6,0 C -0.447,1 0,0.552 0,0" style="fill:#d1d3d4;fill-opacity:1;fill-rule:nonzero;stroke:none"/></g></g></g></g></svg>