<svg xmlns="http://www.w3.org/2000/svg" xmlns:svg="http://www.w3.org/2000/svg" style="enable-background:new 0 0 47.5 47.5" id="svg2" version="1.1" viewBox="0 0 47.5 47.5" xml:space="preserve"><metadata id="metadata8"/><defs id="defs6"><clipPath id="clipPath16" clipPathUnits="userSpaceOnUse"><path id="path18" d="M 0,38 38,38 38,0 0,0 0,38 Z"/></clipPath></defs><g id="g10" transform="matrix(1.25,0,0,-1.25,0,47.5)"><g id="g12"><g id="g14" clip-path="url(#clipPath16)"><g id="g20" transform="translate(26,2)"><path id="path22" d="M 0,0 C -2.75,0 -2,6 -2,6 -2,7.104 0.646,8 1.75,8 2.854,8 5,8.104 5,7 5,7 2.75,0 0,0" style="fill:#292f33;fill-opacity:1;fill-rule:nonzero;stroke:none"/></g><g id="g24" transform="translate(29,1)"><path id="path26" d="M 0,0 C -2.75,0 -2,6 -2,6 -2,7.104 0.646,8 1.75,8 2.854,8 5,8.104 5,7 5,7 2.75,0 0,0" style="fill:#66757f;fill-opacity:1;fill-rule:nonzero;stroke:none"/></g><g id="g28" transform="translate(15,2)"><path id="path30" d="m 0,0 c -2.75,0 -4,6 -4,6 0,1.104 2.646,2 3.75,2 C 0.854,8 3,8.104 3,7 3,7 2.75,0 0,0" style="fill:#292f33;fill-opacity:1;fill-rule:nonzero;stroke:none"/></g><g id="g32" transform="translate(18,1)"><path id="path34" d="m 0,0 c -2.75,0 -4,6 -4,6 0,1.104 2.646,2 3.75,2 C 0.854,8 3,8.104 3,7 3,7 2.75,0 0,0" style="fill:#66757f;fill-opacity:1;fill-rule:nonzero;stroke:none"/></g><g id="g36" transform="translate(36.75,15.6162)"><path id="path38" d="M 0,0 C 0,-7.782 -4.495,-11.408 -14.519,-11.408 -24.542,-11.408 -28,-7.782 -28,0 c 0,7.783 3.458,11.407 13.481,11.407 C -4.495,11.407 0,7.783 0,0" style="fill:#e1e8ed;fill-opacity:1;fill-rule:nonzero;stroke:none"/></g><g id="g40" transform="translate(18,19.333)"><path id="path42" d="m 0,0 c 0,-9.333 -4.655,-11.333 -8.958,-11.333 -4.304,0 -7.042,6.64 -7.042,11.333 0,4.694 2.738,5.667 7.042,5.667 C -4.655,5.667 0,4.694 0,0" style="fill:#99aab5;fill-opacity:1;fill-rule:nonzero;stroke:none"/></g><g id="g44" transform="translate(7,16.5)"><path id="path46" d="M 0,0 C 0,-0.828 -0.671,-1.5 -1.5,-1.5 -2.329,-1.5 -3,-0.828 -3,0 -3,0.828 -2.329,1.5 -1.5,1.5 -0.671,1.5 0,0.828 0,0" style="fill:#292f33;fill-opacity:1;fill-rule:nonzero;stroke:none"/></g><g id="g48" transform="translate(16.75,24.25)"><path id="path50" d="m 0,0 c -1.75,-3.25 -2.128,-2.606 -7.128,-4.606 -3.077,-1.231 -8.622,-0.894 -8.622,3.856 0,1.933 3.687,2.5 7,2.5 C -5.437,1.75 1.659,3.082 0,0" style="fill:#e1e8ed;fill-opacity:1;fill-rule:nonzero;stroke:none"/></g><g id="g52" transform="translate(17,23.3042)"><path id="path54" d="m 0,0 c 3.353,-2.427 5.43,-6.139 3.724,-11.089 -1.368,-3.967 -6.817,-3.116 -9.617,-1.127 -2.798,1.988 -2.642,4.792 -1.733,6.291 0.909,1.497 4.158,1.228 6.024,-0.097 0.934,-0.663 0.288,-1.56 -0.72,-1.068 -2.292,1.118 -3.037,-1.444 -1.246,-2.882 1.265,-1.016 3.274,-1.049 3.655,1.01 0.671,3.629 -3.505,6.274 -7.465,5.301 C -5,-2.304 -2.839,2.055 0,0" style="fill:#ffcc4d;fill-opacity:1;fill-rule:nonzero;stroke:none"/></g></g></g></g></svg>