<svg xmlns="http://www.w3.org/2000/svg" xmlns:svg="http://www.w3.org/2000/svg" style="enable-background:new 0 0 47.5 47.5" id="svg2" version="1.1" viewBox="0 0 47.5 47.5" xml:space="preserve"><metadata id="metadata8"/><defs id="defs6"><clipPath id="clipPath16" clipPathUnits="userSpaceOnUse"><path id="path18" d="M 0,38 38,38 38,0 0,0 0,38 Z"/></clipPath></defs><g id="g10" transform="matrix(1.25,0,0,-1.25,0,47.5)"><g id="g12"><g id="g14" clip-path="url(#clipPath16)"><g id="g20" transform="translate(20,5)"><path id="path22" d="M 0,0 C 0,-1 -1.723,-3 -3.334,-3 -4.944,-3 -5,-1.657 -5,0 -5,1.657 -3.694,3 -2.084,3 -0.473,3 0,1.657 0,0" style="fill:#3e721d;fill-opacity:1;fill-rule:nonzero;stroke:none"/></g><g id="g24" transform="translate(31,5)"><path id="path26" d="M 0,0 C 0,-1 -1.723,-3 -3.334,-3 -4.944,-3 -5,-1.657 -5,0 -5,1.657 -3.694,3 -2.084,3 -0.473,3 0,1.657 0,0" style="fill:#3e721d;fill-opacity:1;fill-rule:nonzero;stroke:none"/></g><g id="g28" transform="translate(37,12)"><path id="path30" d="m 0,0 c 0,6 -3.172,9.171 -6,12 -1,1 -1.399,-0.321 -1,-1 0.508,-0.862 3,-8 -2,-8 l -2,0 c -5,0 -6.172,1.172 -9,4 -4.5,4.5 -7,0 -9,0 -6,0 -7,1.813 -7,-2 0,-3 3,-4 6,-4 3,0 3,-1 5,-4 1.071,-1.606 2.836,-3.211 5.023,-4.155 0.232,-1.119 2.774,-3.845 4.311,-3.845 1.61,0 1.666,1.343 1.666,3 l 5,0 c 0.034,0 0.066,0.01 0.101,0.01 C -8.608,-7.995 -8.313,-8 -8,-8 c 0,-1 1.723,-3 3.334,-3 1.61,0 1.666,1.343 1.666,3 0,0.302 -0.057,0.587 -0.137,0.861 C -1.388,-6.193 0,-4.209 0,0" style="fill:#5c913b;fill-opacity:1;fill-rule:nonzero;stroke:none"/></g><g id="g32" transform="translate(11,18.877)"><path id="path34" d="M 0,0 C 0,-0.828 0.671,-1.5 1.5,-1.5 2.329,-1.5 3,-0.828 3,0 3,0.829 2.329,0 1.5,0 0.671,0 0,0.829 0,0" style="fill:#292f33;fill-opacity:1;fill-rule:nonzero;stroke:none"/></g><g id="g36" transform="translate(27,13)"><path id="path38" d="M 0,0 C 0,-0.553 0.672,-1 1.5,-1 2.328,-1 3,-0.553 3,0 3,0.553 2.328,1 1.5,1 0.672,1 0,0.553 0,0" style="fill:#77b255;fill-opacity:1;fill-rule:nonzero;stroke:none"/></g><g id="g40" transform="translate(23,13)"><path id="path42" d="M 0,0 C 0,-0.553 0.672,-1 1.5,-1 2.328,-1 3,-0.553 3,0 3,0.553 2.328,1 1.5,1 0.672,1 0,0.553 0,0" style="fill:#77b255;fill-opacity:1;fill-rule:nonzero;stroke:none"/></g><g id="g44" transform="translate(19,13)"><path id="path46" d="M 0,0 C 0,-0.553 0.672,-1 1.5,-1 2.328,-1 3,-0.553 3,0 3,0.553 2.328,1 1.5,1 0.672,1 0,0.553 0,0" style="fill:#77b255;fill-opacity:1;fill-rule:nonzero;stroke:none"/></g><g id="g48" transform="translate(21,11)"><path id="path50" d="M 0,0 C 0,-0.553 0.672,-1 1.5,-1 2.328,-1 3,-0.553 3,0 3,0.553 2.328,1 1.5,1 0.672,1 0,0.553 0,0" style="fill:#77b255;fill-opacity:1;fill-rule:nonzero;stroke:none"/></g><g id="g52" transform="translate(25,11)"><path id="path54" d="M 0,0 C 0,-0.553 0.672,-1 1.5,-1 2.328,-1 3,-0.553 3,0 3,0.553 2.328,1 1.5,1 0.672,1 0,0.553 0,0" style="fill:#77b255;fill-opacity:1;fill-rule:nonzero;stroke:none"/></g><g id="g56" transform="translate(7,15)"><path id="path58" d="M 0,0 C -0.389,0 -1,1 -1,1 L 1,1 C 1,1 0.389,0 0,0" style="fill:#fff;fill-opacity:1;fill-rule:nonzero;stroke:none"/></g><g id="g60" transform="translate(5,14.5312)"><path id="path62" d="m 0,0 c -0.389,0 -1,1.469 -1,1.469 l 2,0 C 1,1.469 0.389,0 0,0" style="fill:#fff;fill-opacity:1;fill-rule:nonzero;stroke:none"/></g><g id="g64" transform="translate(3,14)"><path id="path66" d="M 0,0 C -0.389,0 -1,2 -1,2 L 1,2 C 1,2 0.389,0 0,0" style="fill:#fff;fill-opacity:1;fill-rule:nonzero;stroke:none"/></g></g></g></g></svg>