<svg xmlns="http://www.w3.org/2000/svg" xmlns:svg="http://www.w3.org/2000/svg" style="enable-background:new 0 0 47.5 47.5" id="svg2" version="1.1" viewBox="0 0 47.5 47.5" xml:space="preserve"><metadata id="metadata8"/><defs id="defs6"><clipPath id="clipPath16" clipPathUnits="userSpaceOnUse"><path id="path18" d="M 0,38 38,38 38,0 0,0 0,38 Z"/></clipPath></defs><g id="g10" transform="matrix(1.25,0,0,-1.25,0,47.5)"><g id="g12"><g id="g14" clip-path="url(#clipPath16)"><g id="g20" transform="translate(33.8555,20.5156)"><path id="path22" d="m 0,0 c -0.26,0.171 -0.544,0.329 -0.855,0.484 -2,1 -5,0 -9,0 -2,0 -4.902,3 -10,3 -0.802,0 -2.256,-0.634 -4.341,-0.89 -0.039,1.053 -0.615,1.89 -1.326,1.89 -0.737,0 -1.333,-0.895 -1.333,-2 0,-0.051 0.007,-0.099 0.01,-0.15 -2.82,-0.766 -6.01,-4.438 -6.01,-6.225 0,-2 2,-3.625 2,-3.625 0,0 0.999,0 3,2 1.581,1.581 5,1 5,1 l 1,-12 c 0,0 -1,-1 -2,-1 -1,0 -1,-2 -1,-2 l 6,0 1,9 3,0 c 2,0 7,1 7,1 2,-3 4,-4 4,-4 l 0,-3 -2,-1 c -2,-1 -1,-2 -1,-2 l 6,0 c 0,0 1,8 2,13 l 0,-5 c 0,-0.552 0.447,-1 1,-1 0.552,0 1,0.448 1,1 l 0,7 C 3.145,-1.85 1.787,-0.587 0,0" style="fill:#ffcc4d;fill-opacity:1;fill-rule:nonzero;stroke:none"/></g><g id="g24" transform="translate(6,20)"><path id="path26" d="m 0,0 c 0,-0.553 -0.448,-1 -1,-1 -0.552,0 -1,0.447 -1,1 0,0.552 0.448,1 1,1 0.552,0 1,-0.448 1,-1" style="fill:#292f33;fill-opacity:1;fill-rule:nonzero;stroke:none"/></g><g id="g28" transform="translate(1,17)"><path id="path30" d="M 0,0 C 0,0 0,-2 1,-2 1,0 2,0 2,0 2,0 1,1 0,0" style="fill:#292f33;fill-opacity:1;fill-rule:nonzero;stroke:none"/></g><g id="g32" transform="translate(13,20.5)"><path id="path34" d="M 0,0 C 0,-0.828 -0.672,-1.5 -1.5,-1.5 -2.329,-1.5 -3,-0.828 -3,0 -3,0.829 -2.329,1.5 -1.5,1.5 -0.672,1.5 0,0.829 0,0" style="fill:#ffac33;fill-opacity:1;fill-rule:nonzero;stroke:none"/></g><g id="g36" transform="translate(11.5,21.5)"><path id="path38" d="m 0,0 c -0.551,0 -1,-0.449 -1,-1 0,-0.551 0.449,-1 1,-1 0.551,0 1,0.449 1,1 0,0.551 -0.449,1 -1,1 m 0,-3 c -1.103,0 -2,0.897 -2,2 0,1.103 0.897,2 2,2 C 1.103,1 2,0.103 2,-1 2,-2.103 1.103,-3 0,-3" style="fill:#f4900c;fill-opacity:1;fill-rule:nonzero;stroke:none"/></g><g id="g40" transform="translate(20,20.5)"><path id="path42" d="M 0,0 C 0,-0.828 -0.672,-1.5 -1.5,-1.5 -2.329,-1.5 -3,-0.828 -3,0 -3,0.829 -2.329,1.5 -1.5,1.5 -0.672,1.5 0,0.829 0,0" style="fill:#ffac33;fill-opacity:1;fill-rule:nonzero;stroke:none"/></g><g id="g44" transform="translate(18.5,21.5)"><path id="path46" d="m 0,0 c -0.551,0 -1,-0.449 -1,-1 0,-0.551 0.449,-1 1,-1 0.552,0 1,0.449 1,1 0,0.551 -0.448,1 -1,1 m 0,-3 c -1.103,0 -2,0.897 -2,2 0,1.103 0.897,2 2,2 C 1.103,1 2,0.103 2,-1 2,-2.103 1.103,-3 0,-3" style="fill:#f4900c;fill-opacity:1;fill-rule:nonzero;stroke:none"/></g><g id="g48" transform="translate(17,15.5)"><path id="path50" d="M 0,0 C 0,-0.828 -0.672,-1.5 -1.5,-1.5 -2.329,-1.5 -3,-0.828 -3,0 -3,0.828 -2.329,1.5 -1.5,1.5 -0.672,1.5 0,0.828 0,0" style="fill:#ffac33;fill-opacity:1;fill-rule:nonzero;stroke:none"/></g><g id="g52" transform="translate(15.5,16.5)"><path id="path54" d="m 0,0 c -0.551,0 -1,-0.448 -1,-1 0,-0.552 0.449,-1 1,-1 0.551,0 1,0.448 1,1 0,0.552 -0.449,1 -1,1 m 0,-3 c -1.103,0 -2,0.897 -2,2 0,1.103 0.897,2 2,2 C 1.103,1 2,0.103 2,-1 2,-2.103 1.103,-3 0,-3" style="fill:#f4900c;fill-opacity:1;fill-rule:nonzero;stroke:none"/></g><g id="g56" transform="translate(24,13.5)"><path id="path58" d="M 0,0 C 0,-0.828 -0.672,-1.5 -1.5,-1.5 -2.328,-1.5 -3,-0.828 -3,0 -3,0.828 -2.328,1.5 -1.5,1.5 -0.672,1.5 0,0.828 0,0" style="fill:#ffac33;fill-opacity:1;fill-rule:nonzero;stroke:none"/></g><g id="g60" transform="translate(22.5,14.5)"><path id="path62" d="m 0,0 c -0.552,0 -1,-0.448 -1,-1 0,-0.552 0.448,-1 1,-1 0.552,0 1,0.448 1,1 0,0.552 -0.448,1 -1,1 m 0,-3 c -1.103,0 -2,0.897 -2,2 0,1.103 0.897,2 2,2 C 1.103,1 2,0.103 2,-1 2,-2.103 1.103,-3 0,-3" style="fill:#f4900c;fill-opacity:1;fill-rule:nonzero;stroke:none"/></g><g id="g64" transform="translate(27,18.5)"><path id="path66" d="M 0,0 C 0,-0.828 -0.672,-1.5 -1.5,-1.5 -2.328,-1.5 -3,-0.828 -3,0 -3,0.828 -2.328,1.5 -1.5,1.5 -0.672,1.5 0,0.828 0,0" style="fill:#ffac33;fill-opacity:1;fill-rule:nonzero;stroke:none"/></g><g id="g68" transform="translate(25.5,19.5)"><path id="path70" d="m 0,0 c -0.552,0 -1,-0.449 -1,-1 0,-0.552 0.448,-1 1,-1 0.552,0 1,0.448 1,1 0,0.551 -0.448,1 -1,1 m 0,-3 c -1.103,0 -2,0.897 -2,2 0,1.103 0.897,2 2,2 C 1.103,1 2,0.103 2,-1 2,-2.103 1.103,-3 0,-3" style="fill:#f4900c;fill-opacity:1;fill-rule:nonzero;stroke:none"/></g><g id="g72" transform="translate(31,13.5)"><path id="path74" d="M 0,0 C 0,-0.829 -0.671,-1.5 -1.5,-1.5 -2.329,-1.5 -3,-0.829 -3,0 -3,0.829 -2.329,1.5 -1.5,1.5 -0.671,1.5 0,0.829 0,0" style="fill:#ffac33;fill-opacity:1;fill-rule:nonzero;stroke:none"/></g><g id="g76" transform="translate(29.5,14.5)"><path id="path78" d="m 0,0 c -0.552,0 -1,-0.448 -1,-1 0,-0.552 0.448,-1 1,-1 0.552,0 1,0.448 1,1 0,0.552 -0.448,1 -1,1 m 0,-3 c -1.103,0 -2,0.897 -2,2 0,1.103 0.897,2 2,2 C 1.103,1 2,0.103 2,-1 2,-2.103 1.103,-3 0,-3" style="fill:#f4900c;fill-opacity:1;fill-rule:nonzero;stroke:none"/></g><g id="g80" transform="translate(34,18.5)"><path id="path82" d="M 0,0 C 0,-0.828 -0.672,-1.5 -1.5,-1.5 -2.328,-1.5 -3,-0.828 -3,0 -3,0.828 -2.328,1.5 -1.5,1.5 -0.672,1.5 0,0.828 0,0" style="fill:#ffac33;fill-opacity:1;fill-rule:nonzero;stroke:none"/></g><g id="g84" transform="translate(32.5,19.5)"><path id="path86" d="m 0,0 c -0.552,0 -1,-0.449 -1,-1 0,-0.552 0.448,-1 1,-1 0.552,0 1,0.448 1,1 0,0.551 -0.448,1 -1,1 m 0,-3 c -1.103,0 -2,0.897 -2,2 0,1.103 0.897,2 2,2 C 1.103,1 2,0.103 2,-1 2,-2.103 1.103,-3 0,-3" style="fill:#f4900c;fill-opacity:1;fill-rule:nonzero;stroke:none"/></g></g></g></g></svg>