<svg xmlns="http://www.w3.org/2000/svg" xmlns:svg="http://www.w3.org/2000/svg" style="enable-background:new 0 0 47.5 47.5" id="svg2" version="1.1" viewBox="0 0 47.5 47.5" xml:space="preserve"><metadata id="metadata8"/><defs id="defs6"><clipPath id="clipPath16" clipPathUnits="userSpaceOnUse"><path id="path18" d="M 0,38 38,38 38,0 0,0 0,38 Z"/></clipPath></defs><g id="g10" transform="matrix(1.25,0,0,-1.25,0,47.5)"><g id="g12"><g id="g14" clip-path="url(#clipPath16)"><g id="g20" transform="translate(12.1201,31.0503)"><path id="path22" d="M 0,0 C 1.685,-2.853 0.737,-6.532 -2.117,-8.217 -4.97,-9.901 -6.436,-10.904 -8.12,-8.051 -9.805,-5.197 -10.603,4.192 -9.742,4.7 -8.881,5.208 -1.684,2.854 0,0" style="fill:#d99e82;fill-opacity:1;fill-rule:nonzero;stroke:none"/></g><g id="g24" transform="translate(12.0103,27.2173)"><path id="path26" d="M 0,0 C 1.685,-2.853 1.167,-6.278 -1.156,-7.65 -3.479,-9.022 -5.326,-7.82 -7.01,-4.966 -8.695,-2.112 -9.482,4.854 -8.781,5.268 -8.081,5.681 -1.684,2.854 0,0" style="fill:#c1694f;fill-opacity:1;fill-rule:nonzero;stroke:none"/></g><g id="g28" transform="translate(25.8799,31.0503)"><path id="path30" d="M 0,0 C -1.685,-2.853 -0.737,-6.532 2.116,-8.217 4.97,-9.901 6.437,-10.904 8.12,-8.051 9.806,-5.197 10.603,4.192 9.741,4.7 8.881,5.208 1.685,2.854 0,0" style="fill:#d99e82;fill-opacity:1;fill-rule:nonzero;stroke:none"/></g><g id="g32" transform="translate(25.6211,27.6123)"><path id="path34" d="M 0,0 C -1.685,-2.853 -1.167,-6.278 1.156,-7.65 3.479,-9.021 5.695,-7.82 7.379,-4.966 9.064,-2.112 9.482,4.854 8.781,5.268 8.08,5.681 1.684,2.854 0,0" style="fill:#c1694f;fill-opacity:1;fill-rule:nonzero;stroke:none"/></g><g id="g36" transform="translate(36,15.5215)"><path id="path38" d="m 0,0 c 0,-9.989 -1,-14.521 -17,-14.521 -16,0 -17,4.532 -17,14.521 0,9.989 7.011,19.479 17,19.479 9.989,0 17,-9.49 17,-19.479" style="fill:#d99e82;fill-opacity:1;fill-rule:nonzero;stroke:none"/></g><g id="g40" transform="translate(8.6504,8)"><path id="path42" d="m 0,0 c 0,0 -3.641,3 -4.641,11.5 -0.234,1.986 1.696,1.977 2,0 C -1.641,5 3.709,1 6.35,-1 8.604,-2.708 0,0 0,0" style="fill:#e1e8ed;fill-opacity:1;fill-rule:nonzero;stroke:none"/></g><g id="g44" transform="translate(29.3496,8)"><path id="path46" d="m 0,0 c 0,0 3.641,3 4.641,11.5 0.234,1.986 -1.696,1.977 -2,0 C 1.641,5 -3.709,1 -6.35,-1 -8.604,-2.708 0,0 0,0" style="fill:#e1e8ed;fill-opacity:1;fill-rule:nonzero;stroke:none"/></g><g id="g48" transform="translate(30,8)"><path id="path50" d="m 0,0 c 0,-1.104 -3.82,-3 -11,-3 -7.18,0 -11,1.896 -11,3 0,1.104 3.82,-1 11,-1 7.18,0 11,2.104 11,1" style="fill:#662113;fill-opacity:1;fill-rule:nonzero;stroke:none"/></g><g id="g52" transform="translate(29,13.875)"><path id="path54" d="m 0,0 c 0,-4.487 -3.097,-9.375 -10,-9.375 -6.904,0 -10,4.888 -10,9.375 0,4.487 3.096,5.625 10,5.625 C -3.097,5.625 0,4.487 0,0" style="fill:#c1694f;fill-opacity:1;fill-rule:nonzero;stroke:none"/></g><g id="g56" transform="translate(16,12.4004)"><path id="path58" d="M 0,0 C 0,-1.857 -0.34,-2.4 -1.5,-2.4 -2.66,-2.4 -3,-1.857 -3,0 -3,1.856 -2.66,2.399 -1.5,2.399 -0.34,2.399 0,1.856 0,0" style="fill:#662113;fill-opacity:1;fill-rule:nonzero;stroke:none"/></g><g id="g60" transform="translate(25,12.4004)"><path id="path62" d="M 0,0 C 0,-1.857 -0.34,-2.4 -1.5,-2.4 -2.66,-2.4 -3,-1.857 -3,0 -3,1.856 -2.66,2.399 -1.5,2.399 -0.34,2.399 0,1.856 0,0" style="fill:#662113;fill-opacity:1;fill-rule:nonzero;stroke:none"/></g><g id="g64" transform="translate(14,21.9976)"><path id="path66" d="m 0,0 c 0,-1.104 -0.896,-2 -2,-2 -1.104,0 -2,0.896 -2,2 0,1.104 0.896,2.002 2,2.002 1.104,0 2,-0.898 2,-2.002" style="fill:#292f33;fill-opacity:1;fill-rule:nonzero;stroke:none"/></g><g id="g68" transform="translate(28,21.9976)"><path id="path70" d="m 0,0 c 0,-1.104 -0.896,-2 -2,-2 -1.104,0 -2,0.896 -2,2 0,1.104 0.896,2.002 2,2.002 1.104,0 2,-0.898 2,-2.002" style="fill:#292f33;fill-opacity:1;fill-rule:nonzero;stroke:none"/></g></g></g></g></svg>