<svg xmlns="http://www.w3.org/2000/svg" xmlns:svg="http://www.w3.org/2000/svg" style="enable-background:new 0 0 47.5 47.5" id="svg2" version="1.1" viewBox="0 0 47.5 47.5" xml:space="preserve"><metadata id="metadata8"/><defs id="defs6"><clipPath id="clipPath16" clipPathUnits="userSpaceOnUse"><path id="path18" d="M 0,38 38,38 38,0 0,0 0,38 Z"/></clipPath></defs><g id="g10" transform="matrix(1.25,0,0,-1.25,0,47.5)"><g id="g12"><g id="g14" clip-path="url(#clipPath16)"><g id="g20" transform="translate(34.7383,16.6318)"><path id="path22" d="m 0,0 c -0.799,5.542 -5.186,9.78 -12.563,9.78 -0.292,0 -0.621,-0.012 -0.963,-0.03 -1.48,-0.058 -2.961,-0.248 -4.399,-0.56 -0.749,-0.144 -1.508,-0.317 -2.254,-0.514 -0.775,1.051 -2.342,2.163 -2.736,2.163 -0.512,0 -0.038,-1.871 -0.006,-3.052 -0.88,-0.35 -1.684,-0.742 -2.347,-1.183 -3.176,-2.118 -3.176,-3.177 -6.838,-3.177 -1.632,0 -1.588,-1.658 -1.588,-3.705 0,-2.046 -0.044,-2.618 1.588,-3.707 2.183,-1.456 4.731,-3.613 7.952,-5.386 2.024,-3.147 0.326,-6.261 2.063,-6.261 1.227,0 2.807,1.964 3.648,3.944 1.787,-0.473 3.732,-0.768 5.88,-0.768 1.142,0 2.205,0.089 3.202,0.245 0.272,-1.945 -0.16,-3.421 1.035,-3.421 1.555,0 6.998,4.994 8.218,11.29 0.059,0.287 0.103,0.582 0.141,0.882 0.012,0.09 0.029,0.18 0.038,0.271 0.021,0.199 0.031,0.404 0.041,0.608 1.047,-0.274 2.15,-0.692 2.15,0.175 C 2.262,-1.701 1.143,-0.69 0,0" style="fill:#f4abba;fill-opacity:1;fill-rule:nonzero;stroke:none"/></g><g id="g24" transform="translate(11.5879,20.0586)"><path id="path26" d="m 0,0 c 0,-0.584 -0.474,-1.059 -1.059,-1.059 -0.584,0 -1.058,0.475 -1.058,1.059 0,0.585 0.474,1.059 1.058,1.059 C -0.474,1.059 0,0.585 0,0" style="fill:#292f33;fill-opacity:1;fill-rule:nonzero;stroke:none"/></g></g></g></g></svg>