<svg xmlns="http://www.w3.org/2000/svg" xmlns:svg="http://www.w3.org/2000/svg" style="enable-background:new 0 0 47.5 47.5" id="svg2" version="1.1" viewBox="0 0 47.5 47.5" xml:space="preserve"><metadata id="metadata8"/><defs id="defs6"><clipPath id="clipPath16" clipPathUnits="userSpaceOnUse"><path id="path18" d="M 0,38 38,38 38,0 0,0 0,38 Z"/></clipPath><clipPath id="clipPath36" clipPathUnits="userSpaceOnUse"><path id="path38" d="M 8.719,17 C 8.719,10.867 13.322,4 19,4 l 0,0 c 5.679,0 10.281,6.867 10.281,13 l 0,0 c 0,6.133 -4.602,8.923 -10.281,8.923 l 0,0 C 13.322,25.923 8.719,23.133 8.719,17"/></clipPath><clipPath id="clipPath58" clipPathUnits="userSpaceOnUse"><path id="path60" d="M 0,38 38,38 38,0 0,0 0,38 Z"/></clipPath></defs><g id="g10" transform="matrix(1.25,0,0,-1.25,0,47.5)"><g id="g12"><g id="g14" clip-path="url(#clipPath16)"><g id="g20" transform="translate(20,4)"><path id="path22" d="m 0,0 c 0,-1.657 -0.447,-3 -1,-3 -0.552,0 -1,1.343 -1,3 0,1.657 0.448,3 1,3 0.553,0 1,-1.343 1,-3" style="fill:#292f33;fill-opacity:1;fill-rule:nonzero;stroke:none"/></g><g id="g24" transform="translate(26.7529,35.7529)"><path id="path26" d="m 0,0 c -0.586,0.586 -1.693,0.428 -2.475,-0.354 -0.611,-0.611 -1.948,-2.53 -2.222,-3.619 -0.884,0.195 -1.93,0.22 -3.056,0.22 -1.125,0 -2.172,-0.025 -3.055,-0.219 -0.275,1.089 -1.611,3.007 -2.223,3.618 -0.781,0.782 -1.888,0.94 -2.474,0.354 -0.586,-0.586 -0.428,-1.693 0.353,-2.475 0.511,-0.51 1.937,-1.529 3.027,-2.011 -0.82,-0.533 -1.315,-1.451 -1.315,-3.032 0,-3.589 2.546,-7.312 5.687,-7.312 3.142,0 5.688,3.723 5.688,7.312 0,1.581 -0.496,2.499 -1.316,3.032 1.091,0.482 2.517,1.5 3.027,2.011 C 0.428,-1.693 0.586,-0.586 0,0" style="fill:#292f33;fill-opacity:1;fill-rule:nonzero;stroke:none"/></g><g id="g28" transform="translate(29.2813,17)"><path id="path30" d="m 0,0 c 0,-6.134 -4.603,-13 -10.281,-13 -5.678,0 -10.281,6.866 -10.281,13 0,6.133 4.603,8.923 10.281,8.923 C -4.603,8.923 0,6.133 0,0" style="fill:#292f33;fill-opacity:1;fill-rule:nonzero;stroke:none"/></g></g></g><g id="g32"><g id="g34" clip-path="url(#clipPath36)"><path id="path40" d="m 30,18 -22,0 0,4 22,0 0,-4 z" style="fill:#ffcc4d;fill-opacity:1;fill-rule:nonzero;stroke:none"/><path id="path42" d="m 30,10 -22,0 0,4 22,0 0,-4 z" style="fill:#ffcc4d;fill-opacity:1;fill-rule:nonzero;stroke:none"/><path id="path44" d="M 30,2 8,2 8,6 30,6 30,2 Z" style="fill:#ffcc4d;fill-opacity:1;fill-rule:nonzero;stroke:none"/><g id="g46" transform="translate(19,22.9995)"><path id="path48" d="m 0,0 c 0,-2.647 -7.858,-10 -12,-10 -4.142,0 -6,5.354 -6,8 0,2.646 1.858,1.584 6,1.584 4.143,0 12,3.061 12,0.416" style="fill:#292f33;fill-opacity:1;fill-rule:nonzero;stroke:none"/></g><g id="g50" transform="translate(19,22.9995)"><path id="path52" d="m 0,0 c 0,-2.647 7.857,-10 12,-10 4.143,0 6,5.354 6,8 0,2.646 -1.857,1.584 -6,1.584 C 7.857,-0.416 0,2.645 0,0" style="fill:#292f33;fill-opacity:1;fill-rule:nonzero;stroke:none"/></g></g></g><g id="g54"><g id="g56" clip-path="url(#clipPath58)"><g id="g62" transform="translate(19,23.4946)"><path id="path64" d="m 0,0 c 0,-2.647 -7.858,-8.584 -12,-8.584 -4.142,0 -6,2.443 -6,5.089 C -18,-0.849 -16.142,1 -12,1 -7.857,1 0,2.645 0,0" style="fill:#ccd6dd;fill-opacity:1;fill-rule:nonzero;stroke:none"/></g><g id="g66" transform="translate(19,23.4946)"><path id="path68" d="m 0,0 c 0,-2.647 7.857,-8.584 12,-8.584 4.143,0 6,2.443 6,5.089 C 18,-0.849 16.143,1 12,1 7.857,1 0,2.645 0,0" style="fill:#ccd6dd;fill-opacity:1;fill-rule:nonzero;stroke:none"/></g><g id="g70" transform="translate(3,18)"><path id="path72" d="m 0,0 c -0.552,0 -1,0.447 -1,1 0,0.551 0.446,0.999 0.998,1 0.048,0 4.948,0.07 13.596,3.914 0.505,0.227 1.095,-0.002 1.32,-0.508 C 15.138,4.901 14.911,4.311 14.406,4.086 5.317,0.047 0.213,0 0,0" style="fill:#99aab5;fill-opacity:1;fill-rule:nonzero;stroke:none"/></g><g id="g74" transform="translate(35,18)"><path id="path76" d="m 0,0 c -0.213,0 -5.316,0.047 -14.406,4.086 -0.505,0.225 -0.732,0.815 -0.508,1.32 0.225,0.505 0.817,0.732 1.32,0.508 C -4.946,2.07 -0.046,2 0.003,2 0.554,1.997 1,1.548 0.999,0.997 0.997,0.446 0.551,0 0,0" style="fill:#99aab5;fill-opacity:1;fill-rule:nonzero;stroke:none"/></g></g></g></g></svg>