<svg xmlns="http://www.w3.org/2000/svg" xmlns:svg="http://www.w3.org/2000/svg" style="enable-background:new 0 0 47.5 47.5" id="svg2" version="1.1" viewBox="0 0 47.5 47.5" xml:space="preserve"><metadata id="metadata8"/><defs id="defs6"><clipPath id="clipPath16" clipPathUnits="userSpaceOnUse"><path id="path18" d="M 0,38 38,38 38,0 0,0 0,38 Z"/></clipPath></defs><g id="g10" transform="matrix(1.25,0,0,-1.25,0,47.5)"><g id="g12"><g id="g14" clip-path="url(#clipPath16)"><g id="g20" transform="translate(37,23.4668)"><path id="path22" d="m 0,0 c 0,4.667 -3.134,6.533 -7,6.533 -1.621,0 -3.285,-0.354 -4.676,-1.027 -1.801,1.229 -3.919,1.965 -6.324,1.965 -2.405,0 -4.523,-0.736 -6.324,-1.965 -1.391,0.673 -3.055,1.027 -4.676,1.027 -3.866,0 -7,-1.866 -7,-6.533 0,-3.844 2.128,-6.417 5.038,-7.206 -0.043,-0.536 -0.068,-1.073 -0.068,-1.611 0,-5.729 4.519,-7.675 8.581,-8.327 1.098,-0.81 2.681,-1.323 4.449,-1.323 1.768,0 3.351,0.513 4.449,1.323 4.062,0.652 8.581,2.597 8.581,8.327 0,0.538 -0.025,1.075 -0.068,1.611 C -2.128,-6.417 0,-3.844 0,0" style="fill:#99aab5;fill-opacity:1;fill-rule:nonzero;stroke:none"/></g><g id="g24" transform="translate(10.5542,27.146)"><path id="path26" d="m 0,0 c -0.318,0.033 -0.637,0.054 -0.954,0.054 -3.093,0 -5.6,-1.493 -5.6,-5.226 0,-2.155 0.838,-3.808 2.138,-4.825 C -3.943,-6.199 -2.412,-2.58 0,0" style="fill:#66757f;fill-opacity:1;fill-rule:nonzero;stroke:none"/></g><g id="g28" transform="translate(28.4004,27.2002)"><path id="path30" d="M 0,0 C -0.317,0 -0.637,-0.021 -0.955,-0.054 1.457,-2.634 2.988,-6.253 3.461,-10.051 4.762,-9.034 5.6,-7.381 5.6,-5.227 5.6,-1.494 3.093,0 0,0" style="fill:#66757f;fill-opacity:1;fill-rule:nonzero;stroke:none"/></g><g id="g32" transform="translate(22.7275,12.1934)"><path id="path34" d="m 0,0 c 0,-3.346 -1.728,-4.193 -3.728,-4.193 -2,0 -3.727,0.847 -3.727,4.193 0,3.345 1.727,6.057 3.727,6.057 C -1.728,6.057 0,3.345 0,0" style="fill:#292f33;fill-opacity:1;fill-rule:nonzero;stroke:none"/></g><g id="g36" transform="translate(15,17.125)"><path id="path38" d="M 0,0 C 0,-0.828 -0.671,-1.5 -1.5,-1.5 -2.329,-1.5 -3,-0.828 -3,0 -3,0.828 -2.329,1.5 -1.5,1.5 -0.671,1.5 0,0.828 0,0" style="fill:#292f33;fill-opacity:1;fill-rule:nonzero;stroke:none"/></g><g id="g40" transform="translate(26,17.125)"><path id="path42" d="M 0,0 C 0,-0.828 -0.672,-1.5 -1.5,-1.5 -2.328,-1.5 -3,-0.828 -3,0 -3,0.828 -2.328,1.5 -1.5,1.5 -0.672,1.5 0,0.828 0,0" style="fill:#292f33;fill-opacity:1;fill-rule:nonzero;stroke:none"/></g></g></g></g></svg>