<svg xmlns="http://www.w3.org/2000/svg" xmlns:svg="http://www.w3.org/2000/svg" style="enable-background:new 0 0 47.5 47.5" id="svg2" version="1.1" viewBox="0 0 47.5 47.5" xml:space="preserve"><metadata id="metadata8"/><defs id="defs6"><clipPath id="clipPath16" clipPathUnits="userSpaceOnUse"><path id="path18" d="M 0,38 38,38 38,0 0,0 0,38 Z"/></clipPath></defs><g id="g10" transform="matrix(1.25,0,0,-1.25,0,47.5)"><g id="g12"><g id="g14" clip-path="url(#clipPath16)"><g id="g20" transform="translate(5,29)"><path id="path22" d="m 0,0 c 0,0 -4,-2 -4,-11 0,0 6,1 7,3 0,0 2,12.25 -3,8" style="fill:#99aab5;fill-opacity:1;fill-rule:nonzero;stroke:none"/></g><g id="g24" transform="translate(32.9951,28.9565)"><path id="path26" d="m 0,0 c 0,0 4,-2 4,-11 0,0 -6,1 -7,3 0,0 -2,12.25 3,8" style="fill:#99aab5;fill-opacity:1;fill-rule:nonzero;stroke:none"/></g><g id="g28" transform="translate(2,36)"><path id="path30" d="m 0,0 c -1.01,-0.99 1,-8 5,-9 4,-1 4,5 3,5 -4,0 -5.958,6 -8,4" style="fill:#ffe8b6;fill-opacity:1;fill-rule:nonzero;stroke:none"/></g><g id="g32" transform="translate(36.2969,36)"><path id="path34" d="m 0,0 c 1.011,-0.99 -1,-8 -5,-9 -4,-1 -4,5 -3,5 4,0 5.959,6 8,4" style="fill:#ffe8b6;fill-opacity:1;fill-rule:nonzero;stroke:none"/></g><g id="g36" transform="translate(22.9756,6)"><path id="path38" d="m 0,0 -7.951,0 c -5.536,0 -10.025,4.488 -10.025,10.024 l 0,8.951 c 0,5.537 4.489,10.025 10.025,10.025 L 0,29 c 5.536,0 10.024,-4.488 10.024,-10.025 l 0,-8.951 C 10.024,4.488 5.536,0 0,0" style="fill:#ccd6dd;fill-opacity:1;fill-rule:nonzero;stroke:none"/></g><g id="g40" transform="translate(36,9)"><path id="path42" d="m 0,0 c 0,-5.522 -4.478,-8 -10,-8 l -14,0 c -5.523,0 -10,2.478 -10,8 0,5.522 4.477,10 10,10 l 14,0 C -4.478,10 0,5.522 0,0" style="fill:#e6aaaa;fill-opacity:1;fill-rule:nonzero;stroke:none"/></g><g id="g44" transform="translate(12,11)"><path id="path46" d="M 0,0 C 0,-1.657 -0.671,-3 -1.5,-3 -2.329,-3 -3,-1.657 -3,0 -3,1.657 -2.329,3 -1.5,3 -0.671,3 0,1.657 0,0" style="fill:#c1694f;fill-opacity:1;fill-rule:nonzero;stroke:none"/></g><g id="g48" transform="translate(29,11)"><path id="path50" d="M 0,0 C 0,-1.657 -0.672,-3 -1.5,-3 -2.328,-3 -3,-1.657 -3,0 -3,1.657 -2.328,3 -1.5,3 -0.672,3 0,1.657 0,0" style="fill:#c1694f;fill-opacity:1;fill-rule:nonzero;stroke:none"/></g><g id="g52" transform="translate(12,25)"><path id="path54" d="M 0,0 C 0,0 0,2 2,2 4,2 4,0 4,0 l 0,-2 c 0,0 0,-2 -2,-2 -2,0 -2,2 -2,2 l 0,2 z" style="fill:#272b2b;fill-opacity:1;fill-rule:nonzero;stroke:none"/></g><g id="g56" transform="translate(22,25)"><path id="path58" d="M 0,0 C 0,0 0,2 2,2 4,2 4,0 4,0 l 0,-2 c 0,0 0,-2 -2,-2 -2,0 -2,2 -2,2 l 0,2 z" style="fill:#272b2b;fill-opacity:1;fill-rule:nonzero;stroke:none"/></g></g></g></g></svg>