<svg xmlns="http://www.w3.org/2000/svg" xmlns:svg="http://www.w3.org/2000/svg" style="enable-background:new 0 0 47.5 47.5" id="svg2" version="1.1" viewBox="0 0 47.5 47.5" xml:space="preserve"><metadata id="metadata8"/><defs id="defs6"><clipPath id="clipPath16" clipPathUnits="userSpaceOnUse"><path id="path18" d="M 0,38 38,38 38,0 0,0 0,38 Z"/></clipPath></defs><g id="g10" transform="matrix(1.25,0,0,-1.25,0,47.5)"><g id="g12"><g id="g14" clip-path="url(#clipPath16)"><g id="g20" transform="translate(16,7)"><path id="path22" d="m 0,0 0,-3 c 0,0 0,-3 3,-3 3,0 3,3 3,3 L 6,0 0,0 Z" style="fill:#dd2e44;fill-opacity:1;fill-rule:nonzero;stroke:none"/></g><g id="g24" transform="translate(15,35)"><path id="path26" d="m 0,0 c 0.041,3 -14,2 -14,-8 0,-4 0,-14 3,-14 4,0 10.945,18 11,22" style="fill:#272b2b;fill-opacity:1;fill-rule:nonzero;stroke:none"/></g><g id="g28" transform="translate(23,35)"><path id="path30" d="m 0,0 c -0.041,3 14,2 14,-8 0,-4 0,-14 -3,-14 C 7,-22 0.055,-4 0,0" style="fill:#272b2b;fill-opacity:1;fill-rule:nonzero;stroke:none"/></g><g id="g32" transform="translate(32,15)"><path id="path34" d="m 0,0 c 0,-7 -4,-7 -4,-7 l -18,0 c 0,0 -4,0 -4,7 0,0 1,22 13,22 C -1,22 0,0 0,0" style="fill:#ccd6dd;fill-opacity:1;fill-rule:nonzero;stroke:none"/></g><g id="g36" transform="translate(24,14.9746)"><path id="path38" d="m 0,0 0,0.025 -10,0 L -10,0 c -2.803,-0.253 -5,-2.606 -5,-5.475 0,-3.037 2.462,-5.5 5.5,-5.5 1.862,0 3.505,0.928 4.5,2.344 0.995,-1.416 2.638,-2.344 4.5,-2.344 3.038,0 5.5,2.463 5.5,5.5 C 5,-2.606 2.804,-0.253 0,0" style="fill:#8899a6;fill-opacity:1;fill-rule:nonzero;stroke:none"/></g><g id="g40" transform="translate(12,21)"><path id="path42" d="M 0,0 C 0,0 0,2 2,2 4,2 4,0 4,0 l 0,-2 c 0,0 0,-2 -2,-2 -2,0 -2,2 -2,2 l 0,2 z" style="fill:#272b2b;fill-opacity:1;fill-rule:nonzero;stroke:none"/></g><g id="g44" transform="translate(22,21)"><path id="path46" d="M 0,0 C 0,0 0,2 2,2 4,2 4,0 4,0 l 0,-2 c 0,0 0,-2 -2,-2 -2,0 -2,2 -2,2 l 0,2 z" style="fill:#272b2b;fill-opacity:1;fill-rule:nonzero;stroke:none"/></g><g id="g48" transform="translate(16,13)"><path id="path50" d="M 0,0 C -1,-1 2,-4 3,-4 4,-4 7,-1 6,0 5,1 1,1 0,0" style="fill:#272b2b;fill-opacity:1;fill-rule:nonzero;stroke:none"/></g></g></g></g></svg>