<svg xmlns="http://www.w3.org/2000/svg" xmlns:svg="http://www.w3.org/2000/svg" style="enable-background:new 0 0 47.5 47.5" id="svg2" version="1.1" viewBox="0 0 47.5 47.5" xml:space="preserve"><metadata id="metadata8"/><defs id="defs6"><clipPath id="clipPath16" clipPathUnits="userSpaceOnUse"><path id="path18" d="M 0,38 38,38 38,0 0,0 0,38 Z"/></clipPath></defs><g id="g10" transform="matrix(1.25,0,0,-1.25,0,47.5)"><g id="g12"><g id="g14" clip-path="url(#clipPath16)"><g id="g20" transform="translate(34.7988,36.9946)"><path id="path22" d="m 0,0 c -0.467,0.178 -7.998,-3.971 -9.969,-9.131 -1.166,-3.052 -1.685,-6.057 -1.652,-8.112 -1.469,0.789 -2.921,1.248 -4.178,1.248 -1.257,0 -2.709,-0.458 -4.178,-1.248 0.034,2.055 -0.486,5.06 -1.651,8.112 -1.971,5.16 -9.503,9.309 -9.97,9.131 -0.455,-0.174 4.268,-16.043 7.025,-20.837 -2.421,-2.563 -4.226,-5.819 -4.226,-8.986 0,-3.234 1.635,-5.139 4.001,-5.94 2.53,-0.858 4.999,0.94 8.999,0.94 4,0 6.469,-1.798 9,-0.94 2.365,0.801 4,2.706 4,5.94 0,3.166 -1.805,6.423 -4.224,8.985 C -4.269,-16.044 0.456,-0.174 0,0" style="fill:#99aab5;fill-opacity:1;fill-rule:nonzero;stroke:none"/></g><g id="g24" transform="translate(13.6919,19.0781)"><path id="path26" d="M 0,0 C -0.178,1.54 -0.68,3.55 -1.457,5.584 -2.991,9.6 -7.143,12.829 -7.506,12.69 -7.826,12.569 -4.879,2.55 -2.723,-2.173 -1.857,-1.348 -0.937,-0.609 0,0" style="fill:#f4abba;fill-opacity:1;fill-rule:nonzero;stroke:none"/></g><g id="g28" transform="translate(27.0303,16.9063)"><path id="path30" d="M 0,0 C 2.156,4.723 5.103,14.741 4.784,14.862 4.421,15.001 0.269,11.771 -1.266,7.756 -2.043,5.722 -2.545,3.712 -2.723,2.172 -1.786,1.562 -0.866,0.824 0,0" style="fill:#f4abba;fill-opacity:1;fill-rule:nonzero;stroke:none"/></g><g id="g32" transform="translate(26,7)"><path id="path34" d="m 0,0 c 0,-2.762 -3.06,-5 -6.834,-5 -3.773,0 -6.833,2.238 -6.833,5 0,2.762 3.06,5 6.833,5 C -3.06,5 0,2.762 0,0" style="fill:#ccd6dd;fill-opacity:1;fill-rule:nonzero;stroke:none"/></g><g id="g36" transform="translate(22,6.4219)"><path id="path38" d="m 0,0 c 0,-2.762 -0.238,-3 -3,-3 -2.761,0 -3,0.238 -3,3 0,1 6,1 6,0" style="fill:#fff;fill-opacity:1;fill-rule:nonzero;stroke:none"/></g><g id="g40" transform="translate(15,12.6719)"><path id="path42" d="M 0,0 C 0,-0.828 -0.671,-1.5 -1.5,-1.5 -2.329,-1.5 -3,-0.828 -3,0 -3,0.828 -2.329,1.5 -1.5,1.5 -0.671,1.5 0,0.828 0,0" style="fill:#292f33;fill-opacity:1;fill-rule:nonzero;stroke:none"/></g><g id="g44" transform="translate(26,12.6719)"><path id="path46" d="M 0,0 C 0,-0.828 -0.672,-1.5 -1.5,-1.5 -2.328,-1.5 -3,-0.828 -3,0 -3,0.828 -2.328,1.5 -1.5,1.5 -0.672,1.5 0,0.828 0,0" style="fill:#292f33;fill-opacity:1;fill-rule:nonzero;stroke:none"/></g><g id="g48" transform="translate(22,11.1719)"><path id="path50" d="m 0,0 c 0,-1.657 -2,-3 -3,-3 -1,0 -3,1.343 -3,3 0,1.657 6,1.657 6,0" style="fill:#f4abba;fill-opacity:1;fill-rule:nonzero;stroke:none"/></g></g></g></g></svg>