<svg xmlns="http://www.w3.org/2000/svg" xmlns:svg="http://www.w3.org/2000/svg" style="enable-background:new 0 0 47.5 47.5" id="svg2" version="1.1" viewBox="0 0 47.5 47.5" xml:space="preserve"><metadata id="metadata8"/><defs id="defs6"><clipPath id="clipPath16" clipPathUnits="userSpaceOnUse"><path id="path18" d="M 0,38 38,38 38,0 0,0 0,38 Z"/></clipPath></defs><g id="g10" transform="matrix(1.25,0,0,-1.25,0,47.5)"><g id="g12"><g id="g14" clip-path="url(#clipPath16)"><g id="g20" transform="translate(2.7266,14.7012)"><path id="path22" d="m 0,0 c 0,0 -1.394,1.291 -0.103,2.686 1.291,1.393 2.686,0.101 2.686,0.101 l 6.471,-5.994 c -0.102,0.096 0.45,0.879 0.368,0.955 L 0.44,6.067 c 0,0 -1.394,1.291 -0.103,2.684 1.292,1.395 2.686,0.103 2.686,0.103 l 8.448,-7.825 c -0.02,0.018 0.609,0.731 0.597,0.742 l -9.794,9.072 c 0,0 -1.394,1.291 -0.103,2.685 1.292,1.393 2.686,0.102 2.686,0.102 L 14.65,4.558 c 0.012,-0.01 0.683,0.664 0.703,0.645 l -9.154,8.479 c 0,0 -1.394,1.291 -0.103,2.685 1.292,1.393 2.686,0.102 2.686,0.102 0,0 6.812,-6.31 9.679,-8.965 2.866,-2.655 3.512,-1.958 3.512,-1.958 l -2.588,2.397 -2.989,2.767 c 0,0 -1.394,1.291 -0.102,2.686 1.292,1.394 2.685,0.103 2.685,0.103 l 7.667,-7.102 c 4.618,-4.278 4.895,-11.491 0.616,-16.11 -4.278,-4.619 -11.492,-4.894 -16.111,-0.617 -0.244,0.226 -0.682,0.663 -0.663,0.684 L 10.455,-9.684 0,0 Z" style="fill:#c1694f;fill-opacity:1;fill-rule:nonzero;stroke:none"/></g><g id="g24" transform="translate(5.627,16.6504)"><path id="path26" d="M 0,0 C 0,0 -1.394,1.291 -0.103,2.685 1.188,4.08 2.582,2.789 2.582,2.789 l 6.472,-5.996 c -0.103,0.096 0.45,0.879 0.368,0.955 L 0.44,6.067 c 0,0 -1.394,1.291 -0.103,2.685 1.291,1.394 2.685,0.103 2.685,0.103 L 11.47,1.029 c -0.019,0.019 0.61,0.731 0.598,0.742 l -9.794,9.073 c 0,0 -1.394,1.29 -0.103,2.684 1.291,1.394 2.685,0.103 2.685,0.103 L 14.649,4.56 c 0.013,-0.012 0.683,0.662 0.703,0.644 l -9.153,8.479 c 0,0 -1.394,1.291 -0.103,2.684 1.291,1.394 2.685,0.103 2.685,0.103 0,0 6.813,-6.311 9.68,-8.966 2.865,-2.654 3.512,-1.957 3.512,-1.957 l -2.589,2.397 -2.988,2.767 c 0,0 -1.393,1.291 -0.103,2.685 1.292,1.394 2.686,0.103 2.686,0.103 l 7.666,-7.101 c 4.619,-4.278 4.895,-11.492 0.617,-16.11 -4.279,-4.619 -11.492,-4.894 -16.111,-0.616 -0.245,0.225 -0.682,0.662 -0.663,0.682 L 10.454,-9.684 0,0 Z" style="fill:#d99e82;fill-opacity:1;fill-rule:nonzero;stroke:none"/></g><g id="g28" transform="translate(25.541,30.5415)"><path id="path30" d="M 0,0 C -0.213,0 -0.429,0.068 -0.61,0.208 -1.048,0.546 -1.128,1.174 -0.79,1.611 L 2.188,5.466 C 2.524,5.903 3.153,5.985 3.591,5.646 4.028,5.309 4.108,4.681 3.771,4.244 L 0.792,0.389 C 0.596,0.134 0.3,0 0,0" style="fill:#ffac33;fill-opacity:1;fill-rule:nonzero;stroke:none"/></g><g id="g32" transform="translate(20,30)"><path id="path34" d="m 0,0 c -0.552,0 -1,0.448 -1,1 l 0,5 C -1,6.552 -0.552,7 0,7 0.553,7 1,6.552 1,6 L 1,1 C 1,0.448 0.553,0 0,0" style="fill:#ffac33;fill-opacity:1;fill-rule:nonzero;stroke:none"/></g><g id="g36" transform="translate(29.417,27.333)"><path id="path38" d="m 0,0 c -0.408,0 -0.792,0.252 -0.939,0.659 -0.19,0.519 0.079,1.092 0.597,1.281 L 4.241,3.607 C 4.762,3.796 5.334,3.527 5.522,3.009 5.712,2.49 5.443,1.916 4.925,1.727 L 0.342,0.061 C 0.229,0.02 0.113,0 0,0" style="fill:#ffac33;fill-opacity:1;fill-rule:nonzero;stroke:none"/></g></g></g></g></svg>