<svg xmlns="http://www.w3.org/2000/svg" xmlns:svg="http://www.w3.org/2000/svg" style="enable-background:new 0 0 47.5 47.5" id="svg2" version="1.1" viewBox="0 0 47.5 47.5" xml:space="preserve"><metadata id="metadata8"/><defs id="defs6"><clipPath id="clipPath16" clipPathUnits="userSpaceOnUse"><path id="path18" d="M 0,38 38,38 38,0 0,0 0,38 Z"/></clipPath></defs><g id="g10" transform="matrix(1.25,0,0,-1.25,0,47.5)"><g id="g12"><g id="g14" clip-path="url(#clipPath16)"><g id="g20" transform="translate(5,21.1064)"><path id="path22" d="m 0,0 c 0,0 -0.093,-2.362 1.792,-3.068 1.667,-0.625 2.309,0.622 2.309,0.622 0,0 -0.059,-1.914 1.941,-2.622 1.885,-0.668 2.75,0.958 2.75,0.958 0,0 0.307,-1.871 2.292,-2.417 C 12.755,-6.986 14,-5.36 14,-5.36 l 0,-12.208 c 0,-0.959 0.542,-2.576 2.543,-2.577 2,-0.001 2.457,1.66 2.457,2.577 l 0,16.5 0,4 c 0,1 1,1 1,0 l 0,-2.666 c 0,-3.792 2.038,-6.143 2.751,-6.792 0.713,-0.651 1.667,-0.98 2.82,-0.735 1.956,0.415 1.53,1.92 0.975,3.198 C 25.209,-0.985 24.292,3.4 24.013,5.475 23.222,11.332 18.204,15.85 12.129,15.855 5.503,15.859 0.005,10.558 0,3.932 L 0,0 Z" style="fill:#d99e82;fill-opacity:1;fill-rule:nonzero;stroke:none"/></g></g></g></g></svg>