<svg xmlns="http://www.w3.org/2000/svg" xmlns:svg="http://www.w3.org/2000/svg" style="enable-background:new 0 0 47.5 47.5" id="svg2" version="1.1" viewBox="0 0 47.5 47.5" xml:space="preserve"><metadata id="metadata8"/><defs id="defs6"><clipPath id="clipPath16" clipPathUnits="userSpaceOnUse"><path id="path18" d="M 0,38 38,38 38,0 0,0 0,38 Z"/></clipPath></defs><g id="g10" transform="matrix(1.25,0,0,-1.25,0,47.5)"><g id="g12"><g id="g14" clip-path="url(#clipPath16)"><g id="g20" transform="translate(33.9424,25.7559)"><path id="path22" d="M 0,0 C -0.041,0.609 -0.284,1.18 -0.674,1.644 L -1.03,3.701 C -1.406,5.707 -3.263,7.087 -5.292,6.87 L -28.684,3.134 c -1.882,-0.201 -3.35,-1.722 -3.484,-3.611 l 1.76,-11.146 c 0.305,-2.169 2.152,-3.788 4.341,-3.814 0.677,-0.007 1.238,-0.016 1.463,-0.027 l 9.483,-0.463 c -0.362,-0.483 -0.821,-1.08 -0.821,-1.718 l 0,-0.051 c 0,-1.581 1.771,-3.06 3.352,-3.06 l 7.282,0 c 0.76,0 1.489,0.401 2.026,0.938 l 4.424,4.471 c 0.583,0.584 0.886,1.416 0.832,2.241 L 0,0 Z" style="fill:#d99e82;fill-opacity:1;fill-rule:nonzero;stroke:none"/></g><g id="g24" transform="translate(9.2168,10.377)"><path id="path26" d="m 0,0 c -0.474,0 -0.895,0.338 -0.983,0.821 l -2.06,11.332 c -0.099,0.544 0.262,1.064 0.805,1.163 0.547,0.097 1.064,-0.262 1.163,-0.805 L 0.985,1.179 C 1.083,0.636 0.723,0.115 0.18,0.017 0.119,0.005 0.059,0 0,0" style="fill:#c1694f;fill-opacity:1;fill-rule:nonzero;stroke:none"/></g><g id="g28" transform="translate(15.3979,10.377)"><path id="path30" d="m 0,0 c -0.518,0 -0.956,0.398 -0.996,0.923 l -1.03,13.393 c -0.043,0.551 0.369,1.031 0.92,1.074 0.549,0.044 1.031,-0.371 1.074,-0.921 L 0.998,1.077 C 1.041,0.526 0.628,0.045 0.078,0.003 0.052,0.001 0.025,0 0,0" style="fill:#c1694f;fill-opacity:1;fill-rule:nonzero;stroke:none"/></g><g id="g32" transform="translate(22.6055,9.2715)"><path id="path34" d="m 0,0 c -0.508,0 -0.757,0.001 -0.951,1.062 l -0.044,0.002 c 0.001,0.055 0.007,0.109 0.016,0.162 -0.173,1.068 -0.308,3.069 -0.56,6.817 -0.235,3.49 -0.486,7.552 -0.486,8.485 0,0.552 0.447,1 1,1 0.552,0 1,-0.448 1,-1 C -0.025,14.995 0.77,3.204 0.956,1.383 0.988,1.286 1.005,1.183 1.005,1.075 1.005,0.81 0.897,0.519 0.71,0.331 0.522,0.144 0.266,0 0,0" style="fill:#c1694f;fill-opacity:1;fill-rule:nonzero;stroke:none"/></g><g id="g36" transform="translate(26.1777,8.3164)"><path id="path38" d="m 0,0 -6.658,0 c -0.552,0 -1,0.447 -1,1 0,0.553 0.448,1 1,1 L 0,2 c 1.458,0 2.644,1.186 2.644,2.644 l 0,12.839 c 0,0.552 0.447,1 1,1 0.552,0 1,-0.448 1,-1 l 0,-12.839 C 4.644,2.083 2.561,0 0,0" style="fill:#c1694f;fill-opacity:1;fill-rule:nonzero;stroke:none"/></g></g></g></g></svg>