<svg xmlns="http://www.w3.org/2000/svg" xmlns:svg="http://www.w3.org/2000/svg" style="enable-background:new 0 0 47.5 47.5" id="svg2" version="1.1" viewBox="0 0 47.5 47.5" xml:space="preserve"><metadata id="metadata8"/><defs id="defs6"><clipPath id="clipPath16" clipPathUnits="userSpaceOnUse"><path id="path18" d="M 0,38 38,38 38,0 0,0 0,38 Z"/></clipPath></defs><g id="g10" transform="matrix(1.25,0,0,-1.25,0,47.5)"><g id="g12"><g id="g14" clip-path="url(#clipPath16)"><g id="g20" transform="translate(30,25)"><path id="path22" d="m 0,0 c -4.687,3.515 -6,6 -8,6 -2,0 -2,-1 -3,-1 -1,0 -1,1 -3,1 -2,0 -3.313,-2.485 -8,-6 -4,-3 -7,-3 -7,-5 0,-2 5,-6 8,-9 2,-2 5,-4 10,-4 5,0 8,2 10,4 3,3 8,7 8,9 0,2 -3,2 -7,5" style="fill:#e75a70;fill-opacity:1;fill-rule:nonzero;stroke:none"/></g><g id="g24" transform="translate(29.3887,21.5)"><path id="path26" d="m 0,0 c -4.426,1.465 -7.389,2.083 -10.389,2.083 -3,0 -5.962,-0.618 -10.388,-2.083 -3.778,-1.25 -6.612,-0.667 -6.612,-1.5 0,-0.834 9,-5 17,-5 8,0 17,4.166 17,5 0,0.833 -2.834,0.25 -6.611,1.5" style="fill:#662113;fill-opacity:1;fill-rule:nonzero;stroke:none"/></g><g id="g28" transform="translate(29.3887,21.5)"><path id="path30" d="m 0,0 c -4.426,1.465 -7.389,2.083 -10.389,2.083 -3,0 -5.962,-0.618 -10.388,-2.083 -3.624,-1.199 -6.371,-0.715 -6.59,-1.408 2.454,-0.385 9.119,0.644 16.978,0.644 7.86,0 14.525,-1.029 16.979,-0.644 C 6.371,-0.715 3.623,-1.199 0,0" style="fill:#fff;fill-opacity:1;fill-rule:nonzero;stroke:none"/></g></g></g></g></svg>