<svg xmlns="http://www.w3.org/2000/svg" xmlns:svg="http://www.w3.org/2000/svg" style="enable-background:new 0 0 47.5 47.5" id="svg2" version="1.1" viewBox="0 0 47.5 47.5" xml:space="preserve"><metadata id="metadata8"/><defs id="defs6"><clipPath id="clipPath16" clipPathUnits="userSpaceOnUse"><path id="path18" d="M 0,38 38,38 38,0 0,0 0,38 Z"/></clipPath></defs><g id="g10" transform="matrix(1.25,0,0,-1.25,0,47.5)"><g id="g12"><g id="g14" clip-path="url(#clipPath16)"><g id="g20" transform="translate(19.9346,11.5146)"><path id="path22" d="m 0,0 c -0.517,-0.781 -1.353,-0.781 -1.869,0 l -4.678,5.071 c -0.516,0.782 -0.516,2.048 0,2.828 l 4.678,9.072 c 0.516,0.78 1.352,0.78 1.869,0 L 4.678,7.899 c 0.516,-0.78 0.516,-2.046 0,-2.828 L 0,0 Z" style="fill:#f4900c;fill-opacity:1;fill-rule:nonzero;stroke:none"/></g><g id="g24" transform="translate(29.4346,9.5146)"><path id="path26" d="m 0,0 c -0.517,-0.781 -1.353,-0.781 -1.869,0 l -4.678,5.071 c -0.516,0.782 -0.516,2.047 0,2.828 l 6.678,9.072 c 0.516,0.78 1.352,0.78 1.869,0 L 4.678,7.899 c 0.516,-0.781 0.516,-2.046 0,-2.828 L 0,0 Z" style="fill:#f4900c;fill-opacity:1;fill-rule:nonzero;stroke:none"/></g><g id="g28" transform="translate(10.4351,9.5146)"><path id="path30" d="m 0,0 c -0.517,-0.781 -1.354,-0.781 -1.871,0 l -4.677,5.071 c -0.516,0.782 -0.516,2.047 0,2.828 l 2.677,9.072 c 0.517,0.78 1.354,0.78 1.871,0 L 4.678,7.899 c 0.516,-0.781 0.516,-2.046 0,-2.828 L 0,0 Z" style="fill:#f4900c;fill-opacity:1;fill-rule:nonzero;stroke:none"/></g><g id="g32" transform="translate(34,26)"><path id="path34" d="m 0,0 c -0.45,-0.45 -2.12,-2.124 -4,-4.369 l -4.565,8.854 c -0.517,0.781 -1.353,0.781 -1.87,0 L -15,-4.368 -19.565,4.485 c -0.517,0.781 -1.354,0.781 -1.871,0 L -26,-4.368 c -1.88,2.245 -3.55,3.918 -4,4.368 -1,1 -2.485,0.94 -2,-1 1,-4 1,-7 1,-12 l 0,-2 c 0,-2.209 1.791,-4 4,-4 l 24,0 c 2.209,0 4,1.791 4,4 l 0,2 c 0,5 0,8 1,12 0.484,1.94 -1,2 -2,1" style="fill:#ffcc4d;fill-opacity:1;fill-rule:nonzero;stroke:none"/></g><g id="g36" transform="translate(22,15)"><path id="path38" d="m 0,0 c 0,-1.657 -1.343,-3 -3,-3 -1.657,0 -3,1.343 -3,3 0,1.657 1.343,3 3,3 1.657,0 3,-1.343 3,-3" style="fill:#5c913b;fill-opacity:1;fill-rule:nonzero;stroke:none"/></g><g id="g40" transform="translate(29,15)"><path id="path42" d="m 0,0 c 0,-1.104 -0.896,-2 -2,-2 -1.104,0 -2,0.896 -2,2 0,1.104 0.896,2 2,2 1.104,0 2,-0.896 2,-2" style="fill:#5c913b;fill-opacity:1;fill-rule:nonzero;stroke:none"/></g><g id="g44" transform="translate(36,15)"><path id="path46" d="m 0,0 c 0,-1.104 -0.896,-2 -2,-2 -1.104,0 -2,0.896 -2,2 0,1.104 0.896,2 2,2 1.104,0 2,-0.896 2,-2" style="fill:#5c913b;fill-opacity:1;fill-rule:nonzero;stroke:none"/></g><g id="g48" transform="translate(13,15)"><path id="path50" d="m 0,0 c 0,-1.104 -0.895,-2 -2,-2 -1.104,0 -2,0.896 -2,2 0,1.104 0.896,2 2,2 1.105,0 2,-0.896 2,-2" style="fill:#5c913b;fill-opacity:1;fill-rule:nonzero;stroke:none"/></g><g id="g52" transform="translate(6,15)"><path id="path54" d="m 0,0 c 0,-1.104 -0.895,-2 -2,-2 -1.104,0 -2,0.896 -2,2 0,1.104 0.896,2 2,2 1.105,0 2,-0.896 2,-2" style="fill:#5c913b;fill-opacity:1;fill-rule:nonzero;stroke:none"/></g><g id="g56" transform="translate(35,11)"><path id="path58" d="m 0,0 c 0,-2.209 -1.791,-4 -4,-4 l -24,0 c -2.209,0 -4,1.791 -4,4 L 0,0 Z" style="fill:#ffac33;fill-opacity:1;fill-rule:nonzero;stroke:none"/></g></g></g></g></svg>