<svg xmlns="http://www.w3.org/2000/svg" xmlns:svg="http://www.w3.org/2000/svg" style="enable-background:new 0 0 47.5 47.5" id="svg2" version="1.1" viewBox="0 0 47.5 47.5" xml:space="preserve"><metadata id="metadata8"/><defs id="defs6"><clipPath id="clipPath16" clipPathUnits="userSpaceOnUse"><path id="path18" d="M 0,38 38,38 38,0 0,0 0,38 Z"/></clipPath></defs><g id="g10" transform="matrix(1.25,0,0,-1.25,0,47.5)"><g id="g12"><g id="g14" clip-path="url(#clipPath16)"><g id="g20" transform="translate(29,15)"><path id="path22" d="m 0,0 c -0.553,0 -1,0.447 -1,1 l 0,6 c 0,6.065 -4.037,11 -9,11 -4.962,0 -9,-4.935 -9,-11 l 0,-6 c 0,-0.553 -0.448,-1 -1,-1 -0.552,0 -1,0.447 -1,1 l 0,6 c 0,7.168 4.935,13 11,13 C -3.935,20 1,14.168 1,7 L 1,1 C 1,0.447 0.553,0 0,0" style="fill:#ffac33;fill-opacity:1;fill-rule:nonzero;stroke:none"/></g><g id="g24" transform="translate(34.3857,24.0278)"><path id="path26" d="m 0,0 c -0.26,2.185 -2.271,3.972 -4.472,3.972 l -21.828,0 c -2.2,0 -4.212,-1.787 -4.471,-3.972 l -2.143,-18.056 c -0.26,-2.185 1.328,-3.972 3.528,-3.972 l 28,0 c 2.2,0 3.788,1.787 3.529,3.972 L 0,0 Z" style="fill:#9266cc;fill-opacity:1;fill-rule:nonzero;stroke:none"/></g><g id="g28" transform="translate(29,17)"><path id="path30" d="m 0,0 c -0.553,0 -1,0.447 -1,1 l 0,6 c 0,6.065 -4.037,11 -9,11 -4.962,0 -9,-4.935 -9,-11 l 0,-6 c 0,-0.553 -0.448,-1 -1,-1 -0.552,0 -1,0.447 -1,1 l 0,6 c 0,7.168 4.935,13 11,13 C -3.935,20 1,14.168 1,7 L 1,1 C 1,0.447 0.553,0 0,0" style="fill:#ffd983;fill-opacity:1;fill-rule:nonzero;stroke:none"/></g></g></g></g></svg>