<svg xmlns="http://www.w3.org/2000/svg" xmlns:svg="http://www.w3.org/2000/svg" style="enable-background:new 0 0 47.5 47.5" id="svg2" version="1.1" viewBox="0 0 47.5 47.5" xml:space="preserve"><metadata id="metadata8"/><g id="g10" transform="matrix(1.25,0,0,-1.25,0,47.5)"><g id="g12" transform="translate(21.1816,37)"><path id="path14" d="m 0,0 -10.182,0 0,-4.568 -6.181,-29.114 L -8.636,-36 -2.227,-12.818 0,0 Z" style="fill:#3b88c3;fill-opacity:1;fill-rule:nonzero;stroke:none"/></g><g id="g16" transform="translate(16.8184,37)"><path id="path18" d="m 0,0 10.182,0 0,-4.568 6.181,-29.114 L 8.636,-36 2.227,-12.818 0,0 Z" style="fill:#3b88c3;fill-opacity:1;fill-rule:nonzero;stroke:none"/></g><path id="path20" d="m 27,33 -16,0 0,2 16,0 0,-2 z" style="fill:#269;fill-opacity:1;fill-rule:nonzero;stroke:none"/><g id="g22" transform="translate(20,25)"><path id="path24" d="M 0,0 -2,0 -6,2 4,2 0,0 Z" style="fill:#269;fill-opacity:1;fill-rule:nonzero;stroke:none"/></g><path id="path26" d="m 13,34 2,0 0,3 -2,0 0,-3 z" style="fill:#269;fill-opacity:1;fill-rule:nonzero;stroke:none"/><path id="path28" d="m 23,34 2,0 0,3 -2,0 0,-3 z" style="fill:#269;fill-opacity:1;fill-rule:nonzero;stroke:none"/><path id="path30" d="m 17,26 2,0 0,7 -2,0 0,-7 z" style="fill:#269;fill-opacity:1;fill-rule:nonzero;stroke:none"/></g></svg>