<svg xmlns="http://www.w3.org/2000/svg" xmlns:svg="http://www.w3.org/2000/svg" style="enable-background:new 0 0 47.5 47.5" id="svg2" version="1.1" viewBox="0 0 47.5 47.5" xml:space="preserve"><metadata id="metadata8"/><defs id="defs6"><clipPath id="clipPath30" clipPathUnits="userSpaceOnUse"><path id="path32" d="M 0,38 38,38 38,0 0,0 0,38 Z"/></clipPath></defs><g id="g10" transform="matrix(1.25,0,0,-1.25,0,47.5)"><g id="g12" transform="translate(23,37)"><path id="path14" d="M 0,0 3,0 8,-2.808 13,-26.115 4,-27 -2,-10.577" style="fill:#3b88c3;fill-opacity:1;fill-rule:nonzero;stroke:none"/></g><g id="g16" transform="translate(15,37)"><path id="path18" d="M 0,0 -3,0 -8,-2.808 -13,-26.115 -4,-27 2,-10.577" style="fill:#3b88c3;fill-opacity:1;fill-rule:nonzero;stroke:none"/></g><path id="path20" d="M 12,1 26,1 26,32 12,32 12,1 Z" style="fill:#3b88c3;fill-opacity:1;fill-rule:nonzero;stroke:none"/><g id="g22" transform="translate(18.9849,28.2388)"><path id="path24" d="m 0,0 -6.985,-5.239 2,0 5.094,5.094 L 0,0 Z" style="fill:#269;fill-opacity:1;fill-rule:nonzero;stroke:none"/></g><g id="g26"><g id="g28" clip-path="url(#clipPath30)"><g id="g34" transform="translate(26,17)"><path id="path36" d="m 0,0 c 0,0 -1.167,-1 -7,-1 -5.833,0 -7,1 -7,1 l 0,6 14,0 0,-6 z" style="fill:#88c9f9;fill-opacity:1;fill-rule:nonzero;stroke:none"/></g><g id="g38" transform="translate(26,19)"><path id="path40" d="m 0,0 c 0,0 -1.167,-1 -7,-1 -5.833,0 -7,1 -7,1 l 0,2 7,0 7,0 0,-2 z" style="fill:#fff;fill-opacity:1;fill-rule:nonzero;stroke:none"/></g><g id="g42" transform="translate(26,37)"><path id="path44" d="M 0,0 -7,-9 -14,0 0,0 Z" style="fill:#fff;fill-opacity:1;fill-rule:nonzero;stroke:none"/></g><g id="g46" transform="translate(21.333,37)"><path id="path48" d="M 0,0 -2.333,-3 -4.666,0 0,0 Z" style="fill:#99aab5;fill-opacity:1;fill-rule:nonzero;stroke:none"/></g><g id="g50" transform="translate(26,12)"><path id="path52" d="M 0,0 0,21 2,-2 0,0 Z" style="fill:#269;fill-opacity:1;fill-rule:nonzero;stroke:none"/></g><g id="g54" transform="translate(12,12)"><path id="path56" d="M 0,0 0,21 -2,-2 0,0 Z" style="fill:#269;fill-opacity:1;fill-rule:nonzero;stroke:none"/></g></g></g></g></svg>