<svg xmlns="http://www.w3.org/2000/svg" xmlns:svg="http://www.w3.org/2000/svg" style="enable-background:new 0 0 47.5 47.5" id="svg2" version="1.1" viewBox="0 0 47.5 47.5" xml:space="preserve"><metadata id="metadata8"/><defs id="defs6"><clipPath id="clipPath16" clipPathUnits="userSpaceOnUse"><path id="path18" d="M 0,38 38,38 38,0 0,0 0,38 Z"/></clipPath></defs><g id="g10" transform="matrix(1.25,0,0,-1.25,0,47.5)"><g id="g12"><g id="g14" clip-path="url(#clipPath16)"><g id="g20" transform="translate(37,5)"><path id="path22" d="m 0,0 c 0,-2.209 -1.791,-4 -4,-4 l -28,0 c -2.209,0 -4,1.791 -4,4 l 0,28 c 0,2.209 1.791,4 4,4 l 28,0 c 2.209,0 4,-1.791 4,-4 L 0,0 Z" style="fill:#88c9f9;fill-opacity:1;fill-rule:nonzero;stroke:none"/></g><g id="g24" transform="translate(20.3408,1.5449)"><path id="path26" d="m 0,0 c -0.738,-0.726 -1.944,-0.726 -2.681,0 l -6.633,6.529 c -0.737,0.726 -0.932,2.033 -0.434,2.904 l 7.5,18.447 c 0.499,0.871 1.315,0.871 1.814,0 L 7.066,9.433 C 7.564,8.562 7.369,7.255 6.632,6.529 L 0,0 Z" style="fill:#dd2e44;fill-opacity:1;fill-rule:nonzero;stroke:none"/></g><g id="g28" transform="translate(19,22.332)"><path id="path30" d="M 0,0 C 0.949,0 2.004,0.952 2.899,2.191 L 0.907,7.093 c -0.499,0.871 -1.315,0.871 -1.814,0 L -2.9,2.191 C -2.003,0.952 -0.949,0 0,0" style="fill:#a0041e;fill-opacity:1;fill-rule:nonzero;stroke:none"/></g><g id="g32" transform="translate(24,31.2222)"><path id="path34" d="m 0,0 c 0,-1.964 -2.791,-7.112 -5,-7.112 -2.209,0 -5,5.148 -5,7.112 0,1.783 2.791,2.778 5,2.778 2.209,0 5,-0.995 5,-2.778" style="fill:#dd2e44;fill-opacity:1;fill-rule:nonzero;stroke:none"/></g><g id="g36" transform="translate(1,33)"><path id="path38" d="m 0,0 0,-2.254 c 2.074,-2.77 6.779,-7.751 8,-7.751 2.209,0 11,10.796 11,13.005 0,1 -1,1 -2,1 L 4,4 C 1.791,4 0,2.209 0,0" style="fill:#4ca0d3;fill-opacity:1;fill-rule:nonzero;stroke:none"/></g><g id="g40" transform="translate(18,36)"><path id="path42" d="m 0,0 c 0,-2.209 8.791,-13.005 11,-13.005 1.221,0 5.926,4.981 8,7.751 L 19,-3 c 0,2.209 -1.791,4 -4,4 L 2,1 C 1,1 0,1 0,0" style="fill:#4ca0d3;fill-opacity:1;fill-rule:nonzero;stroke:none"/></g><g id="g44" transform="translate(5,37)"><path id="path46" d="M 0,0 C -0.267,0 -0.526,-0.029 -0.778,-0.079 0.405,-1.736 6.562,-3 14,-3 21.437,-3 27.595,-1.736 28.778,-0.079 28.526,-0.029 28.267,0 28,0 L 0,0 Z" style="fill:#269;fill-opacity:1;fill-rule:nonzero;stroke:none"/></g></g></g></g></svg>