<svg xmlns="http://www.w3.org/2000/svg" xmlns:svg="http://www.w3.org/2000/svg" style="enable-background:new 0 0 47.5 47.5" id="svg2" version="1.1" viewBox="0 0 47.5 47.5" xml:space="preserve"><metadata id="metadata8"/><defs id="defs6"><clipPath id="clipPath16" clipPathUnits="userSpaceOnUse"><path id="path18" d="M 0,38 38,38 38,0 0,0 0,38 Z"/></clipPath></defs><g id="g10" transform="matrix(1.25,0,0,-1.25,0,47.5)"><g id="g12"><g id="g14" clip-path="url(#clipPath16)"><g id="g20" transform="translate(23.4199,25.1533)"><path id="path22" d="m 0,0 3.58,9.847 c 0,0 -0.398,-0.002 -1,-0.034 l 0,2.034 -2,0 0,-2.219 c -2.271,-0.303 -5,-1.028 -5,-2.781 0,1.753 -2.729,2.478 -5,2.781 l 0,2.219 -2,0 0,-2.034 c -0.601,0.032 -1,0.034 -1,0.034 L -8.839,0 -21.42,-13.796 c 0,0 6,-10.357 17,-10.357 11,0 17,10.357 17,10.357 L 0,0 Z" style="fill:#55acee;fill-opacity:1;fill-rule:nonzero;stroke:none"/></g><path id="path24" d="m 24,24 -10,0 0,2 10,0 0,-2 z" style="fill:#bbddf5;fill-opacity:1;fill-rule:nonzero;stroke:none"/><g id="g26" transform="translate(16,24)"><path id="path28" d="M 0,0 C 0,0 -6.734,-8.106 -5.051,-9.006 -3.367,-9.907 0,0 0,0" style="fill:#3b88c3;fill-opacity:1;fill-rule:nonzero;stroke:none"/></g><g id="g30" transform="translate(22.0957,24)"><path id="path32" d="M 0,0 C 0,0 6.734,-8.105 5.051,-9.007 3.367,-9.907 0,0 0,0" style="fill:#3b88c3;fill-opacity:1;fill-rule:nonzero;stroke:none"/></g><g id="g34" transform="translate(19,24)"><path id="path36" d="M 0,0 C 0,0 -2,-11 0,-11 2,-11 0,0 0,0" style="fill:#3b88c3;fill-opacity:1;fill-rule:nonzero;stroke:none"/></g></g></g></g></svg>