<svg xmlns="http://www.w3.org/2000/svg" xmlns:svg="http://www.w3.org/2000/svg" style="enable-background:new 0 0 47.5 47.5" id="svg2" version="1.1" viewBox="0 0 47.5 47.5" xml:space="preserve"><metadata id="metadata8"/><defs id="defs6"><clipPath id="clipPath16" clipPathUnits="userSpaceOnUse"><path id="path18" d="M 0,38 38,38 38,0 0,0 0,38 Z"/></clipPath></defs><g id="g10" transform="matrix(1.25,0,0,-1.25,0,47.5)"><g id="g12"><g id="g14" clip-path="url(#clipPath16)"><g id="g20" transform="translate(35.5391,5.5117)"><path id="path22" d="m 0,0 c 0,0 1.18,-0.215 1.18,-1.256 0,-1.043 -1.042,-1.256 -2.084,-1.256 l -17.72,0 c -2.084,0 -2.084,3.34 -5.212,9.594 -3.127,6.255 -6.253,2.001 -6.253,2.001 l -1.042,-12.595 -2.408,0 0,13.936 c 0,2.084 -0.881,4.285 -0.881,5.211 0,2.084 0.672,4.395 0.672,4.395 L -27.002,17.719 0,0 Z" style="fill:#292f33;fill-opacity:1;fill-rule:nonzero;stroke:none"/></g><g id="g24" transform="translate(2.668,23.7192)"><path id="path26" d="m 0,0 c 3.036,-0.732 10.291,-3.88 13.969,-17.379 0,0 0,-1.34 2.363,-1.34 l 16.539,0 c 0,0 1.18,0.257 1.18,2.424 0,1.084 -5.907,3.38 -8.27,4.464 -2.361,1.084 -4.445,4.317 -4.445,4.317 0,0 -4.17,-1.635 -11.258,5.952 C 2.99,6.025 5.7,8.876 3.337,8.876 2.852,8.876 -0.401,5.569 -1.207,1.838 -1.322,1.305 -0.864,0.208 0,0" style="fill:#9266cc;fill-opacity:1;fill-rule:nonzero;stroke:none"/></g></g></g></g></svg>