<svg xmlns="http://www.w3.org/2000/svg" xmlns:svg="http://www.w3.org/2000/svg" style="enable-background:new 0 0 47.5 47.5" id="svg2" version="1.1" viewBox="0 0 47.5 47.5" xml:space="preserve"><metadata id="metadata8"/><defs id="defs6"><clipPath id="clipPath20" clipPathUnits="userSpaceOnUse"><path id="path22" d="M 0,38 38,38 38,0 0,0 0,38 Z"/></clipPath></defs><g id="g10" transform="matrix(1.25,0,0,-1.25,0,47.5)"><g id="g12" transform="translate(12,14)"><path id="path14" d="m 0,0 -2,0 -3,0 0,-12 3,0 0,8 2,0 0,-8 3,0 0,12 -3,0 z" style="fill:#664500;fill-opacity:1;fill-rule:nonzero;stroke:none"/></g><g id="g16"><g id="g18" clip-path="url(#clipPath20)"><g id="g24" transform="translate(6,1)"><path id="path26" d="M 0,0 0,1 C 0,1 0,2 2,2 4,2 4,1 4,1 L 4,0 0,0 Z" style="fill:#292f33;fill-opacity:1;fill-rule:nonzero;stroke:none"/></g><g id="g28" transform="translate(12,1)"><path id="path30" d="M 0,0 0,1 C 0,1 0,2 2,2 4,2 4,1 4,1 L 4,0 0,0 Z" style="fill:#292f33;fill-opacity:1;fill-rule:nonzero;stroke:none"/></g><g id="g32" transform="translate(11.5,37)"><path id="path34" d="M 0,0 C -1.187,0 -2.282,-0.379 -3.181,-1.018 -5.027,-1.114 -6.5,-2.629 -6.5,-4.5 c 0,-1.542 0.007,-3.484 2.038,-4.208 C -3.464,-10.094 -1.839,-11 0,-11 3.037,-11 5.5,-8.538 5.5,-5.501 5.5,-2.463 3.037,0 0,0" style="fill:#292f33;fill-opacity:1;fill-rule:nonzero;stroke:none"/></g><g id="g36" transform="translate(1.999,11)"><path id="path38" d="m 0,0 c -0.164,0 -0.331,0.04 -0.485,0.126 -0.482,0.269 -0.657,0.877 -0.388,1.359 l 5,9.001 c 0.268,0.482 0.876,0.657 1.36,0.388 0.482,-0.268 0.657,-0.877 0.388,-1.36 l -5,-8.999 C 0.692,0.186 0.352,0 0,0" style="fill:#d79e84;fill-opacity:1;fill-rule:nonzero;stroke:none"/></g><g id="g40" transform="translate(20.001,11)"><path id="path42" d="m 0,0 c -0.352,0 -0.692,0.186 -0.875,0.515 l -5,8.999 c -0.269,0.483 -0.094,1.092 0.388,1.36 0.484,0.269 1.092,0.094 1.36,-0.388 l 5,-9.001 C 1.142,1.003 0.968,0.395 0.484,0.126 0.331,0.04 0.164,0 0,0" style="fill:#d79e84;fill-opacity:1;fill-rule:nonzero;stroke:none"/></g><g id="g44" transform="translate(17,21)"><path id="path46" d="m 0,0 c 0,1.104 -0.896,2 -2,2 l -2,0 -4,0 -2,0 c -1.104,0 -2,-0.896 -2,-2 l 0,-1 2,0 0,-7 8,0 0,7 2,0 0,1 z" style="fill:#4289c1;fill-opacity:1;fill-rule:nonzero;stroke:none"/></g><g id="g48" transform="translate(9,26)"><path id="path50" d="m 0,0 0,-4 c 0,-1.104 0.896,-2 2,-2 1.104,0 2,0.896 2,2 L 4,0 0,0 Z" style="fill:#d79e84;fill-opacity:1;fill-rule:nonzero;stroke:none"/></g><g id="g52" transform="translate(13,26)"><path id="path54" d="M 0,0 -4,-0.019 -4,-4 c 0,0 2,-1 4,0 l 0,4 z" style="fill:#bf6952;fill-opacity:1;fill-rule:nonzero;stroke:none"/></g><g id="g56" transform="translate(16,34)"><path id="path58" d="m 0,0 -10,0 0,-6 0,0 c 0,-2.763 2.238,-5 5,-5 2.762,0 5,2.237 5,5 l 0,0 0,6 z" style="fill:#d79e84;fill-opacity:1;fill-rule:nonzero;stroke:none"/></g><g id="g60" transform="translate(9,34)"><path id="path62" d="m 0,0 -3,0 0,-4 c 2.333,0 2.85,2.412 2.965,3.488 C 0.004,-1.588 0.779,-4 7,-4 L 7,0 0,0 Z" style="fill:#292f33;fill-opacity:1;fill-rule:nonzero;stroke:none"/></g><g id="g64" transform="translate(13,25)"><path id="path66" d="m 0,0 -2,0 -2,0 c 0,0 0,-1 2,-1 2,0 2,1 2,1" style="fill:#c1694f;fill-opacity:1;fill-rule:nonzero;stroke:none"/></g><g id="g68" transform="translate(9,28.5)"><path id="path70" d="M 0,0 C 0,-0.276 -0.224,-0.5 -0.5,-0.5 -0.776,-0.5 -1,-0.276 -1,0 -1,0.276 -0.776,0.5 -0.5,0.5 -0.224,0.5 0,0.276 0,0" style="fill:#664500;fill-opacity:1;fill-rule:nonzero;stroke:none"/></g><g id="g72" transform="translate(14,28.5)"><path id="path74" d="M 0,0 C 0,-0.276 -0.224,-0.5 -0.5,-0.5 -0.776,-0.5 -1,-0.276 -1,0 -1,0.276 -0.776,0.5 -0.5,0.5 -0.224,0.5 0,0.276 0,0" style="fill:#664500;fill-opacity:1;fill-rule:nonzero;stroke:none"/></g><g id="g76" transform="translate(10,27)"><path id="path78" d="M 0,0 1,0 2,0 C 2,0 2,-1 1,-1 0,-1 0,0 0,0" style="fill:#c1694f;fill-opacity:1;fill-rule:nonzero;stroke:none"/></g><g id="g80" transform="translate(28,14)"><path id="path82" d="m 0,0 -2,0 -3,0 0,-12 3,0 0,8 2,0 0,-8 3,0 0,12 -3,0 z" style="fill:#67757f;fill-opacity:1;fill-rule:nonzero;stroke:none"/></g><g id="g84" transform="translate(22,1)"><path id="path86" d="M 0,0 0,1 C 0,1 0,2 2,2 4,2 4,1 4,1 L 4,0 0,0 Z" style="fill:#292f33;fill-opacity:1;fill-rule:nonzero;stroke:none"/></g><g id="g88" transform="translate(28,1)"><path id="path90" d="M 0,0 0,1 C 0,1 0,2 2,2 4,2 4,1 4,1 L 4,0 0,0 Z" style="fill:#292f33;fill-opacity:1;fill-rule:nonzero;stroke:none"/></g><g id="g92" transform="translate(33,32.5)"><path id="path94" d="M 0,0 C 0,1.871 -1.473,3.386 -3.319,3.482 -4.218,4.121 -5.313,4.5 -6.5,4.5 -9.537,4.5 -12,2.037 -12,-1.001 c 0,-3.037 2.463,-5.499 5.5,-5.499 1.84,0 3.464,0.906 4.462,2.292 C -0.007,-3.484 0,-1.542 0,0" style="fill:#642116;fill-opacity:1;fill-rule:nonzero;stroke:none"/></g><g id="g96" transform="translate(17.999,11)"><path id="path98" d="m 0,0 c -0.164,0 -0.331,0.04 -0.485,0.126 -0.482,0.269 -0.657,0.877 -0.388,1.359 l 5,9.001 c 0.268,0.482 0.878,0.657 1.359,0.388 0.484,-0.268 0.658,-0.877 0.389,-1.36 l -5,-8.999 C 0.692,0.186 0.352,0 0,0" style="fill:#d79e84;fill-opacity:1;fill-rule:nonzero;stroke:none"/></g><g id="g100" transform="translate(36.001,11)"><path id="path102" d="m 0,0 c -0.352,0 -0.692,0.186 -0.875,0.515 l -5,8.999 c -0.269,0.483 -0.095,1.092 0.389,1.36 0.482,0.269 1.091,0.094 1.359,-0.388 l 5,-9.001 C 1.142,1.003 0.968,0.395 0.484,0.126 0.331,0.04 0.164,0 0,0" style="fill:#d79e84;fill-opacity:1;fill-rule:nonzero;stroke:none"/></g><g id="g104" transform="translate(33,21)"><path id="path106" d="m 0,0 c 0,1.104 -0.896,2 -2,2 l -2,0 -4,0 -2,0 c -1.104,0 -2,-0.896 -2,-2 l 0,-1 2,0 0,-7 8,0 0,7 2,0 0,1 z" style="fill:#fdcb58;fill-opacity:1;fill-rule:nonzero;stroke:none"/></g><g id="g108" transform="translate(25,26)"><path id="path110" d="m 0,0 0,-4 c 0,-1.104 0.896,-2 2,-2 1.104,0 2,0.896 2,2 L 4,0 0,0 Z" style="fill:#d79e84;fill-opacity:1;fill-rule:nonzero;stroke:none"/></g><g id="g112" transform="translate(29,26)"><path id="path114" d="M 0,0 -4,-0.019 -4,-4 c 0,0 2,-1 4,0 l 0,4 z" style="fill:#bf6952;fill-opacity:1;fill-rule:nonzero;stroke:none"/></g><g id="g116" transform="translate(32,34)"><path id="path118" d="m 0,0 -10,0 0,-6 0,0 c 0,-2.763 2.238,-5 5,-5 2.762,0 5,2.237 5,5 l 0,0 0,6 z" style="fill:#d79e84;fill-opacity:1;fill-rule:nonzero;stroke:none"/></g><g id="g120" transform="translate(29,34)"><path id="path122" d="m 0,0 -7,0 0,-4 c 6.221,0 6.996,2.412 7.035,3.488 C 0.15,-1.588 0.667,-4 3,-4 L 3,0 0,0 Z" style="fill:#642116;fill-opacity:1;fill-rule:nonzero;stroke:none"/></g><g id="g124" transform="translate(29,25)"><path id="path126" d="m 0,0 -2,0 -2,0 c 0,0 0,-1 2,-1 2,0 2,1 2,1" style="fill:#c1694f;fill-opacity:1;fill-rule:nonzero;stroke:none"/></g><g id="g128" transform="translate(25,28.5)"><path id="path130" d="M 0,0 C 0,-0.276 -0.224,-0.5 -0.5,-0.5 -0.776,-0.5 -1,-0.276 -1,0 -1,0.276 -0.776,0.5 -0.5,0.5 -0.224,0.5 0,0.276 0,0" style="fill:#664500;fill-opacity:1;fill-rule:nonzero;stroke:none"/></g><g id="g132" transform="translate(30,28.5)"><path id="path134" d="M 0,0 C 0,-0.276 -0.224,-0.5 -0.5,-0.5 -0.776,-0.5 -1,-0.276 -1,0 -1,0.276 -0.776,0.5 -0.5,0.5 -0.224,0.5 0,0.276 0,0" style="fill:#664500;fill-opacity:1;fill-rule:nonzero;stroke:none"/></g><g id="g136" transform="translate(26,27)"><path id="path138" d="M 0,0 1,0 2,0 C 2,0 2,-1 1,-1 0,-1 0,0 0,0" style="fill:#c1694f;fill-opacity:1;fill-rule:nonzero;stroke:none"/></g></g></g></g></svg>