<svg xmlns="http://www.w3.org/2000/svg" xmlns:svg="http://www.w3.org/2000/svg" style="enable-background:new 0 0 47.5 47.5" id="svg2" version="1.1" viewBox="0 0 47.5 47.5" xml:space="preserve"><metadata id="metadata8"/><defs id="defs6"><clipPath id="clipPath20" clipPathUnits="userSpaceOnUse"><path id="path22" d="M 0,38 38,38 38,0 0,0 0,38 Z"/></clipPath></defs><g id="g10" transform="matrix(1.25,0,0,-1.25,0,47.5)"><g id="g12" transform="translate(8,2)"><path id="path14" d="m 0,0 -3,0 1,9.712 3,0 L 0,0 Z" style="fill:#d79e84;fill-opacity:1;fill-rule:nonzero;stroke:none"/></g><g id="g16"><g id="g18" clip-path="url(#clipPath20)"><g id="g24" transform="translate(13.8755,3.208)"><path id="path26" d="m 0,0 -1.833,1.333 c 0,0 3.166,3.012 2.531,3.994 -0.636,0.982 -3.782,1.688 -3.782,1.688 l 1.918,2.306 c 0,0 3.958,-1.904 4.77,-3.333 C 4.43,4.537 0,0 0,0" style="fill:#d79e84;fill-opacity:1;fill-rule:nonzero;stroke:none"/></g><g id="g28" transform="translate(4,1)"><path id="path30" d="M 0,0 0,1 C 0,1 0,2 2,2 4,2 4,1 4,1 L 4,0 0,0 Z" style="fill:#292f33;fill-opacity:1;fill-rule:nonzero;stroke:none"/></g><g id="g32" transform="translate(14.5532,1.5166)"><path id="path34" d="m 0,0 0.421,0.908 c 0,0 0.419,0.907 -1.396,1.747 C -2.788,3.496 -3.208,2.589 -3.208,2.589 L -3.628,1.682 0,0 Z" style="fill:#292f33;fill-opacity:1;fill-rule:nonzero;stroke:none"/></g><g id="g36" transform="translate(5,10.7119)"><path id="path38" d="m 0,0 c -0.256,0 -0.512,0.098 -0.707,0.293 l -3,3 c -0.36,0.36 -0.392,0.934 -0.074,1.332 l 4,3.288 C 0.564,8.345 1.194,8.414 1.625,8.069 2.056,7.724 2.126,7.095 1.781,6.663 L -1.66,4.074 0.707,1.707 C 1.098,1.316 1.098,0.684 0.707,0.293 0.512,0.098 0.256,0 0,0" style="fill:#d79e84;fill-opacity:1;fill-rule:nonzero;stroke:none"/></g><g id="g40" transform="translate(15,10.7119)"><path id="path42" d="m 0,0 c -0.256,0 -0.512,0.098 -0.707,0.293 -0.391,0.391 -0.391,1.023 0,1.414 L 1.66,4.074 -1.781,6.663 c -0.345,0.432 -0.275,1.061 0.156,1.406 0.431,0.345 1.061,0.276 1.406,-0.156 l 4,-3.288 C 4.1,4.227 4.067,3.653 3.707,3.293 l -3,-3 C 0.512,0.098 0.256,0 0,0" style="fill:#d79e84;fill-opacity:1;fill-rule:nonzero;stroke:none"/></g><g id="g44" transform="translate(16,18)"><path id="path46" d="m 0,0 c 0,1.104 -0.896,2 -2,2 l -2,0 -4,0 -2,0 c -1.104,0 -2,-0.896 -2,-2 l 0,-1 2,0 0,-1.288 0,-1 0,-3 3,-2 2,0 3,2 0,3 0,1 0,1.288 2,0 0,1 z" style="fill:#292f33;fill-opacity:1;fill-rule:nonzero;stroke:none"/></g><g id="g48" transform="translate(17,27.999)"><path id="path50" d="m 0,0 c 0,3.314 -2.687,6.001 -6,6.001 -1.264,0 -2.435,-0.393 -3.402,-1.061 -0.197,0.03 -0.393,0.061 -0.598,0.061 -2.209,0 -4,-1.791 -4,-4 l 0,-6 4.686,0 c 0.949,-0.631 2.088,-1 3.314,-1 1.226,0 2.364,0.369 3.314,1 L 0,-4.999 0,0 Z" style="fill:#ffd983;fill-opacity:1;fill-rule:nonzero;stroke:none"/></g><g id="g52" transform="translate(12,20)"><path id="path54" d="m 0,0 0,3 -4,0 0,-3 -1,0 0,-1 c 0,0 0,-3 3,-3 3,0 3,3 3,3 L 1,0 0,0 Z" style="fill:#d79e84;fill-opacity:1;fill-rule:nonzero;stroke:none"/></g><g id="g56" transform="translate(12,23)"><path id="path58" d="M 0,0 -4,-0.019 -4,-4 c 0,0 2,-1 4,0 l 0,4 z" style="fill:#bf6952;fill-opacity:1;fill-rule:nonzero;stroke:none"/></g><g id="g60" transform="translate(15,31)"><path id="path62" d="m 0,0 -10,0 0,-6 0,0 c 0,-2.763 2.238,-5 5,-5 2.761,0 5,2.237 5,5 l 0,0 0,6 z" style="fill:#d79e84;fill-opacity:1;fill-rule:nonzero;stroke:none"/></g><g id="g64" transform="translate(8,31)"><path id="path66" d="M 0,0 C 0,0 0,-4 8,-4 L 8,0 0,0 Z" style="fill:#ffd983;fill-opacity:1;fill-rule:nonzero;stroke:none"/></g><g id="g68" transform="translate(8,31)"><path id="path70" d="m 0,0 c 0,0 0,-4 -4,-4 l 0,4 4,0 z" style="fill:#ffd983;fill-opacity:1;fill-rule:nonzero;stroke:none"/></g><g id="g72" transform="translate(12,22)"><path id="path74" d="m 0,0 -2,0 -2,0 c 0,0 0,-1 2,-1 2,0 2,1 2,1" style="fill:#c1694f;fill-opacity:1;fill-rule:nonzero;stroke:none"/></g><g id="g76" transform="translate(8,25.5)"><path id="path78" d="M 0,0 C 0,-0.276 -0.224,-0.5 -0.5,-0.5 -0.776,-0.5 -1,-0.276 -1,0 -1,0.276 -0.776,0.5 -0.5,0.5 -0.224,0.5 0,0.276 0,0" style="fill:#664500;fill-opacity:1;fill-rule:nonzero;stroke:none"/></g><g id="g80" transform="translate(13,25.5)"><path id="path82" d="M 0,0 C 0,-0.276 -0.224,-0.5 -0.5,-0.5 -0.776,-0.5 -1,-0.276 -1,0 -1,0.276 -0.776,0.5 -0.5,0.5 -0.224,0.5 0,0.276 0,0" style="fill:#664500;fill-opacity:1;fill-rule:nonzero;stroke:none"/></g><g id="g84" transform="translate(9,24)"><path id="path86" d="M 0,0 1,0 2,0 C 2,0 2,-1 1,-1 0,-1 0,0 0,0" style="fill:#c1694f;fill-opacity:1;fill-rule:nonzero;stroke:none"/></g><g id="g88" transform="translate(4.6875,35.875)"><path id="path90" d="M 0,0 C 2.625,0.219 3.75,-2.875 3,-4.25 1.031,-4.25 -0.937,-2.438 0,0" style="fill:#292f33;fill-opacity:1;fill-rule:nonzero;stroke:none"/></g><g id="g92" transform="translate(14.6748,35.8125)"><path id="path94" d="m 0,0 c -2.625,0.219 -3.75,-2.875 -3,-4.25 1.969,0 3.937,1.812 3,4.25" style="fill:#292f33;fill-opacity:1;fill-rule:nonzero;stroke:none"/></g><g id="g96" transform="translate(7.3125,32.75)"><path id="path98" d="M 0,0 C 1.812,1.437 4.344,1.062 5.156,-0.156 5.187,-0.469 4.786,-1.334 4.469,-1.187 3.656,-0.812 2.281,-0.25 0.406,-1.125 0.312,-1.062 -0.035,-0.027 0,0" style="fill:#292f33;fill-opacity:1;fill-rule:nonzero;stroke:none"/></g><g id="g100" transform="translate(24,2)"><path id="path102" d="m 0,0 -3,0 1,9.712 3,0 L 0,0 Z" style="fill:#d79e84;fill-opacity:1;fill-rule:nonzero;stroke:none"/></g><g id="g104" transform="translate(29.875,3.208)"><path id="path106" d="m 0,0 -1.833,1.333 c 0,0 3.167,3.012 2.531,3.994 -0.636,0.982 -3.782,1.688 -3.782,1.688 l 1.918,2.306 c 0,0 3.958,-1.904 4.77,-3.333 C 4.43,4.537 0,0 0,0" style="fill:#d79e84;fill-opacity:1;fill-rule:nonzero;stroke:none"/></g><g id="g108" transform="translate(30.5527,1.5166)"><path id="path110" d="m 0,0 0.422,0.908 c 0,0 0.418,0.907 -1.397,1.747 C -2.787,3.496 -3.207,2.589 -3.207,2.589 L -3.627,1.682 0,0 Z" style="fill:#292f33;fill-opacity:1;fill-rule:nonzero;stroke:none"/></g><g id="g112" transform="translate(20,1)"><path id="path114" d="M 0,0 0,1 C 0,1 0,2 2,2 4,2 4,1 4,1 L 4,0 0,0 Z" style="fill:#292f33;fill-opacity:1;fill-rule:nonzero;stroke:none"/></g><g id="g116" transform="translate(21,10.7119)"><path id="path118" d="m 0,0 c -0.256,0 -0.512,0.098 -0.707,0.293 l -3,3 c -0.36,0.36 -0.392,0.934 -0.074,1.332 l 4,3.288 C 0.564,8.345 1.194,8.414 1.625,8.069 2.057,7.724 2.126,7.095 1.781,6.663 L -1.66,4.074 0.707,1.707 C 1.098,1.316 1.098,0.684 0.707,0.293 0.512,0.098 0.256,0 0,0" style="fill:#d79e84;fill-opacity:1;fill-rule:nonzero;stroke:none"/></g><g id="g120" transform="translate(31,10.7119)"><path id="path122" d="m 0,0 c -0.256,0 -0.512,0.098 -0.707,0.293 -0.391,0.391 -0.391,1.023 0,1.414 L 1.66,4.074 -1.781,6.663 c -0.345,0.432 -0.276,1.061 0.156,1.406 0.431,0.345 1.061,0.276 1.406,-0.156 l 4,-3.288 C 4.1,4.227 4.067,3.653 3.707,3.293 l -3,-3 C 0.512,0.098 0.256,0 0,0" style="fill:#d79e84;fill-opacity:1;fill-rule:nonzero;stroke:none"/></g><g id="g124" transform="translate(32,18)"><path id="path126" d="m 0,0 c 0,1.104 -0.896,2 -2,2 l -2,0 -4,0 -2,0 c -1.104,0 -2,-0.896 -2,-2 l 0,-1 2,0 0,-1.288 0,-1 0,-3 3,-2 2,0 3,2 0,3 0,1 0,1.288 2,0 0,1 z" style="fill:#292f33;fill-opacity:1;fill-rule:nonzero;stroke:none"/></g><g id="g128" transform="translate(33,27.999)"><path id="path130" d="m 0,0 c 0,3.314 -2.687,6.001 -6,6.001 -1.264,0 -2.436,-0.393 -3.402,-1.061 -0.197,0.03 -0.393,0.061 -0.598,0.061 -2.209,0 -4,-1.791 -4,-4 l 0,-6 4.686,0 c 0.949,-0.631 2.087,-1 3.314,-1 1.226,0 2.364,0.369 3.314,1 L 0,-4.999 0,0 Z" style="fill:#ffd983;fill-opacity:1;fill-rule:nonzero;stroke:none"/></g><g id="g132" transform="translate(28,20)"><path id="path134" d="m 0,0 0,3 -4,0 0,-3 -1,0 0,-1 c 0,0 0,-3 3,-3 3,0 3,3 3,3 L 1,0 0,0 Z" style="fill:#d79e84;fill-opacity:1;fill-rule:nonzero;stroke:none"/></g><g id="g136" transform="translate(28,23)"><path id="path138" d="M 0,0 -4,-0.019 -4,-4 c 0,0 2,-1 4,0 l 0,4 z" style="fill:#bf6952;fill-opacity:1;fill-rule:nonzero;stroke:none"/></g><g id="g140" transform="translate(31,31)"><path id="path142" d="m 0,0 -10,0 0,-6 0,0 c 0,-2.763 2.238,-5 5,-5 2.762,0 5,2.237 5,5 l 0,0 0,6 z" style="fill:#d79e84;fill-opacity:1;fill-rule:nonzero;stroke:none"/></g><g id="g144" transform="translate(24,31)"><path id="path146" d="M 0,0 C 0,0 0,-4 8,-4 L 8,0 0,0 Z" style="fill:#ffd983;fill-opacity:1;fill-rule:nonzero;stroke:none"/></g><g id="g148" transform="translate(24,31)"><path id="path150" d="m 0,0 c 0,0 0,-4 -4,-4 l 0,4 4,0 z" style="fill:#ffd983;fill-opacity:1;fill-rule:nonzero;stroke:none"/></g><g id="g152" transform="translate(28,22)"><path id="path154" d="m 0,0 -2,0 -2,0 c 0,0 0,-1 2,-1 2,0 2,1 2,1" style="fill:#c1694f;fill-opacity:1;fill-rule:nonzero;stroke:none"/></g><g id="g156" transform="translate(24,25.5)"><path id="path158" d="M 0,0 C 0,-0.276 -0.224,-0.5 -0.5,-0.5 -0.776,-0.5 -1,-0.276 -1,0 -1,0.276 -0.776,0.5 -0.5,0.5 -0.224,0.5 0,0.276 0,0" style="fill:#664500;fill-opacity:1;fill-rule:nonzero;stroke:none"/></g><g id="g160" transform="translate(29,25.5)"><path id="path162" d="M 0,0 C 0,-0.276 -0.224,-0.5 -0.5,-0.5 -0.776,-0.5 -1,-0.276 -1,0 -1,0.276 -0.776,0.5 -0.5,0.5 -0.224,0.5 0,0.276 0,0" style="fill:#664500;fill-opacity:1;fill-rule:nonzero;stroke:none"/></g><g id="g164" transform="translate(25,24)"><path id="path166" d="M 0,0 1,0 2,0 C 2,0 2,-1 1,-1 0,-1 0,0 0,0" style="fill:#c1694f;fill-opacity:1;fill-rule:nonzero;stroke:none"/></g><g id="g168" transform="translate(20.7813,35.875)"><path id="path170" d="M 0,0 C 2.625,0.219 3.75,-2.875 3,-4.25 1.031,-4.25 -0.937,-2.438 0,0" style="fill:#292f33;fill-opacity:1;fill-rule:nonzero;stroke:none"/></g><g id="g172" transform="translate(30.7686,35.8125)"><path id="path174" d="m 0,0 c -2.625,0.219 -3.75,-2.875 -3,-4.25 1.969,0 3.937,1.812 3,4.25" style="fill:#292f33;fill-opacity:1;fill-rule:nonzero;stroke:none"/></g><g id="g176" transform="translate(23.4063,32.75)"><path id="path178" d="M 0,0 C 1.812,1.437 4.344,1.062 5.156,-0.156 5.187,-0.469 4.786,-1.334 4.469,-1.187 3.656,-0.812 2.281,-0.25 0.406,-1.125 0.312,-1.062 -0.035,-0.027 0,0" style="fill:#292f33;fill-opacity:1;fill-rule:nonzero;stroke:none"/></g></g></g></g></svg>