<svg xmlns="http://www.w3.org/2000/svg" xmlns:svg="http://www.w3.org/2000/svg" style="enable-background:new 0 0 47.5 47.5" id="svg2" version="1.1" viewBox="0 0 47.5 47.5" xml:space="preserve"><metadata id="metadata8"/><defs id="defs6"><clipPath id="clipPath16" clipPathUnits="userSpaceOnUse"><path id="path18" d="M 0,38 38,38 38,0 0,0 0,38 Z"/></clipPath></defs><g id="g10" transform="matrix(1.25,0,0,-1.25,0,47.5)"><g id="g12"><g id="g14" clip-path="url(#clipPath16)"><g id="g20" transform="translate(11.9995,37)"><path id="path22" d="M 0,0 C -1.264,0 -2.435,-0.393 -3.402,-1.061 -3.598,-1.031 -3.795,-1 -4,-1 -6.208,-1 -8,-2.791 -8,-5 l 0,-6 c 0,-3.866 3.134,-7 7,-7 3.867,0 7,3.134 7,7 l 0,4.999 C 6,-2.687 3.314,0 0,0" style="fill:#662113;fill-opacity:1;fill-rule:nonzero;stroke:none"/></g><path id="path24" d="m 10,2 -3,0 0,8 3,0 0,-8 z" style="fill:#d79e84;fill-opacity:1;fill-rule:nonzero;stroke:none"/><path id="path26" d="m 15,2 -3,0 0,8 3,0 0,-8 z" style="fill:#d79e84;fill-opacity:1;fill-rule:nonzero;stroke:none"/><path id="path28" d="m 10,9 -3,0 0,1 3,0 0,-1 z" style="fill:#bf6952;fill-opacity:1;fill-rule:nonzero;stroke:none"/><path id="path30" d="m 15,9 -3,0 0,1 3,0 0,-1 z" style="fill:#bf6952;fill-opacity:1;fill-rule:nonzero;stroke:none"/><g id="g32" transform="translate(6,1)"><path id="path34" d="M 0,0 0,1 C 0,1 0,2 2,2 4,2 4,1 4,1 L 4,0 0,0 Z" style="fill:#292f33;fill-opacity:1;fill-rule:nonzero;stroke:none"/></g><g id="g36" transform="translate(12,1)"><path id="path38" d="M 0,0 0,1 C 0,1 0,2 2,2 4,2 4,1 4,1 L 4,0 0,0 Z" style="fill:#292f33;fill-opacity:1;fill-rule:nonzero;stroke:none"/></g><g id="g40" transform="translate(1.999,11)"><path id="path42" d="m 0,0 c -0.164,0 -0.331,0.04 -0.485,0.126 -0.482,0.269 -0.657,0.877 -0.388,1.359 l 5,9.001 c 0.268,0.482 0.876,0.657 1.36,0.388 0.482,-0.268 0.657,-0.877 0.388,-1.36 l -5,-8.999 C 0.692,0.186 0.352,0 0,0" style="fill:#d79e84;fill-opacity:1;fill-rule:nonzero;stroke:none"/></g><g id="g44" transform="translate(20.001,11)"><path id="path46" d="m 0,0 c -0.352,0 -0.692,0.186 -0.875,0.515 l -5,8.999 c -0.269,0.483 -0.094,1.092 0.388,1.36 0.484,0.269 1.092,0.094 1.36,-0.388 l 5,-9.001 C 1.142,1.003 0.968,0.395 0.484,0.126 0.331,0.04 0.164,0 0,0" style="fill:#d79e84;fill-opacity:1;fill-rule:nonzero;stroke:none"/></g><g id="g48" transform="translate(5.0005,10)"><path id="path50" d="m 0,0 12,0 -2,6 0,4 2,0 0,1 c 0,1.104 -0.896,2 -2,2 L 8,13 4,13 2,13 C 0.895,13 0,12.104 0,11 L 0,10 2,10 2,6 0,0 Z" style="fill:#e75a70;fill-opacity:1;fill-rule:nonzero;stroke:none"/></g><path id="path52" d="m 15,16 -8,0 0,2 8,0 0,-2 z" style="fill:#da2f47;fill-opacity:1;fill-rule:nonzero;stroke:none"/><g id="g54" transform="translate(9,26)"><path id="path56" d="m 0,0 0,-4 c 0,-1.104 0.896,-2 2,-2 1.104,0 2,0.896 2,2 L 4,0 0,0 Z" style="fill:#d79e84;fill-opacity:1;fill-rule:nonzero;stroke:none"/></g><g id="g58" transform="translate(13,26)"><path id="path60" d="M 0,0 -4,-0.019 -4,-4 c 0,0 2,-1 4,0 l 0,4 z" style="fill:#bf6952;fill-opacity:1;fill-rule:nonzero;stroke:none"/></g><g id="g62" transform="translate(16,34)"><path id="path64" d="m 0,0 -10,0 0,-6 0,0 c 0,-2.763 2.238,-5 5,-5 2.761,0 5,2.237 5,5 l 0,0 0,6 z" style="fill:#d79e84;fill-opacity:1;fill-rule:nonzero;stroke:none"/></g><g id="g66" transform="translate(9,34)"><path id="path68" d="M 0,0 C 0,0 0,-4 8,-4 L 8,0 0,0 Z" style="fill:#662113;fill-opacity:1;fill-rule:nonzero;stroke:none"/></g><g id="g70" transform="translate(9,34)"><path id="path72" d="m 0,0 c 0,0 0,-4 -4,-4 l 0,4 4,0 z" style="fill:#662113;fill-opacity:1;fill-rule:nonzero;stroke:none"/></g><g id="g74" transform="translate(13,25)"><path id="path76" d="m 0,0 -2,0 -2,0 c 0,0 0,-1 2,-1 2,0 2,1 2,1" style="fill:#c1694f;fill-opacity:1;fill-rule:nonzero;stroke:none"/></g><g id="g78" transform="translate(9,28.5)"><path id="path80" d="M 0,0 C 0,-0.276 -0.224,-0.5 -0.5,-0.5 -0.776,-0.5 -1,-0.276 -1,0 -1,0.276 -0.776,0.5 -0.5,0.5 -0.224,0.5 0,0.276 0,0" style="fill:#664500;fill-opacity:1;fill-rule:nonzero;stroke:none"/></g><g id="g82" transform="translate(14,28.5)"><path id="path84" d="M 0,0 C 0,-0.276 -0.224,-0.5 -0.5,-0.5 -0.776,-0.5 -1,-0.276 -1,0 -1,0.276 -0.776,0.5 -0.5,0.5 -0.224,0.5 0,0.276 0,0" style="fill:#664500;fill-opacity:1;fill-rule:nonzero;stroke:none"/></g><g id="g86" transform="translate(10,27)"><path id="path88" d="M 0,0 1,0 2,0 C 2,0 2,-1 1,-1 0,-1 0,0 0,0" style="fill:#c1694f;fill-opacity:1;fill-rule:nonzero;stroke:none"/></g><g id="g90" transform="translate(27.5,37)"><path id="path92" d="M 0,0 C -1.187,0 -2.282,-0.379 -3.181,-1.018 -5.027,-1.114 -6.5,-2.629 -6.5,-4.5 c 0,-1.542 0.007,-3.484 2.038,-4.208 C -3.464,-10.094 -1.84,-11 0,-11 3.037,-11 5.5,-8.538 5.5,-5.501 5.5,-2.463 3.037,0 0,0" style="fill:#292f33;fill-opacity:1;fill-rule:nonzero;stroke:none"/></g><g id="g94" transform="translate(28,14)"><path id="path96" d="m 0,0 -2,0 -3,0 0,-12 3,0 0,8 2,0 0,-8 3,0 0,12 -3,0 z" style="fill:#664500;fill-opacity:1;fill-rule:nonzero;stroke:none"/></g><g id="g98" transform="translate(22,1)"><path id="path100" d="M 0,0 0,1 C 0,1 0,2 2,2 4,2 4,1 4,1 L 4,0 0,0 Z" style="fill:#292f33;fill-opacity:1;fill-rule:nonzero;stroke:none"/></g><g id="g102" transform="translate(28,1)"><path id="path104" d="M 0,0 0,1 C 0,1 0,2 2,2 4,2 4,1 4,1 L 4,0 0,0 Z" style="fill:#292f33;fill-opacity:1;fill-rule:nonzero;stroke:none"/></g><g id="g106" transform="translate(17.999,11)"><path id="path108" d="m 0,0 c -0.164,0 -0.331,0.04 -0.485,0.126 -0.482,0.269 -0.657,0.877 -0.388,1.359 l 5,9.001 c 0.268,0.482 0.878,0.657 1.359,0.388 0.484,-0.268 0.658,-0.877 0.389,-1.36 l -5,-8.999 C 0.692,0.186 0.352,0 0,0" style="fill:#d79e84;fill-opacity:1;fill-rule:nonzero;stroke:none"/></g><g id="g110" transform="translate(36.001,11)"><path id="path112" d="m 0,0 c -0.352,0 -0.692,0.186 -0.875,0.515 l -5,8.999 c -0.269,0.483 -0.095,1.092 0.389,1.36 0.482,0.269 1.091,0.094 1.359,-0.388 l 5,-9.001 C 1.142,1.003 0.968,0.395 0.484,0.126 0.331,0.04 0.164,0 0,0" style="fill:#d79e84;fill-opacity:1;fill-rule:nonzero;stroke:none"/></g><g id="g114" transform="translate(33,21)"><path id="path116" d="m 0,0 c 0,1.104 -0.896,2 -2,2 l -2,0 -4,0 -2,0 c -1.104,0 -2,-0.896 -2,-2 l 0,-1 2,0 0,-7 8,0 0,7 2,0 0,1 z" style="fill:#4289c1;fill-opacity:1;fill-rule:nonzero;stroke:none"/></g><g id="g118" transform="translate(25,26)"><path id="path120" d="m 0,0 0,-4 c 0,-1.104 0.896,-2 2,-2 1.104,0 2,0.896 2,2 L 4,0 0,0 Z" style="fill:#d79e84;fill-opacity:1;fill-rule:nonzero;stroke:none"/></g><g id="g122" transform="translate(29,26)"><path id="path124" d="M 0,0 -4,-0.019 -4,-4 c 0,0 2,-1 4,0 l 0,4 z" style="fill:#bf6952;fill-opacity:1;fill-rule:nonzero;stroke:none"/></g><g id="g126" transform="translate(32,34)"><path id="path128" d="m 0,0 -10,0 0,-6 0,0 c 0,-2.763 2.238,-5 5,-5 2.762,0 5,2.237 5,5 l 0,0 0,6 z" style="fill:#d79e84;fill-opacity:1;fill-rule:nonzero;stroke:none"/></g><g id="g130" transform="translate(25,34)"><path id="path132" d="m 0,0 -3,0 0,-4 c 2.333,0 2.85,2.412 2.965,3.488 C 0.004,-1.588 0.779,-4 7,-4 L 7,0 0,0 Z" style="fill:#292f33;fill-opacity:1;fill-rule:nonzero;stroke:none"/></g><g id="g134" transform="translate(29,25)"><path id="path136" d="m 0,0 -2,0 -2,0 c 0,0 0,-1 2,-1 2,0 2,1 2,1" style="fill:#c1694f;fill-opacity:1;fill-rule:nonzero;stroke:none"/></g><g id="g138" transform="translate(25,28.5)"><path id="path140" d="M 0,0 C 0,-0.276 -0.224,-0.5 -0.5,-0.5 -0.776,-0.5 -1,-0.276 -1,0 -1,0.276 -0.776,0.5 -0.5,0.5 -0.224,0.5 0,0.276 0,0" style="fill:#664500;fill-opacity:1;fill-rule:nonzero;stroke:none"/></g><g id="g142" transform="translate(30,28.5)"><path id="path144" d="M 0,0 C 0,-0.276 -0.224,-0.5 -0.5,-0.5 -0.776,-0.5 -1,-0.276 -1,0 -1,0.276 -0.776,0.5 -0.5,0.5 -0.224,0.5 0,0.276 0,0" style="fill:#664500;fill-opacity:1;fill-rule:nonzero;stroke:none"/></g><g id="g146" transform="translate(26,27)"><path id="path148" d="M 0,0 1,0 2,0 C 2,0 2,-1 1,-1 0,-1 0,0 0,0" style="fill:#c1694f;fill-opacity:1;fill-rule:nonzero;stroke:none"/></g></g></g></g></svg>