<svg xmlns="http://www.w3.org/2000/svg" xmlns:svg="http://www.w3.org/2000/svg" style="enable-background:new 0 0 47.5 47.5" id="svg2" version="1.1" viewBox="0 0 47.5 47.5" xml:space="preserve"><metadata id="metadata8"/><defs id="defs6"><clipPath id="clipPath16" clipPathUnits="userSpaceOnUse"><path id="path18" d="M 0,38 38,38 38,0 0,0 0,38 Z"/></clipPath></defs><g id="g10" transform="matrix(1.25,0,0,-1.25,0,47.5)"><g id="g12"><g id="g14" clip-path="url(#clipPath16)"><g id="g20" transform="translate(14.062,33.0005)"><path id="path22" d="M 0,0 C 0,2.209 2.211,4 4.938,4 7.666,4 9.875,2.209 9.875,0 9.875,-2.209 7.666,-4 4.938,-4 2.211,-4 0,-2.209 0,0" style="fill:#6d6e71;fill-opacity:1;fill-rule:nonzero;stroke:none"/></g><g id="g24" transform="translate(34,16)"><path id="path26" d="M 0,0 C 0,2.14 -1.053,3.872 -2.373,3.98 -3.745,11.445 -8.87,17 -15,17 -21.13,17 -26.255,11.445 -27.627,3.98 -28.947,3.872 -30,2.14 -30,0 c 0,-2.153 1.066,-3.896 2.399,-3.983 C -26.193,-10.946 -21.094,-15 -15,-15 c 6.094,0 11.193,4.054 12.602,11.017 C -1.066,-3.896 0,-2.153 0,0" style="fill:#d99e82;fill-opacity:1;fill-rule:nonzero;stroke:none"/></g><g id="g28" transform="translate(26,18)"><path id="path30" d="m 0,0 -3,0 c -0.553,0 -1,0.448 -1,1 0,0.552 0.447,1 1,1 L 0,2 C 0.553,2 1,1.552 1,1 1,0.448 0.553,0 0,0" style="fill:#808285;fill-opacity:1;fill-rule:nonzero;stroke:none"/></g><g id="g32" transform="translate(15,18)"><path id="path34" d="m 0,0 -3,0 c -0.552,0 -1,0.448 -1,1 0,0.552 0.448,1 1,1 L 0,2 C 0.552,2 1,1.552 1,1 1,0.448 0.552,0 0,0" style="fill:#808285;fill-opacity:1;fill-rule:nonzero;stroke:none"/></g><g id="g36" transform="translate(19,5.3486)"><path id="path38" d="m 0,0 c -2.519,0 -3.494,0.753 -3.664,0.903 -0.413,0.368 -0.45,0.999 -0.084,1.412 0.355,0.403 0.963,0.45 1.377,0.114 C -2.311,2.39 -1.671,2 0,2 1.751,2 2.37,2.428 2.376,2.433 2.79,2.8 3.402,2.743 3.768,2.332 4.135,1.919 4.077,1.271 3.664,0.903 3.494,0.753 2.519,0 0,0" style="fill:#dd2e44;fill-opacity:1;fill-rule:nonzero;stroke:none"/></g><g id="g40" transform="translate(20,9)"><path id="path42" d="m 0,0 -2,0 c -0.552,0 -1,0.447 -1,1 0,0.553 0.448,1 1,1 L 0,2 C 0.553,2 1,1.553 1,1 1,0.447 0.553,0 0,0" style="fill:#c1694f;fill-opacity:1;fill-rule:nonzero;stroke:none"/></g><g id="g44" transform="translate(24,13)"><path id="path46" d="m 0,0 c -0.553,0 -1,0.447 -1,1 l 0,2 C -1,3.553 -0.553,4 0,4 0.553,4 1,3.553 1,3 L 1,1 C 1,0.447 0.553,0 0,0" style="fill:#662113;fill-opacity:1;fill-rule:nonzero;stroke:none"/></g><g id="g48" transform="translate(14,13)"><path id="path50" d="m 0,0 c -0.552,0 -1,0.447 -1,1 l 0,2 C -1,3.553 -0.552,4 0,4 0.552,4 1,3.553 1,3 L 1,1 C 1,0.447 0.552,0 0,0" style="fill:#662113;fill-opacity:1;fill-rule:nonzero;stroke:none"/></g><g id="g52" transform="translate(34,25.0005)"><path id="path54" d="M 0,0 C -2,7 -8,9 -11.188,9 -13,9 -15,8 -15,8 c 0,0 -2,1 -4,1 -3,0 -9,-2 -11,-9 -1.648,-5.769 2,-11 2,-11 0,3 2,9 7,9 5,0 6,4 6,4 0,0 0.786,-4 5.786,-4 5,0 7.214,-6 7.214,-9 0,0 3.648,5.231 2,11" style="fill:#808285;fill-opacity:1;fill-rule:nonzero;stroke:none"/></g><g id="g56" transform="translate(34,13)"><path id="path58" d="m 0,0 c 0,-0.553 -0.447,-1 -1,-1 -0.553,0 -1,0.447 -1,1 0,0.553 0.447,1 1,1 0.553,0 1,-0.447 1,-1" style="fill:#aa8dd8;fill-opacity:1;fill-rule:nonzero;stroke:none"/></g><g id="g60" transform="translate(6,13)"><path id="path62" d="m 0,0 c 0,0.553 -0.448,1 -1,1 -0.552,0 -1,-0.447 -1,-1 0,-0.553 0.448,-1 1,-1 0.552,0 1,0.447 1,1" style="fill:#aa8dd8;fill-opacity:1;fill-rule:nonzero;stroke:none"/></g></g></g></g></svg>