<svg xmlns="http://www.w3.org/2000/svg" xmlns:svg="http://www.w3.org/2000/svg" style="enable-background:new 0 0 47.5 47.5" id="svg2" version="1.1" viewBox="0 0 47.5 47.5" xml:space="preserve"><metadata id="metadata8"/><g id="g10" transform="matrix(1.25,0,0,-1.25,0,47.5)"><path id="path12" d="m 31,6 -4,0 0,-4 4,0 0,4 z" style="fill:#553986;fill-opacity:1;fill-rule:nonzero;stroke:none"/><path id="path14" d="M 7,2 11,2 11,6 7,6 7,2 Z" style="fill:#553986;fill-opacity:1;fill-rule:nonzero;stroke:none"/><path id="path16" d="m 21,24 4,0 0,-8 -4,0 0,8 z m -4,-8 -4,0 0,8 4,0 0,-8 z m 14,11 -2,0 0,2 -2,0 0,2 -3,0 0,4 -2,0 0,-4 -6,0 0,4 -2,0 0,-4 -3,0 0,-2 -2,0 0,-2 -2,0 0,-7 -4,0 0,-2 4,0 0,-7 4,0 0,-5 5,0 0,5 6,0 0,-5 5,0 0,5 4,0 0,7 4,0 0,2 -4,0 0,7 z" style="fill:#553986;fill-opacity:1;fill-rule:nonzero;stroke:none"/><path id="path18" d="m 35,20 2,0 0,11 -2,0 0,-11 z" style="fill:#553986;fill-opacity:1;fill-rule:nonzero;stroke:none"/><path id="path20" d="M 1,20 3,20 3,31 1,31 1,20 Z" style="fill:#553986;fill-opacity:1;fill-rule:nonzero;stroke:none"/></g></svg>