<svg xmlns="http://www.w3.org/2000/svg" xmlns:svg="http://www.w3.org/2000/svg" style="enable-background:new 0 0 47.5 47.5" id="svg2" version="1.1" viewBox="0 0 47.5 47.5" xml:space="preserve"><metadata id="metadata8"/><defs id="defs6"><clipPath id="clipPath16" clipPathUnits="userSpaceOnUse"><path id="path18" d="M 0,38 38,38 38,0 0,0 0,38 Z"/></clipPath></defs><g id="g10" transform="matrix(1.25,0,0,-1.25,0,47.5)"><g id="g12"><g id="g14" clip-path="url(#clipPath16)"><g id="g20" transform="translate(36,20)"><path id="path22" d="m 0,0 c 0,-9.389 -13.223,-19 -17,-19 -3.778,0 -17,9.611 -17,19 0,9.389 7.611,17 17,17 C -7.611,17 0,9.389 0,0" style="fill:#ccd6dd;fill-opacity:1;fill-rule:nonzero;stroke:none"/></g><g id="g24" transform="translate(14.5029,22.1548)"><path id="path26" d="m 0,0 c 3.124,-3.124 4.39,-6.923 2.828,-8.485 -1.561,-1.562 -5.361,-0.297 -8.485,2.828 -3.125,3.124 -4.391,6.923 -2.828,8.485 C -6.923,4.39 -3.124,3.125 0,0" style="fill:#292f33;fill-opacity:1;fill-rule:nonzero;stroke:none"/></g><g id="g28" transform="translate(23.4971,22.1553)"><path id="path30" d="m 0,0 c -3.124,-3.124 -4.39,-6.923 -2.828,-8.485 1.561,-1.563 5.361,-0.297 8.485,2.828 3.125,3.125 4.391,6.923 2.828,8.485 C 6.923,4.39 3.124,3.125 0,0" style="fill:#292f33;fill-opacity:1;fill-rule:nonzero;stroke:none"/></g><g id="g32" transform="translate(19,6)"><path id="path34" d="m 0,0 c -2.347,0 -3.575,1.16 -3.707,1.293 -0.391,0.391 -0.391,1.023 0,1.414 0.387,0.387 1.013,0.391 1.404,0.01 C -2.251,2.67 -1.497,2 0,2 1.519,2 2.273,2.689 2.305,2.719 2.703,3.093 3.332,3.082 3.713,2.689 4.092,2.297 4.093,1.679 3.707,1.293 3.575,1.16 2.347,0 0,0" style="fill:#292f33;fill-opacity:1;fill-rule:nonzero;stroke:none"/></g></g></g></g></svg>