<svg xmlns="http://www.w3.org/2000/svg" xmlns:svg="http://www.w3.org/2000/svg" style="enable-background:new 0 0 47.5 47.5" id="svg2" version="1.1" viewBox="0 0 47.5 47.5" xml:space="preserve"><metadata id="metadata8"/><defs id="defs6"><clipPath id="clipPath16" clipPathUnits="userSpaceOnUse"><path id="path18" d="M 0,38 38,38 38,0 0,0 0,38 Z"/></clipPath></defs><g id="g10" transform="matrix(1.25,0,0,-1.25,0,47.5)"><g id="g12"><g id="g14" clip-path="url(#clipPath16)"><g id="g20" transform="translate(37,26)"><path id="path22" d="M 0,0 C 0,1.104 -0.896,2 -2,2 -3.104,2 -4,1.104 -4,0 -4,0 -4.011,-3.285 -7,-3.894 L -7,-1 c 0,6.075 -4.925,11 -11,11 -6.075,0 -11,-4.925 -11,-11 l 0,-3.237 c -5.222,-1.569 -7,-7.994 -7,-11.763 0,-1.104 0.896,-2 2,-2 1.104,0 2,0.896 2,2 0,0 0.002,3.54 3.336,3.958 C -28.162,-16.883 -27.046,-22 -25,-22 l 1,0 c 4,0 3,-2 7,-2 4,0 3,2 6,2 3,0 2.395,-2 6,-2 1.657,0 3,1.343 3,3 0,0.675 -2.274,4.994 -3.755,9.268 C -0.019,-10.348 0,-3.58 0,0" style="fill:#e1e8ed;fill-opacity:1;fill-rule:nonzero;stroke:none"/></g><g id="g24" transform="translate(16,25)"><path id="path26" d="m 0,0 c 0,-1.104 -0.896,-2 -2,-2 -1.104,0 -2,0.896 -2,2 0,1.104 0.896,2 2,2 1.104,0 2,-0.896 2,-2" style="fill:#292f33;fill-opacity:1;fill-rule:nonzero;stroke:none"/></g><g id="g28" transform="translate(28,25)"><path id="path30" d="m 0,0 c 0,-2.209 -1.791,-4 -4,-4 -2.209,0 -4,1.791 -4,4 0,2.209 1.791,4 4,4 2.209,0 4,-1.791 4,-4" style="fill:#292f33;fill-opacity:1;fill-rule:nonzero;stroke:none"/></g><g id="g32" transform="translate(26,24)"><path id="path34" d="m 0,0 c 0,-1.104 -0.896,-2 -2,-2 -1.104,0 -2,0.896 -2,2 0,1.104 0.896,2 2,2 1.104,0 2,-0.896 2,-2" style="fill:#9aaab4;fill-opacity:1;fill-rule:nonzero;stroke:none"/></g><g id="g36" transform="translate(23.1924,17.5088)"><path id="path38" d="m 0,0 c 2.65,-1.987 3.591,-5.211 2.1,-7.199 -1.492,-1.989 -4.849,-1.989 -7.5,0 -2.651,1.987 -3.591,5.211 -2.1,7.199 1.491,1.989 4.849,1.988 7.5,0" style="fill:#292f33;fill-opacity:1;fill-rule:nonzero;stroke:none"/></g></g></g></g></svg>