<svg xmlns="http://www.w3.org/2000/svg" xmlns:svg="http://www.w3.org/2000/svg" style="enable-background:new 0 0 47.5 47.5" id="svg2" version="1.1" viewBox="0 0 47.5 47.5" xml:space="preserve"><metadata id="metadata8"/><defs id="defs6"><clipPath id="clipPath16" clipPathUnits="userSpaceOnUse"><path id="path18" d="M 0,38 38,38 38,0 0,0 0,38 Z"/></clipPath></defs><g id="g10" transform="matrix(1.25,0,0,-1.25,0,47.5)"><g id="g12"><g id="g14" clip-path="url(#clipPath16)"><g id="g20" transform="translate(28,1)"><path id="path22" d="M 0,0 0,4 C 0,4 0,8 4,8 8,8 8,4 8,4 L 8,0 0,0 Z" style="fill:#d99e82;fill-opacity:1;fill-rule:nonzero;stroke:none"/></g><g id="g24" transform="translate(19,1)"><path id="path26" d="m 0,0 0,9 c 0,0 0,4 4,4 4,0 4,-4 4,-4 L 8,0 0,0 Z" style="fill:#d99e82;fill-opacity:1;fill-rule:nonzero;stroke:none"/></g><g id="g28" transform="translate(10,1)"><path id="path30" d="m 0,0 0,12 c 0,0 0,4 4,4 4,0 4,-4 4,-4 L 8,0 0,0 Z" style="fill:#d99e82;fill-opacity:1;fill-rule:nonzero;stroke:none"/></g><g id="g32" transform="translate(1,1)"><path id="path34" d="m 0,0 0,9 c 0,0 0,4 4,4 4,0 4,-4 4,-4 L 8,0 0,0 Z" style="fill:#d99e82;fill-opacity:1;fill-rule:nonzero;stroke:none"/></g><g id="g36" transform="translate(17.0005,13)"><path id="path38" d="m 0,0 c 0,1.657 0,8 -3,8 -3,0 -3,-6.343 -3,-8 0,-1.657 1.343,-3 3,-3 1.657,0 3,1.343 3,3" style="fill:#dd2e44;fill-opacity:1;fill-rule:nonzero;stroke:none"/></g><g id="g40" transform="translate(8.0005,10)"><path id="path42" d="m 0,0 c 0,1.657 0,8 -3,8 -3,0 -3,-6.343 -3,-8 0,-1.657 1.343,-3 3,-3 1.657,0 3,1.343 3,3" style="fill:#dd2e44;fill-opacity:1;fill-rule:nonzero;stroke:none"/></g><g id="g44" transform="translate(26,10)"><path id="path46" d="m 0,0 c 0,1.657 0,8 -3,8 -3,0 -3,-6.343 -3,-8 0,-1.657 1.344,-3 3,-3 1.657,0 3,1.343 3,3" style="fill:#dd2e44;fill-opacity:1;fill-rule:nonzero;stroke:none"/></g><g id="g48" transform="translate(35,5)"><path id="path50" d="m 0,0 c 0,1.657 0,8 -3,8 -3,0 -3,-6.343 -3,-8 0,-1.657 1.344,-3 3,-3 1.657,0 3,1.343 3,3" style="fill:#dd2e44;fill-opacity:1;fill-rule:nonzero;stroke:none"/></g><g id="g52" transform="translate(14,21)"><path id="path54" d="m 0,0 0,-4 2,0 c 0,0 2,0 6,4 L 6,2 C 6,2 4,0 0,0" style="fill:#dd2e44;fill-opacity:1;fill-rule:nonzero;stroke:none"/></g><g id="g56" transform="translate(20,23)"><path id="path58" d="M 0,0 8,8 10,6 2,-2 0,0 Z" style="fill:#8899a6;fill-opacity:1;fill-rule:nonzero;stroke:none"/></g><g id="g60" transform="translate(28,31)"><path id="path62" d="M 0,0 C 0,0 -2,2 0,4 L 2,6 9,6 9,1 6,-2 C 4,-4 2,-2 2,-2 L 0,0 Z" style="fill:#8899a6;fill-opacity:1;fill-rule:nonzero;stroke:none"/></g></g></g></g></svg>