<svg xmlns="http://www.w3.org/2000/svg" xmlns:svg="http://www.w3.org/2000/svg" style="enable-background:new 0 0 47.5 47.5" id="svg2" version="1.1" viewBox="0 0 47.5 47.5" xml:space="preserve"><metadata id="metadata8"/><defs id="defs6"><clipPath id="clipPath16" clipPathUnits="userSpaceOnUse"><path id="path18" d="M 0,38 38,38 38,0 0,0 0,38 Z"/></clipPath></defs><g id="g10" transform="matrix(1.25,0,0,-1.25,0,47.5)"><g id="g12"><g id="g14" clip-path="url(#clipPath16)"><g id="g20" transform="translate(31,17.3438)"><path id="path22" d="m 0,0 c 0,-6.627 -5.373,-12 -12,-12 -6.627,0 -12,5.373 -12,12 0,6.628 5.373,12 12,12 C -5.373,12 0,6.628 0,0" style="fill:#642116;fill-opacity:1;fill-rule:nonzero;stroke:none"/></g><g id="g24" transform="translate(21,29)"><path id="path26" d="m 0,0 c 0,-3.866 -3.134,-7 -7,-7 -3.866,0 -7,3.134 -7,7 0,3.866 3.134,7 7,7 3.866,0 7,-3.134 7,-7" style="fill:#642116;fill-opacity:1;fill-rule:nonzero;stroke:none"/></g><g id="g28" transform="translate(9,26)"><path id="path30" d="m 0,0 c 0,-6.075 4.925,-11 11,-11 6.075,0 11,4.925 11,11 C 22,6.075 17.075,11 11,11 4.925,11 0,6.075 0,0" style="fill:#642116;fill-opacity:1;fill-rule:nonzero;stroke:none"/></g><g id="g32" transform="translate(31,17)"><path id="path34" d="M 0,0 -24,0 -24,12 0,9 0,0 Z" style="fill:#642116;fill-opacity:1;fill-rule:nonzero;stroke:none"/></g><g id="g36" transform="translate(28,10)"><path id="path38" d="m 0,0 -1,0 -16,0 -1,0 c -2.209,0 -4,-1.791 -4,-4 l 0,-5 5,0 16,0 5,0 0,5 C 4,-1.791 2.209,0 0,0" style="fill:#9268ca;fill-opacity:1;fill-rule:nonzero;stroke:none"/></g><path id="path40" d="m 28,1 -1,0 0,4 1,0 0,-4 z" style="fill:#7450a8;fill-opacity:1;fill-rule:nonzero;stroke:none"/><path id="path42" d="m 11,1 -1,0 0,4 1,0 0,-4 z" style="fill:#7450a8;fill-opacity:1;fill-rule:nonzero;stroke:none"/><g id="g44" transform="translate(16,15)"><path id="path46" d="m 0,0 0,-6 c 0,-1.657 1.343,-3 3,-3 1.657,0 3,1.343 3,3 L 6,0 0,0 Z" style="fill:#d79e84;fill-opacity:1;fill-rule:nonzero;stroke:none"/></g><g id="g48" transform="translate(15,32)"><path id="path50" d="M 0,0 C 0,0 -0.003,-5.308 -5,-5.936 L -5,-12 c 0,-4.971 4.029,-9 9,-9 4.971,0 9,4.029 9,9 l 0,5.019 C 1.89,-6.605 0,0 0,0" style="fill:#d79e84;fill-opacity:1;fill-rule:nonzero;stroke:none"/></g><g id="g52" transform="translate(21,15)"><path id="path54" d="m 0,0 c 0,-0.553 -0.896,-1 -2,-1 -1.104,0 -2,0.447 -2,1 0,0.553 0.896,1 2,1 1.104,0 2,-0.447 2,-1" style="fill:#bb1a34;fill-opacity:1;fill-rule:nonzero;stroke:none"/></g><g id="g56" transform="translate(16.0054,32.8467)"><path id="path58" d="m 0,0 -3.005,0.693 0,3.46 -4,0 -0.6,-2.4 -2.232,-2.232 -1.168,-2.368 0,-8 c 0,0 0,-1 1,-1 1,0 1,1 1,1 l 0.775,6.385 c 0.6,0.194 1.175,0.515 1.518,0.858 l 2.046,2.046 4.09,-0.942 c 0.69,-0.159 1.379,0.271 1.537,0.961 C 1.121,-0.849 0.689,-0.161 0,0" style="fill:#d79e84;fill-opacity:1;fill-rule:nonzero;stroke:none"/></g><g id="g60" transform="translate(31.832,32.3677)"><path id="path62" d="m 0,0 -2.232,2.232 -0.6,2.4 -4,0 0,-3.46 -3.006,-0.693 c -0.689,-0.161 -1.12,-0.849 -0.961,-1.539 0.158,-0.69 0.848,-1.12 1.537,-0.961 l 4.091,0.942 2.046,-2.046 c 0.343,-0.343 0.917,-0.664 1.519,-0.858 l 0.774,-6.385 c 0,0 0,-1 1,-1 1,0 1,1 1,1 l 0,8 L 0,0 Z" style="fill:#d79e84;fill-opacity:1;fill-rule:nonzero;stroke:none"/></g><g id="g64" transform="translate(20,17.5)"><path id="path66" d="M 0,0 -2,0 C -2.276,0 -2.5,0.224 -2.5,0.5 -2.5,0.776 -2.276,1 -2,1 L 0,1 C 0.276,1 0.5,0.776 0.5,0.5 0.5,0.224 0.276,0 0,0" style="fill:#bf6952;fill-opacity:1;fill-rule:nonzero;stroke:none"/></g><g id="g68" transform="translate(15.9995,20.0161)"><path id="path70" d="m 0,0 -2,0 c -0.552,0 -1,0.448 -1,1 0,0.552 0.448,1 1,1 L 0,2 C 0.552,2 1,1.552 1,1 1,0.448 0.552,0 0,0" style="fill:#292f33;fill-opacity:1;fill-rule:nonzero;stroke:none"/></g><g id="g72" transform="translate(23.999,20.0161)"><path id="path74" d="m 0,0 -1.999,0 c -0.553,0 -1,0.448 -1,1 0,0.552 0.447,1 1,1 L 0,2 C 0.553,2 1,1.552 1,1 1,0.448 0.553,0 0,0" style="fill:#292f33;fill-opacity:1;fill-rule:nonzero;stroke:none"/></g></g></g></g></svg>