<svg xmlns="http://www.w3.org/2000/svg" xmlns:svg="http://www.w3.org/2000/svg" style="enable-background:new 0 0 47.5 47.5" id="svg2" version="1.1" viewBox="0 0 47.5 47.5" xml:space="preserve"><metadata id="metadata8"/><defs id="defs6"><clipPath id="clipPath16" clipPathUnits="userSpaceOnUse"><path id="path18" d="M 0,38 38,38 38,0 0,0 0,38 Z"/></clipPath></defs><g id="g10" transform="matrix(1.25,0,0,-1.25,0,47.5)"><g id="g12"><g id="g14" clip-path="url(#clipPath16)"><g id="g20" transform="translate(35,21)"><path id="path22" d="m 0,0 c 0,10 -7.163,16 -16,16 -8.836,0 -16,-6 -16,-16 0,-5.574 0.002,-10.388 6,-12.64 l 0,-4.36 c 0,-1.657 1.343,-3 3,-3 1.657,0 3,1.343 3,3 l 0,3.155 c 0.324,-0.027 0.659,-0.05 1,-0.07 L -19,-17 c 0,-1.657 1.343,-3 3,-3 1.657,0 3,1.343 3,3 l 0,3.085 c 0.342,0.02 0.676,0.043 1,0.07 L -12,-17 c 0,-1.657 1.344,-3 3,-3 1.657,0 3,1.343 3,3 l 0,4.36 c 5.998,2.252 6,7.066 6,12.64" style="fill:#bcbec0;fill-opacity:1;fill-rule:nonzero;stroke:none"/></g><g id="g24" transform="translate(17,23.0005)"><path id="path26" d="m 0,0 c 0,-2.761 0,-5 -5,-5 -5,0 -5,2.239 -5,5 0,2.761 2.239,5 5,5 2.761,0 5,-2.239 5,-5" style="fill:#414042;fill-opacity:1;fill-rule:nonzero;stroke:none"/></g><g id="g28" transform="translate(31,23.0005)"><path id="path30" d="m 0,0 c 0,-2.761 0,-5 -5,-5 -5,0 -5,2.239 -5,5 0,2.761 2.238,5 5,5 2.762,0 5,-2.239 5,-5" style="fill:#414042;fill-opacity:1;fill-rule:nonzero;stroke:none"/></g><g id="g32" transform="translate(20.9033,13.9385)"><path id="path34" d="m 0,0 c -0.252,0.612 -1.003,1.062 -1.903,1.062 -0.9,0 -1.652,-0.45 -1.904,-1.062 -0.631,-0.177 -1.096,-0.751 -1.096,-1.438 0,-0.829 0.671,-1.5 1.5,-1.5 0.654,0 1.205,0.421 1.41,1.006 0.03,-0.001 0.059,-0.006 0.09,-0.006 0.03,0 0.059,0.005 0.09,0.006 0.205,-0.585 0.755,-1.006 1.41,-1.006 0.828,0 1.5,0.671 1.5,1.5 C 1.097,-0.751 0.631,-0.178 0,0" style="fill:#6d6e71;fill-opacity:1;fill-rule:nonzero;stroke:none"/></g></g></g></g></svg>