<svg xmlns="http://www.w3.org/2000/svg" xmlns:svg="http://www.w3.org/2000/svg" style="enable-background:new 0 0 47.5 47.5" id="svg2" version="1.1" viewBox="0 0 47.5 47.5" xml:space="preserve"><metadata id="metadata8"/><g id="g10" transform="matrix(1.25,0,0,-1.25,0,47.5)"><g id="g12" transform="translate(14,34)"><path id="path14" d="m 0,0 -6,0 -7,-9 10,0 3,9 z" style="fill:#bdddf4;fill-opacity:1;fill-rule:nonzero;stroke:none"/></g><g id="g16" transform="translate(37,25)"><path id="path18" d="m 0,0 -7,9 -6,0 3,-9 10,0 z" style="fill:#5dadec;fill-opacity:1;fill-rule:nonzero;stroke:none"/></g><g id="g20" transform="translate(27,25)"><path id="path22" d="M 0,0 10,0 -8,-21 0,0 Z" style="fill:#4289c1;fill-opacity:1;fill-rule:nonzero;stroke:none"/></g><g id="g24" transform="translate(11,25)"><path id="path26" d="M 0,0 -10,0 8,-21 0,0 Z" style="fill:#8ccaf7;fill-opacity:1;fill-rule:nonzero;stroke:none"/></g><g id="g28" transform="translate(14,34)"><path id="path30" d="M 0,0 -3,-9 13,-9 10,0 0,0 Z" style="fill:#8ccaf7;fill-opacity:1;fill-rule:nonzero;stroke:none"/></g><g id="g32" transform="translate(19,4)"><path id="path34" d="M 0,0 -8,21 8,21 0,0 Z" style="fill:#5dadec;fill-opacity:1;fill-rule:nonzero;stroke:none"/></g></g></svg>