<svg xmlns="http://www.w3.org/2000/svg" xmlns:svg="http://www.w3.org/2000/svg" style="enable-background:new 0 0 47.5 47.5" id="svg2" version="1.1" viewBox="0 0 47.5 47.5" xml:space="preserve"><metadata id="metadata8"/><defs id="defs6"><clipPath id="clipPath16" clipPathUnits="userSpaceOnUse"><path id="path18" d="M 0,38 38,38 38,0 0,0 0,38 Z"/></clipPath><clipPath id="clipPath30" clipPathUnits="userSpaceOnUse"><path id="path32" d="m 12,4 14,0 0,21.001 -14,0 L 12,4 Z"/></clipPath><clipPath id="clipPath62" clipPathUnits="userSpaceOnUse"><path id="path64" d="M 0,38 38,38 38,0 0,0 0,38 Z"/></clipPath></defs><g id="g10" transform="matrix(1.25,0,0,-1.25,0,47.5)"><g id="g12"><g id="g14" clip-path="url(#clipPath16)"><g id="g20" transform="translate(25,31)"><path id="path22" d="m 0,0 c 0,-3.313 -2.687,-6 -6,-6 -3.313,0 -6,2.687 -6,6 0,3.313 2.687,6 6,6 3.313,0 6,-2.687 6,-6" style="fill:#ccd6dd;fill-opacity:1;fill-rule:nonzero;stroke:none"/></g><path id="path24" d="M 26,4 12,4 12,25 26,25 26,4 Z" style="fill:#ccd6dd;fill-opacity:1;fill-rule:nonzero;stroke:none"/></g></g><g id="g26"><g id="g28" clip-path="url(#clipPath30)"><g id="g34" transform="translate(34.1914,15.4902)"><path id="path36" d="m 0,0 -23.368,11.399 1.755,3.596 L 1.754,3.595 0,0 Z" style="fill:#dd2e44;fill-opacity:1;fill-rule:nonzero;stroke:none"/></g><g id="g38" transform="translate(27.1758,1.1094)"><path id="path40" d="m 0,0 -23.367,11.4 1.753,3.595 L 1.754,3.596 0,0 Z" style="fill:#dd2e44;fill-opacity:1;fill-rule:nonzero;stroke:none"/></g><g id="g42" transform="translate(32.4375,11.8945)"><path id="path44" d="m 0,0 -23.367,11.401 1.753,3.594 L 1.754,3.596 0,0 Z" style="fill:#fff;fill-opacity:1;fill-rule:nonzero;stroke:none"/></g><g id="g46" transform="translate(28.9297,4.7051)"><path id="path48" d="m 0,0 -23.368,11.399 1.755,3.596 L 1.754,3.595 0,0 Z" style="fill:#fff;fill-opacity:1;fill-rule:nonzero;stroke:none"/></g><g id="g50" transform="translate(25.4219,-2.4854)"><path id="path52" d="m 0,0 -23.367,11.4 1.754,3.595 L 1.754,3.595 0,0 Z" style="fill:#fff;fill-opacity:1;fill-rule:nonzero;stroke:none"/></g><g id="g54" transform="translate(30.6836,8.2998)"><path id="path56" d="m 0,0 -23.367,11.4 1.754,3.596 L 1.754,3.595 0,0 Z" style="fill:#55acee;fill-opacity:1;fill-rule:nonzero;stroke:none"/></g></g></g><g id="g58"><g id="g60" clip-path="url(#clipPath62)"><g id="g66" transform="translate(28,26)"><path id="path68" d="m 0,0 c 0,-1.104 -0.896,-2 -2,-2 l -14,0 c -1.104,0 -2,0.896 -2,2 0,1.104 0.896,2 2,2 L -2,2 C -0.896,2 0,1.104 0,0" style="fill:#99aab5;fill-opacity:1;fill-rule:nonzero;stroke:none"/></g><g id="g70" transform="translate(28,3)"><path id="path72" d="m 0,0 c 0,-1.104 -0.896,-2 -2,-2 l -14,0 c -1.104,0 -2,0.896 -2,2 0,1.104 0.896,2 2,2 L -2,2 C -0.896,2 0,1.104 0,0" style="fill:#99aab5;fill-opacity:1;fill-rule:nonzero;stroke:none"/></g></g></g></g></svg>