<svg xmlns="http://www.w3.org/2000/svg" xmlns:svg="http://www.w3.org/2000/svg" style="enable-background:new 0 0 47.5 47.5" id="svg2" version="1.1" viewBox="0 0 47.5 47.5" xml:space="preserve"><metadata id="metadata8"/><defs id="defs6"><clipPath id="clipPath16" clipPathUnits="userSpaceOnUse"><path id="path18" d="M 0,38 38,38 38,0 0,0 0,38 Z"/></clipPath></defs><g id="g10" transform="matrix(1.25,0,0,-1.25,0,47.5)"><g id="g12"><g id="g14" clip-path="url(#clipPath16)"><g id="g20" transform="translate(34.207,17.2266)"><path id="path22" d="m 0,0 -8.868,8.855 -13.234,-13.622 8.684,-8.684 10e-4,0.001 c 1.719,-1.716 4.091,-2.777 6.71,-2.777 5.246,0 9.5,4.254 9.5,9.5 C 2.793,-4.099 1.725,-1.72 0,0" style="fill:#bb1a34;fill-opacity:1;fill-rule:nonzero;stroke:none"/></g><g id="g24" transform="translate(16.9214,34.4868)"><path id="path26" d="m 0,0 c -1.692,1.556 -3.942,2.513 -6.421,2.513 -5.247,0 -9.5,-4.253 -9.5,-9.5 0,-2.479 0.958,-4.73 2.513,-6.421 l -0.013,-0.014 8.605,-8.605 L 8.417,-8.405 0,0 Z" style="fill:#fdcb58;fill-opacity:1;fill-rule:nonzero;stroke:none"/></g></g></g></g></svg>