<svg xmlns="http://www.w3.org/2000/svg" xmlns:svg="http://www.w3.org/2000/svg" style="enable-background:new 0 0 47.5 47.5" id="svg2" version="1.1" viewBox="0 0 47.5 47.5" xml:space="preserve"><metadata id="metadata8"/><defs id="defs6"><clipPath id="clipPath16" clipPathUnits="userSpaceOnUse"><path id="path18" d="M 0,38 38,38 38,0 0,0 0,38 Z"/></clipPath></defs><g id="g10" transform="matrix(1.25,0,0,-1.25,0,47.5)"><g id="g12"><g id="g14" clip-path="url(#clipPath16)"><g id="g20" transform="translate(17.522,36.7676)"><path id="path22" d="m 0,0 c 2.246,0 4.832,-1.375 6.703,-3.249 1.873,-1.874 3.775,-3.927 3.775,-5.998 l 0,-17.204 -15.974,-0.031 0,17.133 C -5.589,-7.844 -4.421,0 0,0" style="fill:#ea596e;fill-opacity:1;fill-rule:nonzero;stroke:none"/></g><g id="g24" transform="translate(20,25.6221)"><path id="path26" d="m 0,0 0,-16.622 c 0,-1.105 0.896,0 2,0 l 0,-2 c 1.104,0 2,0.895 2,2 L 4,-0.956 C 2.742,-0.851 1.35,-0.693 0,0" style="fill:#dd2e44;fill-opacity:1;fill-rule:nonzero;stroke:none"/></g><g id="g28" transform="translate(23.0723,33.5454)"><path id="path30" d="m 0,0 c 2.664,-2.391 4.277,-5.236 2.961,-6.699 -1.315,-1.464 -5.06,-0.991 -7.721,1.4 -2.661,2.39 -3.753,5.515 -2.439,6.978 C -5.883,3.143 -2.661,2.391 0,0" style="fill:#f4abba;fill-opacity:1;fill-rule:nonzero;stroke:none"/></g><g id="g32" transform="translate(31,3)"><path id="path34" d="m 0,0 c 0,-1.104 -0.896,-2 -2,-2 l -18,0 c -1.104,0 -2,0.896 -2,2 l 0,6 c 0,1.104 0.896,2 2,2 L -2,8 C -0.896,8 0,7.104 0,6 L 0,0 Z" style="fill:#ffcc4d;fill-opacity:1;fill-rule:nonzero;stroke:none"/></g><g id="g36" transform="translate(32,3)"><path id="path38" d="m 0,0 c 0,-1.104 -0.896,-2 -2,-2 l -20,0 c -1.104,0 -2,0.896 -2,2 l 0,1 c 0,1.104 0.896,2 2,2 L -2,3 C -0.896,3 0,2.104 0,1 L 0,0 Z" style="fill:#ffac33;fill-opacity:1;fill-rule:nonzero;stroke:none"/></g></g></g></g></svg>