<svg xmlns="http://www.w3.org/2000/svg" xmlns:svg="http://www.w3.org/2000/svg" style="enable-background:new 0 0 47.5 47.5" id="svg2" version="1.1" viewBox="0 0 47.5 47.5" xml:space="preserve"><metadata id="metadata8"/><defs id="defs6"><clipPath id="clipPath16" clipPathUnits="userSpaceOnUse"><path id="path18" d="M 0,38 38,38 38,0 0,0 0,38 Z"/></clipPath></defs><g id="g10" transform="matrix(1.25,0,0,-1.25,0,47.5)"><g id="g12"><g id="g14" clip-path="url(#clipPath16)"><g id="g20" transform="translate(15,37)"><path id="path22" d="M 0,0 C -1.721,0 -3.343,-0.406 -4.793,-1.111 -5.186,-1.042 -5.588,-1 -6,-1 c -3.866,0 -7,-3.134 -7,-7 l 0,-12 0.018,0 c 0.183,-6.467 5.471,-11.656 11.982,-11.656 6.511,0 11.799,5.189 11.982,11.656 l 0.018,0 0,9 C 11,-4.925 6.075,0 0,0" style="fill:#642116;fill-opacity:1;fill-rule:nonzero;stroke:none"/></g><g id="g24" transform="translate(23,10)"><path id="path26" d="m 0,0 -1,0 -16,0 -1,0 c -2.209,0 -4,-1.791 -4,-4 l 0,-5 5,0 16,0 5,0 0,5 C 4,-1.791 2.209,0 0,0" style="fill:#9268ca;fill-opacity:1;fill-rule:nonzero;stroke:none"/></g><path id="path28" d="m 23,1 -1,0 0,4 1,0 0,-4 z" style="fill:#7450a8;fill-opacity:1;fill-rule:nonzero;stroke:none"/><path id="path30" d="M 6,1 5,1 5,5 6,5 6,1 Z" style="fill:#7450a8;fill-opacity:1;fill-rule:nonzero;stroke:none"/><g id="g32" transform="translate(11,15)"><path id="path34" d="m 0,0 0,-6 c 0,-1.657 1.343,-3 3,-3 1.657,0 3,1.343 3,3 L 6,0 0,0 Z" style="fill:#d79e84;fill-opacity:1;fill-rule:nonzero;stroke:none"/></g><g id="g36" transform="translate(10,32)"><path id="path38" d="M 0,0 C 0,0 -0.003,-5.308 -5,-5.936 L -5,-12 c 0,-4.971 4.029,-9 9,-9 4.971,0 9,4.029 9,9 l 0,5.019 C 1.89,-6.605 0,0 0,0" style="fill:#d79e84;fill-opacity:1;fill-rule:nonzero;stroke:none"/></g><g id="g40" transform="translate(18,15)"><path id="path42" d="m 0,0 -4,0 -4,0 c 0,0 1,-2 4,-2 3,0 4,2 4,2" style="fill:#bb1a34;fill-opacity:1;fill-rule:nonzero;stroke:none"/></g><g id="g44" transform="translate(30,1)"><path id="path46" d="M 0,0 -7,0 -6,17 0,17 0,0 Z" style="fill:#9268ca;fill-opacity:1;fill-rule:nonzero;stroke:none"/></g><g id="g48" transform="translate(32.541,21.5566)"><path id="path50" d="m 0,0 c -0.144,0.693 -0.822,1.139 -1.517,0.997 l -2.674,-0.554 -2.35,0 c -1.105,0 -2,-0.895 -2,-2 l 0,-1 0,-1 5,0 c 1.079,0 1.953,0.857 1.992,1.927 l 0.355,0.073 0.653,0 c 0,0.075 -0.028,0.144 -0.045,0.217 C -0.142,-1.065 0.112,-0.542 0,0" style="fill:#bf6952;fill-opacity:1;fill-rule:nonzero;stroke:none"/></g><g id="g52" transform="translate(37,21)"><path id="path54" d="m 0,0 c 0,0.552 -0.447,1 -1,1 l -6,-1 -5,0 c -0.553,0 -1,-0.448 -1,-1 l 0,-2 2,0 4,0 6,2 c 0,0 1,0.447 1,1" style="fill:#d79e84;fill-opacity:1;fill-rule:nonzero;stroke:none"/></g><g id="g56" transform="translate(15,17.5)"><path id="path58" d="M 0,0 -2,0 C -2.276,0 -2.5,0.224 -2.5,0.5 -2.5,0.776 -2.276,1 -2,1 L 0,1 C 0.276,1 0.5,0.776 0.5,0.5 0.5,0.224 0.276,0 0,0" style="fill:#bf6952;fill-opacity:1;fill-rule:nonzero;stroke:none"/></g><g id="g60" transform="translate(10,21)"><path id="path62" d="m 0,0 c -0.552,0 -1,0.448 -1,1 l 0,1 C -1,2.552 -0.552,3 0,3 0.552,3 1,2.552 1,2 L 1,1 C 1,0.448 0.552,0 0,0" style="fill:#292f33;fill-opacity:1;fill-rule:nonzero;stroke:none"/></g><g id="g64" transform="translate(18,21)"><path id="path66" d="m 0,0 c -0.552,0 -1,0.448 -1,1 l 0,1 C -1,2.552 -0.552,3 0,3 0.552,3 1,2.552 1,2 L 1,1 C 1,0.448 0.552,0 0,0" style="fill:#292f33;fill-opacity:1;fill-rule:nonzero;stroke:none"/></g></g></g></g></svg>