<svg xmlns="http://www.w3.org/2000/svg" xmlns:svg="http://www.w3.org/2000/svg" style="enable-background:new 0 0 47.5 47.5" id="svg2" version="1.1" viewBox="0 0 47.5 47.5" xml:space="preserve"><metadata id="metadata8"/><defs id="defs6"><clipPath id="clipPath16" clipPathUnits="userSpaceOnUse"><path id="path18" d="M 0,38 38,38 38,0 0,0 0,38 Z"/></clipPath></defs><g id="g10" transform="matrix(1.25,0,0,-1.25,0,47.5)"><g id="g12"><g id="g14" clip-path="url(#clipPath16)"><g id="g20" transform="translate(14.5889,10.4785)"><path id="path22" d="m 0,0 c -0.297,0.495 -0.284,1.117 0.035,1.599 l 4.395,6.645 -5.995,5.139 c -0.556,0.476 -0.686,1.283 -0.31,1.91 l 4.304,7.173 c -1.669,1.301 -3.755,2.09 -6.035,2.09 -5.45,0 -9.868,-4.418 -9.868,-9.868 0,-0.772 0.098,-1.52 0.266,-2.241 1.371,-8.512 10.835,-17.494 17.619,-19.96 0.026,0.009 0.052,0.023 0.077,0.033 L 0,0 Z" style="fill:#e75a70;fill-opacity:1;fill-rule:nonzero;stroke:none"/></g><g id="g24" transform="translate(27.0176,35.0342)"><path id="path26" d="m 0,0 c -2.765,0 -5.248,-1.151 -7.037,-2.983 l -4.043,-6.737 6.039,-5.176 c 0.574,-0.492 0.691,-1.334 0.274,-1.965 l -4.603,-6.962 4.161,-6.935 c 6.338,3.529 13.621,11.263 14.809,18.649 0.17,0.721 0.267,1.469 0.267,2.241 C 9.867,-4.417 5.449,0 0,0" style="fill:#e75a70;fill-opacity:1;fill-rule:nonzero;stroke:none"/></g></g></g></g></svg>