<svg xmlns="http://www.w3.org/2000/svg" xmlns:svg="http://www.w3.org/2000/svg" style="enable-background:new 0 0 47.5 47.5" id="svg2" version="1.1" viewBox="0 0 47.5 47.5" xml:space="preserve"><metadata id="metadata8"/><defs id="defs6"><clipPath id="clipPath20" clipPathUnits="userSpaceOnUse"><path id="path22" d="M 0,38 38,38 38,0 0,0 0,38 Z"/></clipPath></defs><g id="g10" transform="matrix(1.25,0,0,-1.25,0,47.5)"><g id="g12" transform="translate(27.3438,25.186)"><path id="path14" d="M 0,0 -2.156,2.157 3.5,7.814 5.656,5.657 0,0 Z" style="fill:#ccd6dd;fill-opacity:1;fill-rule:nonzero;stroke:none"/></g><g id="g16"><g id="g18" clip-path="url(#clipPath20)"><g id="g24" transform="translate(29,15)"><path id="path26" d="m 0,0 c 0,-7.731 -6.269,-14 -14,-14 -7.732,0 -14,6.269 -14,14 0,7.732 6.268,14 14,14 C -6.269,14 0,7.732 0,0" style="fill:#292f33;fill-opacity:1;fill-rule:nonzero;stroke:none"/></g><g id="g28" transform="translate(25.6563,20)"><path id="path30" d="M 0,0 -5.656,5.657 0,11.314 5.656,5.657 0,0 Z" style="fill:#292f33;fill-opacity:1;fill-rule:nonzero;stroke:none"/></g><g id="g32" transform="translate(37,33)"><path id="path34" d="m 0,0 c 0,-2.209 -1.791,-4 -4,-4 -2.209,0 -4,1.791 -4,4 0,2.209 1.791,4 4,4 2.209,0 4,-1.791 4,-4" style="fill:#f18f26;fill-opacity:1;fill-rule:nonzero;stroke:none"/></g><g id="g36" transform="translate(35,33)"><path id="path38" d="m 0,0 c 0,-1.104 -0.896,-2 -2,-2 -1.104,0 -2,0.896 -2,2 0,1.104 0.896,2 2,2 1.104,0 2,-0.896 2,-2" style="fill:#fdcb58;fill-opacity:1;fill-rule:nonzero;stroke:none"/></g></g></g></g></svg>