<svg xmlns="http://www.w3.org/2000/svg" xmlns:svg="http://www.w3.org/2000/svg" style="enable-background:new 0 0 47.5 47.5" id="svg2" version="1.1" viewBox="0 0 47.5 47.5" xml:space="preserve"><metadata id="metadata8"/><defs id="defs6"><clipPath id="clipPath16" clipPathUnits="userSpaceOnUse"><path id="path18" d="M 0,38 38,38 38,0 0,0 0,38 Z"/></clipPath></defs><g id="g10" transform="matrix(1.25,0,0,-1.25,0,47.5)"><g id="g12"><g id="g14" clip-path="url(#clipPath16)"><g id="g20" transform="translate(36,25)"><path id="path22" d="m 0,0 c 0,3.866 -3.134,7 -7,7 -1.167,0 -2.265,-0.29 -3.232,-0.794 -2.082,2.827 -5.425,4.669 -9.206,4.669 -5.132,0 -9.474,-3.38 -10.922,-8.036 C -33.018,2.222 -35,-0.155 -35,-3 c 0,-2.979 2.174,-5.445 5.021,-5.913 0.216,-3.949 3.477,-7.087 7.479,-7.087 2.176,0 4.13,0.933 5.5,2.413 1.37,-1.48 3.323,-2.413 5.5,-2.413 4.143,0 7.5,3.357 7.5,7.5 0,0.71 -0.105,1.394 -0.289,2.045 C -1.77,-5.396 0,-2.905 0,0" style="fill:#bdddf4;fill-opacity:1;fill-rule:nonzero;stroke:none"/></g><g id="g24" transform="translate(8,6)"><path id="path26" d="m 0,0 c 0,-1.657 -1.343,-3 -3,-3 -1.657,0 -3,1.343 -3,3 0,1.657 1.343,3 3,3 1.657,0 3,-1.343 3,-3" style="fill:#bdddf4;fill-opacity:1;fill-rule:nonzero;stroke:none"/></g></g></g></g></svg>