<svg xmlns="http://www.w3.org/2000/svg" xmlns:svg="http://www.w3.org/2000/svg" style="enable-background:new 0 0 47.5 47.5" id="svg2" version="1.1" viewBox="0 0 47.5 47.5" xml:space="preserve"><metadata id="metadata8"/><defs id="defs6"><clipPath id="clipPath16" clipPathUnits="userSpaceOnUse"><path id="path18" d="M 0,38 38,38 38,0 0,0 0,38 Z"/></clipPath><clipPath id="clipPath40" clipPathUnits="userSpaceOnUse"><path id="path42" d="M 8.237,26.364 2.006,20.132 c -0.626,-0.625 -0.626,-1.639 0,-2.265 l 0,0 6.231,-6.231 c 0.626,-0.625 1.64,-0.625 2.266,0 l 0,0 6.231,6.231 c 0.626,0.626 0.626,1.64 0,2.265 l 0,0 -6.231,6.232 C 10.19,26.677 9.78,26.833 9.37,26.833 l 0,0 c -0.41,0 -0.82,-0.156 -1.133,-0.469"/></clipPath><clipPath id="clipPath52" clipPathUnits="userSpaceOnUse"><path id="path54" d="m 17.867,16.735 -6.231,-6.232 c -0.626,-0.625 -0.626,-1.642 0,-2.265 l 0,0 6.231,-6.232 c 0.625,-0.625 1.641,-0.625 2.266,0 l 0,0 6.232,6.232 c 0.624,0.623 0.624,1.64 0,2.265 l 0,0 -6.232,6.232 C 19.82,17.046 19.41,17.202 19,17.202 l 0,0 c -0.41,0 -0.82,-0.156 -1.133,-0.467"/></clipPath><clipPath id="clipPath64" clipPathUnits="userSpaceOnUse"><path id="path66" d="m 27.497,26.364 -6.232,-6.232 c -0.624,-0.625 -0.624,-1.639 0,-2.265 l 0,0 6.232,-6.231 c 0.625,-0.625 1.641,-0.625 2.266,0 l 0,0 6.231,6.231 c 0.625,0.626 0.625,1.64 0,2.265 l 0,0 -6.231,6.232 c -0.312,0.313 -0.722,0.469 -1.133,0.469 l 0,0 c -0.41,0 -0.82,-0.156 -1.133,-0.469"/></clipPath><clipPath id="clipPath76" clipPathUnits="userSpaceOnUse"><path id="path78" d="m 17.867,35.994 -6.231,-6.231 c -0.626,-0.626 -0.626,-1.64 0,-2.266 l 0,0 6.231,-6.232 c 0.625,-0.625 1.641,-0.625 2.266,0 l 0,0 6.232,6.232 c 0.624,0.626 0.624,1.64 0,2.266 l 0,0 -6.232,6.231 C 19.82,36.307 19.41,36.464 19,36.464 l 0,0 c -0.41,0 -0.82,-0.157 -1.133,-0.47"/></clipPath><clipPath id="clipPath88" clipPathUnits="userSpaceOnUse"><path id="path90" d="M 0,38 38,38 38,0 0,0 0,38 Z"/></clipPath></defs><g id="g10" transform="matrix(1.25,0,0,-1.25,0,47.5)"><g id="g12"><g id="g14" clip-path="url(#clipPath16)"><g id="g20" transform="translate(17.8672,21.2656)"><path id="path22" d="m 0,0 c 0.625,-0.626 1.64,-0.626 2.266,0 l 6.231,6.231 c 0.625,0.626 0.625,1.64 0,2.266 L 2.266,14.729 C 1.64,15.354 0.625,15.354 0,14.729 L -6.231,8.497 c -0.626,-0.626 -0.626,-1.64 0,-2.266 L 0,0 Z" style="fill:#55acee;fill-opacity:1;fill-rule:nonzero;stroke:none"/></g><g id="g24" transform="translate(35.9941,20.1323)"><path id="path26" d="m 0,0 -6.231,6.231 c -0.624,0.626 -1.641,0.626 -2.266,0 L -14.729,0 c -0.625,-0.626 -0.625,-1.639 0,-2.265 l 6.232,-6.232 c 0.625,-0.625 1.642,-0.625 2.266,0 L 0,-2.265 C 0.625,-1.639 0.625,-0.626 0,0" style="fill:#55acee;fill-opacity:1;fill-rule:nonzero;stroke:none"/></g><g id="g28" transform="translate(20.1328,16.7344)"><path id="path30" d="m 0,0 c -0.625,0.624 -1.64,0.624 -2.266,0 l -6.231,-6.231 c -0.626,-0.625 -0.626,-1.642 0,-2.266 l 6.231,-6.232 c 0.626,-0.625 1.641,-0.625 2.266,0 l 6.231,6.232 c 0.625,0.624 0.625,1.641 0,2.266 L 0,0 Z" style="fill:#55acee;fill-opacity:1;fill-rule:nonzero;stroke:none"/></g><g id="g32" transform="translate(16.7339,20.1323)"><path id="path34" d="m 0,0 -6.231,6.231 c -0.626,0.626 -1.64,0.626 -2.266,0 L -14.728,0 c -0.626,-0.626 -0.626,-1.639 0,-2.265 l 6.231,-6.232 c 0.626,-0.625 1.64,-0.625 2.266,0 L 0,-2.265 C 0.626,-1.639 0.626,-0.626 0,0" style="fill:#55acee;fill-opacity:1;fill-rule:nonzero;stroke:none"/></g></g></g><g id="g36"><g id="g38" clip-path="url(#clipPath40)"><g id="g44" transform="translate(26,19)"><path id="path46" d="m 0,0 c 0,-3.866 -3.134,-7 -7,-7 -3.866,0 -7,3.134 -7,7 0,3.866 3.134,7 7,7 3.866,0 7,-3.134 7,-7" style="fill:#3b88c3;fill-opacity:1;fill-rule:nonzero;stroke:none"/></g></g></g><g id="g48"><g id="g50" clip-path="url(#clipPath52)"><g id="g56" transform="translate(26,19)"><path id="path58" d="m 0,0 c 0,-3.866 -3.134,-7 -7,-7 -3.866,0 -7,3.134 -7,7 0,3.866 3.134,7 7,7 3.866,0 7,-3.134 7,-7" style="fill:#3b88c3;fill-opacity:1;fill-rule:nonzero;stroke:none"/></g></g></g><g id="g60"><g id="g62" clip-path="url(#clipPath64)"><g id="g68" transform="translate(26,19)"><path id="path70" d="m 0,0 c 0,-3.866 -3.134,-7 -7,-7 -3.866,0 -7,3.134 -7,7 0,3.866 3.134,7 7,7 3.866,0 7,-3.134 7,-7" style="fill:#3b88c3;fill-opacity:1;fill-rule:nonzero;stroke:none"/></g></g></g><g id="g72"><g id="g74" clip-path="url(#clipPath76)"><g id="g80" transform="translate(26,19)"><path id="path82" d="m 0,0 c 0,-3.866 -3.134,-7 -7,-7 -3.866,0 -7,3.134 -7,7 0,3.866 3.134,7 7,7 3.866,0 7,-3.134 7,-7" style="fill:#3b88c3;fill-opacity:1;fill-rule:nonzero;stroke:none"/></g></g></g><g id="g84"><g id="g86" clip-path="url(#clipPath88)"><g id="g92" transform="translate(24,19)"><path id="path94" d="m 0,0 c 0,-2.762 -2.238,-5 -5,-5 -2.761,0 -5,2.238 -5,5 0,2.761 2.239,5 5,5 2.762,0 5,-2.239 5,-5" style="fill:#bbddf5;fill-opacity:1;fill-rule:nonzero;stroke:none"/></g></g></g></g></svg>