<svg xmlns="http://www.w3.org/2000/svg" xmlns:svg="http://www.w3.org/2000/svg" style="enable-background:new 0 0 47.5 47.5" id="svg2" version="1.1" viewBox="0 0 47.5 47.5" xml:space="preserve"><metadata id="metadata8"/><defs id="defs6"><clipPath id="clipPath16" clipPathUnits="userSpaceOnUse"><path id="path18" d="M 0,38 38,38 38,0 0,0 0,38 Z"/></clipPath></defs><g id="g10" transform="matrix(1.25,0,0,-1.25,0,47.5)"><g id="g12"><g id="g14" clip-path="url(#clipPath16)"><g id="g20" transform="translate(13.4302,15)"><path id="path22" d="M 0,0 C 0,0 -0.717,3.641 0.298,10.874 1.698,10.419 3.112,10 3.57,10 c 0.999,0 4,1 4,2 0,1 -1,2 -1,2 l 2,1 c 1,1 0,7 -4,7 -7,0 -9.57,-7 -9.57,-7 l 0.007,-0.011 -0.007,0 c 0,0 -6,-10.989 -6,-20 0.065,0 -1,-5 0,-6 1,-1 5,-1 5,-1 C 4,-16 22.57,-13 22.57,-4 22.57,9 3,6 0,0" style="fill:#d99e82;fill-opacity:1;fill-rule:nonzero;stroke:none"/></g><g id="g24" transform="translate(20.4941,4.748)"><path id="path26" d="m 0,0 c -3.178,0 -5.793,1.283 -5.941,1.357 -0.494,0.247 -0.693,0.846 -0.448,1.34 0.246,0.494 0.845,0.696 1.341,0.45 0.042,-0.02 4.24,-2.06 7.956,-0.64 2.055,0.785 3.625,2.507 4.669,5.116 0.205,0.515 0.791,0.763 1.3,0.558 C 9.39,7.976 9.64,7.394 9.435,6.881 8.172,3.726 6.212,1.623 3.607,0.633 2.393,0.171 1.158,0 0,0" style="fill:#bf6952;fill-opacity:1;fill-rule:nonzero;stroke:none"/></g></g></g></g></svg>