<svg xmlns="http://www.w3.org/2000/svg" xmlns:svg="http://www.w3.org/2000/svg" style="enable-background:new 0 0 47.5 47.5" id="svg2" version="1.1" viewBox="0 0 47.5 47.5" xml:space="preserve"><metadata id="metadata8"/><defs id="defs6"><clipPath id="clipPath16" clipPathUnits="userSpaceOnUse"><path id="path18" d="M 0,38 38,38 38,0 0,0 0,38 Z"/></clipPath></defs><g id="g10" transform="matrix(1.25,0,0,-1.25,0,47.5)"><g id="g12"><g id="g14" clip-path="url(#clipPath16)"><g id="g20" transform="translate(30,25.9399)"><path id="path22" d="m 0,0 c 0,-6.439 -5,-7.439 -5,-13.44 0,-3.098 -3.123,-3.359 -5.5,-3.359 -2.053,0 -6.586,0.779 -6.586,3.361 0,5.999 -4.914,6.999 -4.914,13.438 0,6.031 5.285,10.92 11.083,10.92 C -5.117,10.92 0,6.031 0,0" style="fill:#ffd983;fill-opacity:1;fill-rule:nonzero;stroke:none"/></g><g id="g24" transform="translate(23.167,4.5)"><path id="path26" d="m 0,0 c 0,-0.828 -2.234,-2.5 -4.167,-2.5 -1.933,0 -4.166,1.672 -4.166,2.5 0,0.828 2.233,0.5 4.166,0.5 C -2.234,0.5 0,0.828 0,0" style="fill:#ccd6dd;fill-opacity:1;fill-rule:nonzero;stroke:none"/></g><g id="g28" transform="translate(23.707,26.707)"><path id="path30" d="M 0,0 C -0.391,0.391 -1.023,0.391 -1.414,0 L -4.707,-3.293 -8,0 c -0.391,0.391 -1.023,0.391 -1.414,0 -0.391,-0.391 -0.391,-1.023 0,-1.414 l 3.707,-3.707 0,-10.586 c 0,-0.553 0.448,-1 1,-1 0.552,0 1,0.447 1,1 l 0,10.586 L 0,-1.414 C 0.391,-1.023 0.391,-0.391 0,0" style="fill:#ffcc4d;fill-opacity:1;fill-rule:nonzero;stroke:none"/></g><g id="g32" transform="translate(25,6)"><path id="path34" d="m 0,0 c 0,-1.104 -0.896,-2 -2,-2 l -8,0 c -1.104,0 -2,0.896 -2,2 l 0,6 12,0 0,-6 z" style="fill:#99aab5;fill-opacity:1;fill-rule:nonzero;stroke:none"/></g><g id="g36" transform="translate(12.999,5)"><path id="path38" d="m 0,0 c -0.48,0 -0.904,0.347 -0.985,0.836 -0.091,0.544 0.277,1.06 0.821,1.15 l 12.001,2 c 0.544,0.098 1.059,-0.277 1.15,-0.822 0.091,-0.544 -0.277,-1.06 -0.822,-1.15 l -11.999,-2 C 0.11,0.004 0.054,0 0,0" style="fill:#ccd6dd;fill-opacity:1;fill-rule:nonzero;stroke:none"/></g><g id="g40" transform="translate(12.999,9)"><path id="path42" d="m 0,0 c -0.48,0 -0.904,0.347 -0.985,0.836 -0.091,0.544 0.277,1.06 0.821,1.15 l 12.001,2 c 0.544,0.097 1.059,-0.277 1.15,-0.822 0.091,-0.544 -0.277,-1.06 -0.822,-1.15 l -11.999,-2 C 0.11,0.004 0.054,0 0,0" style="fill:#ccd6dd;fill-opacity:1;fill-rule:nonzero;stroke:none"/></g></g></g></g></svg>