<svg xmlns="http://www.w3.org/2000/svg" xmlns:svg="http://www.w3.org/2000/svg" style="enable-background:new 0 0 47.5 47.5" id="svg2" version="1.1" viewBox="0 0 47.5 47.5" xml:space="preserve"><metadata id="metadata8"/><defs id="defs6"><clipPath id="clipPath16" clipPathUnits="userSpaceOnUse"><path id="path18" d="M 0,38 38,38 38,0 0,0 0,38 Z"/></clipPath></defs><g id="g10" transform="matrix(1.25,0,0,-1.25,0,47.5)"><g id="g12"><g id="g14" clip-path="url(#clipPath16)"><g id="g20" transform="translate(12,10)"><path id="path22" d="m 0,0 c 0,-1.104 -0.896,-2 -2,-2 -1.104,0 -2,0.896 -2,2 l 0,11 c 0,1.104 0.896,2 2,2 1.104,0 2,-0.896 2,-2 L 0,0 Z" style="fill:#9aaab4;fill-opacity:1;fill-rule:nonzero;stroke:none"/></g><g id="g24" transform="translate(32,10)"><path id="path26" d="m 0,0 c 0,-1.104 -0.896,-2 -2,-2 -1.104,0 -2,0.896 -2,2 l 0,11 c 0,1.104 0.896,2 2,2 1.104,0 2,-0.896 2,-2 L 0,0 Z" style="fill:#9aaab4;fill-opacity:1;fill-rule:nonzero;stroke:none"/></g><g id="g28" transform="translate(30,3)"><path id="path30" d="m 0,0 c 0,-1.104 -0.896,-2 -2,-2 -1.104,0 -2,0.896 -2,2 l 0,6 c 0,1.104 0.896,2 2,2 1.104,0 2,-0.896 2,-2 L 0,0 Z" style="fill:#67757f;fill-opacity:1;fill-rule:nonzero;stroke:none"/></g><g id="g32" transform="translate(14,3)"><path id="path34" d="m 0,0 c 0,-1.104 -0.896,-2 -2,-2 -1.104,0 -2,0.896 -2,2 l 0,6 c 0,1.104 0.896,2 2,2 1.104,0 2,-0.896 2,-2 L 0,0 Z" style="fill:#67757f;fill-opacity:1;fill-rule:nonzero;stroke:none"/></g><g id="g36" transform="translate(30,19)"><path id="path38" d="m 0,0 c 0,-2.209 -1.791,-4 -4,-4 l -12,0 c -2.209,0 -4,1.791 -4,4 l 0,14 c 0,2.209 1.791,4 4,4 l 12,0 c 2.209,0 4,-1.791 4,-4 L 0,0 Z" style="fill:#4289c1;fill-opacity:1;fill-rule:nonzero;stroke:none"/></g><path id="path40" d="m 24,29 -8,0 0,8 8,0 0,-8 z" style="fill:#e1e8ed;fill-opacity:1;fill-rule:nonzero;stroke:none"/><g id="g42" transform="translate(12,22)"><path id="path44" d="m 0,0 c 0,-1.104 -0.896,-2 -2,-2 l -2,0 c -1.104,0 -2,0.896 -2,2 0,1.104 0.896,2 2,2 l 2,0 C -0.896,2 0,1.104 0,0" style="fill:#ccd6dd;fill-opacity:1;fill-rule:nonzero;stroke:none"/></g><g id="g46" transform="translate(34,22)"><path id="path48" d="m 0,0 c 0,-1.104 -0.896,-2 -2,-2 l -2,0 c -1.104,0 -2,0.896 -2,2 0,1.104 0.896,2 2,2 l 2,0 C -0.896,2 0,1.104 0,0" style="fill:#ccd6dd;fill-opacity:1;fill-rule:nonzero;stroke:none"/></g><g id="g50" transform="translate(30,14)"><path id="path52" d="m 0,0 c 0,-1.657 -1.343,-3 -3,-3 l -14,0 c -1.657,0 -3,1.343 -3,3 0,1.657 1.343,3 3,3 L -3,3 C -1.343,3 0,1.657 0,0" style="fill:#5dadec;fill-opacity:1;fill-rule:nonzero;stroke:none"/></g><path id="path54" d="m 30,8 -20,0 0,6 20,0 0,-6 z" style="fill:#2a6797;fill-opacity:1;fill-rule:nonzero;stroke:none"/></g></g></g></svg>