<svg xmlns="http://www.w3.org/2000/svg" xmlns:svg="http://www.w3.org/2000/svg" style="enable-background:new 0 0 47.5 47.5" id="svg2" version="1.1" viewBox="0 0 47.5 47.5" xml:space="preserve"><metadata id="metadata8"/><defs id="defs6"><clipPath id="clipPath16" clipPathUnits="userSpaceOnUse"><path id="path18" d="M 0,38 38,38 38,0 0,0 0,38 Z"/></clipPath></defs><g id="g10" transform="matrix(1.25,0,0,-1.25,0,47.5)"><g id="g12"><g id="g14" clip-path="url(#clipPath16)"><g id="g20" transform="translate(37,15)"><path id="path22" d="m 0,0 c 0,-2.209 -1.791,-4 -4,-4 l -28,0 c -2.209,0 -4,1.791 -4,4 l 0,18 c 0,2.209 1.791,4 4,4 l 28,0 c 2.209,0 4,-1.791 4,-4 L 0,0 Z" style="fill:#ccd6dd;fill-opacity:1;fill-rule:nonzero;stroke:none"/></g><path id="path24" d="M 33,15 5,15 5,33 33,33 33,15 Z" style="fill:#5dadec;fill-opacity:1;fill-rule:nonzero;stroke:none"/><path id="path26" d="m 24,5 -10,0 0,6 10,0 0,-6 z" style="fill:#ccd6dd;fill-opacity:1;fill-rule:nonzero;stroke:none"/><path id="path28" d="m 24,9 -10,0 0,2 10,0 0,-2 z" style="fill:#9aaab4;fill-opacity:1;fill-rule:nonzero;stroke:none"/><g id="g30" transform="translate(37,4)"><path id="path32" d="m 0,0 c 0,1.657 -1.343,3 -3,3 l -30,0 c -1.657,0 -3,-1.343 -3,-3 0,-1.657 1.343,-3 3,-3 l 30,0 c 1.657,0 3,1.343 3,3" style="fill:#e1e8ed;fill-opacity:1;fill-rule:nonzero;stroke:none"/></g><path id="path34" d="M 6,3 4,3 4,5 6,5 6,3 Z" style="fill:#f5f8fa;fill-opacity:1;fill-rule:nonzero;stroke:none"/><path id="path36" d="M 10,3 8,3 8,5 10,5 10,3 Z" style="fill:#f5f8fa;fill-opacity:1;fill-rule:nonzero;stroke:none"/><path id="path38" d="m 14,3 -2,0 0,2 2,0 0,-2 z" style="fill:#f5f8fa;fill-opacity:1;fill-rule:nonzero;stroke:none"/><path id="path40" d="m 18,3 -2,0 0,2 2,0 0,-2 z" style="fill:#f5f8fa;fill-opacity:1;fill-rule:nonzero;stroke:none"/><path id="path42" d="m 22,3 -2,0 0,2 2,0 0,-2 z" style="fill:#f5f8fa;fill-opacity:1;fill-rule:nonzero;stroke:none"/><path id="path44" d="m 26,3 -2,0 0,2 2,0 0,-2 z" style="fill:#f5f8fa;fill-opacity:1;fill-rule:nonzero;stroke:none"/><path id="path46" d="m 30,3 -2,0 0,2 2,0 0,-2 z" style="fill:#f5f8fa;fill-opacity:1;fill-rule:nonzero;stroke:none"/><path id="path48" d="m 34,3 -2,0 0,2 2,0 0,-2 z" style="fill:#f5f8fa;fill-opacity:1;fill-rule:nonzero;stroke:none"/></g></g></g></svg>