<svg xmlns="http://www.w3.org/2000/svg" xmlns:svg="http://www.w3.org/2000/svg" style="enable-background:new 0 0 47.5 47.5" id="svg2" version="1.1" viewBox="0 0 47.5 47.5" xml:space="preserve"><metadata id="metadata8"/><defs id="defs6"><clipPath id="clipPath16" clipPathUnits="userSpaceOnUse"><path id="path18" d="M 0,38 38,38 38,0 0,0 0,38 Z"/></clipPath></defs><g id="g10" transform="matrix(1.25,0,0,-1.25,0,47.5)"><g id="g12"><g id="g14" clip-path="url(#clipPath16)"><g id="g20" transform="translate(5,1)"><path id="path22" d="m 0,0 c 0,0 -4,0 -4,4 l 0,28 c 0,0 0,4 4,4 l 26,0 c 1,0 2,-1 2,-1 l 3,-3 c 0,0 1,-1 1,-2 L 32,4 C 32,4 32,0 28,0 L 0,0 Z" style="fill:#292f33;fill-opacity:1;fill-rule:nonzero;stroke:none"/></g><g id="g24" transform="translate(6,18)"><path id="path26" d="m 0,0 0,1 c 0,0 0,2 2,2 l 21,0 c 2,0 2,-2 2,-2 L 25,0 0,0 Z" style="fill:#55acee;fill-opacity:1;fill-rule:nonzero;stroke:none"/></g><g id="g28" transform="translate(6,4.9785)"><path id="path30" d="m 0,0 0,13.021 25,0 0,-13 c 0,0 0,-2 -2,-2 l -21,0 C 0,-1.979 0,0 0,0" style="fill:#e1e8ed;fill-opacity:1;fill-rule:nonzero;stroke:none"/></g><path id="path32" d="m 23,24 5,0 0,10 -5,0 0,-10 z M 11,34 c 0,0 0,1 1,1 l 18,0 c 1.048,0 1,-1 1,-1 l 0,-10 c 0,0 0,-1 -1,-1 l -18,0 c 0,0 -1,0 -1,1 l 0,10 z" style="fill:#e1e8ed;fill-opacity:1;fill-rule:nonzero;stroke:none"/></g></g></g></svg>