<svg xmlns="http://www.w3.org/2000/svg" xmlns:svg="http://www.w3.org/2000/svg" style="enable-background:new 0 0 47.5 47.5" id="svg2" version="1.1" viewBox="0 0 47.5 47.5" xml:space="preserve"><metadata id="metadata8"/><defs id="defs6"><clipPath id="clipPath16" clipPathUnits="userSpaceOnUse"><path id="path18" d="M 0,38 38,38 38,0 0,0 0,38 Z"/></clipPath></defs><g id="g10" transform="matrix(1.25,0,0,-1.25,0,47.5)"><g id="g12"><g id="g14" clip-path="url(#clipPath16)"><g id="g20" transform="translate(33,3)"><path id="path22" d="m 0,0 c 0,-1.104 -0.896,-2 -2,-2 l -24,0 c -1.104,0 -2,0.896 -2,2 l 0,27 c 0,1.104 0.896,2 2,2 l 24,0 c 1.104,0 2,-0.896 2,-2 L 0,0 Z" style="fill:#c1694f;fill-opacity:1;fill-rule:nonzero;stroke:none"/></g><g id="g24" transform="translate(30,5)"><path id="path26" d="m 0,0 c 0,-0.553 -0.447,-1 -1,-1 l -20,0 c -0.552,0 -1,0.447 -1,1 l 0,23 c 0,0.552 0.448,1 1,1 l 20,0 c 0.553,0 1,-0.448 1,-1 L 0,0 Z" style="fill:#fff;fill-opacity:1;fill-rule:nonzero;stroke:none"/></g><g id="g28" transform="translate(26,34)"><path id="path30" d="m 0,0 -4,0 c 0,1.657 -1.343,3 -3,3 -1.657,0 -3,-1.343 -3,-3 l -4,0 c -1.104,0 -2,-0.896 -2,-2 l 0,-5 18,0 0,5 C 2,-0.896 1.104,0 0,0" style="fill:#ccd6dd;fill-opacity:1;fill-rule:nonzero;stroke:none"/></g><g id="g32" transform="translate(21,34)"><path id="path34" d="m 0,0 c 0,-1.104 -0.896,-2 -2,-2 -1.104,0 -2,0.896 -2,2 0,1.104 0.896,2 2,2 1.104,0 2,-0.896 2,-2" style="fill:#292f33;fill-opacity:1;fill-rule:nonzero;stroke:none"/></g><g id="g36" transform="translate(21,23)"><path id="path38" d="m 0,0 c 0,-0.552 -0.447,-1 -1,-1 l -9,0 c -0.552,0 -1,0.448 -1,1 0,0.552 0.448,1 1,1 l 9,0 C -0.447,1 0,0.552 0,0" style="fill:#99aab5;fill-opacity:1;fill-rule:nonzero;stroke:none"/></g><g id="g40" transform="translate(28,19)"><path id="path42" d="m 0,0 c 0,-0.552 -0.447,-1 -1,-1 l -16,0 c -0.552,0 -1,0.448 -1,1 0,0.552 0.448,1 1,1 L -1,1 C -0.447,1 0,0.552 0,0" style="fill:#99aab5;fill-opacity:1;fill-rule:nonzero;stroke:none"/></g><g id="g44" transform="translate(28,15)"><path id="path46" d="m 0,0 c 0,-0.553 -0.447,-1 -1,-1 l -16,0 c -0.552,0 -1,0.447 -1,1 0,0.553 0.448,1 1,1 L -1,1 C -0.447,1 0,0.553 0,0" style="fill:#99aab5;fill-opacity:1;fill-rule:nonzero;stroke:none"/></g><g id="g48" transform="translate(28,11)"><path id="path50" d="m 0,0 c 0,-0.553 -0.447,-1 -1,-1 l -16,0 c -0.552,0 -1,0.447 -1,1 0,0.553 0.448,1 1,1 L -1,1 C -0.447,1 0,0.553 0,0" style="fill:#99aab5;fill-opacity:1;fill-rule:nonzero;stroke:none"/></g><g id="g52" transform="translate(28,7)"><path id="path54" d="m 0,0 c 0,-0.553 -0.447,-1 -1,-1 l -9,0 c -0.552,0 -1,0.447 -1,1 0,0.553 0.448,1 1,1 l 9,0 C -0.447,1 0,0.553 0,0" style="fill:#99aab5;fill-opacity:1;fill-rule:nonzero;stroke:none"/></g></g></g></g></svg>