<svg xmlns="http://www.w3.org/2000/svg" xmlns:svg="http://www.w3.org/2000/svg" style="enable-background:new 0 0 47.5 47.5" id="svg2" version="1.1" viewBox="0 0 47.5 47.5" xml:space="preserve"><metadata id="metadata8"/><defs id="defs6"><clipPath id="clipPath16" clipPathUnits="userSpaceOnUse"><path id="path18" d="M 0,38 38,38 38,0 0,0 0,38 Z"/></clipPath></defs><g id="g10" transform="matrix(1.25,0,0,-1.25,0,47.5)"><g id="g12"><g id="g14" clip-path="url(#clipPath16)"><g id="g20" transform="translate(23,2.5)"><path id="path22" d="m 0,0 c 0,-0.828 -1.791,-1.5 -4,-1.5 -2.209,0 -4,0.672 -4,1.5 0,0.828 1.791,1.5 4,1.5 2.209,0 4,-0.672 4,-1.5" style="fill:#292f33;fill-opacity:1;fill-rule:nonzero;stroke:none"/></g><g id="g24" transform="translate(19.002,25.5103)"><path id="path26" d="m 0,0 c 0,0 -3.663,11.825 -3.663,0.765 10e-4,-11.06 2.555,-24.273 3.662,-24.275 1.106,-10e-4 3.66,13.215 3.66,24.275 C 3.659,11.826 0,0 0,0" style="fill:#99aab5;fill-opacity:1;fill-rule:nonzero;stroke:none"/></g><g id="g28" transform="translate(27,29)"><path id="path30" d="m 0,0 c 0,-4.418 -3.582,-8 -8,-8 -4.418,0 -8,3.582 -8,8 0,4.418 3.582,8 8,8 4.418,0 8,-3.582 8,-8" style="fill:#dd2e44;fill-opacity:1;fill-rule:nonzero;stroke:none"/></g></g></g></g></svg>