<svg xmlns="http://www.w3.org/2000/svg" xmlns:svg="http://www.w3.org/2000/svg" style="enable-background:new 0 0 47.5 47.5" id="svg2" version="1.1" viewBox="0 0 47.5 47.5" xml:space="preserve"><metadata id="metadata8"/><defs id="defs6"><clipPath id="clipPath16" clipPathUnits="userSpaceOnUse"><path id="path18" d="M 0,38 38,38 38,0 0,0 0,38 Z"/></clipPath></defs><g id="g10" transform="matrix(1.25,0,0,-1.25,0,47.5)"><g id="g12"><g id="g14" clip-path="url(#clipPath16)"><g id="g20" transform="translate(31.0205,2.7363)"><path id="path22" d="m 0,0 c -1.563,-1.563 -4.095,-1.562 -5.656,0 l -22.628,22.627 c -1.562,1.562 -1.563,4.094 0,5.658 l 4.242,4.242 c 1.563,1.562 4.096,1.562 5.658,0 L 4.242,9.899 C 5.805,8.337 5.805,5.804 4.243,4.243 L 0,0 Z" style="fill:#ffcc4d;fill-opacity:1;fill-rule:nonzero;stroke:none"/></g><g id="g24" transform="translate(10.5146,30.3135)"><path id="path26" d="m 0,0 c -0.391,-0.39 -1.023,-0.39 -1.414,0 -0.39,0.391 -0.39,1.024 0,1.415 L 2.122,4.95 C 2.607,4.464 3.049,4.022 3.536,3.536 L 0,0 Z" style="fill:#292f33;fill-opacity:1;fill-rule:nonzero;stroke:none"/></g><g id="g28" transform="translate(16.1714,28.8994)"><path id="path30" d="m 0,0 c -0.39,-0.391 -1.023,-0.391 -1.414,0 -0.391,0.391 -0.391,1.024 0,1.414 L 0,2.829 C 0.486,2.342 0.928,1.9 1.415,1.414 L 0,0 Z" style="fill:#292f33;fill-opacity:1;fill-rule:nonzero;stroke:none"/></g><g id="g32" transform="translate(17.5859,23.2427)"><path id="path34" d="m 0,0 c -0.391,-0.391 -1.024,-0.391 -1.415,0 -0.39,0.391 -0.39,1.024 0,1.414 L 2.121,4.95 C 2.607,4.463 3.05,4.021 3.535,3.535 L 0,0 Z" style="fill:#292f33;fill-opacity:1;fill-rule:nonzero;stroke:none"/></g><g id="g36" transform="translate(23.2422,21.8286)"><path id="path38" d="m 0,0 c -0.39,-0.391 -1.022,-0.391 -1.413,0 -0.392,0.391 -0.391,1.024 0,1.414 L 0.001,2.829 C 0.486,2.342 0.929,1.9 1.415,1.414 L 0,0 Z" style="fill:#292f33;fill-opacity:1;fill-rule:nonzero;stroke:none"/></g><g id="g40" transform="translate(24.6572,16.1719)"><path id="path42" d="M 0,0 C -0.391,-0.391 -1.023,-0.392 -1.414,0 -1.805,0.391 -1.805,1.023 -1.415,1.414 L 2.121,4.949 C 2.607,4.463 3.05,4.021 3.535,3.535 L 0,0 Z" style="fill:#292f33;fill-opacity:1;fill-rule:nonzero;stroke:none"/></g><g id="g44" transform="translate(31.7275,9.1006)"><path id="path46" d="M 0,0 C -0.39,-0.391 -1.023,-0.391 -1.413,0 -1.805,0.391 -1.805,1.023 -1.414,1.414 L 2.122,4.949 3.536,3.535 0,0 Z" style="fill:#292f33;fill-opacity:1;fill-rule:nonzero;stroke:none"/></g><g id="g48" transform="translate(30.3135,14.7578)"><path id="path50" d="m 0,0 c -0.391,-0.391 -1.022,-0.391 -1.414,-0.001 -0.391,0.391 -0.39,1.023 0,1.414 L 0.001,2.827 1.414,1.414 0,0 Z" style="fill:#292f33;fill-opacity:1;fill-rule:nonzero;stroke:none"/></g></g></g></g></svg>