<svg xmlns="http://www.w3.org/2000/svg" xmlns:svg="http://www.w3.org/2000/svg" style="enable-background:new 0 0 47.5 47.5" id="svg2" version="1.1" viewBox="0 0 47.5 47.5" xml:space="preserve"><metadata id="metadata8"/><defs id="defs6"><clipPath id="clipPath16" clipPathUnits="userSpaceOnUse"><path id="path18" d="M 0,38 38,38 38,0 0,0 0,38 Z"/></clipPath></defs><g id="g10" transform="matrix(1.25,0,0,-1.25,0,47.5)"><g id="g12"><g id="g14" clip-path="url(#clipPath16)"><g id="g20" transform="translate(33,30)"><path id="path22" d="m 0,0 -28,0 c -2.209,0 -4,-1.791 -4,-4 l 0,-15 c 0,-2.209 1.791,-4 4,-4 l 11.416,0 c 0.52,-0.596 1.477,-1 2.584,-1 1.107,0 2.064,0.404 2.584,1 L 0,-23 c 2.209,0 4,1.791 4,4 L 4,-4 C 4,-1.791 2.209,0 0,0" style="fill:#269;fill-opacity:1;fill-rule:nonzero;stroke:none"/></g><g id="g24" transform="translate(21,10)"><path id="path26" d="m 0,0 c 0,-1.104 -0.896,-2 -2,-2 -1.104,0 -2,0.896 -2,2 l 0,18 c 0,1.104 0.896,2 2,2 1.104,0 2,-0.896 2,-2 L 0,0 Z" style="fill:#292f33;fill-opacity:1;fill-rule:nonzero;stroke:none"/></g><g id="g28" transform="translate(19,11)"><path id="path30" d="m 0,0 c 0,-1.104 -0.896,-2 -2,-2 l -12,0 c -1.104,0 -2,0.896 -2,2 l 0,18 c 0,1.104 0.896,2 2,2 l 12,0 c 1.104,0 2,-0.896 2,-2 L 0,0 Z" style="fill:#99aab5;fill-opacity:1;fill-rule:nonzero;stroke:none"/></g><g id="g32" transform="translate(19,11)"><path id="path34" d="m 0,0 c -0.999,1.998 -3.657,2 -4,2 -2,0 -5,-2 -8,-2 -1,0 -2,0.896 -2,2 l 0,16 c 0,1.104 1,2 2,2 3.255,0 6,2 8,2 3,0 4,-1.896 4,-3 L 0,0 Z" style="fill:#e1e8ed;fill-opacity:1;fill-rule:nonzero;stroke:none"/></g><g id="g36" transform="translate(35,11)"><path id="path38" d="m 0,0 c 0,-1.104 -0.896,-2 -2,-2 l -12,0 c -1.104,0 -2,0.896 -2,2 l 0,18 c 0,1.104 0.896,2 2,2 l 12,0 c 1.104,0 2,-0.896 2,-2 L 0,0 Z" style="fill:#99aab5;fill-opacity:1;fill-rule:nonzero;stroke:none"/></g><g id="g40" transform="translate(19,11)"><path id="path42" d="m 0,0 c 0.999,1.998 3.657,2 4,2 2,0 5,-2 8,-2 1,0 2,0.896 2,2 l 0,16 c 0,1.104 -1,2 -2,2 C 8.744,20 6,22 4,22 1,22 0,20.104 0,19 L 0,0 Z" style="fill:#ccd6dd;fill-opacity:1;fill-rule:nonzero;stroke:none"/></g></g></g></g></svg>