<svg xmlns="http://www.w3.org/2000/svg" xmlns:svg="http://www.w3.org/2000/svg" style="enable-background:new 0 0 47.5 47.5" id="svg2" version="1.1" viewBox="0 0 47.5 47.5" xml:space="preserve"><metadata id="metadata8"/><defs id="defs6"><clipPath id="clipPath16" clipPathUnits="userSpaceOnUse"><path id="path18" d="M 0,38 38,38 38,0 0,0 0,38 Z"/></clipPath></defs><g id="g10" transform="matrix(1.25,0,0,-1.25,0,47.5)"><g id="g12"><g id="g14" clip-path="url(#clipPath16)"><g id="g20" transform="translate(31.415,27.4136)"><path id="path22" d="m 0,0 0,0 -9,9 c -0.361,0.362 -0.862,0.586 -1.415,0.586 -1.104,0 -1.999,-0.896 -2,-1.999 0,-0.552 0.224,-1.053 0.586,-1.415 l -3.859,-3.859 9,-9 3.859,3.859 c 0.362,-0.362 0.862,-0.586 1.414,-0.586 1.104,0 2.001,0.896 2,2 C 0.585,-0.861 0.361,-0.362 0,0" style="fill:#e1e8ed;fill-opacity:1;fill-rule:nonzero;stroke:none"/></g><g id="g24" transform="translate(21,37)"><path id="path26" d="m 0,0 -15,0 c -2.209,0 -4,-1.791 -4,-4 l 0,-28 c 0,-2.209 1.791,-4 4,-4 l 22,0 c 2.209,0 4,1.791 4,4 l 0,21 -9,0 c -1,0 -2,1 -2,2 l 0,9 z" style="fill:#ccd6dd;fill-opacity:1;fill-rule:nonzero;stroke:none"/></g><g id="g28" transform="translate(21,37)"><path id="path30" d="m 0,0 -2,0 0,-9 c 0,-2.209 1.791,-4 4,-4 l 9,0 0,2 -9,0 c -1,0 -2,1 -2,2 l 0,9 z" style="fill:#99aab5;fill-opacity:1;fill-rule:nonzero;stroke:none"/></g><g id="g32" transform="translate(16,29)"><path id="path34" d="m 0,0 c 0,-0.552 -0.448,-1 -1,-1 l -8,0 c -0.552,0 -1,0.448 -1,1 0,0.552 0.448,1 1,1 l 8,0 C -0.448,1 0,0.552 0,0" style="fill:#99aab5;fill-opacity:1;fill-rule:nonzero;stroke:none"/></g><g id="g36" transform="translate(16,25)"><path id="path38" d="m 0,0 c 0,-0.552 -0.448,-1 -1,-1 l -8,0 c -0.552,0 -1,0.448 -1,1 0,0.552 0.448,1 1,1 l 8,0 C -0.448,1 0,0.552 0,0" style="fill:#99aab5;fill-opacity:1;fill-rule:nonzero;stroke:none"/></g><g id="g40" transform="translate(28,21)"><path id="path42" d="m 0,0 c 0,-0.552 -0.447,-1 -1,-1 l -20,0 c -0.552,0 -1,0.448 -1,1 0,0.552 0.448,1 1,1 L -1,1 C -0.447,1 0,0.552 0,0" style="fill:#99aab5;fill-opacity:1;fill-rule:nonzero;stroke:none"/></g><g id="g44" transform="translate(28,17)"><path id="path46" d="m 0,0 c 0,-0.553 -0.447,-1 -1,-1 l -20,0 c -0.552,0 -1,0.447 -1,1 0,0.553 0.448,1 1,1 L -1,1 C -0.447,1 0,0.553 0,0" style="fill:#99aab5;fill-opacity:1;fill-rule:nonzero;stroke:none"/></g><g id="g48" transform="translate(28,13)"><path id="path50" d="m 0,0 c 0,-0.553 -0.447,-1 -1,-1 l -20,0 c -0.552,0 -1,0.447 -1,1 0,0.553 0.448,1 1,1 L -1,1 C -0.447,1 0,0.553 0,0" style="fill:#99aab5;fill-opacity:1;fill-rule:nonzero;stroke:none"/></g><g id="g52" transform="translate(28,9)"><path id="path54" d="m 0,0 c 0,-0.553 -0.447,-1 -1,-1 l -20,0 c -0.552,0 -1,0.447 -1,1 0,0.553 0.448,1 1,1 L -1,1 C -0.447,1 0,0.553 0,0" style="fill:#99aab5;fill-opacity:1;fill-rule:nonzero;stroke:none"/></g><g id="g56" transform="translate(32,18)"><path id="path58" d="m 0,0 c 0,0 -5.906,0.002 -5.935,0 -0.291,0 -0.91,-0.174 -1.254,-0.606 l -2.329,-2.929 c -0.643,-0.81 -0.643,-2.119 0,-2.93 l 2.329,-2.929 C -6.845,-9.826 -6.226,-10 -5.935,-10 c 0.019,-0.002 3.547,0 5.935,0 L 0,0 Z" style="fill:#66757f;fill-opacity:1;fill-rule:nonzero;stroke:none"/></g><g id="g60" transform="translate(34,18)"><path id="path62" d="m 0,0 c 0,0 -8.056,0.002 -8.084,0 -0.291,0 -0.91,-0.139 -1.255,-0.485 l -2.328,-2.342 c -0.644,-0.648 -0.644,-1.695 0,-2.344 l 2.328,-2.342 C -8.994,-7.859 -8.375,-8 -8.084,-8 -8.056,-8.002 0,-8 0,-8 c 1.104,0 2,0.897 2,2.001 L 2,-2 C 2,-0.896 1.104,0 0,0" style="fill:#744eaa;fill-opacity:1;fill-rule:nonzero;stroke:none"/></g></g></g></g></svg>