<svg xmlns="http://www.w3.org/2000/svg" xmlns:svg="http://www.w3.org/2000/svg" style="enable-background:new 0 0 47.5 47.5" id="svg2" version="1.1" viewBox="0 0 47.5 47.5" xml:space="preserve"><metadata id="metadata8"/><defs id="defs6"><clipPath id="clipPath16" clipPathUnits="userSpaceOnUse"><path id="path18" d="M 0,38 38,38 38,0 0,0 0,38 Z"/></clipPath></defs><g id="g10" transform="matrix(1.25,0,0,-1.25,0,47.5)"><g id="g12"><g id="g14" clip-path="url(#clipPath16)"><g id="g20" transform="translate(35.0596,10.5928)"><path id="path22" d="m 0,0 -3.496,3.496 c -1.93,1.93 -5.06,1.93 -6.989,0 -0.719,-0.718 -1.167,-1.602 -1.352,-2.528 -5.765,1.078 -11.372,6.662 -11.721,11.653 0.948,0.176 1.854,0.628 2.587,1.36 1.93,1.931 1.93,5.061 0,6.991 l -3.495,3.495 c -1.93,1.93 -5.06,1.93 -6.99,0 C -41.941,13.981 -10.485,-17.475 0,-6.989 1.93,-5.06 1.93,-1.93 0,0" style="fill:#292f33;fill-opacity:1;fill-rule:nonzero;stroke:none"/></g></g></g></g></svg>