<svg xmlns="http://www.w3.org/2000/svg" xmlns:svg="http://www.w3.org/2000/svg" style="enable-background:new 0 0 47.5 47.5" id="svg2" version="1.1" viewBox="0 0 47.5 47.5" xml:space="preserve"><metadata id="metadata8"/><defs id="defs6"><clipPath id="clipPath16" clipPathUnits="userSpaceOnUse"><path id="path18" d="M 0,38 38,38 38,0 0,0 0,38 Z"/></clipPath></defs><g id="g10" transform="matrix(1.25,0,0,-1.25,0,47.5)"><g id="g12"><g id="g14" clip-path="url(#clipPath16)"><g id="g20" transform="translate(29.3027,34.4238)"><path id="path22" d="m 0,0 c -0.449,0.317 -1.018,0.173 -1.263,-0.319 l -2.594,-5.21 C -4.103,-6.021 -4.553,-6.05 -4.858,-5.593 l -4.889,7.309 c -0.306,0.457 -0.806,0.457 -1.112,0 l -4.888,-7.309 c -0.306,-0.457 -0.756,-0.428 -1.002,0.064 l -2.593,5.21 c -0.245,0.492 -0.814,0.636 -1.263,0.319 0,0 -7.698,-5.424 -7.698,-17.424 0,-7.732 8.059,-16 18,-16 9.942,0 18,8.268 18,16 C 7.697,-5.424 0,0 0,0" style="fill:#dd2e44;fill-opacity:1;fill-rule:nonzero;stroke:none"/></g><g id="g24" transform="translate(33,14)"><path id="path26" d="m 0,0 c 0,-1.104 -0.896,-2 -2,-2 l -24,0 c -1.104,0 -2,0.896 -2,2 l 0,7 c 0,1.104 0.896,2 2,2 L -2,9 C -0.896,9 0,8.104 0,7 L 0,0 Z" style="fill:#f5f8fa;fill-opacity:1;fill-rule:nonzero;stroke:none"/></g></g></g></g></svg>