<svg xmlns="http://www.w3.org/2000/svg" xmlns:svg="http://www.w3.org/2000/svg" style="enable-background:new 0 0 47.5 47.5" id="svg2" version="1.1" viewBox="0 0 47.5 47.5" xml:space="preserve"><metadata id="metadata8"/><defs id="defs6"><clipPath id="clipPath16" clipPathUnits="userSpaceOnUse"><path id="path18" d="M 0,38 38,38 38,0 0,0 0,38 Z"/></clipPath></defs><g id="g10" transform="matrix(1.25,0,0,-1.25,0,47.5)"><g id="g12"><g id="g14" clip-path="url(#clipPath16)"><g id="g20" transform="translate(16,6)"><path id="path22" d="m 0,0 c 0,-2.209 -0.791,-4 -3,-4 l -7,0 c -4,0 -4,14 0,14 l 7,0 C -0.791,10 0,8.209 0,6 L 0,0 Z" style="fill:#553788;fill-opacity:1;fill-rule:nonzero;stroke:none"/></g><g id="g24" transform="translate(35,4)"><path id="path26" d="m 0,0 -1,0 0,10 1,0 c 0.553,0 1,0.447 1,1 0,0.553 -0.447,1 -1,1 l -24,0 c -4,0 -4,-14 0,-14 l 24,0 c 0.553,0 1,0.447 1,1 0,0.553 -0.447,1 -1,1" style="fill:#9266cc;fill-opacity:1;fill-rule:nonzero;stroke:none"/></g><g id="g28" transform="translate(35.1719,4)"><path id="path30" d="m 0,0 -23.172,0 c -2,0 -2,10 0,10 L 0,10 C 1.104,10 1.104,0 0,0" style="fill:#ccd6dd;fill-opacity:1;fill-rule:nonzero;stroke:none"/></g><g id="g32" transform="translate(12.5,12)"><path id="path34" d="M 0,0 23.35,0 C 23.215,1.175 22.989,2 22.672,2 L -0.5,2 C -2.151,2 -2.438,-4.808 -1.363,-7.187 -1.755,-4.229 -1.301,0 0,0" style="fill:#99aab5;fill-opacity:1;fill-rule:nonzero;stroke:none"/></g><g id="g36" transform="translate(13,29)"><path id="path38" d="m 0,0 c 0,-2.209 -1.791,-4 -4,-4 l -4,0 c -4,0 -4,11 0,11 l 4,0 C -1.791,7 0,5.209 0,3 L 0,0 Z" style="fill:#269;fill-opacity:1;fill-rule:nonzero;stroke:none"/></g><g id="g40" transform="translate(32,27)"><path id="path42" d="m 0,0 -1,0 0,7 1,0 C 0.553,7 1,7.447 1,8 1,8.553 0.553,9 0,9 l -24,0 c -4,0 -4,-11 0,-11 l 24,0 c 0.553,0 1,0.447 1,1 0,0.553 -0.447,1 -1,1" style="fill:#55acee;fill-opacity:1;fill-rule:nonzero;stroke:none"/></g><g id="g44" transform="translate(32.1719,27)"><path id="path46" d="m 0,0 -23.172,0 c -2,0 -2,7 0,7 L 0,7 C 1.104,7 1.104,0 0,0" style="fill:#ccd6dd;fill-opacity:1;fill-rule:nonzero;stroke:none"/></g><g id="g48" transform="translate(9,32)"><path id="path50" d="M 0,0 23.925,0 C 23.811,1.125 23.561,2 23.172,2 L 0,2 C -1.193,2 -1.669,-0.489 -1.438,-2.5 -1.282,-1.142 -0.807,0 0,0" style="fill:#99aab5;fill-opacity:1;fill-rule:nonzero;stroke:none"/></g><g id="g52" transform="translate(21,20)"><path id="path54" d="m 0,0 c 0,-2.209 -1.791,-4 -4,-4 l -10,0 c -4,0 -4,9 0,9 L -4,5 C -1.791,5 0,3.209 0,1 L 0,0 Z" style="fill:#f4900c;fill-opacity:1;fill-rule:nonzero;stroke:none"/></g><g id="g56" transform="translate(36,18)"><path id="path58" d="m 0,0 -1,0 0,5 1,0 C 0.553,5 1,5.447 1,6 1,6.553 0.553,7 0,7 l -20,0 c -4,0 -4,-9 0,-9 l 20,0 c 0.553,0 1,0.447 1,1 0,0.553 -0.447,1 -1,1" style="fill:#ffac33;fill-opacity:1;fill-rule:nonzero;stroke:none"/></g><g id="g60" transform="translate(36.1719,18)"><path id="path62" d="m 0,0 -19.172,0 c -2,0 -2,5 0,5 L 0,5 C 1.104,5 1.104,0 0,0" style="fill:#ccd6dd;fill-opacity:1;fill-rule:nonzero;stroke:none"/></g><g id="g64" transform="translate(17,21)"><path id="path66" d="M 0,0 19.984,0 C 19.92,1.062 19.65,2 19.172,2 L 0,2 C -1.274,2 -1.733,-0.027 -1.383,-1.5 -1.185,-0.661 -0.726,0 0,0" style="fill:#99aab5;fill-opacity:1;fill-rule:nonzero;stroke:none"/></g></g></g></g></svg>