<svg xmlns="http://www.w3.org/2000/svg" xmlns:svg="http://www.w3.org/2000/svg" style="enable-background:new 0 0 47.5 47.5" id="svg2" version="1.1" viewBox="0 0 47.5 47.5" xml:space="preserve"><metadata id="metadata8"/><defs id="defs6"><clipPath id="clipPath16" clipPathUnits="userSpaceOnUse"><path id="path18" d="M 0,38 38,38 38,0 0,0 0,38 Z"/></clipPath></defs><g id="g10" transform="matrix(1.25,0,0,-1.25,0,47.5)"><g id="g12"><g id="g14" clip-path="url(#clipPath16)"><g id="g20" transform="translate(32,5)"><path id="path22" d="m 0,0 c 0,-2.209 -1.791,-4 -4,-4 l -22,0 c -2.209,0 -4,1.791 -4,4 l 0,28 c 0,2.209 1.791,4 4,4 l 22,0 c 2.209,0 4,-1.791 4,-4 L 0,0 Z" style="fill:#ccd6dd;fill-opacity:1;fill-rule:nonzero;stroke:none"/></g><g id="g24" transform="translate(28,13)"><path id="path26" d="m 0,0 c 0,-0.553 -0.447,-1 -1,-1 l -20,0 c -0.552,0 -1,0.447 -1,1 0,0.553 0.448,1 1,1 L -1,1 C -0.447,1 0,0.553 0,0" style="fill:#99aab5;fill-opacity:1;fill-rule:nonzero;stroke:none"/></g><g id="g28" transform="translate(12,9)"><path id="path30" d="m 0,0 c 0,-0.553 -0.448,-1 -1,-1 l -4,0 c -0.552,0 -1,0.447 -1,1 0,0.553 0.448,1 1,1 l 4,0 C -0.448,1 0,0.553 0,0" style="fill:#99aab5;fill-opacity:1;fill-rule:nonzero;stroke:none"/></g><g id="g32" transform="translate(28,29)"><path id="path34" d="m 0,0 c 0,-0.552 -0.447,-1 -1,-1 l -20,0 c -0.552,0 -1,0.448 -1,1 0,0.552 0.448,1 1,1 L -1,1 C -0.447,1 0,0.552 0,0" style="fill:#99aab5;fill-opacity:1;fill-rule:nonzero;stroke:none"/></g><g id="g36" transform="translate(28,25)"><path id="path38" d="m 0,0 c 0,-0.553 -0.447,-1 -1,-1 l -20,0 c -0.552,0 -1,0.447 -1,1 0,0.553 0.448,1 1,1 L -1,1 C -0.447,1 0,0.553 0,0" style="fill:#99aab5;fill-opacity:1;fill-rule:nonzero;stroke:none"/></g><g id="g40" transform="translate(28,21)"><path id="path42" d="m 0,0 c 0,-0.553 -0.447,-1 -1,-1 l -20,0 c -0.552,0 -1,0.447 -1,1 0,0.553 0.448,1 1,1 L -1,1 C -0.447,1 0,0.553 0,0" style="fill:#99aab5;fill-opacity:1;fill-rule:nonzero;stroke:none"/></g><g id="g44" transform="translate(28,17)"><path id="path46" d="m 0,0 c 0,-0.553 -0.447,-1 -1,-1 l -20,0 c -0.552,0 -1,0.447 -1,1 0,0.553 0.448,1 1,1 L -1,1 C -0.447,1 0,0.553 0,0" style="fill:#99aab5;fill-opacity:1;fill-rule:nonzero;stroke:none"/></g><g id="g48" transform="translate(32,30.728)"><path id="path50" d="m 0,0 c -0.827,0.535 -1.837,0.579 -2.521,0.022 l -0.792,-0.645 -1.484,-1.211 -0.099,-0.08 -2.376,-1.938 -11.879,-9.686 c -0.437,-0.357 -0.793,-1.218 -1.173,-2.074 -0.379,-0.849 -0.969,-2.851 -1.443,-4.39 -0.149,-0.25 -1.065,-1.846 -0.551,-2.454 0.519,-0.615 2.326,-0.009 2.568,0.077 1.626,0.173 3.731,0.373 4.648,0.58 0.925,0.211 1.854,0.394 2.291,0.752 0.008,0.005 0.01,0.017 0.018,0.023 l 11.857,9.666 0.792,0.646 L 0,-10.595 0,0 Z" style="fill:#66757f;fill-opacity:1;fill-rule:nonzero;stroke:none"/></g><g id="g52" transform="translate(19.1445,14.4736)"><path id="path54" d="m 0,0 c 0,0 -1.274,1.881 -2.117,2.553 -0.672,0.843 -2.55,2.116 -2.55,2.116 -0.448,0.446 -1.191,0.48 -1.628,0.043 C -6.732,4.274 -7.088,3.346 -7.469,2.421 -7.94,1.275 -8.745,-1.733 -9.237,-3.331 c -0.083,-0.273 0.517,0.45 0.504,0.21 -0.01,-0.187 0.026,-0.394 0.073,-0.581 -0.085,-0.093 -0.145,-0.158 -0.145,-0.158 0.056,-0.019 0.128,-0.042 0.209,-0.068 0.025,-0.082 0.05,-0.154 0.068,-0.21 0,0 0.066,0.061 0.159,0.146 0.187,-0.047 0.394,-0.084 0.581,-0.074 0.24,0.013 -0.483,-0.587 -0.211,-0.503 1.598,0.493 4.608,1.296 5.753,1.767 0.924,0.381 1.854,0.737 2.291,1.174 C 0.482,-1.191 0.449,-0.448 0,0" style="fill:#d99e82;fill-opacity:1;fill-rule:nonzero;stroke:none"/></g><g id="g56" transform="translate(26.3125,32.6489)"><path id="path58" d="m 0,0 c -0.876,-0.875 -0.876,-2.293 0,-3.168 l 3.167,-3.168 c 0.876,-0.874 2.294,-0.874 3.168,0 l 3.169,3.168 c 0.874,0.875 0.874,2.293 0,3.168 L 6.335,3.167 c -0.874,0.875 -2.292,0.875 -3.168,0 L 0,0 Z" style="fill:#ea596e;fill-opacity:1;fill-rule:nonzero;stroke:none"/></g><g id="g60" transform="translate(12.8491,19.1855)"><path id="path62" d="M 0,0 C 0,0 0.795,-0.795 3.17,-3.17 5.544,-5.544 6.334,-6.336 6.334,-6.336 L 18.215,5.543 11.878,11.879 0,0 Z" style="fill:#ffcc4d;fill-opacity:1;fill-rule:nonzero;stroke:none"/></g><g id="g64" transform="translate(12.2979,10.2578)"><path id="path66" d="m 0,0 c 0,0 -2.06,-1.133 -2.616,-0.576 -0.557,0.557 0.581,2.611 0.581,2.611 0,0 1.952,-0.036 2.035,-2.035" style="fill:#292f33;fill-opacity:1;fill-rule:nonzero;stroke:none"/></g><g id="g68" transform="translate(28.6875,35.0249)"><path id="path70" d="M 0,0 6.336,-6.336 2.377,-10.296 -3.96,-3.96 0,0 Z" style="fill:#ccd6dd;fill-opacity:1;fill-rule:nonzero;stroke:none"/></g><g id="g72" transform="translate(27.1035,33.4409)"><path id="path74" d="M 0,0 6.336,-6.335 7.129,-5.544 0.793,0.792 0,0 Z" style="fill:#99aab5;fill-opacity:1;fill-rule:nonzero;stroke:none"/></g><g id="g76" transform="translate(25.5205,31.8569)"><path id="path78" d="M 0,0 6.336,-6.336 7.127,-5.544 0.792,0.792 0,0 Z" style="fill:#99aab5;fill-opacity:1;fill-rule:nonzero;stroke:none"/></g></g></g></g></svg>