<svg xmlns="http://www.w3.org/2000/svg" xmlns:svg="http://www.w3.org/2000/svg" style="enable-background:new 0 0 47.5 47.5" id="svg2" version="1.1" viewBox="0 0 47.5 47.5" xml:space="preserve"><metadata id="metadata8"/><defs id="defs6"><clipPath id="clipPath16" clipPathUnits="userSpaceOnUse"><path id="path18" d="M 0,38 38,38 38,0 0,0 0,38 Z"/></clipPath></defs><g id="g10" transform="matrix(1.25,0,0,-1.25,0,47.5)"><g id="g12"><g id="g14" clip-path="url(#clipPath16)"><g id="g20" transform="translate(17.9673,9)"><path id="path22" d="m 0,0 -6.967,0 c -1.1,0 -2,0.9 -2,2 l 0,6.968 c 0,1.099 0.636,1.363 1.414,0.586 L 0.586,1.414 C 1.363,0.637 1.099,0 0,0 m 18.139,-5.172 -32.278,32.278 c -1.555,1.556 -2.828,1.029 -2.828,-1.171 l 0,-29.935 c 0,-2.2 1.8,-4 4,-4 l 29.934,0 c 2.2,0 2.728,1.272 1.172,2.828" style="fill:#ffcc4d;fill-opacity:1;fill-rule:nonzero;stroke:none"/></g></g></g></g></svg>