<svg xmlns="http://www.w3.org/2000/svg" xmlns:svg="http://www.w3.org/2000/svg" style="enable-background:new 0 0 47.5 47.5" id="svg2" version="1.1" viewBox="0 0 47.5 47.5" xml:space="preserve"><metadata id="metadata8"/><defs id="defs6"><clipPath id="clipPath16" clipPathUnits="userSpaceOnUse"><path id="path18" d="M 0,38 38,38 38,0 0,0 0,38 Z"/></clipPath></defs><g id="g10" transform="matrix(1.25,0,0,-1.25,0,47.5)"><g id="g12"><g id="g14" clip-path="url(#clipPath16)"><g id="g20" transform="translate(23,4)"><path id="path22" d="m 0,0 c 0,-2.209 -8,-2.209 -8,0 l 0,10 c 0,2.209 1.791,4 4,4 2.209,0 4,-1.791 4,-4 L 0,0 Z" style="fill:#c1694f;fill-opacity:1;fill-rule:nonzero;stroke:none"/></g><g id="g24" transform="translate(27,34)"><path id="path26" d="m 0,0 -16,0 0,-20 8,0 8,0 8,0 0,12 C 8,-3.582 4.418,0 0,0" style="fill:#99aab5;fill-opacity:1;fill-rule:nonzero;stroke:none"/></g><g id="g28" transform="translate(11,34)"><path id="path30" d="m 0,0 c -4.418,0 -8,-3.582 -8,-8 l 0,-12 16,0 0,12 C 8,-3.582 4.418,0 0,0" style="fill:#292f33;fill-opacity:1;fill-rule:nonzero;stroke:none"/></g><g id="g32" transform="translate(10,34)"><path id="path34" d="m 0,0 c -3.866,0 -7,-3.582 -7,-8 l 0,-12 14,0 0,12 C 7,-3.582 3.866,0 0,0" style="fill:#99aab5;fill-opacity:1;fill-rule:nonzero;stroke:none"/></g><g id="g36" transform="translate(27,36)"><path id="path38" d="m 0,0 -4,0 c -1.104,0 -2,-0.896 -2,-2 l 0,-2 0,-10 c 0,-1.104 0.896,-2 2,-2 1.104,0 2,0.896 2,2 l 0,8 2,0 c 1.104,0 2,0.896 2,2 l 0,2 C 2,-0.896 1.104,0 0,0" style="fill:#dd2e44;fill-opacity:1;fill-rule:nonzero;stroke:none"/></g></g></g></g></svg>