<svg xmlns="http://www.w3.org/2000/svg" xmlns:svg="http://www.w3.org/2000/svg" style="enable-background:new 0 0 47.5 47.5" id="svg2" version="1.1" viewBox="0 0 47.5 47.5" xml:space="preserve"><metadata id="metadata8"/><defs id="defs6"><clipPath id="clipPath16" clipPathUnits="userSpaceOnUse"><path id="path18" d="M 0,38 38,38 38,0 0,0 0,38 Z"/></clipPath></defs><g id="g10" transform="matrix(1.25,0,0,-1.25,0,47.5)"><g id="g12"><g id="g14" clip-path="url(#clipPath16)"><g id="g20" transform="translate(8,25)"><path id="path22" d="m 0,0 c 0,-0.552 -0.448,-1 -1,-1 l -5,0 c -0.552,0 -1,0.448 -1,1 0,0.552 0.448,1 1,1 l 5,0 C -0.448,1 0,0.552 0,0" style="fill:#55acee;fill-opacity:1;fill-rule:nonzero;stroke:none"/></g><g id="g24" transform="translate(6,20)"><path id="path26" d="m 0,0 c 0,-0.552 -0.448,-1 -1,-1 l -3,0 c -0.552,0 -1,0.448 -1,1 0,0.552 0.448,1 1,1 l 3,0 C -0.448,1 0,0.552 0,0" style="fill:#55acee;fill-opacity:1;fill-rule:nonzero;stroke:none"/></g><g id="g28" transform="translate(4,15)"><path id="path30" d="m 0,0 c 0,-0.553 -0.448,-1 -1,-1 l -1,0 c -0.552,0 -1,0.447 -1,1 0,0.553 0.448,1 1,1 l 1,0 C -0.448,1 0,0.553 0,0" style="fill:#55acee;fill-opacity:1;fill-rule:nonzero;stroke:none"/></g><g id="g32" transform="translate(33.3008,12)"><path id="path34" d="m 0,0 c -0.626,-2.209 -2.925,-4 -5.134,-4 l -20,0 c -2.209,0 -3.492,1.791 -2.866,4 l 3.398,12 c 0.626,2.209 2.924,4 5.133,4 l 20,0 C 2.74,16 4.024,14.209 3.398,12 L 0,0 Z" style="fill:#ccd6dd;fill-opacity:1;fill-rule:nonzero;stroke:none"/></g><g id="g36" transform="translate(18.3359,19.3643)"><path id="path38" d="m 0,0 -12.952,-9.313 c -0.034,-0.028 -0.054,-0.063 -0.085,-0.091 0.179,-0.571 0.518,-1.043 0.992,-1.384 0.035,0.023 0.073,0.033 0.107,0.059 L 1.014,-1.414 C 1.515,-1.023 1.694,-0.392 1.415,0 1.134,0.391 0.502,0.391 0,0" style="fill:#99aab5;fill-opacity:1;fill-rule:nonzero;stroke:none"/></g><g id="g40" transform="translate(32.1455,9.96)"><path id="path42" d="m 0,0 c -0.015,0.028 -0.016,0.063 -0.034,0.09 l -7.674,9.314 c -0.281,0.391 -0.913,0.391 -1.416,0 -0.501,-0.391 -0.68,-1.023 -0.4,-1.414 l 7.675,-9.314 c 0.019,-0.027 0.051,-0.037 0.073,-0.06 C -1.109,-1.044 -0.502,-0.57 0,0" style="fill:#99aab5;fill-opacity:1;fill-rule:nonzero;stroke:none"/></g><g id="g44" transform="translate(36.6992,24)"><path id="path46" d="m 0,0 c 0.626,2.209 -0.658,4 -2.867,4 l -20,0 C -25.077,4 -27.375,2.209 -28,0 l -0.021,-0.074 8.806,-8.451 c 1.631,-1.584 3.787,-1.475 5.725,-0.371 L -0.264,-0.932 0,0 Z" style="fill:#99aab5;fill-opacity:1;fill-rule:nonzero;stroke:none"/></g><g id="g48" transform="translate(33.832,28)"><path id="path50" d="m 0,0 -20,0 c -1.578,0 -3.189,-0.921 -4.217,-2.248 L -15,-11.042 c 0.749,-0.719 2.434,-0.729 3.656,0 L 2.95,-2.274 C 2.684,-0.933 1.588,0 0,0" style="fill:#e1e8ed;fill-opacity:1;fill-rule:nonzero;stroke:none"/></g></g></g></g></svg>