<svg xmlns="http://www.w3.org/2000/svg" xmlns:svg="http://www.w3.org/2000/svg" style="enable-background:new 0 0 47.5 47.5" id="svg2" version="1.1" viewBox="0 0 47.5 47.5" xml:space="preserve"><metadata id="metadata8"/><defs id="defs6"><clipPath id="clipPath16" clipPathUnits="userSpaceOnUse"><path id="path18" d="M 0,38 38,38 38,0 0,0 0,38 Z"/></clipPath></defs><g id="g10" transform="matrix(1.25,0,0,-1.25,0,47.5)"><g id="g12"><g id="g14" clip-path="url(#clipPath16)"><g id="g20" transform="translate(36,6)"><path id="path22" d="m 0,0 c 0,0 0,-4 -4,-4 l -26,0 c -4,0 -4,4 -4,4 l 0,19 c 0,4 4,4 4,4 l 26,0 c 0,0 4,0 4,-4 L 0,0 Z" style="fill:#414042;fill-opacity:1;fill-rule:nonzero;stroke:none"/></g><g id="g24" transform="translate(22.3027,26.6108)"><path id="path26" d="m 0,0 c 0.391,-0.391 0.391,-1.023 0,-1.414 -0.391,-0.391 -1.023,-0.391 -1.414,0 l -9.192,9.192 c -0.391,0.391 -0.391,1.024 0,1.414 0.391,0.391 1.023,0.391 1.414,0 L 0,0 Z" style="fill:#414042;fill-opacity:1;fill-rule:nonzero;stroke:none"/></g><g id="g28" transform="translate(15.6968,26.6108)"><path id="path30" d="m 0,0 c -0.391,-0.391 -0.391,-1.023 0,-1.414 0.391,-0.391 1.023,-0.391 1.414,0 l 9.192,9.192 c 0.391,0.391 0.391,1.024 0,1.414 -0.391,0.391 -1.023,0.391 -1.414,0 L 0,0 Z" style="fill:#414042;fill-opacity:1;fill-rule:nonzero;stroke:none"/></g><g id="g32" transform="translate(19,26)"><path id="path34" d="m 0,0 c 8,0 10,-1 11,-2 1,-1 2,-3 2,-8 0,-5 -1,-7 -2,-8 -1,-1 -3,-2 -11,-2 -8,0 -10,1 -11,2 -1,1 -2,3 -2,8 0,5 1,7 2,8 1,1 3,2 11,2" style="fill:#55acee;fill-opacity:1;fill-rule:nonzero;stroke:none"/></g><g id="g36" transform="translate(31,5.5)"><path id="path38" d="M 0,0 C 0,0.829 0.671,1.5 1.5,1.5 2.329,1.5 3,0.829 3,0 3,-0.829 2.329,-1.5 1.5,-1.5 0.671,-1.5 0,-0.829 0,0" style="fill:#66757f;fill-opacity:1;fill-rule:nonzero;stroke:none"/></g><g id="g40" transform="translate(4,5.5)"><path id="path42" d="M 0,0 C 0,0.829 0.671,1.5 1.5,1.5 2.329,1.5 3,0.829 3,0 3,-0.829 2.329,-1.5 1.5,-1.5 0.671,-1.5 0,-0.829 0,0" style="fill:#66757f;fill-opacity:1;fill-rule:nonzero;stroke:none"/></g></g></g></g></svg>