<svg xmlns="http://www.w3.org/2000/svg" xmlns:svg="http://www.w3.org/2000/svg" style="enable-background:new 0 0 47.5 47.5" id="svg2" version="1.1" viewBox="0 0 47.5 47.5" xml:space="preserve"><metadata id="metadata8"/><defs id="defs6"><clipPath id="clipPath16" clipPathUnits="userSpaceOnUse"><path id="path18" d="M 0,38 38,38 38,0 0,0 0,38 Z"/></clipPath></defs><g id="g10" transform="matrix(1.25,0,0,-1.25,0,47.5)"><g id="g12"><g id="g14" clip-path="url(#clipPath16)"><g id="g20" transform="translate(37,5)"><path id="path22" d="m 0,0 c 0,-4 -4,-4 -4,-4 l -28,0 c -4,0 -4,4 -4,4 l 0,28 c 0,4 4,4 4,4 l 28,0 c 0,0 4,0 4,-4 L 0,0 Z" style="fill:#f4900c;fill-opacity:1;fill-rule:nonzero;stroke:none"/></g><g id="g24" transform="translate(20,13)"><path id="path26" d="m 0,0 0,-4 -14,0 0,20 14,0 0,-16 2,0 0,18 c 0,3 -3,3 -3,3 l -12,0 c -3,0 -3,-3 -3,-3 l 0,-24 c 0,-3 3,-3 3,-3 l 12,0 c 3,0 3,3 3,3 L 2,0 0,0 Z" style="fill:#fff;fill-opacity:1;fill-rule:nonzero;stroke:none"/></g><g id="g28" transform="translate(24,23)"><path id="path30" d="m 0,0 c 0,0 1,2 4,2 5,0 5,-5 5,-5 0,-6 -9,-11 -9,-11 0,0 -9,5 -9,11 0,0 0,5 5,5 3,0 4,-2 4,-2" style="fill:#f4900c;fill-opacity:1;fill-rule:nonzero;stroke:none"/></g><g id="g32" transform="translate(20,24)"><path id="path34" d="m 0,0 c -3.955,0 -4,-3.837 -4,-4 0,-4.584 6.196,-8.729 8,-9.837 1.804,1.108 8,5.253 8,9.837 C 11.996,-3.595 11.853,0 8,0 5.701,0 4.92,-1.401 4.888,-1.46 4.711,-1.789 4.358,-2.002 3.988,-1.993 3.615,-1.987 3.272,-1.781 3.105,-1.447 3.08,-1.401 2.299,0 0,0 m 4,-16 c -0.167,0 -0.335,0.042 -0.485,0.126 C 3.126,-15.658 -6,-10.514 -6,-4 -6,-1.925 -4.746,2 0,2 1.979,2 3.25,1.25 4,0.563 4.75,1.25 6.021,2 8,2 12.746,2 14,-1.925 14,-4 14,-10.514 4.874,-15.658 4.485,-15.874 4.335,-15.958 4.167,-16 4,-16" style="fill:#fff;fill-opacity:1;fill-rule:nonzero;stroke:none"/></g></g></g></g></svg>