<svg xmlns="http://www.w3.org/2000/svg" xmlns:svg="http://www.w3.org/2000/svg" style="enable-background:new 0 0 47.5 47.5" id="svg2" version="1.1" viewBox="0 0 47.5 47.5" xml:space="preserve"><metadata id="metadata8"/><defs id="defs6"><clipPath id="clipPath16" clipPathUnits="userSpaceOnUse"><path id="path18" d="M 0,38 38,38 38,0 0,0 0,38 Z"/></clipPath><clipPath id="clipPath32" clipPathUnits="userSpaceOnUse"><path id="path34" d="M 5,25 C 4,25 3,23 3,20 l 0,0 c 0,-3 1,-5 2,-5 l 0,0 6,0 c 1,0 1,1 1,1 l 0,0 0,8 c 0,1 -1,1 -1,1 l 0,0 -6,0 z"/></clipPath><clipPath id="clipPath48" clipPathUnits="userSpaceOnUse"><path id="path50" d="M 0,38 38,38 38,0 0,0 0,38 Z"/></clipPath><clipPath id="clipPath60" clipPathUnits="userSpaceOnUse"><path id="path62" d="m 27,25 c 0,0 -1,0 -1,-1 l 0,0 0,-8 c 0,0 0,-1 1,-1 l 0,0 6,0 c 1,0 2,2 2,5 l 0,0 c 0,3 -1,5 -2,5 l 0,0 -6,0 z"/></clipPath><clipPath id="clipPath76" clipPathUnits="userSpaceOnUse"><path id="path78" d="M 0,38 38,38 38,0 0,0 0,38 Z"/></clipPath></defs><g id="g10" transform="matrix(1.25,0,0,-1.25,0,47.5)"><g id="g12"><g id="g14" clip-path="url(#clipPath16)"><g id="g20" transform="translate(37,12)"><path id="path22" d="m 0,0 c 0,0 0,-4 -4,-4 l -28,0 c 0,0 -4,0 -4,4 l 0,15 c 0,4 4,4 4,4 l 28,0 c 0,0 4,0 4,-4 L 0,0 Z" style="fill:#292f33;fill-opacity:1;fill-rule:nonzero;stroke:none"/></g><g id="g24" transform="translate(5,25)"><path id="path26" d="m 0,0 6,0 c 0,0 1,0 1,-1 l 0,-8 c 0,0 0,-1 -1,-1 l -6,0 c -1,0 -2,2 -2,5 0,3 1,5 2,5" style="fill:#ccd6dd;fill-opacity:1;fill-rule:nonzero;stroke:none"/></g></g></g><g id="g28"><g id="g30" clip-path="url(#clipPath32)"><g id="g36" transform="translate(19,20)"><path id="path38" d="m 0,0 c 0,-3.865 -3.134,-7 -7,-7 -3.866,0 -7,3.135 -7,7 0,3.866 3.134,7 7,7 3.866,0 7,-3.134 7,-7" style="fill:#000;fill-opacity:1;fill-rule:nonzero;stroke:none"/></g><g id="g40" transform="translate(15,20)"><path id="path42" d="m 0,0 c 0,-1.657 -1.343,-3 -3,-3 -1.657,0 -3,1.343 -3,3 0,1.657 1.343,3 3,3 1.657,0 3,-1.343 3,-3" style="fill:#66757f;fill-opacity:1;fill-rule:nonzero;stroke:none"/></g></g></g><g id="g44"><g id="g46" clip-path="url(#clipPath48)"><g id="g52" transform="translate(33,25)"><path id="path54" d="m 0,0 -6,0 c 0,0 -1,0 -1,-1 l 0,-8 c 0,0 0,-1 1,-1 l 6,0 c 1,0 2,2 2,5 0,3 -1,5 -2,5" style="fill:#ccd6dd;fill-opacity:1;fill-rule:nonzero;stroke:none"/></g></g></g><g id="g56"><g id="g58" clip-path="url(#clipPath60)"><g id="g64" transform="translate(33,20)"><path id="path66" d="m 0,0 c 0,-3.867 -3.133,-7 -7,-7 -3.867,0 -7,3.133 -7,7 0,3.865 3.133,7 7,7 3.867,0 7,-3.135 7,-7" style="fill:#000;fill-opacity:1;fill-rule:nonzero;stroke:none"/></g><g id="g68" transform="translate(29,20)"><path id="path70" d="m 0,0 c 0,-1.657 -1.344,-3 -3,-3 -1.656,0 -3,1.343 -3,3 0,1.657 1.344,3 3,3 1.656,0 3,-1.343 3,-3" style="fill:#66757f;fill-opacity:1;fill-rule:nonzero;stroke:none"/></g></g></g><g id="g72"><g id="g74" clip-path="url(#clipPath76)"><g id="g80" transform="translate(14,23)"><path id="path82" d="m 0,0 c 0,0 0,1 1,1 l 8,0 c 0,0 1,0 1,-1 l 0,-6 c 0,0 0,-1 -1,-1 l -8,0 c 0,0 -1,0 -1,1 l 0,6 z" style="fill:#88c9f9;fill-opacity:1;fill-rule:nonzero;stroke:none"/></g><g id="g84" transform="translate(35,11)"><path id="path86" d="m 0,0 c 0,-0.553 -0.447,-1 -1,-1 l -30,0 c -0.552,0 -1,0.447 -1,1 0,0.553 0.448,1 1,1 L -1,1 C -0.447,1 0,0.553 0,0" style="fill:#000;fill-opacity:1;fill-rule:nonzero;stroke:none"/></g></g></g></g></svg>