<svg xmlns="http://www.w3.org/2000/svg" xmlns:svg="http://www.w3.org/2000/svg" style="enable-background:new 0 0 47.5 47.5" id="svg2" version="1.1" viewBox="0 0 47.5 47.5" xml:space="preserve"><metadata id="metadata8"/><defs id="defs6"><clipPath id="clipPath16" clipPathUnits="userSpaceOnUse"><path id="path18" d="M 0,38 38,38 38,0 0,0 0,38 Z"/></clipPath></defs><g id="g10" transform="matrix(1.25,0,0,-1.25,0,47.5)"><g id="g12"><g id="g14" clip-path="url(#clipPath16)"><g id="g20" transform="translate(19,1)"><path id="path22" d="m 0,0 c 0,0 -4,0 -4,4 l 0,28 c 0,0 0,4 4,4 l 14,0 c 0,0 4,0 4,-4 L 18,4 C 18,4 18,0 14,0 L 0,0 Z" style="fill:#292f33;fill-opacity:1;fill-rule:nonzero;stroke:none"/></g><path id="path24" d="M 17,6 35,6 35,32 17,32 17,6 Z" style="fill:#55acee;fill-opacity:1;fill-rule:nonzero;stroke:none"/><g id="g26" transform="translate(14,21)"><path id="path28" d="M 0,0 C 0,0 1,-1 1,-2 1,-3 0,-4 0,-4 l -5,-5 c -1,-1 -3,-1 -3,1 l 0,3 -3,0 c 0,0 -2,0 -2,2 l 0,2 c 0,2 2,2 2,2 l 3,0 0,3 c 0,2 2,2 3,1 L 0,0 Z" style="fill:#55acee;fill-opacity:1;fill-rule:nonzero;stroke:none"/></g></g></g></g></svg>