<svg xmlns="http://www.w3.org/2000/svg" xmlns:svg="http://www.w3.org/2000/svg" style="enable-background:new 0 0 47.5 47.5" id="svg2" version="1.1" viewBox="0 0 47.5 47.5" xml:space="preserve"><metadata id="metadata8"/><defs id="defs6"><clipPath id="clipPath16" clipPathUnits="userSpaceOnUse"><path id="path18" d="M 0,38 38,38 38,0 0,0 0,38 Z"/></clipPath></defs><g id="g10" transform="matrix(1.25,0,0,-1.25,0,47.5)"><g id="g12"><g id="g14" clip-path="url(#clipPath16)"><g id="g20" transform="translate(21,31)"><path id="path22" d="m 0,0 c 0,-1.104 -0.896,-2 -2,-2 -1.104,0 -2,0.896 -2,2 l 0,4 c 0,1.104 0.896,2 2,2 1.104,0 2,-0.896 2,-2 L 0,0 Z" style="fill:#ffac33;fill-opacity:1;fill-rule:nonzero;stroke:none"/></g><g id="g24" transform="translate(21,3)"><path id="path26" d="m 0,0 c 0,-1.104 -0.896,-2 -2,-2 -1.104,0 -2,0.896 -2,2 l 0,4 c 0,1.104 0.896,2 2,2 1.104,0 2,-0.896 2,-2 L 0,0 Z" style="fill:#ffac33;fill-opacity:1;fill-rule:nonzero;stroke:none"/></g><g id="g28" transform="translate(7,21)"><path id="path30" d="M 0,0 C 1.104,0 2,-0.896 2,-2 2,-3.104 1.104,-4 0,-4 l -4,0 c -1.104,0 -2,0.896 -2,2 0,1.104 0.896,2 2,2 l 4,0 z" style="fill:#ffac33;fill-opacity:1;fill-rule:nonzero;stroke:none"/></g><g id="g32" transform="translate(35,21)"><path id="path34" d="M 0,0 C 1.104,0 2,-0.896 2,-2 2,-3.104 1.104,-4 0,-4 l -4,0 c -1.104,0 -2,0.896 -2,2 0,1.104 0.896,2 2,2 l 4,0 z" style="fill:#ffac33;fill-opacity:1;fill-rule:nonzero;stroke:none"/></g><g id="g36" transform="translate(9.1006,11.9287)"><path id="path38" d="m 0,0 c 0.781,0.78 2.047,0.781 2.828,0 0.781,-0.78 0.781,-2.048 0,-2.828 L 0,-5.657 c -0.781,-0.78 -2.048,-0.78 -2.828,0 -0.781,0.781 -0.781,2.048 0,2.828 L 0,0 Z" style="fill:#ffac33;fill-opacity:1;fill-rule:nonzero;stroke:none"/></g><g id="g40" transform="translate(28.8994,31.7275)"><path id="path42" d="m 0,0 c 0.781,0.781 2.047,0.782 2.828,0 0.781,-0.78 0.781,-2.047 0,-2.828 L 0,-5.656 c -0.781,-0.781 -2.048,-0.781 -2.828,-0.001 -0.781,0.782 -0.781,2.048 0,2.829 L 0,0 Z" style="fill:#ffac33;fill-opacity:1;fill-rule:nonzero;stroke:none"/></g><g id="g44" transform="translate(26.0713,9.1006)"><path id="path46" d="m 0,0 c -0.78,0.781 -0.781,2.047 0,2.828 0.78,0.781 2.048,0.781 2.828,0 L 5.657,0 c 0.78,-0.781 0.78,-2.048 0,-2.828 -0.781,-0.781 -2.048,-0.781 -2.828,0 L 0,0 Z" style="fill:#ffac33;fill-opacity:1;fill-rule:nonzero;stroke:none"/></g><g id="g48" transform="translate(19,14)"><path id="path50" d="m 0,0 c -2.761,0 -5,2.238 -5,5 0,2.761 2.239,5 5,5 C 2.762,10 5,7.761 5,5 5,2.238 2.762,0 0,0 m 0,14 c -4.971,0 -9,-4.03 -9,-9 0,-4.971 4.029,-9 9,-9 4.971,0 9,4.029 9,9 0,4.97 -4.029,9 -9,9" style="fill:#ffac33;fill-opacity:1;fill-rule:nonzero;stroke:none"/></g><g id="g52" transform="translate(6.2725,28.8994)"><path id="path54" d="m 0,0 c -0.781,0.781 -0.782,2.047 0,2.828 0.78,0.781 2.047,0.781 2.828,0 L 5.656,0 c 0.781,-0.781 0.781,-2.048 0.001,-2.828 -0.782,-0.781 -2.048,-0.781 -2.829,0 L 0,0 Z" style="fill:#ffac33;fill-opacity:1;fill-rule:nonzero;stroke:none"/></g></g></g></g></svg>