<svg xmlns="http://www.w3.org/2000/svg" xmlns:svg="http://www.w3.org/2000/svg" style="enable-background:new 0 0 47.5 47.5" id="svg2" version="1.1" viewBox="0 0 47.5 47.5" xml:space="preserve"><metadata id="metadata8"/><defs id="defs6"><clipPath id="clipPath16" clipPathUnits="userSpaceOnUse"><path id="path18" d="M 0,38 38,38 38,0 0,0 0,38 Z"/></clipPath></defs><g id="g10" transform="matrix(1.25,0,0,-1.25,0,47.5)"><g id="g12"><g id="g14" clip-path="url(#clipPath16)"><g id="g20" transform="translate(37,5)"><path id="path22" d="m 0,0 c 0,-2.209 -1.791,-4 -4,-4 l -28,0 c -2.209,0 -4,1.791 -4,4 l 0,28 c 0,2.209 1.791,4 4,4 l 28,0 c 2.209,0 4,-1.791 4,-4 L 0,0 Z" style="fill:#3b88c3;fill-opacity:1;fill-rule:nonzero;stroke:none"/></g><g id="g24" transform="translate(13.9526,21.2827)"><path id="path26" d="M 0,0 C 0.549,1.394 1.234,2.861 2.175,4.142 0.997,5.653 -0.602,6.717 -2.953,6.717 l -3,0 0,-4 3,0 C -1.646,2.717 -0.834,1.821 0,0" style="fill:#fff;fill-opacity:1;fill-rule:nonzero;stroke:none"/></g><g id="g28" transform="translate(20.4805,15.8594)"><path id="path30" d="m 0,0 c -0.479,-1.314 -1.059,-2.777 -1.852,-4.132 1.089,-1.046 2.489,-1.727 4.372,-1.727 l 3,0 0,4 -3,0 C 1.437,-1.859 0.697,-1.239 0,0" style="fill:#fff;fill-opacity:1;fill-rule:nonzero;stroke:none"/></g><g id="g32" transform="translate(11,10)"><path id="path34" d="m 0,0 -3,0 0,4 3,0 C 1.884,4 2.739,5.816 4.117,9.673 5.441,13.383 7.09,18 12,18 l 3,0 0,-4 -3,0 C 10.115,14 9.261,12.183 7.883,8.327 6.559,4.617 4.91,0 0,0" style="fill:#fff;fill-opacity:1;fill-rule:nonzero;stroke:none"/></g><g id="g36" transform="translate(31.2002,26)"><path id="path38" d="M 0,0 -7.2,6 -7.2,-6 0,0 Z" style="fill:#fff;fill-opacity:1;fill-rule:nonzero;stroke:none"/></g><g id="g40" transform="translate(31.2002,12)"><path id="path42" d="M 0,0 -7.2,6 -7.2,-6 0,0 Z" style="fill:#fff;fill-opacity:1;fill-rule:nonzero;stroke:none"/></g></g></g></g></svg>