<svg xmlns="http://www.w3.org/2000/svg" xmlns:svg="http://www.w3.org/2000/svg" style="enable-background:new 0 0 47.5 47.5" id="svg2" version="1.1" viewBox="0 0 47.5 47.5" xml:space="preserve"><metadata id="metadata8"/><defs id="defs6"><clipPath id="clipPath16" clipPathUnits="userSpaceOnUse"><path id="path18" d="M 0,38 38,38 38,0 0,0 0,38 Z"/></clipPath></defs><g id="g10" transform="matrix(1.25,0,0,-1.25,0,47.5)"><g id="g12"><g id="g14" clip-path="url(#clipPath16)"><g id="g20" transform="translate(10,27)"><path id="path22" d="m 0,0 c 0,0 -2,0 -2,-2 l 0,-12 c 0,-2 2,-2 2,-2 l 6,0 8,-8 c 0,0 1,-1 2,-1 l 1,0 c 0,0 1,0 1,1 l 0,32 c 0,0 0,1 -1,1 L 16,9 C 15,9 14,8 14,8 L 6,0 0,0 Z" style="fill:#8899a6;fill-opacity:1;fill-rule:nonzero;stroke:none"/></g><g id="g24" transform="translate(16,11)"><path id="path26" d="m 0,0 8,-8 c 0,0 1,-1 2,-1 l 1,0 c 0,0 1,0 1,1 l 0,32 c 0,0 0,1 -1,1 l -1,0 C 9,25 8,24 8,24 L 0,16 0,0 Z" style="fill:#ccd6dd;fill-opacity:1;fill-rule:nonzero;stroke:none"/></g></g></g></g></svg>