<svg xmlns="http://www.w3.org/2000/svg" xmlns:svg="http://www.w3.org/2000/svg" style="enable-background:new 0 0 47.5 47.5" id="svg2" version="1.1" viewBox="0 0 47.5 47.5" xml:space="preserve"><metadata id="metadata8"/><defs id="defs6"><clipPath id="clipPath16" clipPathUnits="userSpaceOnUse"><path id="path18" d="M 0,38 38,38 38,0 0,0 0,38 Z"/></clipPath><clipPath id="clipPath32" clipPathUnits="userSpaceOnUse"><path id="path34" d="M 0,38 38,38 38,0 0,0 0,38 Z"/></clipPath></defs><g id="g10" transform="matrix(1.25,0,0,-1.25,0,47.5)"><g id="g12"><g id="g14" clip-path="url(#clipPath16)"><g id="g20" transform="translate(36,19)"><path id="path22" d="m 0,0 c 0,9.389 -7.611,17 -17,17 -9.388,0 -16.999,-7.611 -16.999,-17 0,-9.389 7.611,-17 16.999,-17 9.389,0 17,7.611 17,17" style="fill:#000;fill-opacity:1;fill-rule:nonzero;stroke:none"/></g><g id="g24" transform="translate(10,25)"><path id="path26" d="m 0,0 c 0,0 -2,0 -2,-2 l 0,-8 c 0,-2 2,-2 2,-2 l 5,0 6,-6 c 0,0 1,-1 2,-1 l 1,0 c 0,0 1,0 1,1 l 0,24 c 0,0 0,1 -1,1 L 13,7 C 12,7 11,6 11,6 L 5,0 0,0 Z" style="fill:#fff;fill-opacity:1;fill-rule:nonzero;stroke:none"/></g></g></g><g id="g28"><g id="g30" clip-path="url(#clipPath32)"><g id="g36" transform="translate(19,35)"><path id="path38" d="m 0,0 c -8.836,0 -16,-7.163 -16,-16 0,-8.837 7.164,-16 16,-16 8.837,0 16,7.163 16,16 C 16,-7.163 8.837,0 0,0 m 18,-16 c 0,-9.941 -8.059,-18 -18,-18 -9.94,0 -18,8.059 -18,18 0,9.941 8.06,18 18,18 9.941,0 18,-8.059 18,-18" style="fill:#dd2e44;fill-opacity:1;fill-rule:nonzero;stroke:none"/></g><g id="g40" transform="translate(29.6162,5.6162)"><path id="path42" d="m 0,0 -24.5,24.5 1.768,1.768 24.5,-24.5 L 0,0 Z" style="fill:#dd2e44;fill-opacity:1;fill-rule:nonzero;stroke:none"/></g></g></g></g></svg>