<svg xmlns="http://www.w3.org/2000/svg" xmlns:svg="http://www.w3.org/2000/svg" style="enable-background:new 0 0 47.5 47.5" id="svg2" version="1.1" viewBox="0 0 47.5 47.5" xml:space="preserve"><metadata id="metadata8"/><defs id="defs6"><clipPath id="clipPath16" clipPathUnits="userSpaceOnUse"><path id="path18" d="M 0,38 38,38 38,0 0,0 0,38 Z"/></clipPath></defs><g id="g10" transform="matrix(1.25,0,0,-1.25,0,47.5)"><g id="g12"><g id="g14" clip-path="url(#clipPath16)"><g id="g20" transform="translate(19,13)"><path id="path22" d="m 0,0 c -3.313,0 -6,2.686 -6,6 0,3.313 2.687,6 6,6 C 3.313,12 6,9.313 6,6 6,2.686 3.313,0 0,0 M 0,16 C -5.523,16 -10,11.522 -10,6 -10,0.477 -5.523,-4 0,-4 5.523,-4 10,0.477 10,6 10,11.522 5.523,16 0,16" style="fill:#ffac33;fill-opacity:1;fill-rule:nonzero;stroke:none"/></g><g id="g24" transform="translate(21,31.9995)"><path id="path26" d="m 0,0 c 0,1.104 -0.896,2 -2,2 -1.104,0 -2,-0.896 -2,-2 0,-1.104 0.896,-2 2,-2 1.104,0 2,0.896 2,2" style="fill:#ffac33;fill-opacity:1;fill-rule:nonzero;stroke:none"/></g><g id="g28" transform="translate(21,6)"><path id="path30" d="m 0,0 c 0,-1.104 -0.896,-2 -2,-2 -1.104,0 -2,0.896 -2,2 0,1.104 0.896,2 2,2 1.104,0 2,-0.896 2,-2" style="fill:#ffac33;fill-opacity:1;fill-rule:nonzero;stroke:none"/></g><g id="g32" transform="translate(11.2217,29.606)"><path id="path34" d="m 0,0 c -0.781,0.781 -2.047,0.781 -2.828,0 -0.781,-0.781 -0.781,-2.047 0,-2.828 0.781,-0.781 2.047,-0.781 2.828,0 0.781,0.781 0.781,2.047 0,2.828" style="fill:#ffac33;fill-opacity:1;fill-rule:nonzero;stroke:none"/></g><g id="g36" transform="translate(29.6064,11.2217)"><path id="path38" d="m 0,0 c 0.781,-0.78 0.781,-2.048 0,-2.828 -0.781,-0.781 -2.047,-0.78 -2.828,0 -0.781,0.781 -0.781,2.047 0,2.828 0.781,0.78 2.047,0.781 2.828,0" style="fill:#ffac33;fill-opacity:1;fill-rule:nonzero;stroke:none"/></g><g id="g40" transform="translate(6.0005,21)"><path id="path42" d="m 0,0 c -1.104,0 -2,-0.896 -2,-2 0,-1.104 0.896,-2 2,-2 1.104,0 2,0.896 2,2 0,1.104 -0.896,2 -2,2" style="fill:#ffac33;fill-opacity:1;fill-rule:nonzero;stroke:none"/></g><g id="g44" transform="translate(32,21)"><path id="path46" d="m 0,0 c 1.104,0 2,-0.896 2,-2 0,-1.104 -0.896,-2 -2,-2 -1.104,0 -2,0.896 -2,2 0,1.104 0.896,2 2,2" style="fill:#ffac33;fill-opacity:1;fill-rule:nonzero;stroke:none"/></g><g id="g48" transform="translate(29.6055,26.7783)"><path id="path50" d="m 0,0 c 0.781,0.781 0.781,2.047 0.001,2.828 -0.781,0.781 -2.048,0.781 -2.829,0 C -3.608,2.047 -3.609,0.781 -2.828,0 -2.047,-0.781 -0.78,-0.781 0,0" style="fill:#ffac33;fill-opacity:1;fill-rule:nonzero;stroke:none"/></g><g id="g52" transform="translate(11.2217,8.3936)"><path id="path54" d="m 0,0 c -0.781,-0.781 -2.047,-0.781 -2.828,0 -0.781,0.781 -0.781,2.047 0,2.828 0.781,0.781 2.047,0.781 2.828,0 C 0.781,2.047 0.781,0.781 0,0" style="fill:#ffac33;fill-opacity:1;fill-rule:nonzero;stroke:none"/></g></g></g></g></svg>