<svg xmlns="http://www.w3.org/2000/svg" xmlns:svg="http://www.w3.org/2000/svg" style="enable-background:new 0 0 47.5 47.5" id="svg2" version="1.1" viewBox="0 0 47.5 47.5" xml:space="preserve"><metadata id="metadata8"/><defs id="defs6"><clipPath id="clipPath16" clipPathUnits="userSpaceOnUse"><path id="path18" d="M 0,38 38,38 38,0 0,0 0,38 Z"/></clipPath></defs><g id="g10" transform="matrix(1.25,0,0,-1.25,0,47.5)"><g id="g12"><g id="g14" clip-path="url(#clipPath16)"><g id="g20" transform="translate(37,5)"><path id="path22" d="m 0,0 c 0,-2.209 -1.791,-4 -4,-4 l -28,0 c -2.209,0 -4,1.791 -4,4 l 0,28 c 0,2.209 1.791,4 4,4 l 28,0 c 2.209,0 4,-1.791 4,-4 L 0,0 Z" style="fill:#9aaab4;fill-opacity:1;fill-rule:nonzero;stroke:none"/></g><g id="g24" transform="translate(8.2134,26.0249)"><path id="path26" d="m 0,0 -1.958,0 c -1.592,0 -2.255,1.162 -2.255,2.289 0,1.16 0.829,2.288 2.255,2.288 l 4.71,0 c 1.426,0 2.223,-1.028 2.223,-2.354 l 0,-18.875 c 0,-1.658 -1.061,-2.586 -2.488,-2.586 C 1.062,-19.238 0,-18.31 0,-16.652 L 0,0 Z" style="fill:#f5f8fa;fill-opacity:1;fill-rule:nonzero;stroke:none"/></g><g id="g28" transform="translate(28.5859,18.7935)"><path id="path30" d="m 0,0 c 0,2.521 -0.232,7.696 -3.616,7.696 -3.383,0 -3.615,-5.175 -3.615,-7.696 0,-2.355 0.232,-7.695 3.615,-7.695 C -0.232,-7.695 0,-2.355 0,0 m -12.406,0 c 0,5.407 2.09,12.207 8.79,12.207 6.7,0 8.791,-6.8 8.791,-12.207 0,-5.406 -2.091,-12.207 -8.791,-12.207 -6.7,0 -8.79,6.801 -8.79,12.207" style="fill:#f5f8fa;fill-opacity:1;fill-rule:nonzero;stroke:none"/></g></g></g></g></svg>