<svg xmlns="http://www.w3.org/2000/svg" xmlns:svg="http://www.w3.org/2000/svg" style="enable-background:new 0 0 47.5 47.5" id="svg2" version="1.1" viewBox="0 0 47.5 47.5" xml:space="preserve"><metadata id="metadata8"/><defs id="defs6"><clipPath id="clipPath16" clipPathUnits="userSpaceOnUse"><path id="path18" d="M 0,38 38,38 38,0 0,0 0,38 Z"/></clipPath></defs><g id="g10" transform="matrix(1.25,0,0,-1.25,0,47.5)"><g id="g12"><g id="g14" clip-path="url(#clipPath16)"><g id="g20" transform="translate(31.8828,28.3906)"><path id="path22" d="m 0,0 c -0.957,-0.956 -2.509,-0.956 -3.464,0 -0.956,0.956 -0.956,2.507 0,3.464 C -2.509,4.42 -0.957,4.42 0,3.464 0.956,2.507 0.956,0.956 0,0 M 1.731,5.195 C -2.572,9.5 -9.551,9.5 -13.855,5.195 -17.246,1.804 -17.953,-3.244 -15.999,-7.34 l -3.916,-3.915 c -0.64,-0.641 -0.841,-1.543 -0.626,-2.359 l -1.973,-1.972 c -0.478,0.481 -1.252,0.481 -1.731,0 l -1.732,-1.732 c -0.478,-0.479 -0.478,-1.253 0,-1.732 l -0.866,-0.864 c -0.478,0.478 -1.253,0.478 -1.731,0 l -0.866,-0.867 c -0.478,-0.479 -0.478,-1.253 0,-1.732 0.015,-0.015 0.036,-0.02 0.051,-0.033 -0.794,-1.189 -0.668,-2.812 0.382,-3.863 1.195,-1.195 3.134,-1.195 4.329,0 l 13.874,13.874 c 4.097,-1.955 9.144,-1.247 12.535,2.145 4.303,4.303 4.303,11.282 0,15.585" style="fill:#c1694f;fill-opacity:1;fill-rule:nonzero;stroke:none"/></g></g></g></g></svg>