<svg xmlns="http://www.w3.org/2000/svg" xmlns:svg="http://www.w3.org/2000/svg" style="enable-background:new 0 0 47.5 47.5" id="svg2" version="1.1" viewBox="0 0 47.5 47.5" xml:space="preserve"><metadata id="metadata8"/><defs id="defs6"><clipPath id="clipPath16" clipPathUnits="userSpaceOnUse"><path id="path18" d="M 0,38 38,38 38,0 0,0 0,38 Z"/></clipPath></defs><g id="g10" transform="matrix(1.25,0,0,-1.25,0,47.5)"><g id="g12"><g id="g14" clip-path="url(#clipPath16)"><g id="g20" transform="translate(19,32.9995)"><path id="path22" d="m 0,0 c -5.523,0 -10,-4.477 -10,-10 l 0,-10 4,0 0,10 c 0,3.313 2.687,6 6,6 3.313,0 6,-2.687 6,-6 l 0,-10 4,0 0,10 C 10,-4.477 5.523,0 0,0" style="fill:#bcbec0;fill-opacity:1;fill-rule:nonzero;stroke:none"/></g><g id="g24" transform="translate(31,5)"><path id="path26" d="m 0,0 c 0,-2.209 -1.791,-4 -4,-4 l -16,0 c -2.209,0 -4,1.791 -4,4 l 0,10 c 0,2.209 1.791,4 4,4 l 16,0 c 2.209,0 4,-1.791 4,-4 L 0,0 Z" style="fill:#ffac33;fill-opacity:1;fill-rule:nonzero;stroke:none"/></g></g></g></g></svg>