<svg xmlns="http://www.w3.org/2000/svg" xmlns:svg="http://www.w3.org/2000/svg" style="enable-background:new 0 0 47.5 47.5" id="svg2" version="1.1" viewBox="0 0 47.5 47.5" xml:space="preserve"><metadata id="metadata8"/><defs id="defs6"><clipPath id="clipPath16" clipPathUnits="userSpaceOnUse"><path id="path18" d="M 0,38 38,38 38,0 0,0 0,38 Z"/></clipPath></defs><g id="g10" transform="matrix(1.25,0,0,-1.25,0,47.5)"><g id="g12"><g id="g14" clip-path="url(#clipPath16)"><g id="g20" transform="translate(14,32.9995)"><path id="path22" d="m 0,0 c -5.523,0 -10,-4.477 -10,-10 l 0,-10 4,0 0,10 c 0,3.313 2.687,6 6,6 3.313,0 6,-2.687 6,-6 l 0,-10 4,0 0,10 C 10,-4.477 5.523,0 0,0" style="fill:#bcbec0;fill-opacity:1;fill-rule:nonzero;stroke:none"/></g><g id="g24" transform="translate(26,5)"><path id="path26" d="m 0,0 c 0,-2.209 -1.791,-4 -4,-4 l -16,0 c -2.209,0 -4,1.791 -4,4 l 0,10 c 0,2.209 1.791,4 4,4 l 16,0 c 2.209,0 4,-1.791 4,-4 L 0,0 Z" style="fill:#ffac33;fill-opacity:1;fill-rule:nonzero;stroke:none"/></g><g id="g28" transform="translate(27,30.9995)"><path id="path30" d="M 0,0 C -1.104,0 -2,0.896 -2,2 -2,3.104 -1.104,4 0,4 1.104,4 2,3.104 2,2 2,0.896 1.104,0 0,0 m 0,6 c -4.971,0 -9,-4.029 -9,-9 0,-4.971 4.029,-9 9,-9 4.971,0 9,4.029 9,9 0,4.971 -4.029,9 -9,9" style="fill:#c1694f;fill-opacity:1;fill-rule:nonzero;stroke:none"/></g><g id="g32" transform="translate(30,15)"><path id="path34" d="M 0,0 0,7 C 0,8.104 -0.896,9 -2,9 -2.748,9 -3.393,8.584 -3.735,7.976 -5.004,7.856 -6,6.8 -6,5.5 l 0,-17 c 0,-1.381 1.119,-2.5 2.5,-2.5 1.213,0 2.223,0.864 2.45,2.01 0.018,-10e-4 0.032,-0.01 0.05,-0.01 0.553,0 1,0.447 1,1 l 0,1 c 0,0.553 -0.447,1 -1,1 l 0,1 c 0.553,0 1,0.447 1,1 l 0,2 c 0,0.553 -0.447,1 -1,1 l 0,2.277 C -0.404,-1.376 0,-0.738 0,0" style="fill:#c1694f;fill-opacity:1;fill-rule:nonzero;stroke:none"/></g></g></g></g></svg>