<svg xmlns="http://www.w3.org/2000/svg" xmlns:svg="http://www.w3.org/2000/svg" style="enable-background:new 0 0 47.5 47.5" id="svg2" version="1.1" viewBox="0 0 47.5 47.5" xml:space="preserve"><metadata id="metadata8"/><defs id="defs6"><clipPath id="clipPath16" clipPathUnits="userSpaceOnUse"><path id="path18" d="M 0,38 38,38 38,0 0,0 0,38 Z"/></clipPath></defs><g id="g10" transform="matrix(1.25,0,0,-1.25,0,47.5)"><g id="g12"><g id="g14" clip-path="url(#clipPath16)"><g id="g20" transform="translate(11.9995,1.5)"><path id="path22" d="m 0,0 c -0.193,0 -0.638,0.037 -0.824,0.114 -0.56,0.233 -1.175,0.78 -1.175,1.386 l 0,7 -7,0 c -0.607,0 -1.154,0.615 -1.386,1.176 -0.233,0.56 -0.104,1.331 0.325,1.76 L 13.001,34.5 c 1,1 3,1 4,0 l 7,-7 c 1,-1 1,-3 0,-4 L 1.144,0.646 C 0.774,0.15 0.391,0 0,0" style="fill:#55acee;fill-opacity:1;fill-rule:nonzero;stroke:none"/></g></g></g></g></svg>