<svg xmlns="http://www.w3.org/2000/svg" xmlns:svg="http://www.w3.org/2000/svg" style="enable-background:new 0 0 47.5 47.5" id="svg2" version="1.1" viewBox="0 0 47.5 47.5" xml:space="preserve"><metadata id="metadata8"/><defs id="defs6"><clipPath id="clipPath16" clipPathUnits="userSpaceOnUse"><path id="path18" d="M 0,38 38,38 38,0 0,0 0,38 Z"/></clipPath></defs><g id="g10" transform="matrix(1.25,0,0,-1.25,0,47.5)"><g id="g12"><g id="g14" clip-path="url(#clipPath16)"><g id="g20" transform="translate(35.999,19.001)"><path id="path22" d="m 0,0 c 0,-9.389 -7.611,-17 -17,-17 -9.389,0 -17,7.611 -17,17 0,9.389 7.611,17 17,17 C -7.611,17 0,9.389 0,0" style="fill:#000;fill-opacity:1;fill-rule:nonzero;stroke:none"/></g><g id="g24" transform="translate(10.521,24.7554)"><path id="path26" d="m 0,0 -1.671,0 c -1.358,0 -1.924,0.991 -1.924,1.953 0,0.99 0.707,1.951 1.924,1.951 l 4.019,0 c 1.216,0 1.896,-0.876 1.896,-2.007 l 0,-16.104 c 0,-1.414 -0.906,-2.207 -2.122,-2.207 -1.217,0 -2.122,0.793 -2.122,2.207 L 0,0 Z" style="fill:#f5f8fa;fill-opacity:1;fill-rule:nonzero;stroke:none"/></g><g id="g28" transform="translate(22.7793,23.1138)"><path id="path30" d="m 0,0 c 0,-1.273 0.736,-2.151 2.037,-2.151 1.302,0 2.067,0.878 2.067,2.151 0,1.217 -0.737,2.151 -2.067,2.151 C 0.707,2.151 0,1.217 0,0 m -0.538,-8.206 c 0,-1.443 0.849,-2.832 2.575,-2.832 1.612,0 2.576,1.389 2.576,2.832 0,1.784 -1.02,2.831 -2.576,2.831 -1.641,0 -2.575,-1.247 -2.575,-2.831 m -4.414,-0.283 c 0,2.264 1.245,3.934 3.027,4.895 -1.33,0.963 -2.15,2.265 -2.15,4.047 0,3.311 2.745,5.433 6.112,5.433 3.283,0 6.14,-2.093 6.14,-5.433 0,-1.584 -0.791,-3.17 -2.178,-4.047 1.924,-0.961 3.027,-2.715 3.027,-4.895 0,-3.933 -3.197,-6.451 -6.989,-6.451 -3.905,0 -6.989,2.658 -6.989,6.451" style="fill:#f5f8fa;fill-opacity:1;fill-rule:nonzero;stroke:none"/></g><g id="g32" transform="translate(3,19)"><path id="path34" d="M 0,0 C 0,3.968 1.453,7.591 3.844,10.387 L 26.388,-12.156 C 23.591,-14.548 19.968,-16 16,-16 7.164,-16 0,-8.837 0,0 m 32,0 c 0,-3.969 -1.453,-7.592 -3.845,-10.389 L 5.612,12.155 C 8.409,14.547 12.032,16 16,16 24.837,16 32,8.836 32,0 M 16,18 C 6.059,18 -2,9.94 -2,0 c 0,-9.941 8.059,-18 18,-18 9.941,0 18,8.059 18,18 0,9.94 -8.059,18 -18,18" style="fill:#dd2e44;fill-opacity:1;fill-rule:nonzero;stroke:none"/></g></g></g></g></svg>