<svg xmlns="http://www.w3.org/2000/svg" xmlns:svg="http://www.w3.org/2000/svg" style="enable-background:new 0 0 47.5 47.5" id="svg2" version="1.1" viewBox="0 0 47.5 47.5" xml:space="preserve"><metadata id="metadata8"/><defs id="defs6"><clipPath id="clipPath16" clipPathUnits="userSpaceOnUse"><path id="path18" d="M 0,38 38,38 38,0 0,0 0,38 Z"/></clipPath></defs><g id="g10" transform="matrix(1.25,0,0,-1.25,0,47.5)"><g id="g12"><g id="g14" clip-path="url(#clipPath16)"><g id="g20" transform="translate(29.1045,16.917)"><path id="path22" d="M 0,0 C -0.623,0 -1.227,-0.078 -1.809,-0.213 L -12.192,10.17 c 0.134,0.582 0.213,1.186 0.213,1.809 0,4.43 -3.592,8.021 -8.021,8.021 -0.903,0 -2.104,-0.917 -1.104,-1.917 l 3,-3 c 0,0 1,-2 -1,-4 -2,-2 -4,-1 -4,-1 l -3,3 c -1,1 -1.917,-0.196 -1.917,-1.104 0,-4.43 3.591,-8.021 8.021,-8.021 0.623,0 1.226,0.078 1.808,0.212 L -7.809,-6.213 c -0.134,-0.582 -0.212,-1.185 -0.212,-1.808 0,-4.43 3.591,-8.021 8.021,-8.021 0.902,0 2.104,0.917 1.104,1.917 l -3,3 c 0,0 -1,2 1,4 2,2 4,1 4,1 l 3,-3 c 1,-1 1.917,0.196 1.917,1.104 C 8.021,-3.592 4.43,0 0,0" style="fill:#8899a6;fill-opacity:1;fill-rule:nonzero;stroke:none"/></g></g></g></g></svg>