<svg xmlns="http://www.w3.org/2000/svg" xmlns:svg="http://www.w3.org/2000/svg" style="enable-background:new 0 0 47.5 47.5" id="svg2" version="1.1" viewBox="0 0 47.5 47.5" xml:space="preserve"><metadata id="metadata8"/><defs id="defs6"><clipPath id="clipPath16" clipPathUnits="userSpaceOnUse"><path id="path18" d="M 0,38 38,38 38,0 0,0 0,38 Z"/></clipPath></defs><g id="g10" transform="matrix(1.25,0,0,-1.25,0,47.5)"><g id="g12"><g id="g14" clip-path="url(#clipPath16)"><g id="g20" transform="translate(15.9756,26.9287)"><path id="path22" d="m 0,0 c 0.781,-0.781 0.781,-2.047 0,-2.828 l -2.828,-2.828 c -0.781,-0.782 -2.048,-0.782 -2.829,-0.001 l -8.485,8.486 c -0.781,0.78 -0.781,2.047 0,2.828 l 2.829,2.828 c 0.781,0.782 2.046,0.781 2.828,0 L 0,0 Z" style="fill:#292f33;fill-opacity:1;fill-rule:nonzero;stroke:none"/></g><g id="g24" transform="translate(22.5117,4.8857)"><path id="path26" d="m 0,0 c 7.07,-4.243 13.488,-2.886 13.488,-2.886 0,0 1,0 0.654,1 0,0 -2.154,5.5 -17.654,21 -1,1 -2.243,0.882 -3.024,0.101 l -6.39,-6.101 c -0.781,-0.781 -0.781,-2.047 0,-2.828 L 0,0 Z" style="fill:#ccd6dd;fill-opacity:1;fill-rule:nonzero;stroke:none"/></g></g></g></g></svg>