<svg xmlns="http://www.w3.org/2000/svg" xmlns:svg="http://www.w3.org/2000/svg" style="enable-background:new 0 0 47.5 47.5" id="svg2" version="1.1" viewBox="0 0 47.5 47.5" xml:space="preserve"><metadata id="metadata8"/><defs id="defs6"><clipPath id="clipPath16" clipPathUnits="userSpaceOnUse"><path id="path18" d="M 0,38 38,38 38,0 0,0 0,38 Z"/></clipPath></defs><g id="g10" transform="matrix(1.25,0,0,-1.25,0,47.5)"><g id="g12"><g id="g14" clip-path="url(#clipPath16)"><g id="g20" transform="translate(31,5)"><path id="path22" d="M 0,0 -2,0 C -2,3.314 -4.63,6 -7.875,6 -11.119,6 -13.75,3.314 -13.75,0 L -20,0 c 0,1.104 -0.896,2 -2,2 -1.104,0 -2,-0.896 -2,-2 -1.104,0 -2,-0.896 -2,-2 0,-1.104 0.896,-2 2,-2 l 24,0 c 1.104,0 2,0.896 2,2 0,1.104 -0.896,2 -2,2" style="fill:#f18f26;fill-opacity:1;fill-rule:nonzero;stroke:none"/></g><g id="g24" transform="translate(21,27)"><path id="path26" d="m 0,0 0,-4 c 3.866,0 7,-3.134 7,-7 0,-3.866 -3.134,-7 -7,-7 l -8.485,0 c 2.017,-2.443 5.069,-4 8.485,-4 6.075,0 11,4.925 11,11 C 11,-4.925 6.075,0 0,0" style="fill:#f18f26;fill-opacity:1;fill-rule:nonzero;stroke:none"/></g><g id="g28" transform="translate(29.041,27.9287)"><path id="path30" d="m 0,0 c -0.781,-0.781 -2.047,-0.78 -2.828,0 -0.781,0.781 -0.781,2.047 0,2.828 l 2.121,2.121 C 0.074,5.73 1.342,5.731 2.123,4.95 2.902,4.17 2.902,2.902 2.121,2.121 L 0,0 Z" style="fill:#f18f26;fill-opacity:1;fill-rule:nonzero;stroke:none"/></g><g id="g32" transform="translate(34.6992,29.3428)"><path id="path34" d="m 0,0 c -0.781,-0.781 -2.049,-0.781 -2.83,0 l -4.242,4.243 c -0.782,0.78 -0.782,2.048 0,2.829 0.781,0.781 2.049,0.781 2.828,0 L 0,2.829 C 0.781,2.048 0.781,0.781 0,0" style="fill:#fdcb58;fill-opacity:1;fill-rule:nonzero;stroke:none"/></g><g id="g36" transform="translate(17.7275,13.7871)"><path id="path38" d="m 0,0 c -0.389,-0.389 -1.025,-0.39 -1.414,0 l -4.243,4.243 c -0.388,0.389 -0.388,1.026 0,1.414 L 6.364,17.678 c 0.389,0.388 1.026,0.388 1.414,0 l 4.243,-4.243 c 0.39,-0.389 0.388,-1.026 0,-1.414 L 0,0 Z" style="fill:#fdcb58;fill-opacity:1;fill-rule:nonzero;stroke:none"/></g><g id="g40" transform="translate(19.1416,15.2012)"><path id="path42" d="M 0,0 -5.657,5.657 -4.242,7.071 1.415,1.415 0,0 Z" style="fill:#f18f26;fill-opacity:1;fill-rule:nonzero;stroke:none"/></g><g id="g44" transform="translate(17.4141,6.5859)"><path id="path46" d="m 0,0 c -0.781,-0.781 -2.047,-0.781 -2.828,0 l -9.9,9.9 c -0.781,0.782 -0.781,2.047 0,2.829 0.781,0.781 2.047,0.781 2.829,0 L 0,2.828 C 0.781,2.047 0.781,0.781 0,0" style="fill:#67757f;fill-opacity:1;fill-rule:nonzero;stroke:none"/></g><g id="g48" transform="translate(9.9497,7.4648)"><path id="path50" d="m 0,0 c 0.391,-0.391 0.391,-1.023 0,-1.414 -0.391,-0.391 -1.024,-0.391 -1.414,0 l -4.243,4.242 c -0.391,0.391 -0.39,1.024 0,1.414 0.39,0.391 1.024,0.391 1.415,0 L 0,0 Z" style="fill:#67757f;fill-opacity:1;fill-rule:nonzero;stroke:none"/></g></g></g></g></svg>