<svg xmlns="http://www.w3.org/2000/svg" xmlns:svg="http://www.w3.org/2000/svg" style="enable-background:new 0 0 47.5 47.5" id="svg2" version="1.1" viewBox="0 0 47.5 47.5" xml:space="preserve"><metadata id="metadata8"/><defs id="defs6"><clipPath id="clipPath16" clipPathUnits="userSpaceOnUse"><path id="path18" d="M 0,38 38,38 38,0 0,0 0,38 Z"/></clipPath></defs><g id="g10" transform="matrix(1.25,0,0,-1.25,0,47.5)"><g id="g12"><g id="g14" clip-path="url(#clipPath16)"><g id="g20" transform="translate(30.8789,3.1211)"><path id="path22" d="M 0,0 C 1.166,-1.166 3.021,-1.221 4.121,-0.121 5.221,0.979 5.166,2.834 4,4 l -21.758,21.758 c -1.166,1.166 -3.021,1.221 -4.121,0.121 -1.1,-1.1 -1.045,-2.955 0.121,-4.121 L 0,0 Z" style="fill:#f4900c;fill-opacity:1;fill-rule:nonzero;stroke:none"/></g><g id="g24" transform="translate(23,34)"><path id="path26" d="m 0,0 c 0,0 -6,3 -11,-2 l -7,-7 c 0,0 -1,1 -2,0 l -1,-1 c 0,0 -1,-1 0,-2 l 4,-4 c 0,0 1,-1 2,0 l 1,1 c 0,0 1,1 0,2 l -0.078,0.078 c 0.77,0.743 1.923,1.5 3.078,0.922 l 4,4 c 0,0 -1,3 1,5 2,2 3,2 5,2 2,0 1,1 1,1" style="fill:#66757f;fill-opacity:1;fill-rule:nonzero;stroke:none"/></g></g></g></g></svg>