<svg xmlns="http://www.w3.org/2000/svg" xmlns:svg="http://www.w3.org/2000/svg" style="enable-background:new 0 0 47.5 47.5" id="svg2" version="1.1" viewBox="0 0 47.5 47.5" xml:space="preserve"><metadata id="metadata8"/><defs id="defs6"><clipPath id="clipPath16" clipPathUnits="userSpaceOnUse"><path id="path18" d="M 0,38 38,38 38,0 0,0 0,38 Z"/></clipPath></defs><g id="g10" transform="matrix(1.25,0,0,-1.25,0,47.5)"><g id="g12"><g id="g14" clip-path="url(#clipPath16)"><g id="g20" transform="translate(8,14.7344)"><path id="path22" d="M 0,0 C 0,0 -0.008,-0.001 -0.01,-0.001 L 0,-0.004 0,0 Z" style="fill:#ffcc4d;fill-opacity:1;fill-rule:nonzero;stroke:none"/></g><g id="g24" transform="translate(30.0625,14.7305)"><path id="path26" d="M 0,0 C 0.004,0.001 0.007,0.002 0.01,0.003 0.008,0.003 0,0.004 0,0.004 L 0,0 Z" style="fill:#ffcc4d;fill-opacity:1;fill-rule:nonzero;stroke:none"/></g><g id="g28" transform="translate(36.9053,17.3867)"><path id="path30" d="m 0,0 c -1.774,-1.072 -3.839,-1.978 -6.833,-2.653 0.018,-0.002 0.082,-0.009 0.046,-0.02 -0.268,-0.068 -0.411,-0.135 -0.687,-0.197 -1.046,-0.204 -2.587,-0.296 -2.08,1.095 l 2.131,2.906 0.518,-0.518 4.5,4.5 -4.5,4.5 -4.5,-4.5 2.551,-2.551 -2.221,-3.029 -0.002,0.002 c -1.672,-2 -4.781,-1.328 -4.781,1.078 l -0.047,0 0,6 5.5,5.5 -7.5,7.5 -7.5,-7.5 5.5,-5.5 0,-6.19 c -0.164,-2.246 -3.14,-2.832 -4.766,-0.888 l -0.002,-0.002 -2.247,3.065 2.515,2.515 -4.5,4.5 -4.5,-4.5 4.5,-4.5 0.553,0.554 2.158,-2.942 c 0.507,-1.391 -1.035,-1.299 -2.081,-1.095 -0.274,0.062 -0.418,0.129 -0.686,0.197 -0.036,0.011 0.028,0.018 0.045,0.02 -2.994,0.675 -5.058,1.581 -6.832,2.653 -0.008,-0.151 -0.095,-0.301 -0.095,-0.455 0,-3.482 6.245,-10.923 14.623,-12.586 l 3.315,-3.33 3.345,3.33 C -6.181,-11.378 0.095,-3.937 0.095,-0.455 0.095,-0.301 0.008,-0.151 0,0" style="fill:#ffcc4d;fill-opacity:1;fill-rule:nonzero;stroke:none"/></g></g></g></g></svg>