<svg xmlns="http://www.w3.org/2000/svg" xmlns:svg="http://www.w3.org/2000/svg" style="enable-background:new 0 0 47.5 47.5" id="svg2" version="1.1" viewBox="0 0 47.5 47.5" xml:space="preserve"><metadata id="metadata8"/><defs id="defs6"><clipPath id="clipPath16" clipPathUnits="userSpaceOnUse"><path id="path18" d="M 0,38 38,38 38,0 0,0 0,38 Z"/></clipPath></defs><g id="g10" transform="matrix(1.25,0,0,-1.25,0,47.5)"><g id="g12"><g id="g14" clip-path="url(#clipPath16)"><g id="g20" transform="translate(1,19)"><path id="path22" d="m 0,0 c 0,-9.94 8.059,-18 18,-18 9.941,0 18,8.06 18,18 C 36,9.941 27.941,18 18,18 8.059,18 0,9.941 0,0" style="fill:#99aab5;fill-opacity:1;fill-rule:nonzero;stroke:none"/></g><g id="g24" transform="translate(5,19)"><path id="path26" d="m 0,0 c 0,-7.731 6.268,-14 14,-14 7.732,0 14,6.269 14,14 C 28,7.732 21.732,14 14,14 6.268,14 0,7.732 0,0" style="fill:#e1e8ed;fill-opacity:1;fill-rule:nonzero;stroke:none"/></g><g id="g28" transform="translate(18,19)"><path id="path30" d="m 0,0 c 0,-0.553 0.448,-1 1,-1 0.553,0 1,0.447 1,1 L 2,11 C 2,11.552 1.553,12 1,12 0.448,12 0,11.552 0,11 L 0,0 Z" style="fill:#66757f;fill-opacity:1;fill-rule:nonzero;stroke:none"/></g><g id="g32" transform="translate(9,19)"><path id="path34" d="m 0,0 c 0,-0.552 0.447,-1 1,-1 l 9,0 c 0.553,0 1,0.448 1,1 0,0.552 -0.447,1 -1,1 L 1,1 C 0.447,1 0,0.552 0,0" style="fill:#66757f;fill-opacity:1;fill-rule:nonzero;stroke:none"/></g></g></g></g></svg>