<svg xmlns="http://www.w3.org/2000/svg" xmlns:svg="http://www.w3.org/2000/svg" style="enable-background:new 0 0 47.5 47.5" id="svg2" version="1.1" viewBox="0 0 47.5 47.5" xml:space="preserve"><metadata id="metadata8"/><defs id="defs6"><clipPath id="clipPath16" clipPathUnits="userSpaceOnUse"><path id="path18" d="M 0,38 38,38 38,0 0,0 0,38 Z"/></clipPath><clipPath id="clipPath28" clipPathUnits="userSpaceOnUse"><path id="path30" d="M 5,37 C 5,37 1,37 1,33 L 1,33 1,5 C 1,1 5,1 5,1 l 0,0 28,0 c 4,0 4,4 4,4 l 0,0 0,28 c 0,0 0,4 -4,4 l 0,0 -28,0 z"/></clipPath></defs><g id="g10" transform="matrix(1.25,0,0,-1.25,0,47.5)"><g id="g12"><g id="g14" clip-path="url(#clipPath16)"><g id="g20" transform="translate(37,5)"><path id="path22" d="m 0,0 c 0,0 0,-4 -4,-4 l -28,0 c 0,0 -4,0 -4,4 l 0,28 c 0,4 4,4 4,4 l 28,0 c 4,0 4,-4 4,-4 L 0,0 Z" style="fill:#88c9f9;fill-opacity:1;fill-rule:nonzero;stroke:none"/></g></g></g><g id="g24"><g id="g26" clip-path="url(#clipPath28)"><g id="g32" transform="translate(25,35)"><path id="path34" d="m 0,0 c 1,0 2,-3 3,-3 1,0 3,0 3,-1 0,-1 -3,-1 -3,-2 0,-1 -1,-1 -2,-1 -1,0 -3,0 -3,1 0,1 2,0 2,1 0,1 -1,5 0,5" style="fill:#3e721d;fill-opacity:1;fill-rule:nonzero;stroke:none"/></g><g id="g36" transform="translate(22,27)"><path id="path38" d="M 0,0 C 0,1 2,1 2,1 2,1 3,-1 2,-1 1,-1 0,0 0,0" style="fill:#3e721d;fill-opacity:1;fill-rule:nonzero;stroke:none"/></g><g id="g40" transform="translate(24,25)"><path id="path42" d="m 0,0 c -1,0 -1,-2 -1,-3 0,-1 0,-3 -1,-3 -1,0 -2,-1 -2,-2 0,-1 -1,-2 -2,-2 -1,0 -2,-2 -2,-2 0,0 -4,-1 -5,-1 -1,0 -3,0 -3,-1 0,-1 -3,-2 -1,-2 2,0 2,1 3,1 l 2,0 c 0,0 3,1 3,0 0,-1 0,-2 1,-2 1,0 2,1 2,2 0,1 1,1 2,1 1,0 2,0 2,1 0,1 1,2 2,2 1,0 1,2 1,3 0,1 0,3 1,3 1,0 2,3 1,3 -1,0 -2,0 -2,1 0,1 -1,1 -1,1" style="fill:#3e721d;fill-opacity:1;fill-rule:nonzero;stroke:none"/></g><g id="g44" transform="translate(9,7)"><path id="path46" d="M 0,0 C 0,1 0,2 1,2 L 4,2 C 5,2 5,2 4,1 3,0 3,1 2,1 1,1 2,-1 1,-1 0,-1 0,0 0,0" style="fill:#3e721d;fill-opacity:1;fill-rule:nonzero;stroke:none"/></g><g id="g48" transform="translate(5,4)"><path id="path50" d="M 0,0 C 0,1 1,1 1,2 1,3 0,2 0,3 0,4 1,4 2,4 3,4 3,3 3,2 3,1 2,1 2,0 2,-1 1,-1 1,-1 1,-1 0,-1 0,0" style="fill:#3e721d;fill-opacity:1;fill-rule:nonzero;stroke:none"/></g></g></g></g></svg>