<svg xmlns="http://www.w3.org/2000/svg" xmlns:svg="http://www.w3.org/2000/svg" style="enable-background:new 0 0 47.5 47.5" id="svg2" version="1.1" viewBox="0 0 47.5 47.5" xml:space="preserve"><metadata id="metadata8"/><defs id="defs6"><clipPath id="clipPath16" clipPathUnits="userSpaceOnUse"><path id="path18" d="M 0,38 38,38 38,0 0,0 0,38 Z"/></clipPath><clipPath id="clipPath28" clipPathUnits="userSpaceOnUse"><path id="path30" d="M 5,37 C 5,37 1,37 1,33 L 1,33 1,5 C 1,1 5,1 5,1 l 0,0 28,0 c 4,0 4,4 4,4 l 0,0 0,28 c 0,0 0,4 -4,4 l 0,0 -28,0 z"/></clipPath></defs><g id="g10" transform="matrix(1.25,0,0,-1.25,0,47.5)"><g id="g12"><g id="g14" clip-path="url(#clipPath16)"><g id="g20" transform="translate(37,5)"><path id="path22" d="m 0,0 c 0,0 0,-4 -4,-4 l -28,0 c 0,0 -4,0 -4,4 l 0,28 c 0,4 4,4 4,4 l 28,0 c 4,0 4,-4 4,-4 L 0,0 Z" style="fill:#88c9f9;fill-opacity:1;fill-rule:nonzero;stroke:none"/></g></g></g><g id="g24"><g id="g26" clip-path="url(#clipPath28)"><g id="g32" transform="translate(4.1138,15)"><path id="path34" d="M 0,0 1.483,0 C 1.206,-1.181 0.886,-2 0.886,-2 0.886,-2 0.514,-1.253 0,0 m 32.886,12 -7.181,-1.796 c -0.652,0.978 -1.438,1.855 -2.323,2.622 l 5.504,9.174 -2,0 -6.38,-7.292 c -1.162,0.56 -2.418,0.949 -3.741,1.141 L 15.886,22 l -2,0 -0.879,-6.151 C 11.709,15.661 10.476,15.283 9.331,14.74 L 3.886,22 l -2,0 4.561,-9.123 C 5.538,12.1 4.734,11.203 4.067,10.204 L -3.114,12 l 0,-2 5.819,-2.494 C 2.185,6.1 1.886,4.587 1.886,3 1.885,2.902 1.874,2.809 1.87,2.712 L -0.878,2.319 C -0.957,2.544 -1.035,2.763 -1.114,3 c -1,2.999 -2,5 -2,5 l -1,-25 33,3 c 0,0 -0.465,1.044 0,2 0.179,0.368 1.447,0.658 1,2 -0.709,2.129 -1.417,6.767 -1.769,10 l 4.769,0 0,2 -4.992,0.713 C 27.89,2.813 27.886,2.919 27.886,3 c 0,1.587 -0.299,3.1 -0.818,4.506 l 5.818,2.494 0,2 z" style="fill:#157569;fill-opacity:1;fill-rule:nonzero;stroke:none"/></g><g id="g36" transform="translate(8,19)"><path id="path38" d="M 0,0 C 0,0 0.422,3.316 4,6 8,9 10,8 10,7 10,6 7,6 4,4 1,2 0,0 0,0" style="fill:#3fc9b9;fill-opacity:1;fill-rule:nonzero;stroke:none"/></g><g id="g40" transform="translate(30,19)"><path id="path42" d="m 0,0 c 0,0 -0.423,3.316 -4,6 -4,3 -6,2 -6,1 0,-1 3,-1 6,-3 3,-2 4,-4 4,-4" style="fill:#3fc9b9;fill-opacity:1;fill-rule:nonzero;stroke:none"/></g><g id="g44" transform="translate(19,22.9995)"><path id="path46" d="m 0,0 c -6,0 -8,-4 -8,-4 0,0 2,2 4,2 2,0 2,-2 2,-2 l 0,-2 c 0,-1 2,-1 2,-1 0,0 2,0 2,1 l 0,2 c 0,0 0,2 2,2 2,0 4,-2 4,-2 0,0 -2,4 -8,4" style="fill:#3fc9b9;fill-opacity:1;fill-rule:nonzero;stroke:none"/></g><g id="g48" transform="translate(24,17)"><path id="path50" d="m 0,0 c -2,0 -2,1 -2,1 0,0 -0.083,-2.815 -1,-4 l -2,0 -2,0 c -0.918,1.185 -1,4 -1,4 0,0 0,-1 -2,-1 -2,0 -4,1 -4,1 0,0 0,-9 2,-10 1.265,-0.633 4,1 7,1 3,0 5.735,-1.633 7,-1 C 4,-8 4,1 4,1 4,1 2,0 0,0" style="fill:#3fc9b9;fill-opacity:1;fill-rule:nonzero;stroke:none"/></g><g id="g52" transform="translate(16,12)"><path id="path54" d="M 0,0 6,0 C 6,0 5,1 3,1 1,1 0,0 0,0" style="fill:#157569;fill-opacity:1;fill-rule:nonzero;stroke:none"/></g><g id="g56" transform="translate(3,14)"><path id="path58" d="m 0,0 c 0,0 3,-7 6,-9 3,-2 9.583,-3 10.292,-5 0,0 -9.292,5 -11.292,2 -1.474,-2.211 -2,1 -2,2 0,1 0,4 -2,1 -0.785,-1.177 -2,4 -1,9" style="fill:#3fc9b9;fill-opacity:1;fill-rule:nonzero;stroke:none"/></g></g></g></g></svg>