<svg xmlns="http://www.w3.org/2000/svg" xmlns:svg="http://www.w3.org/2000/svg" style="enable-background:new 0 0 47.5 47.5" id="svg2" version="1.1" viewBox="0 0 47.5 47.5" xml:space="preserve"><metadata id="metadata8"/><defs id="defs6"><clipPath id="clipPath16" clipPathUnits="userSpaceOnUse"><path id="path18" d="M 0,38 38,38 38,0 0,0 0,38 Z"/></clipPath><clipPath id="clipPath40" clipPathUnits="userSpaceOnUse"><path id="path42" d="m 18,30 -1,-10 4,0 -1,10 -2,0 z"/></clipPath><clipPath id="clipPath50" clipPathUnits="userSpaceOnUse"><path id="path52" d="M 0,38 38,38 38,0 0,0 0,38 Z"/></clipPath></defs><g id="g10" transform="matrix(1.25,0,0,-1.25,0,47.5)"><g id="g12"><g id="g14" clip-path="url(#clipPath16)"><g id="g20" transform="translate(37,5)"><path id="path22" d="m 0,0 c 0,0 0,-4 -4,-4 l -28,0 c 0,0 -4,0 -4,4 l 0,28 c 0,4 4,4 4,4 l 28,0 c 4,0 4,-4 4,-4 L 0,0 Z" style="fill:#88c9f9;fill-opacity:1;fill-rule:nonzero;stroke:none"/></g><g id="g24" transform="translate(19,32)"><path id="path26" d="m 0,0 -1,0 0,-3 2,0 0,3 -1,0 z" style="fill:#fff;fill-opacity:1;fill-rule:nonzero;stroke:none"/></g><g id="g28" transform="translate(20,34)"><path id="path30" d="M 0,0 C 0,0 0,1 -1,1 -2,1 -2,0 -2,0 l 0,-2 2,0 0,2 z" style="fill:#dd2e44;fill-opacity:1;fill-rule:nonzero;stroke:none"/></g><g id="g32" transform="translate(18,30)"><path id="path34" d="M 0,0 -1,-10 3,-10 2,0 0,0 Z" style="fill:#dd2e44;fill-opacity:1;fill-rule:nonzero;stroke:none"/></g></g></g><g id="g36"><g id="g38" clip-path="url(#clipPath40)"><path id="path44" d="m 16,24 6,0 0,3 -6,0 0,-3 z" style="fill:#fff;fill-opacity:1;fill-rule:nonzero;stroke:none"/></g></g><g id="g46"><g id="g48" clip-path="url(#clipPath50)"><path id="path54" d="m 15,17 8,0 0,4 -8,0 0,-4 z" style="fill:#fff;fill-opacity:1;fill-rule:nonzero;stroke:none"/><path id="path56" d="m 16,13 6,0 0,4 -6,0 0,-4 z" style="fill:#dd2e44;fill-opacity:1;fill-rule:nonzero;stroke:none"/><g id="g58" transform="translate(16,17)"><path id="path60" d="m 0,0 c 0,0 0,-11 -10,-16 l 3,0 c 0,0 7,3 9,16 L 0,0 Z" style="fill:#dd2e44;fill-opacity:1;fill-rule:nonzero;stroke:none"/></g><g id="g62" transform="translate(22,17)"><path id="path64" d="m 0,0 c 0,0 0,-11 10,-16 l -3,0 c 0,0 -7,3 -9,16 l 2,0 z" style="fill:#dd2e44;fill-opacity:1;fill-rule:nonzero;stroke:none"/></g><path id="path66" d="m 20,1 -2,0 0,13 2,0 0,-13 z" style="fill:#dd2e44;fill-opacity:1;fill-rule:nonzero;stroke:none"/><g id="g68" transform="translate(9,1)"><path id="path70" d="M 0,0 C 0,0 5,3 10,3 15,3 20,0 20,0 l 0,1.884 C 20,1.884 15,5 10,5 5,5 0,1.884 0,1.884 L 0,0 Z" style="fill:#dd2e44;fill-opacity:1;fill-rule:nonzero;stroke:none"/></g></g></g></g></svg>