<svg xmlns="http://www.w3.org/2000/svg" xmlns:svg="http://www.w3.org/2000/svg" style="enable-background:new 0 0 47.5 47.5" id="svg2" version="1.1" viewBox="0 0 47.5 47.5" xml:space="preserve"><metadata id="metadata8"/><defs id="defs6"><clipPath id="clipPath16" clipPathUnits="userSpaceOnUse"><path id="path18" d="M 0,38 38,38 38,0 0,0 0,38 Z"/></clipPath></defs><g id="g10" transform="matrix(1.25,0,0,-1.25,0,47.5)"><g id="g12"><g id="g14" clip-path="url(#clipPath16)"><g id="g20" transform="translate(36,19)"><path id="path22" d="m 0,0 c 0,-9.389 -7.611,-17 -17,-17 -9.389,0 -17,7.611 -17,17 0,9.389 7.611,17 17,17 C -7.611,17 0,9.389 0,0" style="fill:#ffcc4d;fill-opacity:1;fill-rule:nonzero;stroke:none"/></g><g id="g24" transform="translate(23,10)"><path id="path26" d="m 0,0 c 0,-2.763 -1.791,-3 -4,-3 -2.21,0 -4,0.237 -4,3 0,2.761 1.79,6 4,6 2.209,0 4,-3.239 4,-6" style="fill:#664500;fill-opacity:1;fill-rule:nonzero;stroke:none"/></g><g id="g28" transform="translate(31,21.9995)"><path id="path30" d="M 0,0 C -0.124,0 -0.25,0.023 -0.371,0.072 -5.6,2.163 -7.743,5.312 -7.832,5.446 -8.139,5.905 -8.015,6.526 -7.555,6.833 -7.096,7.139 -6.477,7.016 -6.17,6.559 -6.151,6.531 -4.24,3.773 0.371,1.929 0.884,1.724 1.134,1.142 0.929,0.629 0.773,0.238 0.396,0 0,0" style="fill:#664500;fill-opacity:1;fill-rule:nonzero;stroke:none"/></g><g id="g32" transform="translate(7.0005,21.9995)"><path id="path34" d="m 0,0 c -0.397,0 -0.772,0.238 -0.929,0.629 -0.205,0.513 0.044,1.095 0.557,1.3 C 4.24,3.773 6.151,6.531 6.17,6.559 6.478,7.015 7.099,7.136 7.557,6.829 8.013,6.521 8.137,5.904 7.832,5.446 7.743,5.312 5.599,2.163 0.371,0.072 0.249,0.023 0.124,0 0,0" style="fill:#664500;fill-opacity:1;fill-rule:nonzero;stroke:none"/></g><g id="g36" transform="translate(9,2)"><path id="path38" d="m 0,0 4,0.046 0,18.953 -4,0 L 0,0 Z M 16,19 20,19 20,0 16,0.046 16,19 Z" style="fill:#5dadec;fill-opacity:1;fill-rule:nonzero;stroke:none"/></g><g id="g40" transform="translate(15.999,19)"><path id="path42" d="m 0,0 c -0.15,0 -0.303,0.034 -0.446,0.105 -3.512,1.757 -7.071,0.019 -7.106,0 -0.495,-0.248 -1.094,-0.046 -1.342,0.448 -0.247,0.494 -0.046,1.095 0.448,1.342 0.182,0.089 4.498,2.196 8.894,0 C 0.942,1.648 1.143,1.047 0.896,0.553 0.72,0.202 0.367,0 0,0" style="fill:#664500;fill-opacity:1;fill-rule:nonzero;stroke:none"/></g><g id="g44" transform="translate(29.999,19)"><path id="path46" d="m 0,0 c -0.15,0 -0.303,0.034 -0.446,0.105 -3.513,1.756 -7.071,0.019 -7.106,0 -0.494,-0.247 -1.094,-0.047 -1.342,0.448 -0.247,0.494 -0.046,1.095 0.448,1.342 0.181,0.089 4.501,2.196 8.894,0 C 0.942,1.648 1.143,1.047 0.895,0.553 0.72,0.202 0.367,0 0,0" style="fill:#664500;fill-opacity:1;fill-rule:nonzero;stroke:none"/></g><g id="g48" transform="translate(37,3)"><path id="path50" d="m 0,0 c 0,-1.104 -8.059,-2 -18,-2 -9.941,0 -18,0.896 -18,2 0,1.104 8.059,2 18,2 C -8.059,2 0,1.104 0,0" style="fill:#5dadec;fill-opacity:1;fill-rule:nonzero;stroke:none"/></g><g id="g52" transform="translate(22,10)"><path id="path54" d="m 0,0 c 0,-1.657 -1.343,-2 -3,-2 -1.657,0 -3,0.343 -3,2 0,1.657 1.343,2 3,2 1.657,0 3,-0.343 3,-2" style="fill:#e75a70;fill-opacity:1;fill-rule:nonzero;stroke:none"/></g></g></g></g></svg>