<svg xmlns="http://www.w3.org/2000/svg" xmlns:svg="http://www.w3.org/2000/svg" style="enable-background:new 0 0 47.5 47.5" id="svg2" version="1.1" viewBox="0 0 47.5 47.5" xml:space="preserve"><metadata id="metadata8"/><defs id="defs6"><clipPath id="clipPath16" clipPathUnits="userSpaceOnUse"><path id="path18" d="M 0,38 38,38 38,0 0,0 0,38 Z"/></clipPath></defs><g id="g10" transform="matrix(1.25,0,0,-1.25,0,47.5)"><g id="g12"><g id="g14" clip-path="url(#clipPath16)"><g id="g20" transform="translate(36,19)"><path id="path22" d="m 0,0 c 0,-9.389 -7.611,-17 -17,-17 -9.388,0 -17,7.611 -17,17 0,9.388 7.612,17 17,17 C -7.611,17 0,9.388 0,0" style="fill:#ffcc4d;fill-opacity:1;fill-rule:nonzero;stroke:none"/></g><g id="g24" transform="translate(28,17)"><path id="path26" d="m 0,0 -18,0 c -2.209,0 -4,-1.791 -4,-4 0,-2.209 1.791,-4 4,-4 l 18,0 c 2.21,0 4,1.791 4,4 0,2.209 -1.79,4 -4,4" style="fill:#664500;fill-opacity:1;fill-rule:nonzero;stroke:none"/></g><path id="path28" d="m 25,15 -5,0 0,-4 5,0 0,4 z" style="fill:#f5f8fa;fill-opacity:1;fill-rule:nonzero;stroke:none"/><g id="g30" transform="translate(28,15)"><path id="path32" d="m 0,0 -1,0 0,-4 1,0 c 1.105,0 2,0.896 2,2 0,1.105 -0.895,2 -2,2" style="fill:#f5f8fa;fill-opacity:1;fill-rule:nonzero;stroke:none"/></g><g id="g34" transform="translate(10,15)"><path id="path36" d="m 0,0 c -1.104,0 -2,-0.895 -2,-2 0,-1.104 0.896,-2 2,-2 l 1,0 0,4 -1,0 z" style="fill:#f5f8fa;fill-opacity:1;fill-rule:nonzero;stroke:none"/></g><path id="path38" d="m 13,11 5,0 0,4 -5,0 0,-4 z" style="fill:#f5f8fa;fill-opacity:1;fill-rule:nonzero;stroke:none"/><g id="g40" transform="translate(15,23)"><path id="path42" d="m 0,0 c 0,-1.657 -0.96,-3 -2.143,-3 -1.184,0 -2.143,1.343 -2.143,3 0,1.657 0.959,3 2.143,3 C -0.96,3 0,1.657 0,0" style="fill:#664500;fill-opacity:1;fill-rule:nonzero;stroke:none"/></g><g id="g44" transform="translate(27,23.2002)"><path id="path46" d="m 0,0 c 0,-1.547 -0.895,-2.8 -2,-2.8 -1.104,0 -2,1.253 -2,2.8 0,1.546 0.896,2.8 2,2.8 1.105,0 2,-1.254 2,-2.8" style="fill:#664500;fill-opacity:1;fill-rule:nonzero;stroke:none"/></g></g></g></g></svg>