<svg xmlns="http://www.w3.org/2000/svg" xmlns:svg="http://www.w3.org/2000/svg" style="enable-background:new 0 0 47.5 47.5" id="svg2" version="1.1" viewBox="0 0 47.5 47.5" xml:space="preserve"><metadata id="metadata8"/><defs id="defs6"><clipPath id="clipPath16" clipPathUnits="userSpaceOnUse"><path id="path18" d="M 0,38 38,38 38,0 0,0 0,38 Z"/></clipPath></defs><g id="g10" transform="matrix(1.25,0,0,-1.25,0,47.5)"><g id="g12"><g id="g14" clip-path="url(#clipPath16)"><g id="g20" transform="translate(36,19)"><path id="path22" d="m 0,0 c 0,-9.389 -7.611,-17 -17,-17 -9.388,0 -17,7.611 -17,17 0,9.388 7.612,17 17,17 C -7.611,17 0,9.388 0,0" style="fill:#ffcc4d;fill-opacity:1;fill-rule:nonzero;stroke:none"/></g><g id="g24" transform="translate(8.001,22)"><path id="path26" d="M 0,0 C -0.323,0 -0.64,0.156 -0.833,0.445 -1.139,0.905 -1.015,1.526 -0.556,1.832 -0.423,1.92 2.745,4 6.999,4 c 0.552,0 1,-0.448 1,-1 0,-0.552 -0.448,-1 -1,-1 C 3.344,2 0.581,0.186 0.554,0.168 0.383,0.054 0.19,0 0,0" style="fill:#664500;fill-opacity:1;fill-rule:nonzero;stroke:none"/></g><g id="g28" transform="translate(29.999,22)"><path id="path30" d="M 0,0 C -0.189,0 -0.382,0.054 -0.552,0.167 -0.58,0.185 -3.371,2 -6.999,2 c -0.553,0 -1,0.448 -1,1 0,0.552 0.447,1 1,1 C -2.745,4 0.423,1.92 0.556,1.832 1.016,1.526 1.14,0.905 0.833,0.445 0.641,0.156 0.323,0 0,0" style="fill:#664500;fill-opacity:1;fill-rule:nonzero;stroke:none"/></g><g id="g32" transform="translate(2.0235,18.5348)"><path id="path34" d="m 0,0 7.977,-3.626 0,-4.546 -6.238,1.135 c 0.386,-0.782 0.822,-1.532 1.318,-2.24 l 4.92,-0.895 0,-1.363 c 0,-1.104 0.895,-2 2,-2 l 14,0 c 1.104,0 2,0.896 2,2 l 0,1.363 4.919,0.895 c 0.497,0.708 0.933,1.458 1.318,2.24 l -6.237,-1.135 0,4.546 L 33.953,0 c 0.004,0.156 0.024,0.308 0.024,0.465 0,0.51 -0.033,1.012 -0.077,1.511 l -7.923,-3.602 0,1.091 c 0,1.105 -0.896,2 -2,2 l -14,0 c -1.105,0 -2,-0.895 -2,-2 l 0,-1.091 -7.924,3.602 C 0.009,1.477 -0.023,0.975 -0.023,0.465 -0.023,0.308 -0.004,0.156 0,0" style="fill:#f5f8fa;fill-opacity:1;fill-rule:nonzero;stroke:none"/></g></g></g></g></svg>