<svg xmlns="http://www.w3.org/2000/svg" xmlns:svg="http://www.w3.org/2000/svg" style="enable-background:new 0 0 47.5 47.5" id="svg2" version="1.1" viewBox="0 0 47.5 47.5" xml:space="preserve"><metadata id="metadata8"/><defs id="defs6"><clipPath id="clipPath22" clipPathUnits="userSpaceOnUse"><path id="path24" d="M 0,38 38,38 38,0 0,0 0,38 Z"/></clipPath></defs><g id="g10" transform="matrix(1.25,0,0,-1.25,0,47.5)"><path id="path12" d="m 17,1 -2,0 0,29 2,0 0,-29 z" style="fill:#6d6e71;fill-opacity:1;fill-rule:nonzero;stroke:none"/><path id="path14" d="m 19,16 -3,0 0,2 3,0 0,-2 z" style="fill:#6d6e71;fill-opacity:1;fill-rule:nonzero;stroke:none"/><path id="path16" d="m 19,22 -3,0 0,2 3,0 0,-2 z" style="fill:#6d6e71;fill-opacity:1;fill-rule:nonzero;stroke:none"/><g id="g18"><g id="g20" clip-path="url(#clipPath22)"><g id="g26" transform="translate(30,13)"><path id="path28" d="m 0,0 c 0,-0.553 -0.447,-1 -1,-1 l -9,0 c -0.553,0 -1,0.447 -1,1 l 0,14 c 0,0.552 0.447,1 1,1 l 9,0 c 0.553,0 1,-0.448 1,-1 L 0,0 Z" style="fill:#bcbec0;fill-opacity:1;fill-rule:nonzero;stroke:none"/></g><g id="g30" transform="translate(30,24)"><path id="path32" d="m 0,0 0,3 c 0,0.552 -0.447,1 -1,1 l -9,0 c -0.553,0 -1,-0.448 -1,-1 l 0,-3 11,0 z" style="fill:#be1931;fill-opacity:1;fill-rule:nonzero;stroke:none"/></g><g id="g34" transform="translate(22,3)"><path id="path36" d="m 0,0 -12,0 -1,-1 0,-1 14,0 0,1 -1,1 z" style="fill:#6d6e71;fill-opacity:1;fill-rule:nonzero;stroke:none"/></g><g id="g38" transform="translate(20,5)"><path id="path40" d="m 0,0 -8,0 -1,-1 0,-1 10,0 0,1 -1,1 z" style="fill:#6d6e71;fill-opacity:1;fill-rule:nonzero;stroke:none"/></g><g id="g42" transform="translate(12,33)"><path id="path44" d="M 0,0 C 0,2.209 1.791,4 4,4 6.209,4 8,2.209 8,0 8,-2.209 6.209,-4 4,-4 1.791,-4 0,-2.209 0,0" style="fill:#be1931;fill-opacity:1;fill-rule:nonzero;stroke:none"/></g><path id="path46" d="m 24,21 -3,0 0,3 3,0 0,-3 z" style="fill:#808285;fill-opacity:1;fill-rule:nonzero;stroke:none"/><path id="path48" d="m 24,17 -3,0 0,3 3,0 0,-3 z" style="fill:#f4900c;fill-opacity:1;fill-rule:nonzero;stroke:none"/><path id="path50" d="m 24,13 -3,0 0,3 3,0 0,-3 z" style="fill:#f4900c;fill-opacity:1;fill-rule:nonzero;stroke:none"/><path id="path52" d="m 28,21 -3,0 0,3 3,0 0,-3 z" style="fill:#808285;fill-opacity:1;fill-rule:nonzero;stroke:none"/><path id="path54" d="m 28,17 -3,0 0,3 3,0 0,-3 z" style="fill:#808285;fill-opacity:1;fill-rule:nonzero;stroke:none"/><path id="path56" d="m 28,13 -3,0 0,3 3,0 0,-3 z" style="fill:#f4900c;fill-opacity:1;fill-rule:nonzero;stroke:none"/><path id="path58" d="m 18,31 -4,0 0,4 4,0 0,-4 z" style="fill:#dd2e44;fill-opacity:1;fill-rule:nonzero;stroke:none"/><path id="path60" d="m 28,25 -7,0 0,2 7,0 0,-2 z" style="fill:#dd2e44;fill-opacity:1;fill-rule:nonzero;stroke:none"/></g></g></g></svg>