<svg xmlns="http://www.w3.org/2000/svg" xmlns:svg="http://www.w3.org/2000/svg" style="enable-background:new 0 0 47.5 47.5" id="svg2" version="1.1" viewBox="0 0 47.5 47.5" xml:space="preserve"><metadata id="metadata8"/><defs id="defs6"><clipPath id="clipPath18" clipPathUnits="userSpaceOnUse"><path id="path20" d="M 0,38 38,38 38,0 0,0 0,38 Z"/></clipPath></defs><g id="g10" transform="matrix(1.25,0,0,-1.25,0,47.5)"><path id="path12" d="M 37,3 1,3 1,1 37,1 37,3 Z" style="fill:#939598;fill-opacity:1;fill-rule:nonzero;stroke:none"/><g id="g14"><g id="g16" clip-path="url(#clipPath18)"><g id="g22" transform="translate(4,2)"><path id="path24" d="m 0,0 33,0 0,27 c 0,0 -29,-1 -36,-15.999 -2.115,-4.531 6,-6 6,-6 L 0,0 Z" style="fill:#bcbec0;fill-opacity:1;fill-rule:nonzero;stroke:none"/></g><g id="g26" transform="translate(24,19.0005)"><path id="path28" d="m 0,0 -15,-7 -8.31,0 c -0.584,-3.749 6.31,-5 6.31,-5 l -3,-5 33,0 L 13,2.709 0,0 Z" style="fill:#3b88c3;fill-opacity:1;fill-rule:nonzero;stroke:none"/></g><g id="g30" transform="translate(15,2)"><path id="path32" d="M 0,0 2,3 22,3 22,0 0,0 Z" style="fill:#231f20;fill-opacity:1;fill-rule:nonzero;stroke:none"/></g><g id="g34" transform="translate(37,22.8584)"><path id="path36" d="m 0,0 c -4.347,-0.358 -13.388,-1.62 -19.581,-6.044 -5.604,-4.002 -11.877,-3.899 -16.033,-3.829 -0.135,0.002 -0.261,0.004 -0.39,0.006 -0.347,-0.748 -0.411,-1.41 -0.283,-1.998 0.214,-0.003 0.411,-0.004 0.64,-0.008 0.553,-0.009 1.155,-0.019 1.799,-0.019 4.185,0 10.108,0.42 15.429,4.221 5.231,3.735 13.453,5.241 18.419,5.672 L 0,0 Z" style="fill:#e6e7e8;fill-opacity:1;fill-rule:nonzero;stroke:none"/></g><g id="g38" transform="translate(13,21.0005)"><path id="path40" d="M 0,0 3.878,4.929 C 8.727,6.868 17,7.98 24,7.98 l 0,-2 C 17,5.98 6,4 0,0" style="fill:#a7a9ac;fill-opacity:1;fill-rule:nonzero;stroke:none"/></g><g id="g42" transform="translate(4.0952,17.5352)"><path id="path44" d="m 0,0 c 1.672,0.392 3.617,0.723 5.44,1.65 9.465,4.815 10.473,7.798 10.465,7.815 -7,0 -12,-4 -15.905,-9.465" style="fill:#58595b;fill-opacity:1;fill-rule:nonzero;stroke:none"/></g><g id="g46" transform="translate(7,7.001)"><path id="path48" d="m 0,0 -0.001,-0.001 30.001,0 0,2 -34.887,0 C -3.012,0.547 0,0 0,0" style="fill:#269;fill-opacity:1;fill-rule:nonzero;stroke:none"/></g><g id="g50" transform="translate(4.5493,14.8555)"><path id="path52" d="M 0,0 C 0.47,-0.034 1.013,-0.019 1.591,0.06 3.233,0.281 4.504,0.905 4.43,1.453 4.356,1.994 2.995,2.256 1.378,2.047 0.729,1.416 0.257,0.722 0,0" style="fill:#ffe8b6;fill-opacity:1;fill-rule:nonzero;stroke:none"/></g></g></g></g></svg>