<svg xmlns="http://www.w3.org/2000/svg" xmlns:svg="http://www.w3.org/2000/svg" style="enable-background:new 0 0 47.5 47.5" id="svg2" version="1.1" viewBox="0 0 47.5 47.5" xml:space="preserve"><metadata id="metadata8"/><defs id="defs6"><clipPath id="clipPath28" clipPathUnits="userSpaceOnUse"><path id="path30" d="M 0,38 38,38 38,0 0,0 0,38 Z"/></clipPath></defs><g id="g10" transform="matrix(1.25,0,0,-1.25,0,47.5)"><g id="g12" transform="translate(1,1)"><path id="path14" d="M 0,0 28,0 18.375,17 9.625,17 0,0 Z" style="fill:#a7a9ac;fill-opacity:1;fill-rule:nonzero;stroke:none"/></g><g id="g16" transform="translate(3.625,1)"><path id="path18" d="M 0,0 22.75,0 14,17 8.75,17 0,0 Z" style="fill:#58595b;fill-opacity:1;fill-rule:nonzero;stroke:none"/></g><g id="g20" transform="translate(6.25,1)"><path id="path22" d="M 0,0 17.5,0 9.625,17 7.875,17 0,0 Z" style="fill:#808285;fill-opacity:1;fill-rule:nonzero;stroke:none"/></g><g id="g24"><g id="g26" clip-path="url(#clipPath28)"><g id="g32" transform="translate(25,2)"><path id="path34" d="m 0,0 c 0,-0.553 -0.447,-1 -1,-1 l -18,0 c -0.552,0 -1,0.447 -1,1 0,0.553 0.448,1 1,1 L -1,1 C -0.447,1 0,0.553 0,0" style="fill:#a7a9ac;fill-opacity:1;fill-rule:nonzero;stroke:none"/></g><g id="g36" transform="translate(23,6)"><path id="path38" d="m 0,0 c 0,-0.553 -0.447,-1 -1,-1 l -14,0 c -0.552,0 -1,0.447 -1,1 0,0.553 0.448,1 1,1 L -1,1 C -0.447,1 0,0.553 0,0" style="fill:#a7a9ac;fill-opacity:1;fill-rule:nonzero;stroke:none"/></g><g id="g40" transform="translate(21,10)"><path id="path42" d="m 0,0 c 0,-0.553 -0.447,-1 -1,-1 l -10,0 c -0.552,0 -1,0.447 -1,1 0,0.553 0.448,1 1,1 L -1,1 C -0.447,1 0,0.553 0,0" style="fill:#a7a9ac;fill-opacity:1;fill-rule:nonzero;stroke:none"/></g><g id="g44" transform="translate(7.896,13.1797)"><path id="path46" d="m 0,0 c 0.984,-1.226 2.29,-2.18 3.604,-2.18 l 7,0 c 1.313,0 2.62,0.955 3.604,2.18 l -2.23,3.938 C 10.789,3.841 9.223,3.82 7.104,3.82 4.947,3.82 3.364,3.797 2.167,3.828 L 0,0 Z" style="fill:#58595b;fill-opacity:1;fill-rule:nonzero;stroke:none"/></g><g id="g48" transform="translate(16,34)"><path id="path50" d="m 0,0 c 0,-0.552 -0.448,-1 -1,-1 -0.552,0 -1,0.448 -1,1 l 0,1 c 0,0.552 0.448,1 1,1 0.552,0 1,-0.448 1,-1 L 0,0 Z" style="fill:#414042;fill-opacity:1;fill-rule:nonzero;stroke:none"/></g><g id="g52" transform="translate(19,32)"><path id="path54" d="m 0,0 c 0,-1.104 -0.896,-2 -2,-2 l -4,0 c -1.104,0 -2,0.896 -2,2 0,1.104 0.896,2 2,2 l 4,0 C -0.896,2 0,1.104 0,0" style="fill:#6d6e71;fill-opacity:1;fill-rule:nonzero;stroke:none"/></g><g id="g56" transform="translate(24,19)"><path id="path58" d="m 0,0 c 0,-2.209 -3.412,-5 -5.4,-5 l -7.2,0 c -1.988,0 -5.4,2.791 -5.4,5 l 0,10 c 0,2.209 1.612,4 3.6,4 l 10.8,0 C -1.612,14 0,12.209 0,10 L 0,0 Z" style="fill:#d1d3d4;fill-opacity:1;fill-rule:nonzero;stroke:none"/></g><g id="g60" transform="translate(22,21)"><path id="path62" d="m 0,0 c 0,-2.209 -1.791,-4 -4,-4 l -6,0 c -2.209,0 -4,1.791 -4,4 l 0,5 c 0,2.209 1.791,3 4,3 l 6,0 C -1.791,8 0,7.209 0,5 L 0,0 Z" style="fill:#808285;fill-opacity:1;fill-rule:nonzero;stroke:none"/></g><g id="g64" transform="translate(12,22)"><path id="path66" d="m 0,0 6,0 c 2.209,0 4,1.791 4,4 L 10,5 -4,5 -4,4 C -4,1.791 -2.209,0 0,0" style="fill:#55acee;fill-opacity:1;fill-rule:nonzero;stroke:none"/></g><g id="g68" transform="translate(15,17)"><path id="path70" d="M 0,0 C -6.3,0 -7.878,1.801 -9,3.242 L -9,2 c 0,-2.209 2.7,-6 5.4,-6 l 7.2,0 C 6.3,-4 9,-0.209 9,2 L 9,3.891 C 7.879,2.161 6.3,0 0,0" style="fill:#5c913b;fill-opacity:1;fill-rule:nonzero;stroke:none"/></g><g id="g72" transform="translate(12,19.5)"><path id="path74" d="M 0,0 C 0,-0.828 -0.672,-1.5 -1.5,-1.5 -2.329,-1.5 -3,-0.828 -3,0 -3,0.829 -2.329,1.5 -1.5,1.5 -0.672,1.5 0,0.829 0,0" style="fill:#ffd983;fill-opacity:1;fill-rule:nonzero;stroke:none"/></g><g id="g76" transform="translate(21,19.5)"><path id="path78" d="M 0,0 C 0,-0.828 -0.672,-1.5 -1.5,-1.5 -2.328,-1.5 -3,-0.828 -3,0 -3,0.829 -2.328,1.5 -1.5,1.5 -0.672,1.5 0,0.829 0,0" style="fill:#ffd983;fill-opacity:1;fill-rule:nonzero;stroke:none"/></g><g id="g80" transform="translate(22,27)"><path id="path82" d="m 0,0 0,2 c 0,1.104 -0.896,2 -2,2 l -10,0 c -1.104,0 -2,-0.896 -2,-2 l 0,-2 14,0 z" style="fill:#292f33;fill-opacity:1;fill-rule:nonzero;stroke:none"/></g><g id="g84" transform="translate(18,29)"><path id="path86" d="m 0,0 c 0,-0.552 -0.447,-1 -1,-1 l -4,0 c -0.552,0 -1,0.448 -1,1 0,0.552 0.448,1 1,1 l 4,0 C -0.447,1 0,0.552 0,0" style="fill:#6d6e71;fill-opacity:1;fill-rule:nonzero;stroke:none"/></g><g id="g88" transform="translate(24,14.0605)"><path id="path90" d="m 0,0 9,-13.061 4,0 0,5 -4,0 -9,10 L 0,0 Z" style="fill:#58595b;fill-opacity:1;fill-rule:nonzero;stroke:none"/></g><g id="g92" transform="translate(37,6)"><path id="path94" d="M 0,0 0,10 -13,10 -4,0 0,0 Z" style="fill:#a7a9ac;fill-opacity:1;fill-rule:nonzero;stroke:none"/></g><g id="g96" transform="translate(34,13)"><path id="path98" d="m 0,0 c 0,-1 0,-1 -1,-1 -1,0 -1,0 -1,1 l 0,11 c 0,0.552 0.447,1 1,1 0.553,0 1,-0.448 1,-1 L 0,0 Z" style="fill:#6d6e71;fill-opacity:1;fill-rule:nonzero;stroke:none"/></g><g id="g100" transform="translate(34,20)"><path id="path102" d="m 0,0 c 0,-1 0,-1 -1,-1 -1,0 -1,0 -1,1 l 0,7 c 0,0.552 0.447,1 1,1 0.553,0 1,-0.448 1,-1 L 0,0 Z" style="fill:#939598;fill-opacity:1;fill-rule:nonzero;stroke:none"/></g><g id="g104" transform="translate(37,26)"><path id="path106" d="m 0,0 c 0,-1.104 -0.896,-2 -2,-2 l -4,0 c -1.104,0 -2,0.896 -2,2 l 0,2 c 0,1.104 0.896,2 2,2 l 4,0 C -0.896,4 0,3.104 0,2 L 0,0 Z" style="fill:#58595b;fill-opacity:1;fill-rule:nonzero;stroke:none"/></g><g id="g108" transform="translate(35,27)"><path id="path110" d="m 0,0 c 0,-0.552 -0.447,-1 -1,-1 l -2,0 c -0.553,0 -1,0.448 -1,1 0,0.552 0.447,1 1,1 l 2,0 C -0.447,1 0,0.552 0,0" style="fill:#939598;fill-opacity:1;fill-rule:nonzero;stroke:none"/></g></g></g></g></svg>