<svg xmlns="http://www.w3.org/2000/svg" xmlns:svg="http://www.w3.org/2000/svg" style="enable-background:new 0 0 47.5 47.5" id="svg2" version="1.1" viewBox="0 0 47.5 47.5" xml:space="preserve"><metadata id="metadata8"/><defs id="defs6"><clipPath id="clipPath18" clipPathUnits="userSpaceOnUse"><path id="path20" d="M 0,38 38,38 38,0 0,0 0,38 Z"/></clipPath></defs><g id="g10" transform="matrix(1.25,0,0,-1.25,0,47.5)"><path id="path12" d="M 37,3 1,3 1,1 37,1 37,3 Z" style="fill:#939598;fill-opacity:1;fill-rule:nonzero;stroke:none"/><g id="g14"><g id="g16" clip-path="url(#clipPath18)"><g id="g22" transform="translate(4,2)"><path id="path24" d="m 0,0 33,0 0,29 -15,0 c -4,0 -5,-2 -5,-2 L 9,21 c 0,0 -12,-5 -12,-9.999 0,-4 6,-6 6,-6 L 0,0 Z" style="fill:#d1d3d4;fill-opacity:1;fill-rule:nonzero;stroke:none"/></g><g id="g26" transform="translate(15,2)"><path id="path28" d="M 0,0 2,3 22,3 22,0 0,0 Z" style="fill:#231f20;fill-opacity:1;fill-rule:nonzero;stroke:none"/></g><g id="g30" transform="translate(1,13.001)"><path id="path32" d="M 0,0 C 0,-4 6,-6 6,-6 L 6,6.875 C 3,5 0,2.5 0,0" style="fill:#3b88c3;fill-opacity:1;fill-rule:nonzero;stroke:none"/></g><g id="g34" transform="translate(7,7)"><path id="path36" d="M 0,0 0,0.001 0,0 Z" style="fill:#3b88c3;fill-opacity:1;fill-rule:nonzero;stroke:none"/></g><g id="g38" transform="translate(7,7)"><path id="path40" d="M 0,0 -3,-5 30,-5 30,0 0,0 Z" style="fill:#269;fill-opacity:1;fill-rule:nonzero;stroke:none"/></g><g id="g42" transform="translate(21,7)"><path id="path44" d="M 0,0 4,6 16,6 16,0 0,0 Z" style="fill:#3b88c3;fill-opacity:1;fill-rule:nonzero;stroke:none"/></g><g id="g46" transform="translate(27,29)"><path id="path48" d="m 0,0 -10,0 -4,-6 -10e-4,0 10.843,0 c 0.476,0 1.108,0.448 1.412,1 l 2.197,4 C 0.754,-0.448 0.553,0 0,0" style="fill:#55acee;fill-opacity:1;fill-rule:nonzero;stroke:none"/></g><g id="g50" transform="translate(26.9023,27)"><path id="path52" d="M 0,0 0.549,1 C 0.852,1.552 0.65,2 0.098,2 L -9.903,2 -11.236,0 0,0 Z" style="fill:#3b88c3;fill-opacity:1;fill-rule:nonzero;stroke:none"/></g></g></g></g></svg>