<svg xmlns="http://www.w3.org/2000/svg" xmlns:svg="http://www.w3.org/2000/svg" style="enable-background:new 0 0 47.5 47.5" id="svg2" version="1.1" viewBox="0 0 47.5 47.5" xml:space="preserve"><metadata id="metadata8"/><defs id="defs6"><clipPath id="clipPath18" clipPathUnits="userSpaceOnUse"><path id="path20" d="M 0,38 38,38 38,0 0,0 0,38 Z"/></clipPath></defs><g id="g10" transform="matrix(1.25,0,0,-1.25,0,47.5)"><path id="path12" d="M 37,3 1,3 1,1 37,1 37,3 Z" style="fill:#939598;fill-opacity:1;fill-rule:nonzero;stroke:none"/><g id="g14"><g id="g16" clip-path="url(#clipPath18)"><g id="g22" transform="translate(11,5)"><path id="path24" d="m 0,0 c 0,1.657 -1.344,3 -3,3 -1.657,0 -3,-1.343 -3,-3 0,-1.657 1.343,-3 3,-3 1.656,0 3,1.343 3,3" style="fill:#58595b;fill-opacity:1;fill-rule:nonzero;stroke:none"/></g><g id="g26" transform="translate(10,5)"><path id="path28" d="m 0,0 c 0,1.105 -0.896,2 -2,2 -1.105,0 -2,-0.895 -2,-2 0,-1.105 0.895,-2 2,-2 1.104,0 2,0.895 2,2" style="fill:#292f33;fill-opacity:1;fill-rule:nonzero;stroke:none"/></g><g id="g30" transform="translate(33,5)"><path id="path32" d="m 0,0 c 0,1.657 -1.344,3 -3,3 -1.657,0 -3,-1.343 -3,-3 0,-1.657 1.343,-3 3,-3 1.656,0 3,1.343 3,3" style="fill:#58595b;fill-opacity:1;fill-rule:nonzero;stroke:none"/></g><g id="g34" transform="translate(32,5)"><path id="path36" d="m 0,0 c 0,1.105 -0.896,2 -2,2 -1.105,0 -2,-0.895 -2,-2 0,-1.105 0.895,-2 2,-2 1.104,0 2,0.895 2,2" style="fill:#292f33;fill-opacity:1;fill-rule:nonzero;stroke:none"/></g><g id="g38" transform="translate(35,35)"><path id="path40" d="m 0,0 -32,0 c -0.552,0 -1,0.448 -1,1 0,0.552 0.448,1 1,1 L 0,2 C 0.553,2 1,1.552 1,1 1,0.448 0.553,0 0,0" style="fill:#e6e7e8;fill-opacity:1;fill-rule:nonzero;stroke:none"/></g><g id="g42" transform="translate(18.9995,26.0005)"><path id="path44" d="m 0,0 c -0.256,0 -0.512,0.098 -0.707,0.293 l -5,5 c -0.201,0.201 -0.307,0.478 -0.292,0.762 0.016,0.284 0.152,0.548 0.374,0.726 l 5,4 c 0.431,0.344 1.062,0.275 1.406,-0.156 C 1.125,10.193 1.056,9.564 0.625,9.219 l -4.128,-3.302 4.21,-4.21 c 0.39,-0.391 0.39,-1.023 0,-1.414 C 0.512,0.098 0.256,0 0,0" style="fill:#66757f;fill-opacity:1;fill-rule:nonzero;stroke:none"/></g><g id="g46" transform="translate(17.9995,26.0005)"><path id="path48" d="m 0,0 c -0.256,0 -0.512,0.098 -0.707,0.293 -0.391,0.391 -0.391,1.023 0,1.414 l 4.21,4.21 -4.128,3.302 c -0.431,0.345 -0.501,0.974 -0.156,1.406 0.345,0.432 0.976,0.5 1.406,0.156 l 5,-4 C 5.847,6.603 5.983,6.339 5.999,6.055 6.015,5.771 5.909,5.494 5.708,5.293 l -5.001,-5 C 0.512,0.098 0.256,0 0,0" style="fill:#66757f;fill-opacity:1;fill-rule:nonzero;stroke:none"/></g><g id="g50" transform="translate(31,27)"><path id="path52" d="m 0,0 c 0,-1.104 -0.896,-2 -2,-2 l -20,0 c -1.104,0 -2,0.896 -2,2 0,1.104 0.896,2 2,2 L -2,2 C -0.896,2 0,1.104 0,0" style="fill:#bcbec0;fill-opacity:1;fill-rule:nonzero;stroke:none"/></g><g id="g54" transform="translate(37,15)"><path id="path56" d="m 0,0 c 0,-2.209 -1.791,-4 -4,-4 l -28,0 c -2.209,0 -4,1.791 -4,4 l 0,8 c 0,2.209 1.791,4 4,4 l 28,0 c 2.209,0 4,-1.791 4,-4 L 0,0 Z" style="fill:#e6e7e8;fill-opacity:1;fill-rule:nonzero;stroke:none"/></g><path id="path58" d="M 37,9 1,9 1,5 37,5 37,9 Z" style="fill:#e6e7e8;fill-opacity:1;fill-rule:nonzero;stroke:none"/><path id="path60" d="M 37,23 1,23 1,9 37,9 37,23 Z" style="fill:#5c913b;fill-opacity:1;fill-rule:nonzero;stroke:none"/><path id="path62" d="M 37,13 1,13 1,23 37,23 37,13 Z" style="fill:#5c913b;fill-opacity:1;fill-rule:nonzero;stroke:none"/><path id="path64" d="M 14,7 7,7 7,21 14,21 14,7 Z" style="fill:#3e721d;fill-opacity:1;fill-rule:nonzero;stroke:none"/><path id="path66" d="m 31,7 -7,0 0,14 7,0 0,-14 z" style="fill:#3e721d;fill-opacity:1;fill-rule:nonzero;stroke:none"/><g id="g68" transform="translate(3,21)"><path id="path70" d="m 0,0 -2,0 0,-10 2,0 c 1.104,0 2,0.896 2,2 l 0,6 C 2,-0.896 1.104,0 0,0" style="fill:#88c9f9;fill-opacity:1;fill-rule:nonzero;stroke:none"/></g><g id="g72" transform="translate(37,21)"><path id="path74" d="m 0,0 -2,0 c -1.104,0 -2,-0.896 -2,-2 l 0,-6 c 0,-1.104 0.896,-2 2,-2 l 2,0 0,10 z" style="fill:#88c9f9;fill-opacity:1;fill-rule:nonzero;stroke:none"/></g><g id="g76" transform="translate(22,15)"><path id="path78" d="m 0,0 c 0,-0.553 -0.448,-1 -1,-1 l -4,0 c -0.552,0 -1,0.447 -1,1 l 0,4 c 0,0.553 0.448,1 1,1 l 4,0 C -0.448,5 0,4.553 0,4 L 0,0 Z" style="fill:#88c9f9;fill-opacity:1;fill-rule:nonzero;stroke:none"/></g><g id="g80" transform="translate(13,14)"><path id="path82" d="m 0,0 c 0,-0.553 -0.448,-1 -1,-1 l -3,0 c -0.552,0 -1,0.447 -1,1 l 0,5 c 0,0.552 0.448,1 1,1 l 3,0 C -0.448,6 0,5.552 0,5 L 0,0 Z" style="fill:#88c9f9;fill-opacity:1;fill-rule:nonzero;stroke:none"/></g><g id="g84" transform="translate(30,14)"><path id="path86" d="m 0,0 c 0,-0.553 -0.447,-1 -1,-1 l -3,0 c -0.553,0 -1,0.447 -1,1 l 0,5 c 0,0.552 0.447,1 1,1 l 3,0 C -0.447,6 0,5.552 0,5 L 0,0 Z" style="fill:#88c9f9;fill-opacity:1;fill-rule:nonzero;stroke:none"/></g><path id="path88" d="M 37,7 1,7 1,9 37,9 37,7 Z" style="fill:#3e721d;fill-opacity:1;fill-rule:nonzero;stroke:none"/></g></g></g></svg>