<svg xmlns="http://www.w3.org/2000/svg" xmlns:svg="http://www.w3.org/2000/svg" style="enable-background:new 0 0 47.5 47.5" id="svg2" version="1.1" viewBox="0 0 47.5 47.5" xml:space="preserve"><metadata id="metadata8"/><defs id="defs6"><clipPath id="clipPath20" clipPathUnits="userSpaceOnUse"><path id="path22" d="M 0,38 38,38 38,0 0,0 0,38 Z"/></clipPath></defs><g id="g10" transform="matrix(1.25,0,0,-1.25,0,47.5)"><path id="path12" d="M 37,3 1,3 1,1 37,1 37,3 Z" style="fill:#939598;fill-opacity:1;fill-rule:nonzero;stroke:none"/><path id="path14" d="M 36,5 7,5 7,10 36,10 36,5 Z" style="fill:#231f20;fill-opacity:1;fill-rule:nonzero;stroke:none"/><g id="g16"><g id="g18" clip-path="url(#clipPath20)"><g id="g24" transform="translate(4.999,5)"><path id="path26" d="M 0,0 C 0,1.656 1.343,3 3,3 4.657,3 6,1.656 6,0 6,-1.656 4.657,-3 3,-3 1.343,-3 0,-1.656 0,0" style="fill:#58595b;fill-opacity:1;fill-rule:nonzero;stroke:none"/></g><g id="g28" transform="translate(10.999,5)"><path id="path30" d="M 0,0 C 0,1.657 1.343,3 3,3 4.657,3 6,1.657 6,0 6,-1.657 4.657,-3 3,-3 1.343,-3 0,-1.657 0,0" style="fill:#58595b;fill-opacity:1;fill-rule:nonzero;stroke:none"/></g><g id="g32" transform="translate(6.499,5)"><path id="path34" d="M 0,0 C 0,0.829 0.672,1.5 1.5,1.5 2.328,1.5 3,0.829 3,0 3,-0.829 2.328,-1.5 1.5,-1.5 0.672,-1.5 0,-0.829 0,0" style="fill:#a0041e;fill-opacity:1;fill-rule:nonzero;stroke:none"/></g><g id="g36" transform="translate(12.499,5)"><path id="path38" d="M 0,0 C 0,0.83 0.671,1.5 1.5,1.5 2.329,1.5 3,0.83 3,0 3,-0.83 2.329,-1.5 1.5,-1.5 0.671,-1.5 0,-0.83 0,0" style="fill:#a0041e;fill-opacity:1;fill-rule:nonzero;stroke:none"/></g><g id="g40" transform="translate(6,4)"><path id="path42" d="m 0,0 -4,0 c -1,0 -1.5,0.5 0,2 L 0,6 C 1,7 2,8.001 2,6 L 2,2 C 2,0 1.999,0 0,0" style="fill:#dd2e44;fill-opacity:1;fill-rule:nonzero;stroke:none"/></g><g id="g44" transform="translate(8.9995,17)"><path id="path46" d="m 0,0 c 0,-3.313 -1.343,-6 -3,-6 -1.657,0 -3,2.687 -3,6 0,3.314 1.343,6 3,6 1.657,0 3,-2.686 3,-6" style="fill:#231f20;fill-opacity:1;fill-rule:nonzero;stroke:none"/></g><g id="g48" transform="translate(12,22)"><path id="path50" d="M 0,0 -4,0 -6,8 2,8 0,0 Z" style="fill:#6d6e71;fill-opacity:1;fill-rule:nonzero;stroke:none"/></g><g id="g52" transform="translate(27,12)"><path id="path54" d="m 0,0 c 0,-1.104 -0.896,-2 -2,-2 l -18,0 c -1.104,0 -2,0.896 -2,2 l 0,10 c 0,1.104 0.896,2 2,2 l 18,0 c 1.104,0 2,-0.896 2,-2 L 0,0 Z" style="fill:#414042;fill-opacity:1;fill-rule:nonzero;stroke:none"/></g><g id="g56" transform="translate(14,11)"><path id="path58" d="m 0,0 c 0,-0.553 -0.448,-1 -1,-1 -0.552,0 -1,0.447 -1,1 l 0,13 c 0,0.552 0.448,1 1,1 0.552,0 1,-0.448 1,-1 L 0,0 Z" style="fill:#c1694f;fill-opacity:1;fill-rule:nonzero;stroke:none"/></g><g id="g60" transform="translate(20,11)"><path id="path62" d="m 0,0 c 0,-0.553 -0.447,-1 -1,-1 -0.553,0 -1,0.447 -1,1 l 0,13 c 0,0.552 0.447,1 1,1 0.553,0 1,-0.448 1,-1 L 0,0 Z" style="fill:#c1694f;fill-opacity:1;fill-rule:nonzero;stroke:none"/></g><g id="g64" transform="translate(37,11)"><path id="path66" d="m 0,0 c 0,-0.553 -0.447,-1 -1,-1 l -28,0 c -0.552,0 -1,0.447 -1,1 0,0.553 0.448,1 1,1 L -1,1 C -0.447,1 0,0.553 0,0" style="fill:#808285;fill-opacity:1;fill-rule:nonzero;stroke:none"/></g><g id="g68" transform="translate(26.999,6)"><path id="path70" d="M 0,0 C 0,2.209 1.791,4 4,4 6.209,4 8,2.209 8,0 8,-2.209 6.209,-4 4,-4 1.791,-4 0,-2.209 0,0" style="fill:#58595b;fill-opacity:1;fill-rule:nonzero;stroke:none"/></g><g id="g72" transform="translate(18.999,6)"><path id="path74" d="M 0,0 C 0,2.209 1.791,4 4,4 6.209,4 8,2.209 8,0 8,-2.209 6.209,-4 4,-4 1.791,-4 0,-2.209 0,0" style="fill:#58595b;fill-opacity:1;fill-rule:nonzero;stroke:none"/></g><g id="g76" transform="translate(28.999,6)"><path id="path78" d="M 0,0 C 0,1.104 0.896,2 2,2 3.104,2 4,1.104 4,0 4,-1.104 3.104,-2 2,-2 0.896,-2 0,-1.104 0,0" style="fill:#a0041e;fill-opacity:1;fill-rule:nonzero;stroke:none"/></g><g id="g80" transform="translate(20.999,6)"><path id="path82" d="M 0,0 C 0,1.104 0.896,2 2,2 3.104,2 4,1.104 4,0 4,-1.104 3.104,-2 2,-2 0.896,-2 0,-1.104 0,0" style="fill:#a0041e;fill-opacity:1;fill-rule:nonzero;stroke:none"/></g><g id="g84" transform="translate(13,34)"><path id="path86" d="m 0,0 -6,0 c -0.552,0 -1,-0.448 -1,-1 l 0,-3 8,0 0,3 C 1,-0.448 0.552,0 0,0" style="fill:#414042;fill-opacity:1;fill-rule:nonzero;stroke:none"/></g><path id="path88" d="m 36,30 -12,0 0,-18 12,0 0,18 z" style="fill:#be1931;fill-opacity:1;fill-rule:nonzero;stroke:none"/><g id="g90" transform="translate(37,31)"><path id="path92" d="m 0,0 c 0,-0.552 -0.447,-1 -1,-1 l -12,0 c -0.553,0 -1,0.448 -1,1 0,0.552 0.447,1 1,1 L -1,1 C -0.447,1 0,0.552 0,0" style="fill:#a0041e;fill-opacity:1;fill-rule:nonzero;stroke:none"/></g><path id="path94" d="m 34,14 -8,0 0,5 8,0 0,-5 z" style="fill:#ea596e;fill-opacity:1;fill-rule:nonzero;stroke:none"/><g id="g96" transform="translate(31,5)"><path id="path98" d="M 0,0 -8,0 C -8.127,0 -8.253,0.024 -8.371,0.071 L -13.193,2 -20,2 c -0.552,0 -1,0.447 -1,1 0,0.553 0.448,1 1,1 l 7,0 c 0.127,0 0.253,-0.024 0.371,-0.071 L -7.808,2 0,2 C 0.553,2 1,1.553 1,1 1,0.447 0.553,0 0,0" style="fill:#f4900c;fill-opacity:1;fill-rule:nonzero;stroke:none"/></g><g id="g100" transform="translate(34,27)"><path id="path102" d="M 0,0 C 0,0.552 -0.447,1 -1,1 L -7,1 C -7.553,1 -8,0.552 -8,0 l 0,-5 c 0,-0.552 0.447,-1 1,-1 l 6,0 c 0.553,0 1,0.448 1,1 l 0,5 z" style="fill:#55acee;fill-opacity:1;fill-rule:nonzero;stroke:none"/></g></g></g></g></svg>