<svg xmlns="http://www.w3.org/2000/svg" xmlns:svg="http://www.w3.org/2000/svg" style="enable-background:new 0 0 47.5 47.5" id="svg2" version="1.1" viewBox="0 0 47.5 47.5" xml:space="preserve"><metadata id="metadata8"/><defs id="defs6"><clipPath id="clipPath16" clipPathUnits="userSpaceOnUse"><path id="path18" d="M 0,38 38,38 38,0 0,0 0,38 Z"/></clipPath></defs><g id="g10" transform="matrix(1.25,0,0,-1.25,0,47.5)"><g id="g12"><g id="g14" clip-path="url(#clipPath16)"><g id="g20" transform="translate(37,19)"><path id="path22" d="m 0,0 c 0,-9.941 -8.059,-18 -18,-18 -9.941,0 -18,8.059 -18,18 0,9.941 8.059,18 18,18 C -8.059,18 0,9.941 0,0" style="fill:#231f20;fill-opacity:1;fill-rule:nonzero;stroke:none"/></g><g id="g24" transform="translate(9.8955,3.4912)"><path id="path26" d="m 0,0 c 0.7,-0.412 1.421,-0.79 2.178,-1.106 l 6.576,14.615 -1.419,0 L 0,0 Z" style="fill:#808285;fill-opacity:1;fill-rule:nonzero;stroke:none"/></g><g id="g28" transform="translate(20.7695,17)"><path id="path30" d="m 0,0 -1.42,0 6.577,-14.615 c 0.756,0.316 1.478,0.694 2.178,1.106 L 0,0 Z" style="fill:#808285;fill-opacity:1;fill-rule:nonzero;stroke:none"/></g><path id="path32" d="m 15,11 -2,0 0,-2 2,0 0,2 z" style="fill:#58595b;fill-opacity:1;fill-rule:nonzero;stroke:none"/><path id="path34" d="m 25,11 -2,0 0,-2 2,0 0,2 z" style="fill:#58595b;fill-opacity:1;fill-rule:nonzero;stroke:none"/><g id="g36" transform="translate(27,12)"><path id="path38" d="m 0,0 c 0,-1.104 -0.896,-2 -2,-2 l -12,0 c -1.104,0 -2,0.896 -2,2 l 0,2 c 0,1.104 0.896,2 2,2 L -2,4 C -0.896,4 0,3.104 0,2 L 0,0 Z" style="fill:#a7a9ac;fill-opacity:1;fill-rule:nonzero;stroke:none"/></g><g id="g40" transform="translate(25.3633,31)"><path id="path42" d="m 0,0 -12.727,0 c -2.008,0 -3.636,-1.628 -3.636,-3.636 l 0,-9.364 0,-3 0,-1 c 0,-1.104 0.895,-2 2,-2 l 16,0 c 1.104,0 2,0.896 2,2 l 0,1 0,3 0,9.364 C 3.637,-1.628 2.009,0 0,0" style="fill:#d1d3d4;fill-opacity:1;fill-rule:nonzero;stroke:none"/></g><g id="g44" transform="translate(9,18)"><path id="path46" d="m 0,0 0,-3 0,-1 c 0,-1.104 0.896,-2 2,-2 l 16,0 c 1.104,0 2,0.896 2,2 l 0,1 0,3 0,4 L 0,4 0,0 Z" style="fill:#dd2e44;fill-opacity:1;fill-rule:nonzero;stroke:none"/></g><g id="g48" transform="translate(27,20)"><path id="path50" d="m 0,0 c 0,-1.104 -0.896,-2 -2,-2 l -12,0 c -1.104,0 -2,0.896 -2,2 l 0,7 c 0,1.104 0.896,2 2,2 L -2,9 C -0.896,9 0,8.104 0,7 L 0,0 Z" style="fill:#58595b;fill-opacity:1;fill-rule:nonzero;stroke:none"/></g><g id="g52" transform="translate(25,21)"><path id="path54" d="m 0,0 c 0,-0.552 -0.447,-1 -1,-1 l -10,0 c -0.552,0 -1,0.448 -1,1 l 0,5 c 0,0.552 0.448,1 1,1 L -1,6 C -0.447,6 0,5.552 0,5 L 0,0 Z" style="fill:#55acee;fill-opacity:1;fill-rule:nonzero;stroke:none"/></g><path id="path56" d="m 15,14 -4,0 0,2 4,0 0,-2 z" style="fill:#ffd983;fill-opacity:1;fill-rule:nonzero;stroke:none"/><path id="path58" d="m 27,14 -4,0 0,2 4,0 0,-2 z" style="fill:#ffd983;fill-opacity:1;fill-rule:nonzero;stroke:none"/><g id="g60" transform="translate(21,28)"><path id="path62" d="m 0,0 c 0,-0.552 -0.447,-1 -1,-1 l -2,0 c -0.552,0 -1,0.448 -1,1 0,0.552 0.448,1 1,1 l 2,0 C -0.447,1 0,0.552 0,0" style="fill:#808285;fill-opacity:1;fill-rule:nonzero;stroke:none"/></g></g></g></g></svg>