<svg xmlns="http://www.w3.org/2000/svg" xmlns:svg="http://www.w3.org/2000/svg" style="enable-background:new 0 0 47.5 47.5" id="svg2" version="1.1" viewBox="0 0 47.5 47.5" xml:space="preserve"><metadata id="metadata8"/><defs id="defs6"><clipPath id="clipPath16" clipPathUnits="userSpaceOnUse"><path id="path18" d="M 0,38 38,38 38,0 0,0 0,38 Z"/></clipPath></defs><g id="g10" transform="matrix(1.25,0,0,-1.25,0,47.5)"><g id="g12"><g id="g14" clip-path="url(#clipPath16)"><g id="g20" transform="translate(1,15)"><path id="path22" d="m 0,0 0,-7 c 0,-1.657 1.343,-3 3,-3 l 30,0 c 1.657,0 3,1.343 3,3 L 36,0 0,0 Z" style="fill:#808285;fill-opacity:1;fill-rule:nonzero;stroke:none"/></g><g id="g24" transform="translate(37,14)"><path id="path26" d="m 0,0 0,9 c 0,1.657 -3.343,3 -5,3 l -20,0 c -8,0 -11,-2.343 -11,-4 l 0,-8 36,0 z" style="fill:#ccd6dd;fill-opacity:1;fill-rule:nonzero;stroke:none"/></g><path id="path28" d="m 37,11 -36,0 0,3 36,0 0,-3 z" style="fill:#939598;fill-opacity:1;fill-rule:nonzero;stroke:none"/><g id="g30" transform="translate(8.0005,11)"><path id="path32" d="M 0,0 C -3.063,0 -5.586,-2.298 -5.95,-5.263 -5.425,-5.716 -4.749,-6 -4,-6 L 6,-6 C 6,-2.687 3.313,0 0,0" style="fill:#bcbec0;fill-opacity:1;fill-rule:nonzero;stroke:none"/></g><g id="g34" transform="translate(35.9502,5.7373)"><path id="path36" d="m 0,0 c -0.364,2.965 -2.887,5.263 -5.95,5.263 -3.314,0 -6,-2.687 -6,-6 l 10,0 c 0.749,0 1.425,0.284 1.95,0.737" style="fill:#bcbec0;fill-opacity:1;fill-rule:nonzero;stroke:none"/></g><g id="g38" transform="translate(12,5)"><path id="path40" d="m 0,0 c 0,-2.209 -1.791,-4 -4,-4 -2.209,0 -4,1.791 -4,4 0,2.209 1.791,4 4,4 2.209,0 4,-1.791 4,-4" style="fill:#000;fill-opacity:1;fill-rule:nonzero;stroke:none"/></g><g id="g42" transform="translate(10,5)"><path id="path44" d="m 0,0 c 0,-1.104 -0.896,-2 -2,-2 -1.104,0 -2,0.896 -2,2 0,1.104 0.896,2 2,2 1.104,0 2,-0.896 2,-2" style="fill:#99aab5;fill-opacity:1;fill-rule:nonzero;stroke:none"/></g><g id="g46" transform="translate(34,5)"><path id="path48" d="m 0,0 c 0,-2.209 -1.791,-4 -4,-4 -2.209,0 -4,1.791 -4,4 0,2.209 1.791,4 4,4 2.209,0 4,-1.791 4,-4" style="fill:#000;fill-opacity:1;fill-rule:nonzero;stroke:none"/></g><g id="g50" transform="translate(32,5)"><path id="path52" d="m 0,0 c 0,-1.104 -0.896,-2 -2,-2 -1.104,0 -2,0.896 -2,2 0,1.104 0.896,2 2,2 1.104,0 2,-0.896 2,-2" style="fill:#99aab5;fill-opacity:1;fill-rule:nonzero;stroke:none"/></g><path id="path54" d="M 2,9 1,9 1,11 2,11 2,9 Z" style="fill:#f4900c;fill-opacity:1;fill-rule:nonzero;stroke:none"/><path id="path56" d="m 37,11 -1,0 0,2 1,0 0,-2 z" style="fill:#f4900c;fill-opacity:1;fill-rule:nonzero;stroke:none"/><path id="path58" d="M 37,13 2,13 2,23 37,23 37,13 Z" style="fill:#58595b;fill-opacity:1;fill-rule:nonzero;stroke:none"/><g id="g60" transform="translate(3,23)"><path id="path62" d="M 0,0 -1.658,0 C -1.89,-0.344 -2,-0.685 -2,-1 l 0,-11 2,0 c 1.104,0 2,0.896 2,2 l 0,8 C 2,-0.896 1.104,0 0,0" style="fill:#292f33;fill-opacity:1;fill-rule:nonzero;stroke:none"/></g><g id="g64" transform="translate(32,16)"><path id="path66" d="m 0,0 c 0,-0.553 -0.447,-1 -1,-1 l -23,0 c -0.552,0 -1,0.447 -1,1 l 0,4 c 0,0.552 0.448,1 1,1 L -1,5 C -0.447,5 0,4.552 0,4 L 0,0 Z" style="fill:#55acee;fill-opacity:1;fill-rule:nonzero;stroke:none"/></g><path id="path68" d="m 37,17 -1,0 0,-2 1,0 0,2 z" style="fill:#ffac33;fill-opacity:1;fill-rule:nonzero;stroke:none"/><g id="g70" transform="translate(2,21)"><path id="path72" d="m 0,0 -1,0 0,-8 1,0 c 0.552,0 1,0.447 1,1 l 0,6 C 1,-0.448 0.552,0 0,0" style="fill:#55acee;fill-opacity:1;fill-rule:nonzero;stroke:none"/></g></g></g></g></svg>