<svg xmlns="http://www.w3.org/2000/svg" xmlns:svg="http://www.w3.org/2000/svg" style="enable-background:new 0 0 47.5 47.5" id="svg2" version="1.1" viewBox="0 0 47.5 47.5" xml:space="preserve"><metadata id="metadata8"/><defs id="defs6"><clipPath id="clipPath16" clipPathUnits="userSpaceOnUse"><path id="path18" d="M 0,38 38,38 38,0 0,0 0,38 Z"/></clipPath></defs><g id="g10" transform="matrix(1.25,0,0,-1.25,0,47.5)"><g id="g12"><g id="g14" clip-path="url(#clipPath16)"><g id="g20" transform="translate(37,17)"><path id="path22" d="m 0,0 c 0,-0.553 -0.447,-1 -1,-1 l -1,0 c -0.553,0 -1,0.447 -1,1 l 0,6 c 0,0.553 0.447,1 1,1 l 1,0 C -0.447,7 0,6.553 0,6 L 0,0 Z" style="fill:#292f33;fill-opacity:1;fill-rule:nonzero;stroke:none"/></g><g id="g24" transform="translate(6,10)"><path id="path26" d="m 0,0 26,0 c 1,0 3,1 3,4 0,2 0,8 -1,9 -1,1 0,7 -4,7 L 10,20 C 7,20 4,13 4,13 L 0,12 C 0,12 -4,11 -4,8 L -4,5 C -4,5 -5,4.662 -5,3.043 -5,1.424 -4,1 -4,1 L 0,0 Z" style="fill:#3b88c3;fill-opacity:1;fill-rule:nonzero;stroke:none"/></g><g id="g28" transform="translate(14,10)"><path id="path30" d="m 0,0 c 0,-2.209 -1.791,-4 -4,-4 -2.209,0 -4,1.791 -4,4 0,2.209 1.791,4 4,4 2.209,0 4,-1.791 4,-4" style="fill:#292f33;fill-opacity:1;fill-rule:nonzero;stroke:none"/></g><g id="g32" transform="translate(12,10)"><path id="path34" d="m 0,0 c 0,-1.104 -0.896,-2 -2,-2 -1.104,0 -2,0.896 -2,2 0,1.104 0.896,2 2,2 1.104,0 2,-0.896 2,-2" style="fill:#ccd6dd;fill-opacity:1;fill-rule:nonzero;stroke:none"/></g><g id="g36" transform="translate(32,10)"><path id="path38" d="m 0,0 c 0,-2.209 -1.791,-4 -4,-4 -2.209,0 -4,1.791 -4,4 0,2.209 1.791,4 4,4 2.209,0 4,-1.791 4,-4" style="fill:#292f33;fill-opacity:1;fill-rule:nonzero;stroke:none"/></g><g id="g40" transform="translate(30,10)"><path id="path42" d="m 0,0 c 0,-1.104 -0.896,-2 -2,-2 -1.104,0 -2,0.896 -2,2 0,1.104 0.896,2 2,2 1.104,0 2,-0.896 2,-2" style="fill:#ccd6dd;fill-opacity:1;fill-rule:nonzero;stroke:none"/></g><g id="g44" transform="translate(25,24)"><path id="path46" d="m 0,0 c 0,-0.552 0.447,-1 1,-1 l 4,0 c 0.553,0 1,0.448 1,1 L 6,3 C 6,3.552 5.553,4 5,4 L 1,4 C 0.447,4 0,3.552 0,3 L 0,0 Z" style="fill:#bbddf5;fill-opacity:1;fill-rule:nonzero;stroke:none"/></g><g id="g48" transform="translate(14,24)"><path id="path50" d="m 0,0 c 0,-1 0.448,-1 1,-1 l 7,0 c 0.553,0 1,0.448 1,1 L 9,3 C 9,3.552 8.553,4 8,4 L 3,4 C 2,4 0,1 0,0" style="fill:#bbddf5;fill-opacity:1;fill-rule:nonzero;stroke:none"/></g><g id="g52" transform="translate(33,17.5)"><path id="path54" d="m 0,0 c 0,-0.828 -0.672,-1.5 -1.5,-1.5 l -22,0 c -0.829,0 -1.5,0.672 -1.5,1.5 0,0.829 0.671,1.5 1.5,1.5 l 22,0 C -0.672,1.5 0,0.829 0,0" style="fill:#55acee;fill-opacity:1;fill-rule:nonzero;stroke:none"/></g></g></g></g></svg>