<svg xmlns="http://www.w3.org/2000/svg" xmlns:svg="http://www.w3.org/2000/svg" style="enable-background:new 0 0 47.5 47.5" id="svg2" version="1.1" viewBox="0 0 47.5 47.5" xml:space="preserve"><metadata id="metadata8"/><defs id="defs6"><clipPath id="clipPath16" clipPathUnits="userSpaceOnUse"><path id="path18" d="M 0,38 38,38 38,0 0,0 0,38 Z"/></clipPath></defs><g id="g10" transform="matrix(1.25,0,0,-1.25,0,47.5)"><g id="g12"><g id="g14" clip-path="url(#clipPath16)"><g id="g20" transform="translate(1,2)"><path id="path22" d="m 0,0 36,0 0,25 C 36,25 29.999,35 26.999,35 23.999,35 17,26 15,24 13,22 10.5,23.5 9,25 7.5,26.5 6,28 5,28 4,28 0,21 0,21 L 0,0 Z" style="fill:#d1d3d4;fill-opacity:1;fill-rule:nonzero;stroke:none"/></g><path id="path24" d="M 37,1 1,1 1,3 37,3 37,1 Z" style="fill:#939598;fill-opacity:1;fill-rule:nonzero;stroke:none"/><g id="g26" transform="translate(14.9995,5)"><path id="path28" d="m 0,0 c 0,1.657 -1.343,3 -3,3 -1.657,0 -3,-1.343 -3,-3 0,-1.657 1.343,-3 3,-3 1.657,0 3,1.343 3,3" style="fill:#58595b;fill-opacity:1;fill-rule:nonzero;stroke:none"/></g><g id="g30" transform="translate(13.9995,5)"><path id="path32" d="m 0,0 c 0,1.105 -0.896,2 -2,2 -1.104,0 -2,-0.895 -2,-2 0,-1.105 0.896,-2 2,-2 1.104,0 2,0.895 2,2" style="fill:#292f33;fill-opacity:1;fill-rule:nonzero;stroke:none"/></g><g id="g34" transform="translate(23,5)"><path id="path36" d="m 0,0 c 0,1.657 -1.344,3 -3,3 -1.657,0 -3,-1.343 -3,-3 0,-1.657 1.343,-3 3,-3 1.656,0 3,1.343 3,3" style="fill:#58595b;fill-opacity:1;fill-rule:nonzero;stroke:none"/></g><g id="g38" transform="translate(22,5)"><path id="path40" d="m 0,0 c 0,1.105 -0.896,2 -2,2 -1.105,0 -2,-0.895 -2,-2 0,-1.105 0.895,-2 2,-2 1.104,0 2,0.895 2,2" style="fill:#292f33;fill-opacity:1;fill-rule:nonzero;stroke:none"/></g><g id="g42" transform="translate(37,23)"><path id="path44" d="m 0,0 -29,0 c -2.209,0 -4,-1.791 -4,-4 l 0,-10 c 0,-2.209 1.791,-4 4,-4 l 29,0 0,18 z" style="fill:#ffe8b6;fill-opacity:1;fill-rule:nonzero;stroke:none"/></g><g id="g46" transform="translate(37,23)"><path id="path48" d="m 0,0 -29,0 c -1.477,0 -2.752,-0.81 -3.445,-2 L 0,-2 0,0 Z" style="fill:#77b255;fill-opacity:1;fill-rule:nonzero;stroke:none"/></g><g id="g50" transform="translate(37,9)"><path id="path52" d="m 0,0 -33,0 c 0,-2.209 1.791,-4 4,-4 l 29,0 0,4 z" style="fill:#5c913b;fill-opacity:1;fill-rule:nonzero;stroke:none"/></g><path id="path54" d="M 37,11 4,11 4,9 37,9 37,11 Z" style="fill:#ffac33;fill-opacity:1;fill-rule:nonzero;stroke:none"/><path id="path56" d="m 10,13 -6,0 0,5 6,0 0,-5 z" style="fill:#55acee;fill-opacity:1;fill-rule:nonzero;stroke:none"/><g id="g58" transform="translate(16,15)"><path id="path60" d="m 0,0 c 0,-0.553 -0.447,-1 -1,-1 l -2,0 c -0.552,0 -1,0.447 -1,1 l 0,2 c 0,0.553 0.448,1 1,1 l 2,0 C -0.447,3 0,2.553 0,2 L 0,0 Z" style="fill:#55acee;fill-opacity:1;fill-rule:nonzero;stroke:none"/></g><g id="g62" transform="translate(21,15)"><path id="path64" d="m 0,0 c 0,-0.553 -0.447,-1 -1,-1 l -2,0 c -0.552,0 -1,0.447 -1,1 l 0,2 c 0,0.553 0.448,1 1,1 l 2,0 C -0.447,3 0,2.553 0,2 L 0,0 Z" style="fill:#55acee;fill-opacity:1;fill-rule:nonzero;stroke:none"/></g><g id="g66" transform="translate(28,15)"><path id="path68" d="m 0,0 c 0,-0.553 -0.447,-1 -1,-1 l -2,0 c -0.553,0 -1,0.447 -1,1 l 0,2 c 0,0.553 0.447,1 1,1 l 2,0 C -0.447,3 0,2.553 0,2 L 0,0 Z" style="fill:#55acee;fill-opacity:1;fill-rule:nonzero;stroke:none"/></g><g id="g70" transform="translate(35,15)"><path id="path72" d="m 0,0 c 0,-0.553 -0.447,-1 -1,-1 l -2,0 c -0.553,0 -1,0.447 -1,1 l 0,2 c 0,0.553 0.447,1 1,1 l 2,0 C -0.447,3 0,2.553 0,2 L 0,0 Z" style="fill:#55acee;fill-opacity:1;fill-rule:nonzero;stroke:none"/></g><g id="g74" transform="translate(23.5,19)"><path id="path76" d="m 0,0 c -0.275,0 -0.5,-0.224 -0.5,-0.5 l 0,-10 c 0,-0.275 0.225,-0.5 0.5,-0.5 l 5,0 c 0.275,0 0.5,0.225 0.5,0.5 l 0,10 C 5.5,-0.224 5.275,0 5,0 L 0,0 Z m 5,-12 -5,0 c -0.827,0 -1.5,0.673 -1.5,1.5 l 0,10 C -1.5,0.327 -0.827,1 0,1 L 5,1 C 5.827,1 6.5,0.327 6.5,-0.5 l 0,-10 C 6.5,-11.327 5.827,-12 5,-12" style="fill:#66757f;fill-opacity:1;fill-rule:nonzero;stroke:none"/></g></g></g></g></svg>