<svg xmlns="http://www.w3.org/2000/svg" xmlns:svg="http://www.w3.org/2000/svg" style="enable-background:new 0 0 47.5 47.5" id="svg2" version="1.1" viewBox="0 0 47.5 47.5" xml:space="preserve"><metadata id="metadata8"/><defs id="defs6"><clipPath id="clipPath16" clipPathUnits="userSpaceOnUse"><path id="path18" d="M 0,38 38,38 38,0 0,0 0,38 Z"/></clipPath></defs><g id="g10" transform="matrix(1.25,0,0,-1.25,0,47.5)"><g id="g12"><g id="g14" clip-path="url(#clipPath16)"><g id="g20" transform="translate(33,14)"><path id="path22" d="m 0,0 c 0,0 -2,8 -5,8 l -11,0 c -3,0 -7,-7 -7,-7 0,0 -8,-1 -8,-5 l 0,-2 c 0,-0.09 0.021,-0.175 0.026,-0.263 C -31.583,-6.605 -32,-7.251 -32,-8 c 0,-1.104 0.896,-2 2,-2 l 3,0 2,0 25,0 c 2.209,0 4,1.791 4,4 l 0,2 C 4,-1.791 2.209,0 0,0" style="fill:#e1e8ed;fill-opacity:1;fill-rule:nonzero;stroke:none"/></g><g id="g24" transform="translate(2,10)"><path id="path26" d="M 0,0 0,-2 C 0,-2.09 0.021,-2.175 0.026,-2.263 -0.583,-2.605 -1,-3.251 -1,-4 c 0,-1.104 0.896,-2 2,-2 l 3,0 2,0 25,0 c 2.209,0 4,1.791 4,4 l 0,2 c 0,0.348 -0.059,0.679 -0.142,1 L 0.201,1 C 0.083,0.687 0,0.359 0,0" style="fill:#000;fill-opacity:1;fill-rule:nonzero;stroke:none"/></g><g id="g28" transform="translate(16.9102,4)"><path id="path30" d="m 0,0 c 0.055,0.326 0.09,0.658 0.09,1 0,3.313 -2.687,6 -6,6 -3.314,0 -6,-2.687 -6,-6 0,-0.342 0.035,-0.674 0.09,-1 L 0,0 Z" style="fill:#66757f;fill-opacity:1;fill-rule:nonzero;stroke:none"/></g><g id="g32" transform="translate(33.9102,4)"><path id="path34" d="m 0,0 c 0.055,0.326 0.09,0.658 0.09,1 0,3.313 -2.687,6 -6,6 -3.314,0 -6,-2.687 -6,-6 0,-0.342 0.035,-0.674 0.09,-1 L 0,0 Z" style="fill:#66757f;fill-opacity:1;fill-rule:nonzero;stroke:none"/></g><g id="g36" transform="translate(15,5)"><path id="path38" d="m 0,0 c 0,-2.209 -1.791,-4 -4,-4 -2.209,0 -4,1.791 -4,4 0,2.209 1.791,4 4,4 2.209,0 4,-1.791 4,-4" style="fill:#000;fill-opacity:1;fill-rule:nonzero;stroke:none"/></g><g id="g40" transform="translate(13,5)"><path id="path42" d="m 0,0 c 0,-1.104 -0.896,-2 -2,-2 -1.104,0 -2,0.896 -2,2 0,1.104 0.896,2 2,2 1.104,0 2,-0.896 2,-2" style="fill:#e1e8ed;fill-opacity:1;fill-rule:nonzero;stroke:none"/></g><g id="g44" transform="translate(32,5)"><path id="path46" d="m 0,0 c 0,-2.209 -1.791,-4 -4,-4 -2.209,0 -4,1.791 -4,4 0,2.209 1.791,4 4,4 2.209,0 4,-1.791 4,-4" style="fill:#000;fill-opacity:1;fill-rule:nonzero;stroke:none"/></g><g id="g48" transform="translate(30,5)"><path id="path50" d="m 0,0 c 0,-1.104 -0.896,-2 -2,-2 -1.104,0 -2,0.896 -2,2 0,1.104 0.896,2 2,2 1.104,0 2,-0.896 2,-2" style="fill:#e1e8ed;fill-opacity:1;fill-rule:nonzero;stroke:none"/></g><g id="g52" transform="translate(22,23)"><path id="path54" d="m 0,0 c 0,-0.552 -0.447,-1 -1,-1 l -3,0 c -0.552,0 -1,0.448 -1,1 0,0.552 0.448,1 1,1 l 3,0 C -0.447,1 0,0.552 0,0" style="fill:#dd2e44;fill-opacity:1;fill-rule:nonzero;stroke:none"/></g><g id="g56" transform="translate(23,23)"><path id="path58" d="m 0,0 c 0,-0.552 -0.447,-1 -1,-1 l -2,0 c -0.552,0 -1,0.448 -1,1 0,0.552 0.448,1 1,1 l 2,0 C -0.447,1 0,0.552 0,0" style="fill:#55acee;fill-opacity:1;fill-rule:nonzero;stroke:none"/></g><g id="g60" transform="translate(24,15)"><path id="path62" d="M 0,0 7,0 C 7,0 5,5 4,5 L 0,5 0,0 Z" style="fill:#55acee;fill-opacity:1;fill-rule:nonzero;stroke:none"/></g><g id="g64" transform="translate(22,20)"><path id="path66" d="m 0,0 -5,0 c -2,0 -5,-5 -5,-5 l 10,0 0,5 z" style="fill:#55acee;fill-opacity:1;fill-rule:nonzero;stroke:none"/></g></g></g></g></svg>