<svg xmlns="http://www.w3.org/2000/svg" xmlns:svg="http://www.w3.org/2000/svg" style="enable-background:new 0 0 47.5 47.5" id="svg2" version="1.1" viewBox="0 0 47.5 47.5" xml:space="preserve"><metadata id="metadata8"/><defs id="defs6"><clipPath id="clipPath16" clipPathUnits="userSpaceOnUse"><path id="path18" d="M 0,38 38,38 38,0 0,0 0,38 Z"/></clipPath></defs><g id="g10" transform="matrix(1.25,0,0,-1.25,0,47.5)"><g id="g12"><g id="g14" clip-path="url(#clipPath16)"><g id="g20" transform="translate(14,8)"><path id="path22" d="m 0,0 20,0 c 0,0 3,0 3,4 0,2 0,6 -1,7 -1,1 -8,7 -11,7 L 5,18 C 2,18 -5,11 -5,11 l -4,-1 c 0,0 -3,-1 -3,-3 l 0,-3 C -12,4 -13,3.662 -13,2.043 -13,0 -11,0 -11,0 L 0,0 Z" style="fill:#dd2e44;fill-opacity:1;fill-rule:nonzero;stroke:none"/></g><g id="g24" transform="translate(21,24)"><path id="path26" d="m 0,0 -2,0 c -2,0 -8,-6 -8,-6 0,0 4.997,0.263 10,0.519 L 0,0 Z" style="fill:#bbddf5;fill-opacity:1;fill-rule:nonzero;stroke:none"/></g><g id="g28" transform="translate(31,21)"><path id="path30" d="m 0,0 c -1,1 -5,3 -7,3 l -1,0 0,-5.379 C -3.989,-2.175 -0.418,-2 0,-2 c 1,0 1,1 0,2" style="fill:#bbddf5;fill-opacity:1;fill-rule:nonzero;stroke:none"/></g><g id="g32" transform="translate(15,9)"><path id="path34" d="m 0,0 c 0,-2.209 -1.791,-4 -4,-4 -2.209,0 -4,1.791 -4,4 0,2.209 1.791,4 4,4 2.209,0 4,-1.791 4,-4" style="fill:#292f33;fill-opacity:1;fill-rule:nonzero;stroke:none"/></g><g id="g36" transform="translate(13,9)"><path id="path38" d="m 0,0 c 0,-1.104 -0.896,-2 -2,-2 -1.104,0 -2,0.896 -2,2 0,1.104 0.896,2 2,2 1.104,0 2,-0.896 2,-2" style="fill:#ccd6dd;fill-opacity:1;fill-rule:nonzero;stroke:none"/></g><g id="g40" transform="translate(32,9)"><path id="path42" d="m 0,0 c 0,-2.209 -1.791,-4 -4,-4 -2.209,0 -4,1.791 -4,4 0,2.209 1.791,4 4,4 2.209,0 4,-1.791 4,-4" style="fill:#292f33;fill-opacity:1;fill-rule:nonzero;stroke:none"/></g><g id="g44" transform="translate(30,9)"><path id="path46" d="m 0,0 c 0,-1.104 -0.896,-2 -2,-2 -1.104,0 -2,0.896 -2,2 0,1.104 0.896,2 2,2 1.104,0 2,-0.896 2,-2" style="fill:#ccd6dd;fill-opacity:1;fill-rule:nonzero;stroke:none"/></g></g></g></g></svg>