<svg xmlns="http://www.w3.org/2000/svg" xmlns:svg="http://www.w3.org/2000/svg" style="enable-background:new 0 0 47.5 47.5" id="svg2" version="1.1" viewBox="0 0 47.5 47.5" xml:space="preserve"><metadata id="metadata8"/><defs id="defs6"><clipPath id="clipPath16" clipPathUnits="userSpaceOnUse"><path id="path18" d="M 0,38 38,38 38,0 0,0 0,38 Z"/></clipPath></defs><g id="g10" transform="matrix(1.25,0,0,-1.25,0,47.5)"><g id="g12"><g id="g14" clip-path="url(#clipPath16)"><g id="g20" transform="translate(22.377,20.5513)"><path id="path22" d="M 0,0 C 0.089,-0.816 -0.83,-1.495 -2.053,-1.515 -3.275,-1.535 -4.147,-0.88 -4,-0.051 l 0.356,2 c 0.148,0.828 0.939,1.5 1.767,1.5 0.828,0 1.572,-0.662 1.661,-1.478 L 0,0 Z" style="fill:#ccd6dd;fill-opacity:1;fill-rule:nonzero;stroke:none"/></g><g id="g24" transform="translate(33.2461,15)"><path id="path26" d="m 0,0 -0.135,0 -0.444,3 c -0.327,2.209 -1.864,4 -3.433,4 l -12.072,0 c -1.569,0 -3.574,-1.791 -4.478,-4 l -1.228,-3 -3.545,0 c -2.073,0 -4.105,-1.791 -4.539,-4 l -0.587,-3 c -0.002,-0.008 -0.001,-0.015 -0.002,-0.021 -1.001,-0.111 -1.783,-0.949 -1.783,-1.979 0,-1.104 0.895,-2 2,-2 l 3,0 1,0 26,0 c 2.209,0 4,1.791 4,4 l 0,3 C 3.754,-1.791 2.073,0 0,0" style="fill:#ffcc4d;fill-opacity:1;fill-rule:nonzero;stroke:none"/></g><g id="g28" transform="translate(15,5)"><path id="path30" d="m 0,0 c 0,-2.209 -1.791,-4 -4,-4 -2.209,0 -4,1.791 -4,4 0,2.209 1.791,4 4,4 2.209,0 4,-1.791 4,-4" style="fill:#292f33;fill-opacity:1;fill-rule:nonzero;stroke:none"/></g><g id="g32" transform="translate(13,5)"><path id="path34" d="m 0,0 c 0,-1.104 -0.896,-2 -2,-2 -1.104,0 -2,0.896 -2,2 0,1.104 0.896,2 2,2 1.104,0 2,-0.896 2,-2" style="fill:#ccd6dd;fill-opacity:1;fill-rule:nonzero;stroke:none"/></g><g id="g36" transform="translate(32,5)"><path id="path38" d="m 0,0 c 0,-2.209 -1.791,-4 -4,-4 -2.209,0 -4,1.791 -4,4 0,2.209 1.791,4 4,4 2.209,0 4,-1.791 4,-4" style="fill:#292f33;fill-opacity:1;fill-rule:nonzero;stroke:none"/></g><g id="g40" transform="translate(30,5)"><path id="path42" d="m 0,0 c 0,-1.104 -0.896,-2 -2,-2 -1.104,0 -2,0.896 -2,2 0,1.104 0.896,2 2,2 1.104,0 2,-0.896 2,-2" style="fill:#ccd6dd;fill-opacity:1;fill-rule:nonzero;stroke:none"/></g><g id="g44" transform="translate(3.3726,11)"><path id="path46" d="m 0,0 -0.196,-1 33.823,0 0,1 c 0,0.348 -0.054,0.679 -0.132,1 L 0.329,1 C 0.188,0.679 0.068,0.348 0,0" style="fill:#f4900c;fill-opacity:1;fill-rule:nonzero;stroke:none"/></g><g id="g48" transform="translate(25,15)"><path id="path50" d="M 0,0 5.92,0 C 5.906,0.416 5.856,0.908 5.764,1.5 5.369,4 5.212,5 2.327,5 L 0,5 0,0 Z" style="fill:#55acee;fill-opacity:1;fill-rule:nonzero;stroke:none"/></g><g id="g52" transform="translate(23,20)"><path id="path54" d="M 0,0 -5,0 C -6.594,0 -8.236,-1.567 -8.847,-3.5 -9.042,-4.099 -9.201,-4.588 -9.319,-5 L 0,-5 0,0 Z" style="fill:#55acee;fill-opacity:1;fill-rule:nonzero;stroke:none"/></g></g></g></g></svg>