<svg xmlns="http://www.w3.org/2000/svg" xmlns:svg="http://www.w3.org/2000/svg" style="enable-background:new 0 0 47.5 47.5" id="svg2" version="1.1" viewBox="0 0 47.5 47.5" xml:space="preserve"><metadata id="metadata8"/><defs id="defs6"><clipPath id="clipPath18" clipPathUnits="userSpaceOnUse"><path id="path20" d="M 0,38 38,38 38,0 0,0 0,38 Z"/></clipPath></defs><g id="g10" transform="matrix(1.25,0,0,-1.25,0,47.5)"><path id="path12" d="m 15,17 -3,0 0,9 3,0 0,-9 z" style="fill:#ccd6dd;fill-opacity:1;fill-rule:nonzero;stroke:none"/><g id="g14"><g id="g16" clip-path="url(#clipPath18)"><g id="g22" transform="translate(25,10.8428)"><path id="path24" d="m 0,0 c 0,-2.675 -1.646,-4.843 -3.675,-4.843 l -15.616,0 c -2.029,0 -3.488,1.565 -3.257,3.494 l 0.624,5.242 c 0.231,1.929 1.992,3.807 3.928,4.199 l 14.629,3.21 C -1.504,11.744 0,9.938 0,7.265 L 0,0 Z" style="fill:#77b255;fill-opacity:1;fill-rule:nonzero;stroke:none"/></g><g id="g26" transform="translate(17.5347,12.833)"><path id="path28" d="m 0,0 c -0.295,-2.116 1.256,-3.833 3.465,-3.833 l 9,0 c 2.209,0 4,1.717 4,3.833 l 0,15.333 c 0,2.118 -1.453,3.834 -3.245,3.834 l -7.303,0 c -1.792,0 -3.484,-1.716 -3.779,-3.834 L 0,0 Z" style="fill:#292f33;fill-opacity:1;fill-rule:nonzero;stroke:none"/></g><g id="g30" transform="translate(19.2451,12)"><path id="path32" d="m 0,0 c -0.135,-1.104 0.65,-2 1.755,-2 l 9,0 c 1.104,0 2,0.896 2,2 l 0,14 c 0,1.104 -0.743,2 -1.66,2 L 3.622,16 C 2.705,16 1.852,15.104 1.716,14 L 0,0 Z" style="fill:#bbddf5;fill-opacity:1;fill-rule:nonzero;stroke:none"/></g><path id="path34" d="M 34,16 16,16 16,6 34,6 34,16 Z" style="fill:#77b255;fill-opacity:1;fill-rule:nonzero;stroke:none"/><g id="g36" transform="translate(34,14)"><path id="path38" d="M 0,0 -31,0 -30,2 0,2 0,0 Z" style="fill:#ffcc4d;fill-opacity:1;fill-rule:nonzero;stroke:none"/></g><g id="g40" transform="translate(13,6)"><path id="path42" d="m 0,0 c 0,-2.209 -1.791,-4 -4,-4 -2.209,0 -4,1.791 -4,4 0,2.209 1.791,4 4,4 2.209,0 4,-1.791 4,-4" style="fill:#292f33;fill-opacity:1;fill-rule:nonzero;stroke:none"/></g><g id="g44" transform="translate(11,6)"><path id="path46" d="m 0,0 c 0,-1.104 -0.896,-2 -2,-2 -1.104,0 -2,0.896 -2,2 0,1.104 0.896,2 2,2 1.104,0 2,-0.896 2,-2" style="fill:#ffcc4d;fill-opacity:1;fill-rule:nonzero;stroke:none"/></g><g id="g48" transform="translate(34,21)"><path id="path50" d="m 0,0 0,-4 -10,-9 -7,1 3,10 3,2 11,0 z" style="fill:#77b255;fill-opacity:1;fill-rule:nonzero;stroke:none"/></g><g id="g52" transform="translate(19.2222,10.8887)"><path id="path54" d="m 0,0 c 0,4.91 3.979,8.889 8.889,8.889 4.91,0 8.889,-3.979 8.889,-8.889 0,-4.91 -3.979,-8.889 -8.889,-8.889 C 3.979,-8.889 0,-4.91 0,0" style="fill:#292f33;fill-opacity:1;fill-rule:nonzero;stroke:none"/></g><g id="g56" transform="translate(33.667,10.8887)"><path id="path58" d="m 0,0 c 0,-3.068 -2.487,-5.556 -5.556,-5.556 -3.068,0 -5.555,2.488 -5.555,5.556 0,3.068 2.487,5.556 5.555,5.556 C -2.487,5.556 0,3.068 0,0" style="fill:#ffcc4d;fill-opacity:1;fill-rule:nonzero;stroke:none"/></g><g id="g60" transform="translate(31.4443,10.8887)"><path id="path62" d="m 0,0 c 0,-1.841 -1.492,-3.333 -3.333,-3.333 -1.842,0 -3.334,1.492 -3.334,3.333 0,1.842 1.492,3.334 3.334,3.334 C -1.492,3.334 0,1.842 0,0" style="fill:#ffe8b6;fill-opacity:1;fill-rule:nonzero;stroke:none"/></g><g id="g64" transform="translate(33.5879,30)"><path id="path66" d="m 0,0 c -0.552,1.187 -1.606,2 -2.833,2 l -7.303,0 C -11.362,2 -12.53,1.187 -13.248,0 L 0,0 Z" style="fill:#77b255;fill-opacity:1;fill-rule:nonzero;stroke:none"/></g><g id="g68" transform="translate(30.333,10.8887)"><path id="path70" d="m 0,0 c 0,-1.227 -0.995,-2.222 -2.222,-2.222 -1.227,0 -2.222,0.995 -2.222,2.222 0,1.228 0.995,2.223 2.222,2.223 C -0.995,2.223 0,1.228 0,0" style="fill:#f4900c;fill-opacity:1;fill-rule:nonzero;stroke:none"/></g><g id="g72" transform="translate(10,6)"><path id="path74" d="m 0,0 c 0,-0.553 -0.448,-1 -1,-1 -0.552,0 -1,0.447 -1,1 0,0.553 0.448,1 1,1 0.552,0 1,-0.447 1,-1" style="fill:#f4900c;fill-opacity:1;fill-rule:nonzero;stroke:none"/></g><path id="path76" d="m 15,22 -3,0 0,2 3,0 0,-2 z" style="fill:#66757f;fill-opacity:1;fill-rule:nonzero;stroke:none"/><g id="g78" transform="translate(17.0005,8.25)"><path id="path80" d="m 0,0 c -0.094,0 -0.19,0.013 -0.285,0.041 -0.529,0.157 -0.831,0.714 -0.674,1.243 l 2,6.75 C 1.42,9.954 3.187,13.75 7,13.75 l 10,0 c 0.552,0 1,-0.448 1,-1 0,-0.552 -0.448,-1 -1,-1 l -10,0 C 3.856,11.75 2.988,7.596 2.98,7.554 L 0.958,0.716 C 0.83,0.281 0.431,0 0,0" style="fill:#5c913b;fill-opacity:1;fill-rule:nonzero;stroke:none"/></g><g id="g82" transform="translate(3.0015,8)"><path id="path84" d="m 0,0 c -0.042,0 -0.083,0.003 -0.125,0.008 -0.548,0.068 -0.937,0.568 -0.869,1.116 l 1,8 C 0.075,9.673 0.575,10.06 1.123,9.992 1.67,9.924 2.059,9.424 1.991,8.876 l -1,-8 C 0.928,0.37 0.497,0 0,0" style="fill:#3e721d;fill-opacity:1;fill-rule:nonzero;stroke:none"/></g></g></g></g></svg>