<svg xmlns="http://www.w3.org/2000/svg" xmlns:svg="http://www.w3.org/2000/svg" style="enable-background:new 0 0 47.5 47.5" id="svg2" version="1.1" viewBox="0 0 47.5 47.5" xml:space="preserve"><metadata id="metadata8"/><defs id="defs6"><clipPath id="clipPath20" clipPathUnits="userSpaceOnUse"><path id="path22" d="M 0,38 38,38 38,0 0,0 0,38 Z"/></clipPath></defs><g id="g10" transform="matrix(1.25,0,0,-1.25,0,47.5)"><g id="g12" transform="translate(34,10)"><path id="path14" d="M 0,0 -2,0 -1,8 1,8 0,0 Z" style="fill:#5c913b;fill-opacity:1;fill-rule:nonzero;stroke:none"/></g><g id="g16"><g id="g18" clip-path="url(#clipPath20)"><g id="g24" transform="translate(2,22.9995)"><path id="path26" d="m 0,0 c 9.055,-0.053 11,-1 17,-2 2.959,-0.493 7,-1 11,-1 2,0 4,-1 4,-4 0,-2 0.534,-3.186 -5.433,-3.814 C 22.59,-11.233 12,-9 8,-7 2,-4 -1,0.006 0,0" style="fill:#dd2e44;fill-opacity:1;fill-rule:nonzero;stroke:none"/></g><path id="path28" d="M 37,13 1,13 1,1 37,1 37,13 Z" style="fill:#55acee;fill-opacity:1;fill-rule:nonzero;stroke:none"/><g id="g30" transform="translate(6,23.9995)"><path id="path32" d="m 0,0 c 4,0 11,0 18,-1 7,-1 10,-1 10,-3 l 0,-3 c 0,-1.414 -6.869,-0.447 -10,0 -7,1 -14,3 -18,4 -4.047,1.011 -7,3 0,3" style="fill:#ffcc4d;fill-opacity:1;fill-rule:nonzero;stroke:none"/></g><g id="g34" transform="translate(31.5918,12.6777)"><path id="path36" d="M 0,0 C 2.122,0.539 2.403,1.307 2.418,2.361 1.155,1.742 -1.281,2.041 -3.468,2.314 c -7.96,0.996 -16.481,2.936 -24.721,5.609 1.043,-1.04 2.584,-2.29 4.568,-3.484 C -16.915,2.538 -10.137,1.133 -3.716,0.33 -2.458,0.173 -1.187,0.019 0,0" style="fill:#a0041e;fill-opacity:1;fill-rule:nonzero;stroke:none"/></g><g id="g38" transform="translate(13,13)"><path id="path40" d="M 0,0 C 3,2 7,5 6,3 5,1 4.999,0 7,1 c 2,1 5,2 4,0 -1,-2 2,-1 3,0 1,1 4,0 3,-1 C 16,-1 8,-2 5,-2 2,-2 0,0 0,0" style="fill:#55acee;fill-opacity:1;fill-rule:nonzero;stroke:none"/></g><g id="g42" transform="translate(35,21)"><path id="path44" d="m 0,0 -1,0 c -1.104,0 -2,-0.896 -2,-2 l 1,0 c 0.553,0 1,-0.447 1,-1 l 0,-1 1,0 c 1.104,0 2,-0.104 2,1 0,1.104 -0.896,3 -2,3" style="fill:#5c913b;fill-opacity:1;fill-rule:nonzero;stroke:none"/></g><g id="g46" transform="translate(31,20.9995)"><path id="path48" d="m 0,0 c 0.97,-0.243 0,-2 -1,-3 -1,-1 -10,1 -10,1 l 2,3 c 0,0 5,0 9,-1" style="fill:#c1694f;fill-opacity:1;fill-rule:nonzero;stroke:none"/></g><g id="g50" transform="translate(30,18)"><path id="path52" d="M 0,0 C 0.328,0.328 0.645,0.737 0.899,1.147 -0.575,1.911 -2.73,2.533 -5.18,2.812 -6.429,2.954 -7.621,2.99 -8.707,2.939 L -10,1 c 0,0 9,-2 10,-1" style="fill:#a0041e;fill-opacity:1;fill-rule:nonzero;stroke:none"/></g><g id="g54" transform="translate(22,22)"><path id="path56" d="M 0,0 0,1 -4,0 -6,-2 -2,-3 0,0 Z" style="fill:#55acee;fill-opacity:1;fill-rule:nonzero;stroke:none"/></g><g id="g58" transform="translate(24,22.9995)"><path id="path60" d="m 0,0 c -0.553,0 -1,-1.343 -1,-3 0,-0.612 0.062,-1.181 0.167,-1.655 0.502,-0.128 1.035,-0.221 1.592,-0.278 C 0.907,-4.41 1,-3.74 1,-3 1,-1.343 0.553,0 0,0" style="fill:#292f33;fill-opacity:1;fill-rule:nonzero;stroke:none"/></g></g></g></g></svg>