<svg xmlns="http://www.w3.org/2000/svg" xmlns:svg="http://www.w3.org/2000/svg" style="enable-background:new 0 0 47.5 47.5" id="svg2" version="1.1" viewBox="0 0 47.5 47.5" xml:space="preserve"><metadata id="metadata8"/><defs id="defs6"><clipPath id="clipPath16" clipPathUnits="userSpaceOnUse"><path id="path18" d="M 0,38 38,38 38,0 0,0 0,38 Z"/></clipPath><clipPath id="clipPath28" clipPathUnits="userSpaceOnUse"><path id="path30" d="M 9,34 5,34 C 2.791,34 1,32.209 1,30 l 0,0 0,-8 c 0,-2.209 1.791,-4 4,-4 l 0,0 28,0 c 2.209,0 4,1.791 4,4 l 0,0 0,8 c 0,2.209 -1.791,4 -4,4 l 0,0 -24,0 z"/></clipPath><clipPath id="clipPath56" clipPathUnits="userSpaceOnUse"><path id="path58" d="M 0,38 38,38 38,0 0,0 0,38 Z"/></clipPath></defs><g id="g10" transform="matrix(1.25,0,0,-1.25,0,47.5)"><g id="g12"><g id="g14" clip-path="url(#clipPath16)"><g id="g20" transform="translate(37,22)"><path id="path22" d="m 0,0 c 0,-2.209 -1.791,-4 -4,-4 l -28,0 c -2.209,0 -4,1.791 -4,4 l 0,8 c 0,2.209 1.791,4 4,4 l 4,0 24,0 c 2.209,0 4,-1.791 4,-4 L 0,0 Z" style="fill:#ffcc4d;fill-opacity:1;fill-rule:nonzero;stroke:none"/></g></g></g><g id="g24"><g id="g26" clip-path="url(#clipPath28)"><g id="g32" transform="translate(3,35)"><path id="path34" d="m 0,0 -18,-18 5,0 L 5,0 0,0 Z" style="fill:#292f33;fill-opacity:1;fill-rule:nonzero;stroke:none"/></g><g id="g36" transform="translate(14,35)"><path id="path38" d="m 0,0 -18,-18 5,0 L 5,0 0,0 Z" style="fill:#292f33;fill-opacity:1;fill-rule:nonzero;stroke:none"/></g><g id="g40" transform="translate(25,35)"><path id="path42" d="m 0,0 -18,-18 5,0 L 5,0 0,0 Z" style="fill:#292f33;fill-opacity:1;fill-rule:nonzero;stroke:none"/></g><g id="g44" transform="translate(36,35)"><path id="path46" d="m 0,0 -18,-18 5,0 L 5,0 0,0 Z" style="fill:#292f33;fill-opacity:1;fill-rule:nonzero;stroke:none"/></g><g id="g48" transform="translate(47,35)"><path id="path50" d="m 0,0 -18,-18 5,0 L 5,0 0,0 Z" style="fill:#292f33;fill-opacity:1;fill-rule:nonzero;stroke:none"/></g></g></g><g id="g52"><g id="g54" clip-path="url(#clipPath56)"><path id="path60" d="M 10,4 5,4 5,18 10,18 10,4 Z" style="fill:#99aab5;fill-opacity:1;fill-rule:nonzero;stroke:none"/><path id="path62" d="m 33,4 -5,0 0,14 5,0 0,-14 z" style="fill:#99aab5;fill-opacity:1;fill-rule:nonzero;stroke:none"/></g></g></g></svg>