<svg xmlns="http://www.w3.org/2000/svg" xmlns:svg="http://www.w3.org/2000/svg" style="enable-background:new 0 0 47.5 47.5" id="svg2" version="1.1" viewBox="0 0 47.5 47.5" xml:space="preserve"><metadata id="metadata8"/><defs id="defs6"><clipPath id="clipPath20" clipPathUnits="userSpaceOnUse"><path id="path22" d="M 0,38 38,38 38,0 0,0 0,38 Z"/></clipPath></defs><g id="g10" transform="matrix(1.25,0,0,-1.25,0,47.5)"><g id="g12" transform="translate(20,25)"><path id="path14" d="M 0,0 0,7 -2,7 -2,0 -7,0 -7,-5 5,-5 5,0 0,0 Z" style="fill:#58595b;fill-opacity:1;fill-rule:nonzero;stroke:none"/></g><g id="g16"><g id="g18" clip-path="url(#clipPath20)"><g id="g24" transform="translate(35,9)"><path id="path26" d="m 0,0 0,10 c 0,2.209 -1.791,4 -4,4 l -24,0 c -2.209,0 -4,-1.791 -4,-4 L -32,0 0,0 Z" style="fill:#ffd983;fill-opacity:1;fill-rule:nonzero;stroke:none"/></g><g id="g28" transform="translate(3,15)"><path id="path30" d="m 0,0 0,-6 c 0,-4.418 3.582,-8 8,-8 l 16,0 c 4.418,0 8,3.582 8,8 L 32,0 0,0 Z" style="fill:#269;fill-opacity:1;fill-rule:nonzero;stroke:none"/></g><path id="path32" d="m 9,10 -6,0 0,9 6,0 0,-9 z" style="fill:#88c9f9;fill-opacity:1;fill-rule:nonzero;stroke:none"/><path id="path34" d="m 18,10 -7,0 0,9 7,0 0,-9 z" style="fill:#88c9f9;fill-opacity:1;fill-rule:nonzero;stroke:none"/><path id="path36" d="m 27,10 -7,0 0,9 7,0 0,-9 z" style="fill:#88c9f9;fill-opacity:1;fill-rule:nonzero;stroke:none"/><path id="path38" d="m 35,10 -6,0 0,9 6,0 0,-9 z" style="fill:#88c9f9;fill-opacity:1;fill-rule:nonzero;stroke:none"/><g id="g40" transform="translate(34.2129,26.0225)"><path id="path42" d="m 0,0 -29.943,8.023 c -0.534,0.144 -0.85,0.692 -0.707,1.226 0.142,0.533 0.691,0.85 1.224,0.707 L 0.518,1.933 C 1.052,1.789 1.368,1.241 1.225,0.708 1.082,0.174 0.534,-0.144 0,0" style="fill:#6d6e71;fill-opacity:1;fill-rule:nonzero;stroke:none"/></g><g id="g44" transform="translate(24.3477,32.6387)"><path id="path46" d="M 0,0 -1.933,0.518 -1.674,1.482 -7.469,3.035 -7.728,2.07 -9.66,2.588 c -1.067,0.285 -2.163,-0.348 -2.449,-1.415 -0.287,-1.067 0.347,-2.163 1.414,-2.449 l 9.66,-2.588 C 0.031,-4.15 1.128,-3.517 1.414,-2.45 1.699,-1.384 1.066,-0.286 0,0" style="fill:#a7a9ac;fill-opacity:1;fill-rule:nonzero;stroke:none"/></g><g id="g48" transform="translate(14.8774,32.0693)"><path id="path50" d="m 0,0 c -0.286,-1.066 -1.383,-1.7 -2.45,-1.414 -1.066,0.286 -1.7,1.383 -1.414,2.449 0.286,1.068 1.383,1.7 2.449,1.415 C -0.348,2.164 0.286,1.067 0,0" style="fill:#808285;fill-opacity:1;fill-rule:nonzero;stroke:none"/></g><g id="g52" transform="translate(26.4688,28.9639)"><path id="path54" d="m 0,0 c -0.286,-1.067 -1.383,-1.7 -2.449,-1.414 -1.068,0.286 -1.7,1.382 -1.414,2.449 0.285,1.068 1.382,1.7 2.449,1.414 C -0.348,2.163 0.286,1.066 0,0" style="fill:#808285;fill-opacity:1;fill-rule:nonzero;stroke:none"/></g><path id="path56" d="m 9,17 -6,0 0,2 6,0 0,-2 z" style="fill:#55acee;fill-opacity:1;fill-rule:nonzero;stroke:none"/><path id="path58" d="m 18,17 -7,0 0,2 7,0 0,-2 z" style="fill:#55acee;fill-opacity:1;fill-rule:nonzero;stroke:none"/><path id="path60" d="m 27,17 -7,0 0,2 7,0 0,-2 z" style="fill:#55acee;fill-opacity:1;fill-rule:nonzero;stroke:none"/><path id="path62" d="m 35,17 -6,0 0,2 6,0 0,-2 z" style="fill:#55acee;fill-opacity:1;fill-rule:nonzero;stroke:none"/></g></g></g></svg>