<svg xmlns="http://www.w3.org/2000/svg" xmlns:svg="http://www.w3.org/2000/svg" style="enable-background:new 0 0 47.5 47.5" id="svg2" version="1.1" viewBox="0 0 47.5 47.5" xml:space="preserve"><metadata id="metadata8"/><defs id="defs6"><clipPath id="clipPath16" clipPathUnits="userSpaceOnUse"><path id="path18" d="M 0,38 38,38 38,0 0,0 0,38 Z"/></clipPath></defs><g id="g10" transform="matrix(1.25,0,0,-1.25,0,47.5)"><g id="g12"><g id="g14" clip-path="url(#clipPath16)"><g id="g20" transform="translate(32.543,19.4702)"><path id="path22" d="m 0,0 c 0.77,0.782 0.767,2.039 -0.01,2.817 l -13.556,13.557 c -0.782,0.78 -2.048,0.78 -2.829,0 l -3,-3 c -0.781,-0.782 -0.781,-2.048 0,-2.829 L -5.839,-3.011 c 0.781,-0.781 2.048,-0.781 2.829,0 l 0.182,0.181 c 1.936,-1.949 3.223,-3.834 3.223,-6.64 l 0,-6.707 c 0,-1.105 0.895,-2 2,-2 1.104,0 2,0.895 2,2 l 0,6.707 C 4.395,-5.041 2.185,-2.197 0,0" style="fill:#66757f;fill-opacity:1;fill-rule:nonzero;stroke:none"/></g><g id="g24" transform="translate(33.1035,16.0293)"><path id="path26" d="m 0,0 c -0.781,-0.78 -2.048,-0.78 -2.829,0 l -17.556,17.557 c -0.781,0.78 -0.781,2.047 0,2.828 0.781,0.781 2.047,0.781 2.828,0 L 0,2.829 C 0.78,2.048 0.78,0.781 0,0" style="fill:#99aab5;fill-opacity:1;fill-rule:nonzero;stroke:none"/></g><g id="g28" transform="translate(18.4141,21.4141)"><path id="path30" d="m 0,0 c 0.391,-0.391 0.391,-1.023 0,-1.414 l -15.707,-15.707 c -0.39,-0.391 -1.023,-0.391 -1.414,0 -0.391,0.391 -0.39,1.024 0,1.414 L -1.414,0 C -1.023,0.391 -0.391,0.391 0,0" style="fill:#55acee;fill-opacity:1;fill-rule:nonzero;stroke:none"/></g><g id="g32" transform="translate(15.4141,24.4141)"><path id="path34" d="m 0,0 c 0.391,-0.391 0.391,-1.023 0,-1.414 l -12.707,-12.707 c -0.39,-0.391 -1.023,-0.391 -1.414,0 -0.391,0.391 -0.39,1.024 0,1.414 L -1.414,0 C -1.023,0.391 -0.391,0.391 0,0" style="fill:#55acee;fill-opacity:1;fill-rule:nonzero;stroke:none"/></g><g id="g36" transform="translate(12.4141,27.4141)"><path id="path38" d="m 0,0 c 0.391,-0.391 0.391,-1.023 0,-1.414 l -9.414,-9.414 c -0.391,-0.391 -1.024,-0.391 -1.415,0 -0.39,0.39 -0.39,1.024 0,1.414 L -1.414,0 C -1.023,0.391 -0.391,0.391 0,0" style="fill:#55acee;fill-opacity:1;fill-rule:nonzero;stroke:none"/></g><g id="g40" transform="translate(21.4141,18.4141)"><path id="path42" d="m 0,0 c 0.391,-0.391 0.391,-1.023 0,-1.414 l -12.707,-12.707 c -0.39,-0.391 -1.023,-0.391 -1.414,0 -0.391,0.391 -0.39,1.024 0,1.414 L -1.414,0 C -1.023,0.391 -0.391,0.391 0,0" style="fill:#55acee;fill-opacity:1;fill-rule:nonzero;stroke:none"/></g><g id="g44" transform="translate(24.4141,15.4141)"><path id="path46" d="m 0,0 c 0.391,-0.391 0.391,-1.023 0,-1.414 l -9.414,-9.414 c -0.391,-0.391 -1.024,-0.391 -1.415,0 -0.39,0.39 -0.39,1.024 0,1.414 L -1.414,0 C -1.023,0.391 -0.391,0.391 0,0" style="fill:#55acee;fill-opacity:1;fill-rule:nonzero;stroke:none"/></g></g></g></g></svg>