<svg xmlns="http://www.w3.org/2000/svg" xmlns:svg="http://www.w3.org/2000/svg" style="enable-background:new 0 0 47.5 47.5" id="svg2" version="1.1" viewBox="0 0 47.5 47.5" xml:space="preserve"><metadata id="metadata8"/><defs id="defs6"><clipPath id="clipPath16" clipPathUnits="userSpaceOnUse"><path id="path18" d="M 0,38 38,38 38,0 0,0 0,38 Z"/></clipPath></defs><g id="g10" transform="matrix(1.25,0,0,-1.25,0,47.5)"><g id="g12"><g id="g14" clip-path="url(#clipPath16)"><g id="g20" transform="translate(27,19)"><path id="path22" d="m 0,0 0,-2 -12.707,0 c -0.867,0 -1.835,-0.896 -2.161,-2 l -3.542,-12 c -0.326,-1.104 0.306,-2 1.41,-2 l 18,0 c 1.104,0 2,0.896 2,2 l 0,9 0,1 c 0,1.861 1.278,3.412 3,3.858 L 6,0 0,0 Z" style="fill:#a7a9ac;fill-opacity:1;fill-rule:nonzero;stroke:none"/></g><g id="g24" transform="translate(23,15.125)"><path id="path26" d="m 0,0 c 0,-3.521 -4.478,-7.125 -10,-7.125 -5.523,0 -10,3.604 -10,7.125 0,1.875 0.833,1.875 10,1.875 9.166,0 10,0 10,-1.875" style="fill:#e6e7e8;fill-opacity:1;fill-rule:nonzero;stroke:none"/></g><g id="g28" transform="translate(23,18)"><path id="path30" d="m 0,0 c 0,-0.553 -0.447,-1 -1,-1 l -18,0 c -0.552,0 -1,0.447 -1,1 0,0.553 0.448,1 1,1 L -1,1 C -0.447,1 0,0.553 0,0" style="fill:#e6e7e8;fill-opacity:1;fill-rule:nonzero;stroke:none"/></g><g id="g32" transform="translate(19,21)"><path id="path34" d="m 0,0 -12,0 c -1.104,0 -2,-0.896 -2,-2 L 2,-2 C 2,-0.896 1.104,0 0,0" style="fill:#939598;fill-opacity:1;fill-rule:nonzero;stroke:none"/></g><g id="g36" transform="translate(21,37)"><path id="path38" d="m 0,0 0,-16 c 1.104,0 2,0.896 2,2 L 2,-2 C 2,-0.896 1.104,0 0,0" style="fill:#939598;fill-opacity:1;fill-rule:nonzero;stroke:none"/></g><g id="g40" transform="translate(35,33)"><path id="path42" d="m 0,0 c 0,1.104 -0.896,2 -2,2 l -8,0 c -1.104,0 -2,-0.896 -2,-2 l 0,-1 0,-13 c 0,-1.104 0.896,-2 2,-2 l 8,0 c 1.104,0 2,0.896 2,2 l 0,13 0,1 z" style="fill:#e6e7e8;fill-opacity:1;fill-rule:nonzero;stroke:none"/></g><g id="g44" transform="translate(23,21)"><path id="path46" d="m 0,0 c 0,-1.104 -0.896,-2 -2,-2 -1.104,0 -2,0.896 -2,2 0,1.104 0.896,2 2,2 1.104,0 2,-0.896 2,-2" style="fill:#d1d3d4;fill-opacity:1;fill-rule:nonzero;stroke:none"/></g><path id="path48" d="m 35,31 -12,0 0,2 12,0 0,-2 z" style="fill:#bcbec0;fill-opacity:1;fill-rule:nonzero;stroke:none"/><g id="g50" transform="translate(26,16)"><path id="path52" d="m 0,0 c 0,-0.553 -0.447,-1 -1,-1 l -21,0 c -0.552,0 -1,0.447 -1,1 0,0.553 0.448,1 1,1 L -1,1 C -0.447,1 0,0.553 0,0" style="fill:#a7a9ac;fill-opacity:1;fill-rule:nonzero;stroke:none"/></g></g></g></g></svg>