<svg xmlns="http://www.w3.org/2000/svg" xmlns:svg="http://www.w3.org/2000/svg" style="enable-background:new 0 0 47.5 47.5" id="svg2" version="1.1" viewBox="0 0 47.5 47.5" xml:space="preserve"><metadata id="metadata8"/><defs id="defs6"><clipPath id="clipPath16" clipPathUnits="userSpaceOnUse"><path id="path18" d="M 0,38 38,38 38,0 0,0 0,38 Z"/></clipPath></defs><g id="g10" transform="matrix(1.25,0,0,-1.25,0,47.5)"><g id="g12"><g id="g14" clip-path="url(#clipPath16)"><g id="g20" transform="translate(37,5)"><path id="path22" d="m 0,0 c 0,-2.209 -1.791,-4 -4,-4 l -28,0 c -2.209,0 -4,1.791 -4,4 l 0,28 c 0,2.209 1.791,4 4,4 l 28,0 c 2.209,0 4,-1.791 4,-4 L 0,0 Z" style="fill:#ea596e;fill-opacity:1;fill-rule:nonzero;stroke:none"/></g><g id="g24" transform="translate(27.7949,21.2725)"><path id="path26" d="m 0,0 -7.041,4.4 c 0.752,0.636 1.246,1.662 1.246,2.828 0,1.933 -1.344,3.5 -3,3.5 -1.657,0 -3,-1.567 -3,-3.5 0,-1.166 0.493,-2.192 1.245,-2.828 L -17.59,0 c -0.703,-0.439 -0.916,-1.364 -0.477,-2.067 0.439,-0.703 1.364,-0.915 2.067,-0.477 l 4.354,2.722 -3.149,-9.45 4,0 0,-6 c 0,-1.105 0.896,-2 2,-2 1.105,0 2,0.895 2,2 l 0,6 4,0 -3.15,9.45 4.355,-2.722 c 0.247,-0.155 0.522,-0.228 0.794,-0.228 0.5,0 0.988,0.25 1.274,0.705 C 0.916,-1.364 0.702,-0.439 0,0" style="fill:#fff;fill-opacity:1;fill-rule:nonzero;stroke:none"/></g></g></g></g></svg>