<svg xmlns="http://www.w3.org/2000/svg" xmlns:svg="http://www.w3.org/2000/svg" style="enable-background:new 0 0 47.5 47.5" id="svg2" version="1.1" viewBox="0 0 47.5 47.5" xml:space="preserve"><metadata id="metadata8"/><defs id="defs6"><clipPath id="clipPath16" clipPathUnits="userSpaceOnUse"><path id="path18" d="M 0,38 38,38 38,0 0,0 0,38 Z"/></clipPath></defs><g id="g10" transform="matrix(1.25,0,0,-1.25,0,47.5)"><g id="g12"><g id="g14" clip-path="url(#clipPath16)"><g id="g20" transform="translate(1,33)"><path id="path22" d="m 0,0 c 0,4 4,4 4,4 l 28,0 c 0,0 4,0 4,-4 l 0,-28 c 0,0 0,-4 -4,-4 l -28,0 c 0,0 -4,0 -4,4 L 0,0 Z" style="fill:#55acee;fill-opacity:1;fill-rule:nonzero;stroke:none"/></g><g id="g24" transform="translate(34,28)"><path id="path26" d="m 0,0 -11,0 0,4.5 0,1.5 c 0,0 0,1 -1,1 -1,0 -1,-1 -1,-1 l 0,-1.5 0,-4.5 c -8,0 -8,-7 -8,-7 l 0,-2 c 0,-1 1,-1 1,-1 l 3,0 c 0,0 1,0 1,1 l 0,0.25 0,0.062 0,1.688 c 0,2 2,2 2,2 l 14,0 c 1,0 1,1 1,1 l 0,3 c 0,0 0,1 -1,1" style="fill:#fff;fill-opacity:1;fill-rule:nonzero;stroke:none"/></g><g id="g28" transform="translate(19.5,34)"><path id="path30" d="M 0,0 -3,0 C -3.829,0 -4.5,-0.671 -4.5,-1.5 -4.5,-2.329 -3.829,-3 -3,-3 l 3,0 c 0.828,0 1.5,0.671 1.5,1.5 C 1.5,-0.671 0.828,0 0,0" style="fill:#fff;fill-opacity:1;fill-rule:nonzero;stroke:none"/></g><g id="g32" transform="translate(24.5,31)"><path id="path34" d="M 0,0 3,0 C 3.828,0 4.5,0.671 4.5,1.5 4.5,2.329 3.828,3 3,3 L 0,3 C -0.828,3 -1.5,2.329 -1.5,1.5 -1.5,0.671 -0.828,0 0,0" style="fill:#fff;fill-opacity:1;fill-rule:nonzero;stroke:none"/></g><g id="g36" transform="translate(21,17)"><path id="path38" d="m 0,0 c -1,0 -1,-1 -1,-1 l 0,-5 -9,0 0,5 c 0,0 0,1 -1,1 -1,0 -1,-1 -1,-1 l 0,-11 c 0,0 0,-2 2,-2 l 9,0 c 2,0 2,2 2,2 l 0,11 c 0,0 0,1 -1,1" style="fill:#fff;fill-opacity:1;fill-rule:nonzero;stroke:none"/></g></g></g></g></svg>