<svg xmlns="http://www.w3.org/2000/svg" xmlns:svg="http://www.w3.org/2000/svg" style="enable-background:new 0 0 47.5 47.5" id="svg2" version="1.1" viewBox="0 0 47.5 47.5" xml:space="preserve"><metadata id="metadata8"/><defs id="defs6"><clipPath id="clipPath16" clipPathUnits="userSpaceOnUse"><path id="path18" d="M 0,38 38,38 38,0 0,0 0,38 Z"/></clipPath></defs><g id="g10" transform="matrix(1.25,0,0,-1.25,0,47.5)"><g id="g12"><g id="g14" clip-path="url(#clipPath16)"><g id="g20" transform="translate(22,19)"><path id="path22" d="m 0,0 0,0 c 0,2.001 3.246,3.369 5,6 2,3 2,10 2,10 l -10,0 -10,0 c 0,0 0,-7 2,-10 1.753,-2.631 5,-3.999 5,-6 l 0,0 c 0,-2.001 -3.247,-3.369 -5,-6 -2,-3 -2,-10 -2,-10 l 10,0 10,0 c 0,0 0,7 -2,10 -1.754,2.631 -5,3.999 -5,6" style="fill:#ffe8b6;fill-opacity:1;fill-rule:nonzero;stroke:none"/></g><g id="g24" transform="translate(21.999,13)"><path id="path26" d="m 0,0 c -0.999,0 -2.057,1 -2.057,2 0.057,1.713 0.058,2.846 0.058,4 0,3.22 3.034,4.562 4.9,7 l -11.8,0 c 1.865,-2.438 4.9,-3.78 4.9,-7 0,-1.154 0,-2.288 0.058,-4 C -3.941,1 -5,0 -6,0 c -2,0 -3.594,-1.784 -4,-3 -1,-3 -0.999,-7 -0.999,-7 l 6.999,0 1.001,0 8,0 c 0,0 0,4 -1,7 C 3.596,-1.784 2,0 0,0" style="fill:#ffac33;fill-opacity:1;fill-rule:nonzero;stroke:none"/></g><g id="g28" transform="translate(31,3)"><path id="path30" d="m 0,0 c 0,-1.104 -0.896,-2 -2,-2 l -20,0 c -1.104,0 -2,0.896 -2,2 0,1.104 0.896,2 2,2 L -2,2 C -0.896,2 0,1.104 0,0" style="fill:#3b88c3;fill-opacity:1;fill-rule:nonzero;stroke:none"/></g><g id="g32" transform="translate(31,35)"><path id="path34" d="m 0,0 c 0,-1.104 -0.896,-2 -2,-2 l -20,0 c -1.104,0 -2,0.896 -2,2 0,1.104 0.896,2 2,2 L -2,2 C -0.896,2 0,1.104 0,0" style="fill:#3b88c3;fill-opacity:1;fill-rule:nonzero;stroke:none"/></g></g></g></g></svg>