<svg xmlns="http://www.w3.org/2000/svg" xmlns:svg="http://www.w3.org/2000/svg" style="enable-background:new 0 0 47.5 47.5" id="svg2" version="1.1" viewBox="0 0 47.5 47.5" xml:space="preserve"><metadata id="metadata8"/><defs id="defs6"><clipPath id="clipPath16" clipPathUnits="userSpaceOnUse"><path id="path18" d="M 0,38 38,38 38,0 0,0 0,38 Z"/></clipPath></defs><g id="g10" transform="matrix(1.25,0,0,-1.25,0,47.5)"><g id="g12"><g id="g14" clip-path="url(#clipPath16)"><g id="g20" transform="translate(37,19)"><path id="path22" d="m 0,0 c 0,-9.941 -8.059,-18 -18,-18 -9.941,0 -18,8.059 -18,18 0,9.941 8.059,18 18,18 C -8.059,18 0,9.941 0,0" style="fill:#3b88c3;fill-opacity:1;fill-rule:nonzero;stroke:none"/></g><g id="g24" transform="translate(9.1738,27.875)"><path id="path26" d="m 0,0 c 0.186,1.116 1.395,2.387 3.039,2.387 1.55,0 2.759,-1.116 3.1,-2.232 l 3.659,-12.278 0.062,0 3.659,12.278 c 0.34,1.116 1.549,2.232 3.1,2.232 1.643,0 2.852,-1.271 3.039,-2.387 l 2.883,-17.302 c 0.031,-0.185 0.031,-0.372 0.031,-0.526 0,-1.365 -0.992,-2.233 -2.232,-2.233 -1.582,0 -2.201,0.713 -2.418,2.17 l -1.83,12.62 -0.063,0 -3.72,-12.992 c -0.217,-0.744 -0.805,-1.798 -2.48,-1.798 -1.674,0 -2.264,1.054 -2.481,1.798 l -3.721,12.992 -0.061,0 -1.83,-12.62 c -0.217,-1.457 -0.837,-2.17 -2.418,-2.17 -1.24,0 -2.233,0.868 -2.233,2.233 0,0.154 0,0.341 0.032,0.526 L 0,0 Z" style="fill:#fff;fill-opacity:1;fill-rule:nonzero;stroke:none"/></g></g></g></g></svg>