<svg xmlns="http://www.w3.org/2000/svg" xmlns:svg="http://www.w3.org/2000/svg" style="enable-background:new 0 0 47.5 47.5" id="svg2" version="1.1" viewBox="0 0 47.5 47.5" xml:space="preserve"><metadata id="metadata8"/><defs id="defs6"><clipPath id="clipPath16" clipPathUnits="userSpaceOnUse"><path id="path18" d="M 0,38 38,38 38,0 0,0 0,38 Z"/></clipPath></defs><g id="g10" transform="matrix(1.25,0,0,-1.25,0,47.5)"><g id="g12"><g id="g14" clip-path="url(#clipPath16)"><g id="g20" transform="translate(28,8.5)"><path id="path22" d="M 0,0 C 0,0.828 -0.672,1.5 -1.5,1.5 -2.328,1.5 -3,0.828 -3,0 l 0,-0.5 c 0,0 0,-3 -3,-3 -3,0 -3,3 -3,3 l 0,25 0,0.5 c 0,0.829 -0.671,1.5 -1.5,1.5 -0.829,0 -1.5,-0.671 -1.5,-1.5 l 0,-25.5 c 0,0 0,-6 6,-6 6,0 6,6 6,6 L 0,0 Z" style="fill:#66757f;fill-opacity:1;fill-rule:nonzero;stroke:none"/></g><g id="g24" transform="translate(17.5,33)"><path id="path26" d="m 0,0 c -9.112,0 -16.5,-5.82 -16.5,-13 0,0 0,-2 1,-2 1,0 3,2 3,2 l 25,0 c 0,0 2,-2 3,-2 1,0 1,2 1,2 C 16.5,-5.82 9.112,0 0,0" style="fill:#744eaa;fill-opacity:1;fill-rule:nonzero;stroke:none"/></g><g id="g28" transform="translate(17.5,33)"><path id="path30" d="m 0,0 c -6.903,0 -12.5,-5.82 -12.5,-13 0,0 0,-2 2,-2 2,0 5,2 5,2 l 11,0 c 0,0 3,-2 5,-2 2,0 2,2 2,2 C 12.5,-5.82 6.903,0 0,0" style="fill:#9266cc;fill-opacity:1;fill-rule:nonzero;stroke:none"/></g><g id="g32" transform="translate(17.5,33)"><path id="path34" d="m 0,0 c -3.59,0 -5.5,-5.82 -5.5,-13 0,0 3,-2 5,-2 l 1,0 c 2,0 5,2 5,2 C 5.5,-5.82 3.59,0 0,0" style="fill:#744eaa;fill-opacity:1;fill-rule:nonzero;stroke:none"/></g><g id="g36" transform="translate(6.6172,32.5283)"><path id="path38" d="M 0,0 -2.679,4.382 -5.161,0.029 C -5.74,-0.893 -5.79,-2.093 -5.183,-3.085 -4.319,-4.497 -2.459,-4.95 -1.028,-4.099 0.403,-3.247 0.863,-1.413 0,0" style="fill:#5dadec;fill-opacity:1;fill-rule:nonzero;stroke:none"/></g><g id="g40" transform="translate(14.6172,29.5283)"><path id="path42" d="M 0,0 -2.679,4.382 -5.161,0.029 C -5.74,-0.893 -5.79,-2.093 -5.183,-3.085 -4.319,-4.497 -2.459,-4.95 -1.028,-4.099 0.403,-3.247 0.863,-1.413 0,0" style="fill:#5dadec;fill-opacity:1;fill-rule:nonzero;stroke:none"/></g><g id="g44" transform="translate(26.5645,32.5283)"><path id="path46" d="M 0,0 -2.679,4.382 -5.161,0.029 C -5.74,-0.893 -5.79,-2.093 -5.183,-3.085 -4.319,-4.497 -2.459,-4.95 -1.028,-4.099 0.402,-3.247 0.863,-1.413 0,0" style="fill:#5dadec;fill-opacity:1;fill-rule:nonzero;stroke:none"/></g><g id="g48" transform="translate(36.5645,26.6182)"><path id="path50" d="M 0,0 -2.679,4.382 -5.161,0.029 C -5.74,-0.893 -5.79,-2.093 -5.183,-3.085 -4.319,-4.497 -2.459,-4.95 -1.028,-4.099 0.402,-3.247 0.863,-1.413 0,0" style="fill:#5dadec;fill-opacity:1;fill-rule:nonzero;stroke:none"/></g></g></g></g></svg>