<svg xmlns="http://www.w3.org/2000/svg" xmlns:svg="http://www.w3.org/2000/svg" style="enable-background:new 0 0 47.5 47.5" id="svg2" version="1.1" viewBox="0 0 47.5 47.5" xml:space="preserve"><metadata id="metadata8"/><defs id="defs6"><clipPath id="clipPath16" clipPathUnits="userSpaceOnUse"><path id="path18" d="M 0,38 38,38 38,0 0,0 0,38 Z"/></clipPath></defs><g id="g10" transform="matrix(1.25,0,0,-1.25,0,47.5)"><g id="g12"><g id="g14" clip-path="url(#clipPath16)"><g id="g20" transform="translate(37,19)"><path id="path22" d="m 0,0 c 0,-9.941 -8.059,-18 -18,-18 -9.94,0 -18,8.059 -18,18 0,9.94 8.06,18 18,18 C -8.059,18 0,9.94 0,0" style="fill:#ffcc4d;fill-opacity:1;fill-rule:nonzero;stroke:none"/></g><g id="g24" transform="translate(35,15)"><path id="path26" d="m 0,0 c 0,-2.762 -2.238,-5 -5,-5 -2.762,0 -5,2.238 -5,5 0,2.762 2.238,5 5,5 2.762,0 5,-2.238 5,-5" style="fill:#ff7892;fill-opacity:1;fill-rule:nonzero;stroke:none"/></g><g id="g28" transform="translate(13,15)"><path id="path30" d="m 0,0 c 0,-2.762 -2.238,-5 -5,-5 -2.762,0 -5,2.238 -5,5 0,2.762 2.238,5 5,5 2.762,0 5,-2.238 5,-5" style="fill:#ff7892;fill-opacity:1;fill-rule:nonzero;stroke:none"/></g><g id="g32" transform="translate(22,26)"><path id="path34" d="M 0,0 C 0,0 5,1 8,-2" style="fill:none;stroke:#664500;stroke-width:2;stroke-linecap:round;stroke-linejoin:round;stroke-miterlimit:4;stroke-dasharray:none;stroke-opacity:1"/></g><g id="g36" transform="translate(16,26)"><path id="path38" d="M 0,0 C 0,0 -5,1 -8,-2" style="fill:none;stroke:#664500;stroke-width:2;stroke-linecap:round;stroke-linejoin:round;stroke-miterlimit:4;stroke-dasharray:none;stroke-opacity:1"/></g><g id="g40" transform="translate(21,20)"><path id="path42" d="M 0,0 C 0,0 4,1 6,-1" style="fill:none;stroke:#664500;stroke-width:2;stroke-linecap:round;stroke-linejoin:round;stroke-miterlimit:4;stroke-dasharray:none;stroke-opacity:1"/></g><g id="g44" transform="translate(17,20)"><path id="path46" d="M 0,0 C 0,0 -4,1 -6,-1" style="fill:none;stroke:#664500;stroke-width:2;stroke-linecap:round;stroke-linejoin:round;stroke-miterlimit:4;stroke-dasharray:none;stroke-opacity:1"/></g><g id="g48" transform="translate(14,12)"><path id="path50" d="m 0,0 c 0,0 1,-4 5,-4 4,0 5,4 5,4 C 10,0 9,-1 5,-1 1,-1 0,0 0,0" style="fill:#664500;fill-opacity:1;fill-rule:nonzero;stroke:none"/></g><g id="g52" transform="translate(14,12)"><path id="path54" d="m 0,0 c 0,0 1,-4 5,-4 4,0 5,4 5,4 C 10,0 9,-1 5,-1 1,-1 0,0 0,0 Z" style="fill:none;stroke:#664500;stroke-width:1;stroke-linecap:round;stroke-linejoin:round;stroke-miterlimit:4;stroke-dasharray:none;stroke-opacity:1"/></g></g></g></g></svg>