<svg xmlns="http://www.w3.org/2000/svg" xmlns:svg="http://www.w3.org/2000/svg" style="enable-background:new 0 0 47.5 47.5" id="svg2" version="1.1" viewBox="0 0 47.5 47.5" xml:space="preserve"><metadata id="metadata8"/><defs id="defs6"><clipPath id="clipPath16" clipPathUnits="userSpaceOnUse"><path id="path18" d="M 0,38 38,38 38,0 0,0 0,38 Z"/></clipPath></defs><g id="g10" transform="matrix(1.25,0,0,-1.25,0,47.5)"><g id="g12"><g id="g14" clip-path="url(#clipPath16)"><g id="g20" transform="translate(37,5)"><path id="path22" d="m 0,0 c 0,-2.209 -1.791,-4 -4,-4 l -28,0 c -2.209,0 -4,1.791 -4,4 l 0,28 c 0,2.209 1.791,4 4,4 l 28,0 c 2.209,0 4,-1.791 4,-4 L 0,0 Z" style="fill:#3b88c3;fill-opacity:1;fill-rule:nonzero;stroke:none"/></g><g id="g24" transform="translate(28,10.5)"><path id="path26" d="m 0,0 c -3.842,0 -4,0.933 -4,4.5 l 0,10 c 0,4.562 -1.776,5.939 -3.268,6.291 -1.465,0.345 -2.971,-0.291 -4.024,-1.269 -0.595,0.751 -1.313,1.113 -1.976,1.269 -1.46,0.345 -2.959,-0.286 -4.011,-1.257 C -18.295,20.881 -19.607,21 -20,21 c -0.829,0 -1.5,-0.671 -1.5,-1.5 0,-0.829 0.671,-1.5 1.5,-1.5 0.155,0 1,-0.646 1,-3.5 l 0,-11 c 0,-0.828 0.671,-1.5 1.5,-1.5 0.829,0 1.5,0.672 1.5,1.5 l 0,11 c 0,0.669 -0.045,1.257 -0.116,1.796 0.186,0.137 0.347,0.312 0.458,0.533 0.295,0.591 1.217,1.157 1.701,1.042 C -13.496,17.763 -13,16.661 -13,14.5 l 0,-11 c 0,-0.828 0.671,-1.5 1.5,-1.5 0.829,0 1.5,0.672 1.5,1.5 l 0,11 c 0,0.668 -0.042,1.261 -0.112,1.799 0.185,0.136 0.344,0.311 0.454,0.53 0.295,0.591 1.224,1.157 1.701,1.042 C -7.496,17.763 -7,16.661 -7,14.5 l 0,-10 C -7,0.548 -6.465,-3 0,-3 0.828,-3 1.5,-2.328 1.5,-1.5 1.5,-0.672 0.828,0 0,0" style="fill:#fff;fill-opacity:1;fill-rule:nonzero;stroke:none"/></g><g id="g28" transform="translate(32.5,9)"><path id="path30" d="m 0,0 -5.5,4 0,-8 5.5,4 z" style="fill:#fff;fill-opacity:1;fill-rule:nonzero;stroke:none"/></g></g></g></g></svg>