<svg xmlns="http://www.w3.org/2000/svg" xmlns:svg="http://www.w3.org/2000/svg" style="enable-background:new 0 0 47.5 47.5" id="svg2" version="1.1" viewBox="0 0 47.5 47.5" xml:space="preserve"><metadata id="metadata8"/><defs id="defs6"><clipPath id="clipPath16" clipPathUnits="userSpaceOnUse"><path id="path18" d="M 0,38 38,38 38,0 0,0 0,38 Z"/></clipPath></defs><g id="g10" transform="matrix(1.25,0,0,-1.25,0,47.5)"><g id="g12"><g id="g14" clip-path="url(#clipPath16)"><g id="g20" transform="translate(37,5)"><path id="path22" d="m 0,0 c 0,-2.209 -1.791,-4 -4,-4 l -28,0 c -2.209,0 -4,1.791 -4,4 l 0,28 c 0,2.209 1.791,4 4,4 l 28,0 c 2.209,0 4,-1.791 4,-4 L 0,0 Z" style="fill:#dd2e44;fill-opacity:1;fill-rule:nonzero;stroke:none"/></g><g id="g24" transform="translate(29.5,31)"><path id="path26" d="m 0,0 -11.5,0 c -0.829,0 -1.5,-0.671 -1.5,-1.5 0,-0.829 0.671,-1.5 1.5,-1.5 l 7.879,0 -11.879,-11.879 -3.939,3.94 c -0.586,0.585 -1.536,0.585 -2.122,0 -0.585,-0.586 -0.585,-1.536 0,-2.122 l 3.94,-3.939 -4.94,-4.939 c -0.585,-0.586 -0.585,-1.536 0,-2.122 0.293,-0.293 0.677,-0.439 1.061,-0.439 0.384,0 0.768,0.146 1.061,0.439 l 4.939,4.94 3.939,-3.94 c 0.293,-0.293 0.677,-0.439 1.061,-0.439 0.384,0 0.768,0.146 1.061,0.439 0.585,0.586 0.585,1.536 0,2.122 L -13.379,-17 -1.5,-5.121 -1.5,-13 c 0,-0.828 0.672,-1.5 1.5,-1.5 0.828,0 1.5,0.672 1.5,1.5 l 0,11.5 C 1.5,-0.671 0.828,0 0,0" style="fill:#fff;fill-opacity:1;fill-rule:nonzero;stroke:none"/></g></g></g></g></svg>