<svg xmlns="http://www.w3.org/2000/svg" xmlns:svg="http://www.w3.org/2000/svg" style="enable-background:new 0 0 47.5 47.5" id="svg2" version="1.1" viewBox="0 0 47.5 47.5" xml:space="preserve"><metadata id="metadata8"/><defs id="defs6"><clipPath id="clipPath16" clipPathUnits="userSpaceOnUse"><path id="path18" d="M 0,38 38,38 38,0 0,0 0,38 Z"/></clipPath></defs><g id="g10" transform="matrix(1.25,0,0,-1.25,0,47.5)"><g id="g12"><g id="g14" clip-path="url(#clipPath16)"><g id="g20" transform="translate(26.5,9)"><path id="path22" d="M 0,0 C 4.143,0 7.5,3.358 7.5,7.5 7.5,11.642 4.143,15 0,15 -1.359,15 -2.631,14.633 -3.73,14 l -0.209,0 c 2.046,1.217 3.422,3.445 3.422,6 0,3.857 -3.126,6.984 -6.983,6.984 -3.857,0 -6.984,-3.127 -6.984,-6.984 0,-2.555 1.376,-4.783 3.423,-6 l -0.208,0 c -1.1,0.633 -2.371,1 -3.731,1 -4.142,0 -7.5,-3.358 -7.5,-7.5 0,-4.142 3.358,-7.5 7.5,-7.5 2.155,0 4.091,0.914 5.459,2.368 C -9.951,-1.753 -14.295,-5 -18.5,-5 l 0.5,0 c -0.829,0 -1.5,-0.672 -1.5,-1.5 0,-0.828 0.671,-1.5 1.5,-1.5 l 21,0 c 0.828,0 1.5,0.672 1.5,1.5 C 4.5,-5.672 3.828,-5 3,-5 l 0.5,0 C -0.705,-5 -5.049,-1.752 -5.459,2.369 -4.092,0.914 -2.154,0 0,0" style="fill:#000;fill-opacity:1;fill-rule:nonzero;stroke:none"/></g></g></g></g></svg>