<svg xmlns="http://www.w3.org/2000/svg" xmlns:svg="http://www.w3.org/2000/svg" style="enable-background:new 0 0 47.5 47.5" id="svg2" version="1.1" viewBox="0 0 47.5 47.5" xml:space="preserve"><metadata id="metadata8"/><defs id="defs6"><clipPath id="clipPath16" clipPathUnits="userSpaceOnUse"><path id="path18" d="M 0,38 38,38 38,0 0,0 0,38 Z"/></clipPath></defs><g id="g10" transform="matrix(1.25,0,0,-1.25,0,47.5)"><g id="g12"><g id="g14" clip-path="url(#clipPath16)"><g id="g20" transform="translate(16,31)"><path id="path22" d="M 0,0 C 0,1.657 1.343,3 3,3 4.656,3 6,1.657 6,0 6,-1.657 4.656,-3 3,-3 1.343,-3 0,-1.657 0,0 M 20,-19 15.5,-12.572 11,-19 l 2.575,0 C 12.445,-22.988 9.13,-26.05 5,-26.81 l 0,15.81 3,0 c 1.104,0 2,0.896 2,2 0,1.104 -0.896,2 -2,2 l -3,0 0,1.349 C 7.329,-4.827 9,-2.611 9,0 9,3.313 6.313,6 3,6 -0.313,6 -3,3.313 -3,0 -3,-2.611 -1.329,-4.827 1,-5.651 L 1,-7 -2,-7 c -1.104,0 -2,-0.896 -2,-2 0,-1.104 0.896,-2 2,-2 l 3,0 0,-15.81 c -4.13,0.76 -7.446,3.822 -8.575,7.81 L -5,-19 -9.5,-12.572 -14,-19 l 3.33,0 c 1.375,-6.289 6.969,-11 13.67,-11 6.701,0 12.295,4.711 13.67,11 l 3.33,0 z" style="fill:#269;fill-opacity:1;fill-rule:nonzero;stroke:none"/></g></g></g></g></svg>