<svg xmlns="http://www.w3.org/2000/svg" xmlns:svg="http://www.w3.org/2000/svg" style="enable-background:new 0 0 47.5 47.5" id="svg2" version="1.1" viewBox="0 0 47.5 47.5" xml:space="preserve"><metadata id="metadata8"/><defs id="defs6"><clipPath id="clipPath16" clipPathUnits="userSpaceOnUse"><path id="path18" d="M 0,38 38,38 38,0 0,0 0,38 Z"/></clipPath></defs><g id="g10" transform="matrix(1.25,0,0,-1.25,0,47.5)"><g id="g12"><g id="g14" clip-path="url(#clipPath16)"><g id="g20" transform="translate(21,11)"><path id="path22" d="m 0,0 c 0,-0.553 -0.447,-1 -1,-1 -0.552,0 -1,0.447 -1,1 l 0,25 c 0,0.552 0.448,1 1,1 0.553,0 1,-0.448 1,-1 L 0,0 Z" style="fill:#a7a9ac;fill-opacity:1;fill-rule:nonzero;stroke:none"/></g><g id="g24" transform="translate(4,13)"><path id="path26" d="M 0,0 31,0 31,-8 9,-8 C 3,-8 0,0 0,0" style="fill:#d1d3d4;fill-opacity:1;fill-rule:nonzero;stroke:none"/></g><path id="path28" d="M 37,7 1,7 1,1 37,1 37,7 Z" style="fill:#55acee;fill-opacity:1;fill-rule:nonzero;stroke:none"/><g id="g30" transform="translate(6,15)"><path id="path32" d="m 0,0 c 0,0 2,5 5,9 3,4 8,8 8,8 C 13,17 12,6 12,1 L 12,0 C 12,0 9,1 6,1 3,1 0,0 0,0" style="fill:#ffac33;fill-opacity:1;fill-rule:nonzero;stroke:none"/></g><g id="g34" transform="translate(21,35)"><path id="path36" d="m 0,0 c 0,0 6,-6 9,-11 2.771,-4.618 4,-9 4,-9 0,0 -3,1 -6,1 -3,0 -6,-1 -6,-1 l 0,1 C 1,-10 0,0 0,0" style="fill:#f4900c;fill-opacity:1;fill-rule:nonzero;stroke:none"/></g><g id="g38" transform="translate(3,13)"><path id="path40" d="m 0,0 c -0.552,0 -1,-0.447 -1,-1 0,-0.553 0.448,-1 1,-1 l 33,0 0,2 -33,0 z" style="fill:#e6e7e8;fill-opacity:1;fill-rule:nonzero;stroke:none"/></g></g></g></g></svg>