<svg xmlns="http://www.w3.org/2000/svg" xmlns:svg="http://www.w3.org/2000/svg" style="enable-background:new 0 0 47.5 47.5" id="svg2" version="1.1" viewBox="0 0 47.5 47.5" xml:space="preserve"><metadata id="metadata8"/><defs id="defs6"><clipPath id="clipPath16" clipPathUnits="userSpaceOnUse"><path id="path18" d="M 5,37 C 2.791,37 1,35.209 1,33 L 1,33 1,5 C 1,2.791 2.791,1 5,1 l 0,0 28,0 c 2.209,0 4,1.791 4,4 l 0,0 0,28 c 0,2.209 -1.791,4 -4,4 l 0,0 -28,0 z"/></clipPath><clipPath id="clipPath28" clipPathUnits="userSpaceOnUse"><path id="path30" d="M 0,38 38,38 38,0 0,0 0,38 Z"/></clipPath></defs><g id="g10" transform="matrix(1.25,0,0,-1.25,0,47.5)"><g id="g12"><g id="g14" clip-path="url(#clipPath16)"><path id="path20" d="m 37,-1 -38,0 0,38 38,0 0,-38 z" style="fill:#00557f;fill-opacity:1;fill-rule:nonzero;stroke:none"/><path id="path22" d="M 39,15 0,15 0,-2 39,-2 39,15 Z" style="fill:#3e721d;fill-opacity:1;fill-rule:nonzero;stroke:none"/></g></g><g id="g24"><g id="g26" clip-path="url(#clipPath28)"><g id="g32" transform="translate(7.5,30)"><path id="path34" d="m 0,0 c -1.381,0 -2.5,1.119 -2.5,2.5 0,1.13 0.755,2.074 1.784,2.383 C -0.967,4.952 -1.227,5 -1.5,5 c -1.657,0 -3,-1.343 -3,-3 0,-1.657 1.343,-3 3,-3 0.959,0 1.803,0.458 2.353,1.159 C 0.585,0.062 0.301,0 0,0" style="fill:#fff;fill-opacity:1;fill-rule:nonzero;stroke:none"/></g><g id="g36" transform="translate(12,34.5)"><path id="path38" d="M 0,0 C 0,-0.276 -0.224,-0.5 -0.5,-0.5 -0.776,-0.5 -1,-0.276 -1,0 -1,0.276 -0.776,0.5 -0.5,0.5 -0.224,0.5 0,0.276 0,0" style="fill:#fff;fill-opacity:1;fill-rule:nonzero;stroke:none"/></g><g id="g40" transform="translate(28,25.5)"><path id="path42" d="M 0,0 C 0,-0.276 -0.224,-0.5 -0.5,-0.5 -0.776,-0.5 -1,-0.276 -1,0 -1,0.276 -0.776,0.5 -0.5,0.5 -0.224,0.5 0,0.276 0,0" style="fill:#fff;fill-opacity:1;fill-rule:nonzero;stroke:none"/></g><g id="g44" transform="translate(9,25.5)"><path id="path46" d="M 0,0 C 0,-0.276 -0.224,-0.5 -0.5,-0.5 -0.776,-0.5 -1,-0.276 -1,0 -1,0.276 -0.776,0.5 -0.5,0.5 -0.224,0.5 0,0.276 0,0" style="fill:#fff;fill-opacity:1;fill-rule:nonzero;stroke:none"/></g><g id="g48" transform="translate(24,32)"><path id="path50" d="m 0,0 c 0,-0.552 -0.447,-1 -1,-1 -0.553,0 -1,0.448 -1,1 0,0.552 0.447,1 1,1 0.553,0 1,-0.448 1,-1" style="fill:#fff;fill-opacity:1;fill-rule:nonzero;stroke:none"/></g><g id="g52" transform="translate(6,20)"><path id="path54" d="m 0,0 c 0,-0.552 -0.447,-1 -1,-1 -0.553,0 -1,0.448 -1,1 0,0.552 0.447,1 1,1 0.553,0 1,-0.448 1,-1" style="fill:#fff;fill-opacity:1;fill-rule:nonzero;stroke:none"/></g><g id="g56" transform="translate(14,30)"><path id="path58" d="m 0,0 c 0,-0.552 -0.447,-1 -1,-1 -0.553,0 -1,0.448 -1,1 0,0.552 0.447,1 1,1 0.553,0 1,-0.448 1,-1" style="fill:#fff;fill-opacity:1;fill-rule:nonzero;stroke:none"/></g><g id="g60" transform="translate(34,20)"><path id="path62" d="m 0,0 c 0,-0.552 -0.447,-1 -1,-1 -0.553,0 -1,0.448 -1,1 0,0.552 0.447,1 1,1 0.553,0 1,-0.448 1,-1" style="fill:#fff;fill-opacity:1;fill-rule:nonzero;stroke:none"/></g><g id="g64" transform="translate(23,24)"><path id="path66" d="m 0,0 c 0,-0.552 -0.447,-1 -1,-1 -0.553,0 -1,0.448 -1,1 0,0.552 0.447,1 1,1 0.553,0 1,-0.448 1,-1" style="fill:#fff;fill-opacity:1;fill-rule:nonzero;stroke:none"/></g><g id="g68" transform="translate(28,31.5)"><path id="path70" d="M 0,0 C 0,-0.276 -0.224,-0.5 -0.5,-0.5 -0.776,-0.5 -1,-0.276 -1,0 -1,0.276 -0.776,0.5 -0.5,0.5 -0.224,0.5 0,0.276 0,0" style="fill:#fff;fill-opacity:1;fill-rule:nonzero;stroke:none"/></g><g id="g72" transform="translate(18,26.5)"><path id="path74" d="M 0,0 C 0,-0.276 -0.224,-0.5 -0.5,-0.5 -0.776,-0.5 -1,-0.276 -1,0 -1,0.276 -0.776,0.5 -0.5,0.5 -0.224,0.5 0,0.276 0,0" style="fill:#fff;fill-opacity:1;fill-rule:nonzero;stroke:none"/></g><g id="g76" transform="translate(14,23.5)"><path id="path78" d="M 0,0 C 0,-0.276 -0.224,-0.5 -0.5,-0.5 -0.776,-0.5 -1,-0.276 -1,0 -1,0.276 -0.776,0.5 -0.5,0.5 -0.224,0.5 0,0.276 0,0" style="fill:#fff;fill-opacity:1;fill-rule:nonzero;stroke:none"/></g><g id="g80" transform="translate(33,34)"><path id="path82" d="m 0,0 c 0,-0.552 -0.447,-1 -1,-1 -0.553,0 -1,0.448 -1,1 0,0.552 0.447,1 1,1 0.553,0 1,-0.448 1,-1" style="fill:#fff;fill-opacity:1;fill-rule:nonzero;stroke:none"/></g><g id="g84" transform="translate(33,29.5)"><path id="path86" d="M 0,0 C 0,-0.276 -0.224,-0.5 -0.5,-0.5 -0.776,-0.5 -1,-0.276 -1,0 -1,0.276 -0.776,0.5 -0.5,0.5 -0.224,0.5 0,0.276 0,0" style="fill:#fff;fill-opacity:1;fill-rule:nonzero;stroke:none"/></g><g id="g88" transform="translate(18,5)"><path id="path90" d="m 0,0 c -0.423,0 -0.8,0.266 -0.942,0.664 l -5,14 C -6.051,14.97 -6.005,15.31 -5.817,15.576 -5.63,15.842 -5.325,16 -5,16 l 12,0 c 0.4,0 0.762,-0.238 0.919,-0.606 l 6,-14 C 14.052,1.085 14.02,0.73 13.835,0.449 13.649,0.169 13.336,0 13,0 L 0,0 Z" style="fill:#ffac33;fill-opacity:1;fill-rule:nonzero;stroke:none"/></g><g id="g92" transform="translate(7,5)"><path id="path94" d="M 0,0 C -0.336,0 -0.65,0.169 -0.835,0.449 -1.02,0.73 -1.052,1.085 -0.919,1.394 l 6,14 C 5.238,15.762 5.6,16 6,16 6.4,16 6.762,15.762 6.919,15.394 l 6,-14 C 13.052,1.085 13.02,0.73 12.835,0.449 12.65,0.169 12.336,0 12,0 L 0,0 Z" style="fill:#ffcc4d;fill-opacity:1;fill-rule:nonzero;stroke:none"/></g><g id="g96" transform="translate(13,20)"><path id="path98" d="M 0,0 -2,-15 2,-15 0,0 Z" style="fill:#292f33;fill-opacity:1;fill-rule:nonzero;stroke:none"/></g></g></g></g></svg>