<svg xmlns="http://www.w3.org/2000/svg" xmlns:svg="http://www.w3.org/2000/svg" style="enable-background:new 0 0 47.5 47.5" id="svg2" version="1.1" viewBox="0 0 47.5 47.5" xml:space="preserve"><metadata id="metadata8"/><defs id="defs6"><clipPath id="clipPath16" clipPathUnits="userSpaceOnUse"><path id="path18" d="M 0,38 38,38 38,0 0,0 0,38 Z"/></clipPath></defs><g id="g10" transform="matrix(1.25,0,0,-1.25,0,47.5)"><g id="g12"><g id="g14" clip-path="url(#clipPath16)"><g id="g20" transform="translate(15.5,5.5)"><path id="path22" d="m 0,0 c -0.768,0 -1.536,0.293 -2.121,0.879 l -11.5,11.5 c -1.172,1.171 -1.172,3.071 0,4.242 1.171,1.172 3.071,1.172 4.242,0 L 0,7.242 16.379,23.621 c 1.172,1.172 3.07,1.172 4.242,0 1.172,-1.171 1.172,-3.071 0,-4.242 L 2.121,0.879 C 1.536,0.293 0.768,0 0,0" style="fill:#414042;fill-opacity:1;fill-rule:nonzero;stroke:none"/></g></g></g></g></svg>