<svg xmlns="http://www.w3.org/2000/svg" xmlns:svg="http://www.w3.org/2000/svg" style="enable-background:new 0 0 47.5 47.5" id="svg2" version="1.1" viewBox="0 0 47.5 47.5" xml:space="preserve"><metadata id="metadata8"/><defs id="defs6"><clipPath id="clipPath16" clipPathUnits="userSpaceOnUse"><path id="path18" d="M 0,38 38,38 38,0 0,0 0,38 Z"/></clipPath></defs><g id="g10" transform="matrix(1.25,0,0,-1.25,0,47.5)"><g id="g12"><g id="g14" clip-path="url(#clipPath16)"><g id="g20" transform="translate(35.3467,20.1069)"><path id="path22" d="m 0,0 -8.899,3.294 -3.323,10.891 c -0.128,0.42 -0.516,0.708 -0.956,0.708 -0.439,0 -0.828,-0.288 -0.956,-0.708 L -17.456,3.294 -26.356,0 c -0.393,-0.146 -0.653,-0.52 -0.653,-0.938 0,-0.418 0.26,-0.793 0.653,-0.937 l 8.896,-3.293 3.323,-11.223 c 0.126,-0.425 0.516,-0.716 0.959,-0.716 0.443,0 0.833,0.291 0.959,0.716 l 3.324,11.223 8.896,3.293 c 0.392,0.144 0.652,0.519 0.652,0.937 C 0.653,-0.52 0.393,-0.146 0,0" style="fill:#aa8ed6;fill-opacity:1;fill-rule:nonzero;stroke:none"/></g><g id="g24" transform="translate(15.3472,9.1064)"><path id="path26" d="m 0,0 -2.313,0.856 -0.9,3.3 c -0.119,0.436 -0.514,0.738 -0.965,0.738 -0.451,0 -0.846,-0.302 -0.965,-0.738 l -0.9,-3.3 L -8.356,0 c -0.393,-0.145 -0.653,-0.52 -0.653,-0.937 0,-0.418 0.26,-0.793 0.653,-0.938 l 2.301,-0.853 0.907,-3.622 c 0.111,-0.444 0.511,-0.756 0.97,-0.756 0.458,0 0.858,0.312 0.97,0.756 L -2.301,-2.728 0,-1.875 c 0.393,0.145 0.653,0.52 0.653,0.938 C 0.653,-0.52 0.393,-0.145 0,0" style="fill:#fcab40;fill-opacity:1;fill-rule:nonzero;stroke:none"/></g><g id="g28" transform="translate(11.0093,30.769)"><path id="path30" d="M 0,0 -2.365,0.875 -3.24,3.24 c -0.146,0.393 -0.52,0.653 -0.938,0.653 -0.419,0 -0.793,-0.26 -0.938,-0.653 L -5.992,0.875 -8.356,0 c -0.393,-0.146 -0.653,-0.52 -0.653,-0.938 0,-0.418 0.26,-0.792 0.653,-0.938 l 2.364,-0.875 0.876,-2.365 c 0.145,-0.393 0.519,-0.653 0.938,-0.653 0.418,0 0.792,0.26 0.938,0.653 L -2.365,-2.751 0,-1.876 c 0.393,0.146 0.653,0.52 0.653,0.938 C 0.653,-0.52 0.393,-0.146 0,0" style="fill:#5dadec;fill-opacity:1;fill-rule:nonzero;stroke:none"/></g></g></g></g></svg>