<svg xmlns="http://www.w3.org/2000/svg" xmlns:svg="http://www.w3.org/2000/svg" style="enable-background:new 0 0 47.5 47.5" id="svg2" version="1.1" viewBox="0 0 47.5 47.5" xml:space="preserve"><metadata id="metadata8"/><defs id="defs6"><clipPath id="clipPath16" clipPathUnits="userSpaceOnUse"><path id="path18" d="M 0,38 38,38 38,0 0,0 0,38 Z"/></clipPath></defs><g id="g10" transform="matrix(1.25,0,0,-1.25,0,47.5)"><g id="g12"><g id="g14" clip-path="url(#clipPath16)"><g id="g20" transform="translate(34.999,21)"><path id="path22" d="m 0,0 -11.171,0 7.9,7.899 c 0.781,0.782 0.782,2.047 0,2.829 -0.782,0.781 -2.047,0.781 -2.829,-10e-4 l -7.899,-7.899 0,11.172 c 0,1.104 -0.896,2 -2,2 -1.105,0 -2,-0.896 -2,-2 l 0,-11.171 -7.899,7.899 c -0.782,0.781 -2.048,0.781 -2.829,0 -0.781,-0.781 -0.781,-2.047 0,-2.828 l 7.9,-7.9 -11.172,0 c -1.105,0 -2.001,-0.896 -2,-2 0,-1.104 0.895,-2 1.999,-2 l 11.174,0 -7.901,-7.9 c -0.781,-0.781 -0.781,-2.047 0,-2.829 0.781,-0.78 2.047,-0.78 2.828,0 l 7.9,7.901 0,-11.172 c 0,-1.104 0.895,-2 2,-2 1.104,0 2,0.896 2,2 l 0,11.172 7.899,-7.9 c 0.782,-0.781 2.047,-0.782 2.829,-10e-4 0.781,0.782 0.781,2.048 0,2.83 L -11.171,-4 0,-4 c 1.105,0 2.001,0.895 2.001,1.999 C 2.001,-0.896 1.105,0 0,0" style="fill:#aa8dd8;fill-opacity:1;fill-rule:nonzero;stroke:none"/></g></g></g></g></svg>