<svg xmlns="http://www.w3.org/2000/svg" xmlns:svg="http://www.w3.org/2000/svg" style="enable-background:new 0 0 47.5 47.5" id="svg2" version="1.1" viewBox="0 0 47.5 47.5" xml:space="preserve"><metadata id="metadata8"/><defs id="defs6"><clipPath id="clipPath16" clipPathUnits="userSpaceOnUse"><path id="path18" d="M 0,38 38,38 38,0 0,0 0,38 Z"/></clipPath></defs><g id="g10" transform="matrix(1.25,0,0,-1.25,0,47.5)"><g id="g12"><g id="g14" clip-path="url(#clipPath16)"><g id="g20" transform="translate(16,19)"><path id="path22" d="M 0,0 C 0,1.657 1.343,3 3,3 4.656,3 6,1.657 6,0 6,-1.656 4.656,-3 3,-3 1.343,-3 0,-1.656 0,0" style="fill:#ffac33;fill-opacity:1;fill-rule:nonzero;stroke:none"/></g><g id="g24" transform="translate(21,35)"><path id="path26" d="M 0,0 C 0,1.104 -0.896,2 -2,2 -3.104,2 -4,1.104 -4,0 l 0,-10 c 0,-1.104 0.896,-2 2,-2 1.104,0 2,0.896 2,2 L 0,0 Z" style="fill:#ffac33;fill-opacity:1;fill-rule:nonzero;stroke:none"/></g><g id="g28" transform="translate(21,13)"><path id="path30" d="M 0,0 C 0,1.104 -0.896,2 -2,2 -3.104,2 -4,1.104 -4,0 l 0,-10 c 0,-1.104 0.896,-2 2,-2 1.104,0 2,0.896 2,2 L 0,0 Z" style="fill:#ffac33;fill-opacity:1;fill-rule:nonzero;stroke:none"/></g><g id="g32" transform="translate(3,21)"><path id="path34" d="m 0,0 c -1.104,0 -2,-0.896 -2,-2 0,-1.104 0.896,-2 2,-2 l 10,0 c 1.104,0 2,0.896 2,2 0,1.104 -0.896,2 -2,2 L 0,0 Z" style="fill:#ffac33;fill-opacity:1;fill-rule:nonzero;stroke:none"/></g><g id="g36" transform="translate(25,21)"><path id="path38" d="m 0,0 c -1.104,0 -2,-0.896 -2,-2 0,-1.104 0.896,-2 2,-2 l 10,0 c 1.104,0 2,0.896 2,2 0,1.104 -0.896,2 -2,2 L 0,0 Z" style="fill:#ffac33;fill-opacity:1;fill-rule:nonzero;stroke:none"/></g><g id="g40" transform="translate(16.1714,23.2427)"><path id="path42" d="m 0,0 c 0.391,-0.391 0.391,-1.024 0,-1.414 -0.39,-0.391 -1.023,-0.391 -1.414,0 l -8.485,8.485 c -0.391,0.39 -0.391,1.024 0,1.414 0.39,0.391 1.024,0.391 1.414,0 L 0,0 Z" style="fill:#ffac33;fill-opacity:1;fill-rule:nonzero;stroke:none"/></g><g id="g44" transform="translate(31.7275,7.6865)"><path id="path46" d="m 0,0 c 0.392,-0.391 0.391,-1.024 0,-1.414 -0.39,-0.391 -1.023,-0.392 -1.414,0 l -8.485,8.485 c -0.391,0.391 -0.391,1.024 0,1.414 0.39,0.391 1.023,0.391 1.414,0 L 0,0 Z" style="fill:#ffac33;fill-opacity:1;fill-rule:nonzero;stroke:none"/></g><g id="g48" transform="translate(14.7573,16.1719)"><path id="path50" d="m 0,0 c 0.391,0.391 1.024,0.391 1.414,0 0.391,-0.391 0.391,-1.023 0,-1.414 L -7.071,-9.9 c -0.39,-0.391 -1.024,-0.391 -1.414,0 -0.391,0.39 -0.391,1.024 0,1.415 L 0,0 Z" style="fill:#ffac33;fill-opacity:1;fill-rule:nonzero;stroke:none"/></g><g id="g52" transform="translate(30.3135,31.7275)"><path id="path54" d="m 0,0 c 0.391,0.392 1.024,0.391 1.414,0 0.391,-0.39 0.392,-1.023 0,-1.414 l -8.485,-8.485 c -0.391,-0.391 -1.024,-0.391 -1.414,0 -0.391,0.39 -0.391,1.023 0,1.414 L 0,0 Z" style="fill:#ffac33;fill-opacity:1;fill-rule:nonzero;stroke:none"/></g></g></g></g></svg>