<svg xmlns="http://www.w3.org/2000/svg" xmlns:svg="http://www.w3.org/2000/svg" style="enable-background:new 0 0 47.5 47.5" id="svg2" version="1.1" viewBox="0 0 47.5 47.5" xml:space="preserve"><metadata id="metadata8"/><defs id="defs6"><clipPath id="clipPath16" clipPathUnits="userSpaceOnUse"><path id="path18" d="M 0,38 38,38 38,0 0,0 0,38 Z"/></clipPath></defs><g id="g10" transform="matrix(1.25,0,0,-1.25,0,47.5)"><g id="g12"><g id="g14" clip-path="url(#clipPath16)"><g id="g20" transform="translate(22.5332,18.9976)"><path id="path22" d="m 0,0 12.234,12.234 c 0.977,0.976 0.977,2.559 0,3.536 -0.976,0.976 -2.558,0.976 -3.535,0 L -3.535,3.535 -15.77,15.77 c -0.975,0.976 -2.559,0.976 -3.535,0 -0.976,-0.977 -0.976,-2.56 0,-3.536 L -7.07,0 -19.332,-12.262 c -0.977,-0.977 -0.977,-2.559 0,-3.535 0.488,-0.489 1.128,-0.733 1.768,-0.733 0.639,0 1.279,0.244 1.767,0.733 L -3.535,-3.535 8.699,-15.769 c 0.489,-0.488 1.128,-0.732 1.768,-0.732 0.639,0 1.279,0.244 1.767,0.732 0.977,0.977 0.977,2.559 0,3.535 L 0,0 Z" style="fill:#dd2e44;fill-opacity:1;fill-rule:nonzero;stroke:none"/></g></g></g></g></svg>