<svg xmlns="http://www.w3.org/2000/svg" xmlns:svg="http://www.w3.org/2000/svg" style="enable-background:new 0 0 47.5 47.5" id="svg2" version="1.1" viewBox="0 0 47.5 47.5" xml:space="preserve"><metadata id="metadata8"/><defs id="defs6"><clipPath id="clipPath16" clipPathUnits="userSpaceOnUse"><path id="path18" d="M 0,38 38,38 38,0 0,0 0,38 Z"/></clipPath></defs><g id="g10" transform="matrix(1.25,0,0,-1.25,0,47.5)"><g id="g12"><g id="g14" clip-path="url(#clipPath16)"><g id="g20" transform="translate(32,22)"><path id="path22" d="m 0,0 -10,0 0,10 c 0,1.657 -1.343,3 -3,3 -1.657,0 -3,-1.343 -3,-3 l 0,-10 -10,0 c -1.657,0 -3,-1.343 -3,-3 0,-1.657 1.343,-3 3,-3 l 10,0 0,-10 c 0,-1.657 1.343,-3 3,-3 1.657,0 3,1.343 3,3 l 0,10 10,0 c 1.657,0 3,1.343 3,3 0,1.657 -1.343,3 -3,3" style="fill:#414042;fill-opacity:1;fill-rule:nonzero;stroke:none"/></g></g></g></g></svg>