<svg xmlns="http://www.w3.org/2000/svg" xmlns:svg="http://www.w3.org/2000/svg" style="enable-background:new 0 0 47.5 47.5" id="svg2" version="1.1" viewBox="0 0 47.5 47.5" xml:space="preserve"><metadata id="metadata8"/><defs id="defs6"><clipPath id="clipPath16" clipPathUnits="userSpaceOnUse"><path id="path18" d="M 0,38 38,38 38,0 0,0 0,38 Z"/></clipPath></defs><g id="g10" transform="matrix(1.25,0,0,-1.25,0,47.5)"><g id="g12"><g id="g14" clip-path="url(#clipPath16)"><g id="g20" transform="translate(19,7)"><path id="path22" d="m 0,0 c -6.627,0 -12,5.373 -12,12 0,6.628 5.373,12 12,12 C 6.627,24 12,18.628 12,12 12,5.373 6.627,0 0,0 M 0,30 C -9.941,30 -18,21.941 -18,12 -18,2.059 -9.941,-6 0,-6 9.941,-6 18,2.059 18,12 18,21.941 9.941,30 0,30" style="fill:#dd2e44;fill-opacity:1;fill-rule:nonzero;stroke:none"/></g></g></g></g></svg>