<svg xmlns="http://www.w3.org/2000/svg" xmlns:svg="http://www.w3.org/2000/svg" style="enable-background:new 0 0 47.5 47.5" id="svg2" version="1.1" viewBox="0 0 47.5 47.5" xml:space="preserve"><metadata id="metadata8"/><defs id="defs6"><clipPath id="clipPath16" clipPathUnits="userSpaceOnUse"><path id="path18" d="M 0,38 38,38 38,0 0,0 0,38 Z"/></clipPath></defs><g id="g10" transform="matrix(1.25,0,0,-1.25,0,47.5)"><g id="g12"><g id="g14" clip-path="url(#clipPath16)"><g id="g20" transform="translate(37,5)"><path id="path22" d="m 0,0 c 0,-2.209 -1.791,-4 -4,-4 l -28,0 c -2.209,0 -4,1.791 -4,4 l 0,28 c 0,2.209 1.791,4 4,4 l 28,0 c 2.209,0 4,-1.791 4,-4 L 0,0 Z" style="fill:#3b88c3;fill-opacity:1;fill-rule:nonzero;stroke:none"/></g><g id="g24" transform="translate(22.3809,19.0381)"><path id="path26" d="m 0,0 c 0,2.356 -0.217,7.193 -3.379,7.193 -3.163,0 -3.38,-4.837 -3.38,-7.193 0,-2.201 0.217,-7.193 3.38,-7.193 C -0.217,-7.193 0,-2.201 0,0 m -11.596,0 c 0,5.054 1.954,11.41 8.217,11.41 6.264,0 8.217,-6.356 8.217,-11.41 0,-5.054 -1.953,-11.41 -8.217,-11.41 -6.263,0 -8.217,6.356 -8.217,11.41" style="fill:#fff;fill-opacity:1;fill-rule:nonzero;stroke:none"/></g></g></g></g></svg>