<svg xmlns="http://www.w3.org/2000/svg" xmlns:svg="http://www.w3.org/2000/svg" style="enable-background:new 0 0 47.5 47.5" id="svg2" version="1.1" viewBox="0 0 47.5 47.5" xml:space="preserve"><metadata id="metadata8"/><defs id="defs6"><clipPath id="clipPath16" clipPathUnits="userSpaceOnUse"><path id="path18" d="M 0,38 38,38 38,0 0,0 0,38 Z"/></clipPath></defs><g id="g10" transform="matrix(1.25,0,0,-1.25,0,47.5)"><g id="g12"><g id="g14" clip-path="url(#clipPath16)"><g id="g20" transform="translate(37,5)"><path id="path22" d="m 0,0 c 0,-2.209 -1.791,-4 -4,-4 l -28,0 c -2.209,0 -4,1.791 -4,4 l 0,28 c 0,2.209 1.791,4 4,4 l 28,0 c 2.209,0 4,-1.791 4,-4 L 0,0 Z" style="fill:#3b88c3;fill-opacity:1;fill-rule:nonzero;stroke:none"/></g><g id="g24" transform="translate(16.769,23.999)"><path id="path26" d="m 0,0 c 0,-1.396 0.807,-2.356 2.232,-2.356 1.427,0 2.265,0.96 2.265,2.356 0,1.333 -0.807,2.356 -2.265,2.356 C 0.775,2.356 0,1.333 0,0 m -0.589,-8.991 c 0,-1.582 0.93,-3.102 2.821,-3.102 1.768,0 2.822,1.52 2.822,3.102 0,1.953 -1.116,3.1 -2.822,3.1 -1.797,0 -2.821,-1.364 -2.821,-3.1 m -4.837,-0.311 c 0,2.481 1.364,4.31 3.318,5.364 -1.457,1.054 -2.357,2.481 -2.357,4.434 0,3.628 3.008,5.953 6.697,5.953 3.597,0 6.729,-2.294 6.729,-5.953 0,-1.736 -0.869,-3.473 -2.388,-4.434 2.109,-1.054 3.318,-2.976 3.318,-5.364 0,-4.309 -3.504,-7.069 -7.659,-7.069 -4.278,0 -7.658,2.915 -7.658,7.069" style="fill:#fff;fill-opacity:1;fill-rule:nonzero;stroke:none"/></g></g></g></g></svg>